<svg width="756" height="233" viewBox="0 0 756 233" fill="none" xmlns="http://www.w3.org/2000/svg">
<path d="M347.025 222.4V197.772H361.204V200.392H350.15V208.759H359.524V211.346H350.15V222.4H347.025ZM364.155 222.4L372.488 197.772H375.983L384.315 222.4H381.056L376.722 208.624C375.848 205.869 375.075 203.181 374.269 200.325H374.135C373.328 203.181 372.555 205.869 371.648 208.624L367.314 222.4H364.155ZM368.523 214.874V212.421H379.88V214.874H368.523ZM399.863 222.871C393.647 222.871 389.346 217.898 389.346 210.002C389.346 202.106 393.647 197.335 399.863 197.335C406.046 197.335 410.346 202.14 410.346 210.002C410.346 217.898 406.046 222.871 399.863 222.871ZM399.863 220.284C404.265 220.284 407.188 216.319 407.188 210.002C407.188 203.853 404.265 200.056 399.863 200.056C395.428 200.056 392.538 203.853 392.538 210.002C392.538 216.319 395.428 220.284 399.863 220.284ZM407.39 228.616C402.686 228.616 399.494 225.928 398.183 222.333L401.409 222.098C402.383 224.685 404.802 225.996 407.726 225.996C408.834 225.996 409.641 225.861 410.313 225.626L410.918 228.045C410.145 228.348 408.868 228.616 407.39 228.616Z" fill="#919DDA"/>
<path d="M248.544 133.183C248.352 134.383 248.208 136.687 248.16 138.319C248.112 140.575 248.16 143.647 248.16 146.671C248.16 151.951 248.976 161.887 248.976 166.015C248.976 170.095 246.672 173.743 239.568 173.743C232.8 173.743 227.616 171.583 227.616 165.631C227.616 161.023 231.6 157.279 240.144 157.279C249.84 157.279 258.576 162.223 263.472 166.687L260.544 171.247C255.792 166.447 248.016 161.503 239.472 161.503C235.056 161.503 232.464 163.039 232.464 165.439C232.464 167.935 235.056 169.183 239.136 169.183C242.448 169.183 243.888 167.647 243.888 164.383C243.888 160.927 243.312 151.423 243.312 146.671C243.312 143.839 243.312 140.383 243.264 138.319C243.216 136.303 243.072 134.191 242.832 133.183H248.544ZM245.568 142.639C248.64 142.639 256.704 142.447 262.032 141.823L262.176 146.335C256.896 146.815 248.784 147.103 245.568 147.103V142.639ZM309.216 136.159C307.968 137.119 306.432 138.367 305.52 139.135C302.304 141.871 295.632 147.055 292.224 149.935C289.488 152.287 289.488 152.959 292.368 155.407C296.4 158.719 305.184 165.727 310.176 170.671L305.808 174.703C304.656 173.359 303.408 172.063 302.112 170.767C298.944 167.503 291.744 161.359 287.328 157.663C282.672 153.727 283.152 151.471 287.664 147.631C291.36 144.607 298.368 139.039 301.584 135.823C302.736 134.671 304.08 133.231 304.752 132.223L309.216 136.159ZM350.736 132.943C350.496 133.711 350.304 134.575 350.112 135.247C349.296 139.471 348.48 146.767 348.48 153.103C348.48 159.871 349.824 165.487 351.36 170.143L346.992 171.487C345.552 167.167 344.208 160.207 344.208 153.727C344.208 147.247 345.168 139.807 345.648 135.391C345.696 134.479 345.792 133.519 345.744 132.799L350.736 132.943ZM342.624 138.607C351.36 138.607 359.232 138.031 366.192 136.399L366.24 140.815C359.472 142.015 349.728 142.735 342.528 142.735C340.272 142.735 336.528 142.543 334.416 142.447L334.32 137.983C336 138.271 340.176 138.607 342.624 138.607ZM362.928 144.847C362.64 145.615 362.064 147.295 361.776 148.159C358.944 156.943 354.096 163.519 349.296 167.167C346.176 169.519 342.192 171.439 338.448 171.439C335.136 171.439 332.448 169.423 332.448 165.007C332.448 158.335 338.544 151.423 345.888 148.687C349.056 147.487 352.944 146.767 356.304 146.767C365.328 146.767 371.424 151.999 371.424 159.055C371.424 165.919 367.104 172.159 355.68 173.935L353.136 169.903C362.064 168.943 366.72 164.383 366.72 158.815C366.72 154.399 362.976 150.607 356.112 150.607C351.936 150.607 348.432 151.807 346.032 152.863C340.896 155.215 336.96 160.207 336.96 164.095C336.96 165.871 337.776 166.783 339.456 166.783C341.808 166.783 344.976 165.343 348 162.607C351.936 159.151 355.536 154.351 357.648 147.055C357.888 146.191 358.176 144.607 358.224 143.695L362.928 144.847ZM391.44 135.343C392.64 135.487 394.128 135.535 395.232 135.535C397.776 135.535 408.672 135.247 411.312 135.007C412.992 134.863 413.856 134.719 414.384 134.527L416.976 137.983C416.016 138.655 414.96 139.279 414 140.047C411.504 141.871 405.648 146.863 402.192 149.647C404.16 149.071 406.08 148.879 407.952 148.879C416.016 148.879 421.92 153.775 421.92 160.495C421.92 168.175 415.824 173.599 405.024 173.599C398.448 173.599 393.984 170.671 393.984 166.303C393.984 162.751 397.2 159.535 401.904 159.535C408.384 159.535 411.792 163.999 412.032 169.039L407.616 169.711C407.424 165.871 405.312 163.183 401.904 163.183C399.888 163.183 398.448 164.431 398.448 165.919C398.448 167.983 400.8 169.327 404.16 169.327C412.32 169.327 417.024 166.063 417.024 160.447C417.024 155.887 412.608 152.623 406.608 152.623C398.88 152.623 394.368 156.223 388.704 162.271L385.248 158.719C388.992 155.695 394.992 150.655 397.776 148.303C400.464 146.095 406.032 141.487 408.432 139.375C405.936 139.471 397.632 139.807 395.088 139.951C393.936 140.047 392.64 140.143 391.584 140.287L391.44 135.343ZM452.976 130.783L455.856 133.519C451.872 134.719 446.112 135.439 441.36 135.775C441.216 135.007 440.736 133.711 440.304 132.943C444.768 132.511 450 131.695 452.976 130.783ZM473.664 130.831L476.544 133.567C472.272 134.767 466.128 135.487 460.992 135.823C460.848 135.007 460.368 133.759 459.984 132.943C464.784 132.559 470.448 131.743 473.664 130.831ZM439.056 131.887L444.096 133.231C444.048 133.567 443.808 133.759 443.088 133.903V136.687C443.088 140.335 442.176 145.711 438.048 149.551C437.424 148.639 435.984 147.247 435.024 146.671C438.528 143.503 439.056 139.615 439.056 136.495V131.887ZM458.832 131.983L463.824 133.183C463.776 133.567 463.536 133.759 462.816 133.855V136.495C462.816 139.807 461.76 144.415 456.96 147.631C456.432 146.671 455.088 145.231 454.176 144.607C458.112 142.063 458.832 139.039 458.832 136.303V131.983ZM440.88 137.743H457.008V141.151H440.88V137.743ZM460.56 137.743H478.704V141.151H460.56V137.743ZM447.792 138.943H451.824V146.719H447.792V138.943ZM467.952 138.943H472.032V146.815H467.952V138.943ZM445.968 156.079V158.911H468.816V156.079H445.968ZM445.968 161.647V164.479H468.816V161.647H445.968ZM445.968 150.559V153.343H468.816V150.559H445.968ZM441.552 147.679H473.376V167.359H441.552V147.679ZM460.608 169.855L464.352 167.647C469.536 169.327 475.392 171.583 478.848 173.215L473.664 175.375C470.784 173.791 465.696 171.631 460.608 169.855ZM449.616 167.503L453.744 169.375C449.856 171.775 443.712 174.079 438.864 175.423C438.096 174.511 436.512 172.831 435.504 172.063C440.496 171.055 446.256 169.375 449.616 167.503ZM502.608 153.919H518.976V168.463H502.608V164.719H514.704V157.711H502.608V153.919ZM500.64 153.919H504.864V171.295H500.64V153.919ZM492.336 139.615H505.104V142.831H492.336V139.615ZM514.512 139.615H527.472V142.831H514.512V139.615ZM525.504 132.655H530.112V169.519C530.112 172.303 529.488 173.647 527.76 174.415C525.936 175.183 523.056 175.231 518.736 175.231C518.592 173.983 517.824 171.823 517.152 170.623C520.176 170.767 523.392 170.719 524.304 170.671C525.216 170.671 525.504 170.383 525.504 169.471V132.655ZM492.672 132.655H507.984V150.031H492.672V146.479H503.712V136.207H492.672V132.655ZM527.952 132.655V136.207H516.144V146.575H527.952V150.079H511.824V132.655H527.952ZM490.128 132.655H494.64V175.279H490.128V132.655Z" fill="white"/>
<path d="M168 56.2132C168 60.1144 166.137 62.8681 161.825 66.9988C157.674 71.0147 157.088 72.5064 156.875 77.6124H151.659C151.872 71.0721 152.298 69.6952 157.727 63.9008C161.719 59.598 162.198 57.8195 162.198 56.041C162.198 50.9351 157.461 50.4761 155.172 50.4761C147.454 50.4761 147.242 56.0984 147.188 59.0243H141.6C141.706 56.6147 141.866 53.9183 143.622 51.1072C146.23 46.8044 150.861 45.5996 155.385 45.5996C163.529 45.5996 168 50.4187 168 56.2132ZM157.301 88.7996H151.553V82.8904H157.301V88.7996Z" fill="#919DDA"/>
<path d="M184.8 67.2H573.6" stroke="#919DDA" stroke-width="2.4" stroke-linecap="round"/>
<path d="M373.001 109.12C352.339 95.2404 325.536 95.2404 304.874 109.12V36.8264C308.09 34.7295 311.404 32.8323 314.815 31.4343" fill="#2B5174"/>
<path d="M373.001 109.12C352.339 95.2404 325.536 95.2404 304.874 109.12V36.8264C308.09 34.7295 311.404 32.8323 314.815 31.4343" stroke="white" stroke-width="5.67273" stroke-linecap="round" stroke-linejoin="round"/>
<path d="M372.999 109.122C359.159 91.148 335.768 75.0717 315.009 89.75V13.4624C335.671 -1.216 360.621 11.1658 372.999 32.8339C372.999 58.2964 372.999 83.7589 372.999 109.221V109.122Z" fill="#2B5174" stroke="white" stroke-width="5.67273" stroke-linecap="round" stroke-linejoin="round"/>
<path d="M373 109.12C393.662 95.2404 420.464 95.2404 441.126 109.12V36.8264C437.91 34.7295 434.596 32.8323 431.185 31.4343" fill="#2B5174"/>
<path d="M373 109.12C393.662 95.2404 420.464 95.2404 441.126 109.12V36.8264C437.91 34.7295 434.596 32.8323 431.185 31.4343" stroke="white" stroke-width="5.67273" stroke-linecap="round" stroke-linejoin="round"/>
<path d="M373 109.122C386.84 91.148 410.231 75.0717 430.99 89.75V13.4624C410.328 -1.216 385.378 11.1658 373 32.8339C373 58.2964 373 83.7589 373 109.221V109.122Z" fill="#2B5174" stroke="white" stroke-width="5.67273" stroke-linecap="round" stroke-linejoin="round"/>
<path d="M597.376 74.988L595.904 51.592L595.712 43.2H604.288L604.096 51.592L602.624 74.988H597.376ZM600 91.2C597.312 91.2 595.2 89.2291 595.2 86.3682C595.2 83.5072 597.312 81.5364 600 81.5364C602.688 81.5364 604.8 83.5072 604.8 86.3682C604.8 89.2291 602.688 91.2 600 91.2Z" fill="#919DDA"/>
</svg>
