<svg width="177" height="172" viewBox="0 0 177 172" fill="none" xmlns="http://www.w3.org/2000/svg">
<g clip-path="url(#clip0_2104_4202)">
<path d="M82.92 116.74C83.12 116.79 83.33 116.83 83.53 116.88V113.2C83.53 111.94 84.56 111 85.78 110.95C87 110.9 88.03 112.02 88.03 113.2V117.64C88.42 117.68 88.8 117.71 89.19 117.73V113.2C89.19 111.94 90.22 111 91.44 110.95C92.66 110.9 93.69 112.02 93.69 113.2V117.65C94.08 117.61 94.46 117.57 94.85 117.52V113.2C94.85 111.94 95.88 111 97.1 110.95C98.32 110.9 99.35 112.02 99.35 113.2V116.5C104.48 114.9 108.59 111.93 111.61 107.37C114.54 102.96 117.79 96.8797 118.55 92.0897C119 89.2597 119.19 86.3697 119.48 83.5097C119.57 82.5997 120.1 81.5097 121.13 81.3397C125.27 80.6797 129.2 79.0497 130.66 74.8597C131.51 72.4097 132.03 69.5197 131.26 66.9797C130.97 66.0197 130.47 65.1097 129.58 64.5897C129.04 64.2797 128.47 64.1797 127.88 64.3797C127.61 64.4697 126.9 65.0497 127.26 64.7197C126.72 65.2097 126.11 65.3697 125.53 65.3097C124.43 66.1897 122.39 66.0697 121.77 64.3097C121.39 63.2197 121.01 62.1397 120.62 61.0497C120.46 61.0897 120.29 61.1397 120.13 61.1797C118.63 61.5697 117.13 61.9697 115.63 62.3597C115.67 62.6097 115.69 62.8697 115.71 63.1197C115.75 63.2997 115.78 63.4897 115.77 63.6997C115.68 68.6997 111.47 72.4397 106.73 73.1897C102.29 73.8997 97.54 72.4297 94.86 68.6797C94.03 67.5097 93.57 66.2097 93.39 64.8797H88.46C87.75 69.3697 83.59 72.5097 79.18 73.1797C74.59 73.8797 69.61 72.4897 66.77 68.6497C65.18 66.4997 64.83 63.8697 65.49 61.4697C64.04 61.0497 62.59 60.6297 61.14 60.2097C60.8 60.1097 60.51 59.9397 60.27 59.7197C59.99 60.4197 59.69 61.1097 59.33 61.7897C59.03 62.3597 58.61 62.6697 58.14 62.8197C57.5 63.4097 56.56 63.6697 55.57 63.1597C55.55 63.1497 55.52 63.1297 55.48 63.1197C55.27 63.0397 55.07 62.9597 54.85 62.8997C54.19 62.6997 53.55 62.5797 52.86 62.6597C50.39 62.9497 49.36 66.1097 49.02 68.1897C48.56 70.9797 49.56 74.4097 51.06 76.7797C52.61 79.2197 55.97 79.6697 58.4 81.0097C60.71 82.2897 60.73 85.9297 61.26 88.2797C62.06 91.8297 62.76 95.4397 63.96 98.8797C67.1 107.88 73.61 114.35 82.89 116.74H82.92ZM91.24 78.9897C94.14 78.9897 94.14 83.4897 91.24 83.4897C88.34 83.4897 88.34 78.9897 91.24 78.9897ZM81.68 91.3097C82.07 90.9897 82.56 90.7797 83.09 90.7797H99.01C100.16 90.7797 101.35 91.8197 101.26 93.0297C101.06 95.6897 100.24 98.1697 98.48 100.2C96 103.06 91.73 104.18 88.15 102.97C83.95 101.56 81.65 97.8697 80.96 93.6897C80.89 93.4797 80.84 93.2597 80.84 93.0197C80.76 92.3297 81.14 91.7097 81.68 91.2997V91.3097Z" fill="white"/>
<path d="M96.2804 95.2795H85.9404C86.1604 95.6695 86.3404 96.0795 86.5904 96.4595C86.7204 96.6595 87.0104 96.9995 86.6904 96.6295C86.8404 96.7995 86.9704 96.9695 87.1304 97.1395C87.2804 97.2995 87.4304 97.4495 87.6004 97.5995C87.6304 97.6195 87.7104 97.6995 87.7904 97.7595C87.8704 97.8195 88.0004 97.9195 88.0404 97.9495C88.1804 98.0395 88.3104 98.1295 88.4504 98.2095C88.6304 98.3095 88.8104 98.4095 89.0004 98.4995C89.0204 98.4995 89.0404 98.5195 89.0604 98.5295C89.3704 98.6095 89.6804 98.7495 90.0004 98.8195C90.1704 98.8595 90.3504 98.8895 90.5204 98.9295C90.5404 98.9295 90.5604 98.9295 90.5904 98.9295C90.9004 98.9495 91.2104 98.9595 91.5204 98.9495C91.5804 98.9495 91.6904 98.9495 91.7904 98.9495C91.8104 98.9495 91.8104 98.9395 91.8504 98.9295C91.9404 98.9095 92.0304 98.8995 92.1104 98.8795C92.4204 98.8195 92.7204 98.7395 93.0104 98.6395C93.0904 98.6095 93.1704 98.5795 93.2504 98.5495C93.3604 98.4995 93.4704 98.4495 93.5804 98.3895C93.8804 98.2295 94.1404 98.0195 94.4304 97.8595C94.4704 97.8295 94.5004 97.7995 94.5404 97.7695C94.6604 97.6595 94.7804 97.5495 94.9004 97.4295C95.0404 97.2995 95.1604 97.1495 95.2904 97.0095C95.3204 96.9795 95.3404 96.9495 95.3704 96.9095C95.5604 96.5795 95.8004 96.2695 95.9804 95.9195C96.0404 95.7995 96.1004 95.6795 96.1504 95.5695C96.0704 95.7295 96.2004 95.4495 96.2704 95.2695L96.2804 95.2795Z" fill="white"/>
<path d="M102.73 68.72C104.09 69.03 105.54 68.97 106.95 68.56C108.22 68.19 109.25 67.58 110.15 66.59C110.89 65.77 111.27 64.78 111.29 63.72C111.29 63.65 111.26 63.28 111.26 63.15C111.23 63.03 111.17 62.74 111.18 62.77C111.12 62.56 111.06 62.34 110.98 62.14C111.02 62.23 111.15 62.46 110.94 62.07C110.78 61.76 110.61 61.46 110.41 61.17C110.36 61.11 110.19 60.89 110.15 60.86C110.02 60.72 109.89 60.58 109.75 60.45C109.28 60 108.73 59.63 107.95 59.25C107.5 59.03 106.56 58.75 105.82 58.62C105.54 58.57 105.13 58.55 104.67 58.54C104.26 58.54 103.85 58.54 103.44 58.59C103.46 58.59 102.82 58.7 102.61 58.75C102.24 58.84 101.87 58.95 101.51 59.08C101.07 59.24 100.24 59.68 99.6795 60.11C99.8795 59.96 99.3395 60.42 99.2395 60.52C99.0995 60.65 98.9695 60.8 98.8495 60.94C98.8195 60.97 98.7295 61.1 98.6695 61.16C97.2695 63.15 97.5295 65.26 99.2395 66.93C100.14 67.82 101.33 68.41 102.74 68.73L102.73 68.72ZM104.86 59.92C107.76 59.92 107.76 64.42 104.86 64.42C101.96 64.42 101.96 59.92 104.86 59.92Z" fill="white"/>
<path d="M91.07 128.64C91.07 128.64 91.15 128.69 91.19 128.71C91.23 128.69 91.26 128.66 91.3 128.64C92.46 128.08 93.62 127.52 94.79 126.96C101.19 123.87 107.58 120.79 113.98 117.7C113.76 115.98 113.56 114.25 113.36 112.53C112.05 114.13 110.59 115.59 108.9 116.83C105.17 119.56 100.59 121.18 96.05 121.89C88.32 123.09 79.85 121.58 73.09 117.56C70.52 116.04 68.32 114.13 66.41 111.96C66.33 113.76 66.14 115.56 65.87 117.33C74.27 121.1 82.68 124.87 91.08 128.64H91.07Z" fill="white"/>
<path d="M69.8204 62.6203C69.5904 63.3803 69.6104 63.3603 69.6704 64.1703C69.6404 63.7703 69.7104 64.3903 69.7304 64.4703C69.7704 64.6503 69.8304 64.8303 69.8904 65.0103C69.9104 65.0603 69.9804 65.2203 70.0004 65.2903C70.0504 65.4003 70.1104 65.5103 70.1704 65.6203C70.5004 66.1903 70.6504 66.3803 71.2104 66.9003C73.2004 68.7603 76.5804 69.3303 79.3704 68.5703C80.7404 68.2003 81.9304 67.5503 82.8704 66.5603C83.2204 66.1903 83.1904 66.2303 83.3904 65.9103C83.4904 65.7503 83.5904 65.5803 83.6804 65.4103C83.6904 65.3803 83.7604 65.2503 83.7804 65.2203C84.0404 64.5703 84.0804 64.1203 84.0904 63.7003C84.0904 63.3103 83.8604 62.3203 83.6804 61.9903C83.2704 61.2503 83.1204 61.0403 82.4404 60.4203C81.4204 59.4903 79.8304 58.8203 78.3004 58.5903C75.4504 58.1603 72.2804 59.0103 70.5204 61.2303C70.4904 61.2903 70.2804 61.5903 70.2804 61.5903C70.2004 61.7203 70.1304 61.8503 70.0504 61.9903C70.0104 62.0703 69.9904 62.1103 69.9704 62.1403C69.9104 62.2903 69.8604 62.4503 69.8104 62.6103L69.8204 62.6203ZM77.2504 59.9203C80.1504 59.9203 80.1504 64.4203 77.2504 64.4203C74.3504 64.4203 74.3504 59.9203 77.2504 59.9203Z" fill="white"/>
<path d="M55.4296 63.1006C55.3196 63.0606 55.3596 63.0706 55.4296 63.1006V63.1006Z" fill="#FFE164"/>
<path d="M63.1304 15.9702C63.1304 15.9702 63.1304 15.9602 63.1404 15.9502C63.1204 15.9502 63.1104 15.9602 63.1104 15.9702C63.1104 15.9702 63.1204 15.9702 63.1304 15.9702Z" fill="#FFE164"/>
<path d="M71.9604 13.1303C74.1704 14.1803 72.9604 17.9903 70.3204 17.3103C68.1204 16.7403 65.7404 15.9203 63.4404 15.9203C63.3304 15.9203 63.2604 15.9203 63.2104 15.9303C63.2004 15.9503 63.1804 15.9603 63.1504 15.9703C63.0904 16.0403 63.0304 16.1203 63.0104 16.1403C62.9504 16.2303 62.8804 16.3203 62.8204 16.4103C62.0504 17.4803 61.2404 18.4503 60.2104 19.2803C58.4804 20.6703 56.2504 21.4003 54.7604 23.0603C51.8504 26.3003 52.0704 31.2803 52.5104 35.3303C53.3104 42.7303 54.8604 50.0103 55.8404 57.3803C55.8904 57.7703 55.7804 58.1403 55.5804 58.4703C55.7004 58.5003 55.8204 58.5303 55.9404 58.5603C57.1504 55.7303 57.5004 52.3903 57.8604 49.4203C58.2604 46.1503 58.5004 42.8603 58.9804 39.5903C59.4304 36.5403 60.8004 33.9703 62.7504 31.5803C67.1904 26.1203 74.7204 23.8403 81.3904 26.2103C82.7204 26.6803 83.1104 27.9603 82.8504 29.0403C84.6204 29.1403 86.1604 28.7403 87.6504 27.6803C87.2904 26.7703 87.4804 25.6803 88.6104 25.0803C93.3804 22.5403 98.8104 21.6203 104.13 22.6303C108.48 23.4603 112.6 25.7703 115.35 29.2703C116.79 31.1103 117.86 33.2003 118.48 35.4603C119.31 38.4503 119.2 41.6003 119.82 44.6303C120.56 48.2503 122.15 51.8003 123.37 55.2703C123.75 56.3503 124.13 57.4203 124.51 58.5003C126.27 52.4503 127.15 46.0703 127.77 39.8303C128.29 34.6103 129.11 28.5903 127.83 23.4203C127.54 22.2403 127.4 22.0503 126.53 20.8903C125.51 19.5403 124.24 18.3303 122.91 17.2803C119.85 14.8603 116.27 13.0903 112.73 11.5003C109.26 9.94029 105.7 8.62029 102.29 6.94029C99.7404 5.68029 96.8604 4.86029 94.0304 4.59029C88.4004 4.06029 82.7004 5.79029 81.0304 11.7303C80.2704 14.4203 76.2104 13.4003 76.6404 10.8003C74.9004 11.3903 73.0704 11.9003 71.9704 13.1303H71.9604ZM82.7804 21.6103C86.5904 13.2303 96.8204 7.63029 105.93 9.23029C107.13 9.44029 107.8 10.9103 107.5 12.0003C107.16 13.2503 105.93 13.7803 104.73 13.5703C104.21 13.4803 103.28 13.4103 102.38 13.4403C101.38 13.4703 100.84 13.5403 99.9804 13.7103C98.0804 14.0903 96.3904 14.7003 94.7404 15.5703C91.2004 17.4403 88.3404 20.2103 86.6604 23.8903C86.1504 25.0003 84.5504 25.2603 83.5804 24.7003C82.4604 24.0403 82.2704 22.7303 82.7704 21.6203L82.7804 21.6103Z" fill="#323232"/>
<path d="M82.8505 29.0298C82.5805 30.1498 81.5905 31.0398 80.2005 30.5398C76.7905 29.3298 73.0905 29.5098 69.9105 31.2998C68.1405 32.2998 66.6205 33.7198 65.4605 35.3998C65.0905 35.9298 64.7605 36.4798 64.4505 37.0398C64.2905 37.3298 64.1305 37.6298 63.9905 37.9298C63.9405 38.0398 63.9005 38.1198 63.8705 38.1898C63.7105 38.6798 63.5905 39.1798 63.5005 39.6898C62.5305 44.8898 62.6405 50.5598 61.4805 55.8198C61.7805 55.7798 62.0805 55.7898 62.3705 55.8698C62.6305 55.9398 62.8805 56.0198 63.1405 56.0898C64.7205 56.5498 66.3105 57.0098 67.8905 57.4698C67.9105 57.4498 67.9305 57.4198 67.9505 57.3998C71.2705 54.1998 76.4905 53.2598 80.8405 54.5598C83.8905 55.4698 86.6005 57.5398 87.8505 60.3698H94.0105C94.4405 59.3098 95.0605 58.3198 95.8805 57.4598C98.9805 54.2398 104.06 53.2398 108.27 54.5398C110.47 55.2198 112.42 56.5298 113.79 58.2698C113.96 58.1698 114.13 58.0798 114.32 58.0398C114.54 57.9798 114.76 57.9198 114.98 57.8698C116.36 57.5098 117.75 57.1398 119.13 56.7798C119.05 56.5498 118.97 56.3098 118.88 56.0798C117.83 53.1098 116.59 50.1498 115.76 47.1098C114.4 42.1398 115.27 36.6798 112.04 32.3198C107.21 25.7998 97.5705 25.3798 90.8605 28.9498C89.4305 29.7098 88.0905 28.8298 87.6305 27.6598C86.1405 28.7198 84.6005 29.1198 82.8305 29.0198L82.8505 29.0298ZM81.7605 50.6898C81.6405 51.2298 81.1905 51.7598 80.7305 52.0298C80.2805 52.2898 79.5005 52.4598 79.0005 52.2598C78.3305 51.9798 77.6305 51.8098 76.9205 51.6898C75.9805 51.5998 75.0405 51.6198 74.1005 51.7198C73.5205 51.8098 72.9505 51.9198 72.3805 52.0498C71.1505 52.3498 70.0005 51.6698 69.6105 50.4798C69.2405 49.3498 70.0405 47.9898 71.1805 47.7098C74.1005 46.9898 77.3505 46.7398 80.1905 47.9098C80.7605 48.1498 81.2005 48.4198 81.5305 48.9398C81.8605 49.4498 81.8905 50.0998 81.7605 50.6698V50.6898ZM98.6905 48.9598C99.0105 48.4098 99.4705 48.1598 100.03 47.9298C102.87 46.7598 106.12 47.0098 109.04 47.7298C110.26 48.0298 110.88 49.3398 110.61 50.4998C110.33 51.7098 108.98 52.3498 107.84 52.0698C107.27 51.9298 106.7 51.8298 106.12 51.7398C105.18 51.6298 104.24 51.6098 103.3 51.7098C102.59 51.8298 101.89 52.0098 101.22 52.2798C100.67 52.5098 99.9805 52.3198 99.4905 52.0498C98.9705 51.7798 98.6305 51.2498 98.4605 50.7098C98.2805 50.1698 98.4005 49.4598 98.6905 48.9798V48.9598Z" fill="white"/>
<path d="M63.1497 15.9495C63.1497 15.9495 63.1496 15.9595 63.1396 15.9695H63.1497C63.1497 15.9695 63.1696 15.9495 63.1696 15.9395C63.1696 15.9395 63.1496 15.9395 63.1396 15.9395L63.1497 15.9495Z" fill="#FFE164"/>
<path d="M63.1699 15.9404C63.1699 15.9404 63.1899 15.9404 63.1999 15.9304C63.2199 15.9004 63.2299 15.8804 63.2399 15.8604C63.2199 15.8804 63.1899 15.9104 63.1699 15.9404Z" fill="#FFE164"/>
<path d="M104.87 64.4102C107.77 64.4102 107.77 59.9102 104.87 59.9102C101.97 59.9102 101.97 64.4102 104.87 64.4102Z" fill="#323232"/>
<path d="M91.2404 83.4902C94.1404 83.4902 94.1404 78.9902 91.2404 78.9902C88.3404 78.9902 88.3404 83.4902 91.2404 83.4902Z" fill="#323232"/>
<path d="M77.25 64.4102C80.15 64.4102 80.15 59.9102 77.25 59.9102C74.35 59.9102 74.35 64.4102 77.25 64.4102Z" fill="#323232"/>
<path d="M63.1504 15.9697C63.1504 15.9697 63.1904 15.9597 63.2104 15.9297C63.1904 15.9297 63.1904 15.9297 63.1804 15.9397C63.1804 15.9397 63.1604 15.9597 63.1604 15.9697H63.1504Z" fill="#323232"/>
<path d="M80.19 47.93C77.35 46.76 74.1 47.01 71.18 47.73C70.04 48.01 69.24 49.36 69.61 50.5C69.99 51.69 71.15 52.37 72.38 52.07C72.95 51.93 73.52 51.83 74.1 51.74C75.04 51.63 75.98 51.61 76.92 51.71C77.63 51.83 78.33 52.01 79 52.28C79.5 52.49 80.29 52.31 80.73 52.05C81.2 51.78 81.64 51.24 81.76 50.71C81.89 50.13 81.86 49.49 81.53 48.98C81.19 48.45 80.76 48.18 80.19 47.95V47.93Z" fill="#323232"/>
<path d="M99.5 52.0402C100 52.3002 100.69 52.4902 101.23 52.2702C101.9 51.9902 102.6 51.8202 103.31 51.7002C104.25 51.6102 105.19 51.6302 106.13 51.7302C106.71 51.8202 107.28 51.9302 107.85 52.0602C108.99 52.3402 110.34 51.7002 110.62 50.4902C110.88 49.3302 110.27 48.0202 109.05 47.7202C106.13 47.0002 102.88 46.7502 100.04 47.9202C99.47 48.1502 99.02 48.4002 98.7 48.9502C98.42 49.4302 98.3 50.1402 98.47 50.6802C98.65 51.2202 98.98 51.7502 99.5 52.0202V52.0402Z" fill="#323232"/>
<path d="M83.59 24.69C84.56 25.25 86.16 24.99 86.67 23.88C88.34 20.21 91.21 17.44 94.75 15.56C96.4 14.69 98.09 14.08 99.99 13.7C100.84 13.53 101.38 13.46 102.39 13.43C103.29 13.4 104.21 13.47 104.74 13.56C105.94 13.77 107.16 13.24 107.51 11.99C107.81 10.9 107.14 9.42998 105.94 9.21998C96.84 7.61998 86.6 13.23 82.79 21.6C82.29 22.71 82.47 24.02 83.6 24.68L83.59 24.69Z" fill="#323232"/>
<path d="M176.29 169.58C174.31 165.53 173.02 161.16 170.44 157.4C167.15 152.62 161.85 149.92 156.96 147.05C148.19 141.9 139.04 137.49 129.75 133.38C129.75 133.37 129.75 133.36 129.75 133.34C127.41 127.7 125.06 122.07 122.71 116.43C122.12 115.02 120.84 114.39 119.4 115.09C119.01 115.28 118.62 115.47 118.23 115.66C117.87 112.76 117.5 109.87 117.18 106.96C117.18 106.94 117.18 106.93 117.18 106.91C117.49 106.36 117.8 105.81 118.09 105.26C120.39 100.97 122.53 96.4202 123.13 91.5502C123.38 89.5002 123.59 87.4402 123.8 85.3802C126.05 84.8702 128.31 84.0202 130.18 82.7702C133.35 80.6502 134.98 77.1602 135.7 73.5002C136.42 69.8202 136.39 65.5402 133.91 62.4902C132.58 60.8502 130.7 59.9602 128.79 59.8802C130.61 53.7002 131.49 47.1702 132.17 40.7902C132.8 34.8402 133.63 28.1202 132.17 22.2202C131.39 19.0802 128.91 16.4502 126.5 14.4302C123.21 11.6702 119.42 9.63023 115.52 7.85023C111.76 6.14023 107.92 4.64023 104.19 2.87023C101.11 1.41023 97.85 0.490231 94.45 0.130231C86.65 -0.709769 78.94 2.52023 76.69 10.5302C76.66 10.6202 76.66 10.7102 76.64 10.8002C76.2 13.3902 80.27 14.4202 81.03 11.7302C82.7 5.79023 88.39 4.06023 94.03 4.59023C96.86 4.86023 99.74 5.68023 102.29 6.94023C105.7 8.62023 109.26 9.94023 112.73 11.5002C116.27 13.0902 119.86 14.8502 122.91 17.2802C124.24 18.3302 125.5 19.5402 126.53 20.8902C127.4 22.0402 127.54 22.2402 127.83 23.4202C129.12 28.5902 128.29 34.6102 127.77 39.8302C127.15 46.0702 126.27 52.4602 124.51 58.5002C124.13 57.4202 123.75 56.3502 123.37 55.2702C122.15 51.8002 120.56 48.2502 119.82 44.6302C119.2 41.6002 119.31 38.4502 118.48 35.4602C117.86 33.2002 116.79 31.1102 115.35 29.2702C112.6 25.7702 108.49 23.4602 104.13 22.6302C98.81 21.6202 93.38 22.5402 88.61 25.0802C87.48 25.6802 87.29 26.7602 87.65 27.6802C88.09 27.3702 88.52 27.0102 88.96 26.5802C88.53 27.0102 88.09 27.3702 87.65 27.6802C88.1 28.8402 89.45 29.7302 90.88 28.9702C97.59 25.4002 107.23 25.8202 112.06 32.3402C115.28 36.6902 114.42 42.1602 115.78 47.1302C116.61 50.1702 117.85 53.1302 118.9 56.1002C118.98 56.3302 119.06 56.5702 119.15 56.8002C117.77 57.1602 116.38 57.5302 115 57.8902C114.78 57.9502 114.56 58.0102 114.34 58.0602C114.16 58.1102 113.98 58.1902 113.81 58.2902C112.44 56.5502 110.48 55.2402 108.29 54.5602C104.09 53.2702 99 54.2702 95.9 57.4802C95.08 58.3402 94.46 59.3302 94.03 60.3902H87.87C86.61 57.5602 83.91 55.4902 80.86 54.5802C76.5 53.2702 71.29 54.2102 67.97 57.4202C67.95 57.4402 67.93 57.4702 67.91 57.4902C66.33 57.0302 64.74 56.5702 63.16 56.1102C62.9 56.0402 62.65 55.9602 62.39 55.8902C62.1 55.8102 61.8 55.7902 61.5 55.8402C62.66 50.5802 62.55 44.9102 63.52 39.7102C63.62 39.2002 63.73 38.7002 63.89 38.2102C63.92 38.1402 63.96 38.0602 64.01 37.9502C64.16 37.6502 64.31 37.3502 64.47 37.0602C64.78 36.5002 65.12 35.9502 65.48 35.4202C66.64 33.7502 68.16 32.3302 69.93 31.3202C73.11 29.5202 76.81 29.3402 80.22 30.5602C81.62 31.0602 82.6 30.1702 82.87 29.0502C81.55 28.9702 80.12 28.6302 78.47 28.0902C80.11 28.6402 81.55 28.9802 82.87 29.0502C83.13 27.9802 82.74 26.7002 81.41 26.2202C74.74 23.8402 67.21 26.1302 62.77 31.5902C60.82 33.9802 59.45 36.5502 59 39.6002C58.52 42.8602 58.27 46.1502 57.88 49.4302C57.52 52.4102 57.17 55.7502 55.96 58.5702C55.84 58.5402 55.72 58.5102 55.6 58.4802C55.8 58.1502 55.91 57.7802 55.86 57.3902C54.88 50.0202 53.33 42.7302 52.53 35.3402C52.1 31.2902 51.87 26.3102 54.78 23.0702C56.27 21.4102 58.5 20.6802 60.23 19.2902C61.26 18.4602 62.07 17.4902 62.84 16.4202C62.9 16.3302 62.97 16.2402 63.03 16.1502C63.05 16.1202 63.11 16.0502 63.17 15.9802C63.17 15.9802 63.17 15.9802 63.16 15.9802C63.16 15.9802 63.16 15.9702 63.17 15.9602C63.17 15.9602 63.19 15.9602 63.2 15.9602C63.23 15.9302 63.25 15.9002 63.27 15.8802C63.26 15.9102 63.25 15.9302 63.23 15.9502C63.28 15.9502 63.35 15.9402 63.46 15.9402C65.76 15.9402 68.14 16.7702 70.34 17.3302C72.98 18.0102 74.2 14.2002 71.98 13.1502C71.84 13.0902 71.7 13.0302 71.53 12.9902C68.47 12.2002 63.39 10.1402 60.48 12.3802C59.7 12.9802 58.93 14.2302 58.61 14.6202C57.41 16.0402 55.9 16.7802 54.32 17.7002C45.15 23.0402 47.93 35.6502 49.26 44.2202C49.67 46.8802 50.11 49.5402 50.54 52.2102C50.71 53.2702 50.89 54.3402 51.05 55.4002C51.11 55.8002 51.18 56.2102 51.24 56.6102C51.27 56.7802 51.42 57.8602 51.36 57.3902C51.41 57.7402 51.51 58.0602 51.65 58.3602C47.63 59.2202 45.46 63.2702 44.74 67.0202C43.95 71.1202 45.15 76.0502 47.51 79.4902C49.56 82.4902 52.86 83.2602 55.92 84.7902C56.91 89.3502 57.77 94.0002 59.14 98.4602C59.89 100.89 60.86 103.24 62.03 105.47C61.96 105.68 61.92 105.91 61.93 106.15C62 107.48 61.99 108.81 61.97 110.14C61.95 111.4 61.89 112.66 61.79 113.92C61.75 114.42 61.69 114.93 61.64 115.43C61.39 115.32 61.14 115.21 60.89 115.09C59.6 114.51 57.98 114.91 57.58 116.43C56.15 121.92 54.73 127.4 53.3 132.89C53.23 132.98 53.17 133.07 53.11 133.16C45.96 136.05 38.64 138.45 31.49 141.37C26.93 143.24 22.39 145.17 17.9 147.19C14.04 148.93 10.46 151.28 7.64997 154.47C3.73997 158.91 1.46997 164.42 0.0899711 170.12C0.00997106 170.47 -2.89474e-05 170.8 0.0499711 171.1H4.48997C6.16997 164.26 9.26997 157.75 15.29 153.73C17.8 152.05 20.59 150.89 23.34 149.68C26.89 148.13 30.46 146.62 34.05 145.16C40.21 142.67 46.58 140.74 52.7 138.2C53.62 137.82 54.79 137.48 55.75 136.93C63.69 140.56 71.63 144.19 79.57 147.83C80.78 148.38 81.99 148.94 83.2 149.49C84.55 150.11 86.03 149.63 86.51 148.15C88.08 143.21 89.66 138.26 91.23 133.32C93.13 138.26 95.03 143.21 96.93 148.15C97.47 149.55 98.84 150.2 100.24 149.49C107.96 145.58 115.67 141.67 123.39 137.76C124.28 137.31 125.17 136.86 126.06 136.41C126.25 136.62 126.5 136.81 126.83 136.96C135.94 140.98 144.92 145.26 153.54 150.25C156.3 151.85 159.03 153.51 161.71 155.24C163.81 156.59 165.5 158 166.88 160.11C169.13 163.53 170.38 167.42 172.09 171.11H176.52C176.63 170.64 176.59 170.13 176.33 169.6L176.29 169.58ZM63.15 15.9502C63.15 15.9502 63.15 15.9602 63.14 15.9702C63.14 15.9702 63.13 15.9702 63.12 15.9702C63.12 15.9702 63.14 15.9702 63.15 15.9502ZM98.67 61.1402C98.72 61.0702 98.81 60.9502 98.85 60.9202C98.98 60.7802 99.11 60.6402 99.24 60.5002C99.34 60.4102 99.87 59.9402 99.68 60.0902C100.25 59.6502 101.07 59.2102 101.51 59.0602C101.87 58.9302 102.24 58.8202 102.61 58.7302C102.82 58.6802 103.46 58.5702 103.44 58.5702C103.85 58.5302 104.26 58.5102 104.67 58.5202C105.13 58.5202 105.54 58.5502 105.82 58.6002C106.56 58.7202 107.5 59.0102 107.95 59.2302C108.73 59.6102 109.28 59.9802 109.75 60.4302C109.89 60.5602 110.02 60.7002 110.15 60.8402C110.18 60.8802 110.35 61.0902 110.41 61.1502C110.61 61.4402 110.78 61.7402 110.94 62.0502C111.15 62.4502 111.01 62.2202 110.98 62.1202C111.06 62.3302 111.12 62.5402 111.18 62.7502C111.18 62.7202 111.23 63.0102 111.26 63.1302C111.26 63.2602 111.29 63.6302 111.29 63.7002C111.27 64.7602 110.89 65.7602 110.15 66.5702C109.25 67.5602 108.22 68.1702 106.95 68.5402C105.54 68.9502 104.09 69.0102 102.73 68.7002C101.32 68.3802 100.13 67.7802 99.23 66.9002C97.52 65.2302 97.26 63.1202 98.66 61.1302L98.67 61.1402ZM69.83 62.6102C69.88 62.4502 69.93 62.3002 69.99 62.1402C70.01 62.1002 70.03 62.0602 70.07 61.9902C70.14 61.8602 70.22 61.7202 70.3 61.5902C70.3 61.5902 70.51 61.2902 70.54 61.2302C72.3 59.0202 75.47 58.1602 78.32 58.5902C79.85 58.8202 81.44 59.4902 82.46 60.4202C83.14 61.0302 83.29 61.2502 83.7 61.9902C83.88 62.3202 84.1 63.3102 84.11 63.7002C84.11 64.1202 84.06 64.5802 83.8 65.2202C83.78 65.2502 83.71 65.3802 83.7 65.4102C83.61 65.5802 83.51 65.7402 83.41 65.9102C83.21 66.2302 83.24 66.1902 82.89 66.5602C81.95 67.5502 80.76 68.1902 79.39 68.5702C76.6 69.3302 73.21 68.7602 71.23 66.9002C70.67 66.3802 70.52 66.1902 70.19 65.6202C70.13 65.5102 70.07 65.4002 70.02 65.2902C69.99 65.2302 69.92 65.0602 69.91 65.0102C69.85 64.8302 69.8 64.6502 69.75 64.4702C69.73 64.3802 69.66 63.7602 69.69 64.1702C69.63 63.3502 69.61 63.3802 69.84 62.6202L69.83 62.6102ZM55.44 63.0902C55.39 63.0702 55.37 63.0602 55.37 63.0602C55.37 63.0602 55.38 63.0602 55.44 63.0902ZM61.29 88.2802C60.76 85.9402 60.75 82.2902 58.43 81.0102C56 79.6702 52.65 79.2202 51.09 76.7802C49.59 74.4202 48.59 70.9802 49.05 68.1902C49.39 66.1002 50.42 62.9502 52.89 62.6602C53.58 62.5802 54.22 62.7102 54.88 62.9002C55.09 62.9602 55.3 63.0402 55.51 63.1202C55.54 63.1302 55.57 63.1502 55.6 63.1602C56.59 63.6702 57.53 63.4102 58.17 62.8202C58.63 62.6802 59.06 62.3602 59.36 61.7902C59.72 61.1202 60.02 60.4202 60.3 59.7202C60.54 59.9402 60.83 60.1102 61.17 60.2102C62.62 60.6302 64.07 61.0502 65.52 61.4702C64.86 63.8702 65.21 66.5002 66.8 68.6502C69.64 72.4902 74.62 73.8802 79.21 73.1802C83.62 72.5102 87.78 69.3702 88.49 64.8802H93.42C93.59 66.2102 94.05 67.5102 94.89 68.6802C97.57 72.4302 102.32 73.9002 106.76 73.1902C111.5 72.4402 115.71 68.7002 115.8 63.7002C115.8 63.4902 115.78 63.3002 115.74 63.1202C115.72 62.8602 115.7 62.6102 115.66 62.3602C117.16 61.9602 118.66 61.5702 120.16 61.1802C120.32 61.1402 120.49 61.0902 120.65 61.0502C121.03 62.1402 121.41 63.2202 121.8 64.3102C122.42 66.0702 124.46 66.1902 125.56 65.3102C126.13 65.3702 126.74 65.2102 127.29 64.7202C126.93 65.0402 127.64 64.4702 127.91 64.3802C128.5 64.1802 129.07 64.2802 129.61 64.5902C130.5 65.1102 131 66.0202 131.29 66.9802C132.06 69.5202 131.54 72.4102 130.69 74.8602C129.23 79.0602 125.31 80.6802 121.16 81.3402C120.13 81.5102 119.6 82.6002 119.51 83.5102C119.23 86.3602 119.03 89.2602 118.58 92.0902C117.82 96.8702 114.57 102.95 111.64 107.37C108.61 111.93 104.5 114.9 99.38 116.5V113.2C99.38 112.02 98.35 110.9 97.13 110.95C95.91 111 94.88 111.94 94.88 113.2V117.52C94.49 117.57 94.11 117.62 93.72 117.65V113.2C93.72 112.02 92.69 110.9 91.47 110.95C90.25 111 89.22 111.94 89.22 113.2V117.73C88.83 117.71 88.45 117.68 88.06 117.64V113.2C88.06 112.02 87.03 110.9 85.81 110.95C84.59 111 83.56 111.94 83.56 113.2V116.88C83.36 116.83 83.15 116.79 82.95 116.74C73.66 114.35 67.16 107.89 64.02 98.8802C62.82 95.4402 62.12 91.8302 61.32 88.2802H61.29ZM82.94 144.45C75.22 140.92 67.49 137.38 59.77 133.85C59.16 133.57 58.55 133.29 57.94 133.01C58.16 132.11 58.38 131.21 58.61 130.32C59.49 126.93 60.37 123.54 61.25 120.15C69.17 123.7 77.09 127.26 85.01 130.81C85.67 131.11 86.34 131.4 87 131.7C85.65 135.95 84.3 140.19 82.95 144.44L82.94 144.45ZM91.31 128.63C91.31 128.63 91.24 128.68 91.2 128.7C91.16 128.68 91.13 128.65 91.08 128.63C82.68 124.86 74.27 121.09 65.87 117.32C66.14 115.55 66.33 113.75 66.41 111.95C68.31 114.12 70.52 116.03 73.09 117.55C79.85 121.57 88.31 123.08 96.05 121.88C100.59 121.17 105.17 119.55 108.9 116.82C110.59 115.59 112.05 114.12 113.36 112.52C113.57 114.24 113.76 115.97 113.98 117.69C107.58 120.78 101.19 123.86 94.79 126.95C93.63 127.51 92.47 128.07 91.3 128.63H91.31ZM124.4 132.19C116.68 136.1 108.97 140.01 101.25 143.92C100.93 144.08 100.6 144.25 100.28 144.41C98.64 140.16 97.01 135.9 95.37 131.65C102.98 127.98 110.59 124.31 118.19 120.64L119.39 120.06C121.07 124.1 122.75 128.13 124.43 132.17C124.42 132.17 124.41 132.17 124.4 132.18V132.19Z" fill="#323232"/>
<path d="M88.14 102.98C91.72 104.18 95.99 103.07 98.47 100.21C100.23 98.18 101.05 95.7 101.25 93.04C101.34 91.83 100.15 90.79 99 90.79H83.08C82.55 90.79 82.06 90.99 81.67 91.32C81.13 91.74 80.75 92.36 80.83 93.04C80.83 93.27 80.88 93.49 80.95 93.71C81.64 97.89 83.94 101.58 88.14 102.99V102.98ZM95.37 96.93C95.37 96.93 95.32 97 95.29 97.03C95.16 97.17 95.04 97.31 94.9 97.45C94.78 97.57 94.66 97.68 94.54 97.79C94.51 97.82 94.47 97.85 94.43 97.88C94.14 98.04 93.87 98.25 93.58 98.41C93.47 98.47 93.36 98.52 93.25 98.57C93.17 98.6 93.09 98.63 93.01 98.66C92.71 98.76 92.41 98.84 92.11 98.9C92.02 98.92 91.93 98.93 91.85 98.95C91.81 98.95 91.81 98.96 91.79 98.97C91.69 98.97 91.58 98.97 91.52 98.97C91.21 98.98 90.9 98.97 90.59 98.95C90.56 98.95 90.54 98.95 90.52 98.95C90.35 98.91 90.17 98.89 90 98.84C89.68 98.76 89.38 98.63 89.06 98.55C89.04 98.55 89.02 98.53 89 98.52C88.81 98.43 88.63 98.33 88.45 98.23C88.31 98.15 88.17 98.06 88.04 97.97C87.99 97.94 87.87 97.84 87.79 97.78C87.71 97.71 87.63 97.64 87.6 97.62C87.44 97.47 87.28 97.32 87.13 97.16C86.98 97 86.84 96.82 86.69 96.65C87.01 97.03 86.72 96.68 86.59 96.48C86.34 96.1 86.16 95.69 85.94 95.3H96.28C96.21 95.48 96.09 95.76 96.16 95.6C96.1 95.72 96.05 95.84 95.99 95.95C95.81 96.3 95.57 96.6 95.38 96.94L95.37 96.93Z" fill="#323232"/>
</g>
<defs>
<clipPath id="clip0_2104_4202">
<rect width="176.53" height="171.09" fill="white"/>
</clipPath>
</defs>
</svg>
