<svg width="297" height="245" viewBox="0 0 297 245" fill="none" xmlns="http://www.w3.org/2000/svg">
<g opacity="0.5">
<path fill-rule="evenodd" clip-rule="evenodd" d="M20 0C8.9543 0 0 8.95431 0 20V103.658C0 114.703 8.9543 123.658 20 123.658H70.2119V153L90.6835 123.658H257.182C268.227 123.658 277.182 114.703 277.182 103.658V20C277.182 8.9543 268.227 0 257.182 0H20Z" fill="white"/>
</g>
<g clip-path="url(#clip0_2_87)">
<path d="M224.18 126.14C224.11 126.09 224.03 126.04 223.96 125.98C224.04 126.04 224.09 126.08 224.15 126.13C224.16 126.13 224.17 126.14 224.19 126.15L224.18 126.14Z" fill="#FFE164"/>
<path d="M230.36 242.92C230.74 242.55 231.24 242.31 231.84 242.3C230.99 242.28 230.54 242.66 230.36 242.92Z" fill="#FFE164"/>
<path d="M247.12 139.49C246.53 138.04 245.31 137.17 243.96 137.18C243.55 137.46 243.07 137.62 242.65 137.61C242.56 137.61 242.47 137.61 242.38 137.61C242.29 137.66 242.21 137.68 242.12 137.74C241.15 138.35 240.22 138.11 239.59 137.51C238.53 137.31 237.78 136.41 237.73 135.31C237.41 128.13 237.08 120.95 236.76 113.78C231.2 109.83 225.76 105.34 221.38 100.11C214.24 100.11 207.1 100.11 199.97 100.1C196.97 104.69 193.97 109.29 190.97 113.88C189.48 116.15 186.52 114.58 186.86 112.15C187.27 109.21 187.68 106.27 188.09 103.32C185.99 108.63 183.88 113.94 181.78 119.25C180.92 121.43 177.17 121.38 177.36 118.65C177.57 115.7 177.77 112.75 177.98 109.8C177.16 111.02 176.34 112.24 175.52 113.46C175.44 113.58 175.27 113.92 175.1 114.19C175.14 114.75 175.04 115.44 175.05 115.91L175.13 120.1C175.22 124.87 175.32 129.63 175.41 134.4C176.87 135.87 175.06 138.7 172.86 137.97C172.77 137.95 172.68 137.95 172.59 137.91C172.18 137.76 171.73 137.63 171.27 137.49C171.07 137.45 170.87 137.4 170.66 137.38C168.81 137.23 167.66 138.26 166.89 139.87C165.71 142.32 165.73 144.68 166.48 147.24C167.06 149.23 168.01 151.63 170.07 152.44C172.01 153.2 174.1 153.59 175.73 155.01C177.28 156.37 177.58 158.25 178.03 160.17C178.99 164.3 180.52 168.28 182.72 171.92C186.87 178.8 193.36 183.92 201.27 185.62C211.39 187.8 221.24 183.26 227.66 175.46C230.85 171.59 233.32 166.84 234.5 161.95C235.06 159.63 235.4 157.24 235.82 154.89C235.94 154.2 236.69 153.42 237.39 153.32C241.4 152.71 245.53 151.25 246.9 147.11C247.68 144.76 248.11 141.88 247.15 139.52L247.12 139.49ZM207.2 149.07C210.1 149.07 210.1 153.57 207.2 153.57C204.3 153.57 204.3 149.07 207.2 149.07ZM190.55 126.16C190.47 126.21 190.37 126.28 190.31 126.32C190.28 126.34 190.27 126.35 190.27 126.35C190.27 126.35 190.28 126.35 190.31 126.32C190.35 126.29 190.43 126.23 190.55 126.13C190.54 126.13 190.53 126.13 190.51 126.14C190.53 126.14 190.54 126.13 190.56 126.12C190.62 126.08 190.67 126.03 190.75 125.97C190.26 126.36 189.79 126.6 189.16 126.63C188.56 126.66 188 126.36 187.57 125.97C187.16 125.59 186.91 124.93 186.91 124.38C186.91 123.87 187.15 123.13 187.57 122.79C188.47 122.06 189.56 121.61 190.69 121.38C192.86 120.94 195.09 121.13 197.18 121.81C198.38 122.2 199.03 123.34 198.75 124.58C198.49 125.73 197.1 126.52 195.98 126.15C195.37 125.95 194.75 125.8 194.12 125.7C193.45 125.63 192.78 125.62 192.11 125.7C191.65 125.78 191.19 125.9 190.75 126.07C190.68 126.1 190.61 126.13 190.55 126.17V126.16ZM193.84 135.36C190.94 135.36 190.94 130.86 193.84 130.86C196.74 130.86 196.74 135.36 193.84 135.36ZM214.89 169.65C212.32 172.62 207.97 173.74 204.24 172.61C199.88 171.29 197.01 167.37 196.26 162.98C196.19 162.57 196.24 162.17 196.33 161.79C196.36 161.67 196.39 161.56 196.44 161.45C196.48 161.37 196.5 161.28 196.55 161.21C196.67 160.99 196.82 160.8 197.01 160.64C197.01 160.64 197.02 160.63 197.03 160.62C197.33 160.37 197.71 160.2 198.18 160.16C198.22 160.16 198.25 160.16 198.29 160.15C198.34 160.15 198.38 160.14 198.43 160.14H215.47C216.61 160.14 217.81 161.18 217.72 162.39C217.51 165.08 216.67 167.59 214.89 169.65ZM221.45 135.36C218.55 135.36 218.55 130.86 221.45 130.86C224.35 130.86 224.35 135.36 221.45 135.36ZM227.13 125.98C226.75 126.39 226.09 126.64 225.54 126.64C224.99 126.64 224.58 126.44 224.17 126.15C224.17 126.15 224.15 126.15 224.14 126.14C224.19 126.18 224.25 126.23 224.29 126.26C224.31 126.27 224.32 126.28 224.34 126.29C224.47 126.37 224.82 126.67 224.28 126.25C224.23 126.22 224.18 126.19 224.14 126.16C224.07 126.12 224 126.09 223.94 126.06C223.5 125.89 223.05 125.77 222.58 125.69C221.91 125.62 221.24 125.63 220.57 125.69C219.94 125.8 219.32 125.94 218.71 126.14C217.51 126.53 216.3 125.68 215.94 124.57C215.55 123.37 216.4 122.17 217.51 121.8C219.61 121.11 221.84 120.92 224 121.37C225.13 121.6 226.22 122.05 227.12 122.78C228.1 123.57 227.87 125.14 227.12 125.96L227.13 125.98Z" fill="white"/>
<path d="M201.44 164.641C201.65 165.071 201.9 165.501 202.17 165.891C202.22 165.961 202.27 166.031 202.32 166.101C202.46 166.261 202.6 166.431 202.75 166.591C202.92 166.761 203.09 166.931 203.27 167.091C203.31 167.121 203.47 167.261 203.56 167.321C203.65 167.381 203.78 167.471 203.81 167.491C203.96 167.591 204.11 167.681 204.27 167.771C204.45 167.871 204.63 167.961 204.81 168.051C204.84 168.061 204.85 168.071 204.87 168.081C204.87 168.081 204.87 168.081 204.89 168.081C205.22 168.191 205.54 168.311 205.88 168.391C206.07 168.441 206.28 168.461 206.47 168.511C206.51 168.511 206.54 168.511 206.58 168.521C206.92 168.541 207.25 168.561 207.59 168.541C207.78 168.541 207.98 168.491 208.17 168.501C208.12 168.501 208.1 168.501 208.06 168.501C207.88 168.511 207.73 168.501 208.06 168.501C208.11 168.501 208.17 168.501 208.21 168.481C208.56 168.411 208.91 168.321 209.26 168.211C209.49 168.131 209.84 167.961 209.4 168.181C209.55 168.111 209.71 168.041 209.86 167.961C210.16 167.801 210.45 167.621 210.74 167.431C210.77 167.411 210.79 167.401 210.81 167.391C210.83 167.371 210.84 167.361 210.87 167.331C211 167.211 211.13 167.101 211.26 166.981C211.41 166.841 211.54 166.691 211.68 166.541C211.72 166.501 211.76 166.451 211.8 166.401C212 166.081 212.23 165.771 212.41 165.431C212.5 165.271 212.57 165.101 212.65 164.941C212.67 164.871 212.7 164.801 212.73 164.741C212.74 164.711 212.74 164.681 212.75 164.651H201.45L201.44 164.641Z" fill="white"/>
<path d="M288.35 229.401C287.53 227.291 286.54 225.091 285.13 223.301C283.63 221.401 281.46 219.921 279.47 218.581C271.45 213.171 262.37 209.801 253.74 205.561C255.97 210.511 258.19 215.471 260.73 220.281C261.83 222.371 259.66 224.301 257.65 223.361C252.11 220.781 246.21 218.971 240.67 216.391C240.04 222.371 238.75 228.331 237.41 234.151C236.74 237.071 236.04 240.001 235.1 242.851C234.92 243.401 234.71 244.021 234.44 244.601H292.47C292.34 244.381 292.24 244.131 292.2 243.821C291.46 238.921 290.16 234.021 288.35 229.401Z" fill="#FFE164"/>
<path d="M235.85 195.411C235.61 195.051 235.37 194.701 235.09 194.381C235.14 194.531 235.18 194.681 235.23 194.831C235.63 195.981 234.77 197.291 233.66 197.601C232.43 197.941 231.29 197.181 230.89 196.031C229.95 193.331 229.47 190.471 229.07 187.641C228.77 185.541 228.53 183.421 228.33 181.311C227.67 181.961 226.99 182.591 226.28 183.191C217.68 190.411 205.86 192.701 195.34 188.511C192.06 187.201 189.1 185.381 186.47 183.171C186.35 185.151 186.2 187.121 185.96 189.091C185.62 191.921 185.21 194.821 184.14 197.481C183.68 198.611 182.66 199.401 181.37 199.051C180.57 198.831 179.85 198.041 179.71 197.181C179.34 197.801 178.87 198.401 178.35 198.991C177.97 201.211 177.96 203.561 178.03 205.831C178.48 205.851 178.95 206.011 179.38 206.361C187.64 212.991 197.64 217.611 208.41 217.171C218.35 216.771 227.55 212.091 235.16 205.911C235.51 205.631 235.88 205.481 236.25 205.411C236.23 202.111 236.11 198.821 235.86 195.551C235.86 195.501 235.86 195.451 235.86 195.401L235.85 195.411Z" fill="white"/>
<path d="M235.1 194.38C235.37 194.69 235.61 195.05 235.86 195.41C235.87 194.26 237 193.31 238.1 193.31C239.38 193.31 240.26 194.35 240.35 195.56C240.75 200.8 240.84 206.1 240.67 211.37C244.97 213.62 249.56 215.25 254.08 217.02C251.31 211.25 248.8 205.35 246.05 199.57C243.7 194.64 241.21 189.35 235.89 187.1C234.78 186.63 233.95 185.63 234.32 184.33C234.39 184.09 234.52 183.86 234.68 183.64C234.11 183.15 233.52 182.64 232.87 182.17C233.25 186.31 233.82 190.48 235.11 194.37L235.1 194.38Z" fill="#FFE164"/>
<path d="M179.8 196.29C180.76 193.91 181.21 191.29 181.5 188.79C181.82 186.01 181.98 183.21 182.11 180.41C180.4 181.17 179.25 181.61 178.21 183.02C179.39 183.69 180.05 185.32 178.77 186.51C169.59 195.09 162.12 205.04 155.7 215.73C159.43 213.39 163.08 210.87 166.71 208.45C167.48 207.94 168.84 208.08 169.44 208.8C170.96 210.65 172.47 212.54 173.94 214.45C173.78 212.31 173.66 210.17 173.6 208.03C173.49 203.89 173.28 199.24 174.64 195.26C175.57 192.53 179.92 193.71 178.98 196.46C178.7 197.28 178.5 198.14 178.35 199.01C178.87 198.41 179.34 197.82 179.71 197.2C179.66 196.9 179.68 196.59 179.8 196.3V196.29Z" fill="#FFE164"/>
<path d="M230.29 243C230.29 243 230.33 242.9 230.35 242.81C230.46 242.42 230.25 243.05 230.35 242.81C230.35 242.81 230.35 242.807 230.35 242.8C230.41 242.64 230.47 242.48 230.53 242.32C230.86 241.36 231.16 240.39 231.44 239.41C232.23 236.63 232.89 233.81 233.51 230.99C234.38 227.03 235.25 223 235.83 218.96C235.79 218.79 235.77 218.61 235.78 218.43C235.98 215.89 236.1 213.34 236.17 210.78C228.07 216.88 218.69 221.26 208.4 221.68C197.28 222.13 187.01 217.66 178.26 211.14C178.42 213.35 178.63 215.56 178.73 217.77C178.83 218.09 178.87 218.44 178.94 218.76C179.29 220.47 179.65 222.18 180.01 223.89C181.3 230.01 182.61 236.14 183.94 242.25C184.17 243.29 183.72 244.11 183.03 244.59H229.61C229.65 244.01 229.89 243.42 230.3 242.99L230.29 243Z" fill="white"/>
<path d="M175.57 224.67C175.57 224.67 175.57 224.63 175.56 224.61C175.54 224.58 175.51 224.55 175.49 224.51C173.1 220.61 170.29 216.95 167.4 213.39C161.99 217.03 156.53 220.8 150.74 223.77C148.75 224.79 146.56 222.72 147.66 220.69C150.24 215.94 153.02 211.3 156 206.82C153.12 207.92 150.27 209.1 147.42 210.28C142.97 212.13 138.54 214.04 134.17 216.08C131.26 217.43 128.47 218.6 126.44 221.19C123.52 224.91 121.62 229.54 119.97 233.93C118.65 237.43 117.51 241 116.51 244.61H180.23C179.93 244.35 179.69 243.97 179.58 243.46C178.22 237.2 176.88 230.94 175.56 224.68L175.57 224.67Z" fill="#FFE164"/>
<path d="M170.74 126.59C170.69 123.87 170.63 121.15 170.58 118.43C170.55 116.7 170 114.04 170.79 112.41C171.81 110.32 173.52 108.35 174.82 106.43C176.16 104.44 177.5 102.44 178.85 100.45C180 98.7404 183.21 99.2004 183.04 101.59C182.98 102.52 182.91 103.46 182.85 104.39C183.75 102.13 184.64 99.8704 185.54 97.6004C185.91 96.6604 186.63 95.9504 187.71 95.9504C188.83 95.9504 189.94 95.9504 191.06 95.9404C192.67 95.9404 193.43 97.3804 193.23 98.7904C193.03 100.23 192.83 101.66 192.63 103.1C193.97 100.95 195.27 98.7204 196.81 96.7504C198.16 95.0204 201.15 95.6204 203.11 95.6204C206.77 95.6204 210.43 95.6204 214.09 95.6204C216.75 95.6204 219.44 95.5104 222.1 95.6204C224.03 95.7004 224.93 97.4404 226.15 98.7504C228.19 100.94 230.4 102.96 232.67 104.89C234.41 106.36 236.18 107.78 238.01 109.14C238.81 109.73 239.87 110.28 240.56 111.01C241.86 112.38 241.37 116.04 241.45 117.73C241.57 120.36 241.69 123 241.81 125.63C242.06 123.93 242.3 122.22 242.55 120.52C242.99 117.44 243.44 114.36 243.88 111.28C244.2 109.04 244.63 107.37 243.83 105.17C242.33 101.65 240.77 98.1604 239.19 94.6704C238.1 92.2704 237.2 89.7504 235.15 87.9804C234.27 87.2204 233.25 86.7004 232.21 86.2104C229.76 85.0404 227.3 83.8804 224.85 82.7204C222.69 81.7004 220.73 80.7504 218.57 80.0304C216.47 79.3304 214.35 78.7004 212.2 78.1704C211.34 77.9604 210.46 77.7404 209.59 77.6104C209.43 77.7004 209.25 77.7804 209.05 77.8204C205.01 78.7504 200.69 78.6804 196.45 78.5004C196.7 79.7304 195.84 81.0204 194.31 81.2104C191.79 81.5204 189.3 81.5304 186.82 81.3804C186.72 81.7004 186.57 82.0304 186.3 82.3304C182.94 86.1204 178.98 89.3204 175.55 93.0404C174.15 94.5704 172.8 96.1604 171.8 97.9804C170.8 99.7904 170.4 101.91 170.06 103.93C169.29 108.49 169.34 113.21 169.69 117.8C169.91 120.73 170.27 123.68 170.77 126.6L170.74 126.59Z" fill="#323232"/>
<path d="M249.97 135.559C248.76 134.029 247.07 133.089 245.28 132.779C245.85 128.839 246.42 124.909 246.98 120.969C247.42 117.889 247.87 114.809 248.31 111.729C248.7 109.049 249.13 106.579 248.13 103.919C248.09 103.819 248.04 103.739 247.99 103.649C247.96 103.559 247.93 103.469 247.9 103.389C246.25 99.4995 244.52 95.6495 242.77 91.8095C241.51 89.0295 240.28 86.4395 237.88 84.4595C236.75 83.5295 235.51 82.8395 234.19 82.2195C227.97 79.2695 221.97 76.1895 215.29 74.3495C213.25 73.7595 210.89 72.9595 208.72 72.9995C208.07 73.0095 207.49 73.2495 207.03 73.5995C204.5 74.0595 201.81 74.0395 199.25 73.9895C196.62 73.9395 193.99 73.8595 191.35 73.7795C189.56 73.7295 188.81 75.5495 189.37 76.9595C186.27 76.9395 183.18 76.5895 180.07 76.1295C177.87 75.7995 176.32 78.0995 177.88 79.8895C178.69 80.8195 179.54 81.4495 180.45 81.8995C177.63 84.6995 174.62 87.2995 171.97 90.2595C170.27 92.1495 168.58 94.1895 167.47 96.4995C166.37 98.7895 165.87 101.329 165.51 103.819C164.12 113.419 165.29 123.409 167.42 132.829C167.46 132.999 167.49 133.179 167.53 133.349C167.29 133.429 167.04 133.519 166.81 133.629C162.12 135.819 160.81 142.229 161.72 146.839C162.19 149.229 163.11 151.669 164.57 153.629C166.04 155.609 167.81 156.429 170.09 157.179C170.91 157.449 172.27 157.759 172.83 158.469C173.52 159.329 173.57 161.059 173.84 162.119C174.43 164.459 175.21 166.739 176.16 168.969C177.69 172.569 179.72 175.919 182.19 178.869C182.17 179.389 182.14 179.909 182.11 180.429C181.98 183.229 181.82 186.029 181.5 188.809C181.21 191.319 180.77 193.929 179.8 196.309C179.68 196.599 179.66 196.909 179.71 197.209C179.85 198.059 180.58 198.859 181.37 199.079C182.66 199.429 183.68 198.639 184.14 197.509C185.22 194.849 185.62 191.949 185.96 189.119C186.2 187.149 186.35 185.179 186.47 183.199C189.09 185.409 192.06 187.229 195.34 188.539C205.86 192.729 217.68 190.439 226.28 183.219C226.99 182.619 227.67 181.989 228.33 181.339C228.54 183.449 228.77 185.569 229.07 187.669C229.47 190.499 229.96 193.349 230.89 196.059C231.29 197.209 232.43 197.969 233.66 197.629C234.78 197.319 235.63 196.019 235.23 194.859C235.18 194.709 235.14 194.559 235.09 194.409C233.8 190.509 233.23 186.349 232.85 182.209C232.68 180.309 232.54 178.419 232.4 176.559C234.48 173.689 236.18 170.539 237.47 167.229C238.71 164.049 239.3 160.739 239.88 157.409C242.02 156.949 244.16 156.189 246.01 155.109C249.28 153.189 251.03 149.879 251.73 146.239C252.42 142.669 252.3 138.569 249.95 135.599L249.97 135.559ZM170.03 103.919C170.37 101.899 170.77 99.7795 171.77 97.9695C172.78 96.1495 174.12 94.5495 175.52 93.0295C178.94 89.2995 182.91 86.0995 186.27 82.3195C186.54 82.0195 186.69 81.6895 186.79 81.3695C189.28 81.5195 191.77 81.5095 194.28 81.1995C195.81 81.0095 196.67 79.7195 196.42 78.4895C200.66 78.6695 204.98 78.7395 209.02 77.8095C209.22 77.7695 209.39 77.6895 209.56 77.5995C210.44 77.7295 211.31 77.9495 212.17 78.1595C214.32 78.6895 216.45 79.3095 218.54 80.0195C220.7 80.7395 222.66 81.6895 224.82 82.7095C227.27 83.8695 229.73 85.0295 232.18 86.1995C233.22 86.6995 234.24 87.2095 235.12 87.9695C237.16 89.7395 238.07 92.2595 239.16 94.6595C240.74 98.1495 242.31 101.639 243.8 105.159C244.6 107.349 244.18 109.029 243.85 111.269C243.41 114.349 242.96 117.429 242.52 120.509C242.27 122.209 242.03 123.919 241.78 125.619C241.66 122.989 241.54 120.349 241.42 117.719C241.34 116.029 241.83 112.369 240.53 110.999C239.84 110.269 238.78 109.719 237.98 109.129C236.16 107.769 234.38 106.349 232.64 104.879C230.36 102.949 228.15 100.929 226.12 98.7395C224.9 97.4295 224 95.6895 222.07 95.6095C219.41 95.4995 216.72 95.6095 214.06 95.6095C210.4 95.6095 206.74 95.6095 203.08 95.6095C201.11 95.6095 198.13 95.0095 196.78 96.7395C195.24 98.7095 193.94 100.949 192.6 103.089C192.8 101.649 193 100.219 193.2 98.7795C193.4 97.3695 192.64 95.9295 191.03 95.9295C189.91 95.9295 188.8 95.9295 187.68 95.9395C186.6 95.9395 185.88 96.6495 185.51 97.5895C184.61 99.8495 183.72 102.109 182.82 104.379C182.89 103.449 182.95 102.509 183.01 101.579C183.18 99.1995 179.97 98.7395 178.82 100.439C177.48 102.429 176.14 104.429 174.79 106.419C173.49 108.349 171.78 110.309 170.76 112.399C169.97 114.029 170.51 116.689 170.55 118.419C170.6 121.139 170.66 123.859 170.71 126.579C170.21 123.659 169.85 120.709 169.63 117.779C169.28 113.179 169.22 108.469 170 103.909L170.03 103.919ZM246.87 147.079C245.5 151.219 241.37 152.679 237.36 153.289C236.66 153.399 235.91 154.179 235.79 154.859C235.37 157.209 235.03 159.599 234.47 161.919C233.29 166.799 230.81 171.559 227.63 175.429C221.21 183.229 211.37 187.769 201.24 185.589C193.33 183.879 186.83 178.759 182.69 171.889C180.5 168.249 178.97 164.279 178 160.139C177.55 158.219 177.26 156.339 175.7 154.979C174.08 153.559 171.99 153.179 170.04 152.409C167.98 151.599 167.03 149.199 166.45 147.209C165.7 144.649 165.69 142.289 166.86 139.839C167.63 138.229 168.78 137.199 170.63 137.349C170.84 137.369 171.04 137.409 171.24 137.459C171.7 137.609 172.16 137.739 172.56 137.879C172.65 137.909 172.74 137.919 172.83 137.939C175.03 138.669 176.84 135.849 175.38 134.369C175.29 129.599 175.19 124.839 175.1 120.069L175.02 115.879C175.02 115.419 175.11 114.729 175.07 114.159C175.24 113.889 175.41 113.549 175.49 113.429C176.31 112.209 177.13 110.989 177.95 109.769C177.74 112.719 177.54 115.669 177.33 118.619C177.14 121.349 180.89 121.399 181.75 119.219C183.85 113.909 185.96 108.599 188.06 103.289C187.65 106.229 187.24 109.169 186.83 112.119C186.49 114.549 189.46 116.129 190.94 113.849C193.94 109.259 196.94 104.659 199.94 100.069C207.08 100.069 214.21 100.069 221.35 100.079C225.73 105.299 231.17 109.799 236.73 113.749C237.05 120.929 237.38 128.109 237.7 135.279C237.75 136.379 238.5 137.279 239.56 137.479C240.19 138.079 241.12 138.319 242.09 137.709C242.17 137.659 242.26 137.629 242.35 137.579C242.44 137.579 242.53 137.579 242.62 137.579C243.04 137.579 243.52 137.419 243.93 137.149C245.28 137.139 246.5 137.999 247.09 139.459C248.05 141.829 247.62 144.699 246.84 147.049L246.87 147.079Z" fill="#323232"/>
<path d="M221.46 130.86C218.56 130.86 218.56 135.36 221.46 135.36C224.36 135.36 224.36 130.86 221.46 130.86Z" fill="#323232"/>
<path d="M207.2 153.58C210.1 153.58 210.1 149.08 207.2 149.08C204.3 149.08 204.3 153.58 207.2 153.58Z" fill="#323232"/>
<path d="M193.85 130.86C190.95 130.86 190.95 135.36 193.85 135.36C196.75 135.36 196.75 130.86 193.85 130.86Z" fill="#323232"/>
<path d="M189.16 126.64C189.79 126.61 190.26 126.38 190.75 125.98C190.67 126.04 190.62 126.08 190.56 126.13C190.54 126.13 190.53 126.14 190.51 126.15C190.52 126.15 190.53 126.15 190.55 126.14C190.43 126.24 190.35 126.3 190.31 126.33C190.37 126.29 190.46 126.22 190.55 126.17C190.62 126.13 190.69 126.1 190.75 126.07C191.19 125.9 191.64 125.78 192.11 125.7C192.78 125.63 193.45 125.64 194.12 125.7C194.75 125.81 195.37 125.95 195.98 126.15C197.1 126.52 198.49 125.72 198.75 124.58C199.03 123.34 198.38 122.21 197.18 121.81C195.08 121.12 192.85 120.93 190.69 121.38C189.56 121.61 188.47 122.06 187.57 122.79C187.15 123.13 186.91 123.87 186.91 124.38C186.91 124.93 187.16 125.59 187.57 125.97C188 126.36 188.56 126.66 189.16 126.63V126.64Z" fill="#323232"/>
<path d="M190.32 126.32C190.27 126.36 190.26 126.37 190.32 126.32Z" fill="#323232"/>
<path d="M218.72 126.16C219.33 125.96 219.95 125.81 220.58 125.71C221.25 125.64 221.92 125.63 222.59 125.71C223.05 125.79 223.51 125.91 223.95 126.08C224.02 126.11 224.09 126.14 224.15 126.18C224.2 126.21 224.25 126.24 224.29 126.27C224.25 126.24 224.19 126.19 224.14 126.15C224.14 126.15 224.16 126.15 224.17 126.16C224.58 126.45 224.99 126.65 225.54 126.65C226.09 126.65 226.75 126.4 227.13 125.99C227.88 125.17 228.11 123.6 227.13 122.81C226.23 122.08 225.14 121.63 224.01 121.4C221.84 120.96 219.61 121.15 217.52 121.83C216.4 122.2 215.56 123.4 215.95 124.6C216.31 125.71 217.52 126.56 218.72 126.17V126.16ZM224.18 126.14C224.18 126.14 224.16 126.13 224.14 126.12C224.08 126.07 224.03 126.03 223.95 125.97C224.02 126.03 224.1 126.08 224.17 126.13L224.18 126.14Z" fill="#323232"/>
<path d="M224.35 126.29C224.35 126.29 224.32 126.27 224.3 126.26C224.83 126.68 224.48 126.37 224.36 126.3L224.35 126.29Z" fill="#323232"/>
<path d="M296.54 242.62C295.95 238.73 294.98 234.88 293.75 231.14C292.47 227.28 290.93 223.28 288.32 220.11C285.64 216.86 281.61 214.45 278.01 212.35C273.84 209.91 269.46 207.84 265.08 205.82C260.67 203.8 256.19 201.88 251.92 199.56C251.55 199.36 251.19 199.28 250.85 199.28C250.27 198.05 249.71 196.82 249.11 195.61C246.31 189.94 243.04 185.27 237.07 182.76C236.2 182.39 235.21 182.9 234.66 183.64C235.97 184.77 237.2 185.78 238.93 185.78C237.2 185.78 235.96 184.78 234.66 183.64C234.5 183.86 234.37 184.09 234.3 184.33C233.93 185.62 234.76 186.63 235.87 187.1C241.19 189.35 243.68 194.64 246.03 199.57C248.78 205.35 251.3 211.24 254.06 217.02C249.53 215.25 244.94 213.62 240.65 211.37C240.82 206.09 240.74 200.8 240.33 195.56C240.24 194.35 239.36 193.31 238.08 193.31C236.98 193.31 235.85 194.26 235.84 195.41C236.62 196.58 237.37 197.79 238.92 197.79C237.36 197.79 236.61 196.58 235.84 195.41C235.84 195.46 235.83 195.51 235.84 195.56C236.09 198.83 236.2 202.13 236.23 205.42C235.86 205.48 235.49 205.63 235.14 205.92C227.53 212.1 218.34 216.78 208.39 217.18C197.62 217.62 187.63 213 179.36 206.37C178.93 206.03 178.47 205.87 178.01 205.84C177.95 203.57 177.96 201.23 178.33 199C177.49 199.98 176.57 200.99 175.92 202.28C176.57 200.99 177.49 199.97 178.33 199C178.48 198.13 178.68 197.27 178.96 196.45C179.9 193.7 175.55 192.52 174.62 195.25C173.26 199.23 173.46 203.88 173.58 208.02C173.64 210.16 173.76 212.3 173.92 214.44C172.45 212.52 170.94 210.64 169.42 208.79C168.82 208.07 167.46 207.93 166.69 208.44C163.06 210.87 159.42 213.38 155.68 215.72C162.1 205.03 169.58 195.08 178.75 186.5C180.03 185.3 179.37 183.68 178.19 183.01C177.41 182.57 176.41 182.53 175.57 183.32C169.94 188.58 164.93 194.36 160.39 200.5C160.27 200.52 160.14 200.54 160.01 200.58C150.77 203.64 141.75 207.65 132.91 211.7C129.73 213.16 126.37 214.48 123.97 217.13C120.61 220.83 118.49 225.55 116.62 230.12C114.82 234.53 113.33 239.07 112.06 243.66C111.97 243.99 111.95 244.3 111.99 244.59H116.48C117.48 240.99 118.62 237.42 119.94 233.91C121.59 229.52 123.49 224.89 126.41 221.17C128.44 218.58 131.22 217.41 134.14 216.06C138.51 214.03 142.94 212.12 147.39 210.26C150.23 209.08 153.09 207.9 155.97 206.8C152.99 211.29 150.21 215.92 147.63 220.67C146.53 222.7 148.71 224.77 150.71 223.75C156.5 220.78 161.96 217.02 167.37 213.37C170.26 216.93 173.07 220.59 175.46 224.49C175.48 224.53 175.51 224.55 175.53 224.59C175.53 224.61 175.53 224.63 175.54 224.65C176.86 230.92 178.2 237.18 179.56 243.43C179.67 243.94 179.9 244.31 180.21 244.58H182.99C183.68 244.1 184.13 243.28 183.9 242.24C182.57 236.12 181.26 230 179.97 223.88C179.61 222.17 179.25 220.46 178.9 218.75C178.83 218.43 178.79 218.07 178.69 217.76C178.6 215.55 178.38 213.34 178.22 211.13C186.97 217.65 197.24 222.12 208.36 221.67C218.65 221.25 228.03 216.87 236.13 210.77C236.06 213.33 235.94 215.88 235.74 218.42C235.73 218.6 235.74 218.78 235.79 218.95C235.2 223 234.34 227.02 233.47 230.98C232.85 233.8 232.18 236.62 231.4 239.4C231.12 240.38 230.82 241.35 230.49 242.31C230.44 242.47 230.38 242.63 230.31 242.79C230.31 242.79 230.31 242.794 230.31 242.8C230.28 242.89 230.27 242.94 230.25 242.99C229.84 243.42 229.6 244.01 229.56 244.59H234.41C234.67 244.01 234.88 243.39 235.07 242.84C236.01 239.99 236.7 237.06 237.38 234.14C238.72 228.32 240.01 222.36 240.64 216.38C246.18 218.97 252.08 220.77 257.62 223.35C259.63 224.29 261.8 222.36 260.7 220.27C258.17 215.46 255.95 210.5 253.71 205.55C262.34 209.79 271.42 213.16 279.44 218.57C281.43 219.91 283.6 221.39 285.1 223.29C286.51 225.08 287.5 227.29 288.32 229.39C290.13 234.01 291.43 238.9 292.17 243.81C292.22 244.12 292.32 244.37 292.44 244.59H295.9C296.35 244.1 296.63 243.43 296.5 242.62H296.54ZM230.36 242.92C230.55 242.67 230.99 242.28 231.84 242.3C231.24 242.3 230.74 242.55 230.36 242.92Z" fill="#323232"/>
<path d="M230.35 242.81C230.46 242.43 230.25 243.06 230.35 242.81Z" fill="#323232"/>
<path d="M198.3 160.151C198.3 160.151 198.23 160.151 198.19 160.161C197.72 160.211 197.34 160.371 197.04 160.621C197.04 160.621 197.03 160.631 197.02 160.641C196.83 160.801 196.68 160.991 196.56 161.211C196.52 161.291 196.49 161.371 196.45 161.451C196.41 161.561 196.37 161.671 196.34 161.791C196.24 162.171 196.2 162.571 196.27 162.981C197.01 167.371 199.88 171.291 204.25 172.611C207.98 173.731 212.33 172.621 214.9 169.651C216.68 167.591 217.52 165.081 217.73 162.391C217.82 161.181 216.62 160.141 215.48 160.141H198.44C198.39 160.141 198.35 160.151 198.3 160.151ZM212.64 164.931C212.56 165.091 212.48 165.261 212.4 165.421C212.22 165.761 211.99 166.061 211.79 166.391C211.75 166.431 211.71 166.481 211.67 166.531C211.53 166.681 211.4 166.831 211.25 166.971C211.12 167.091 210.99 167.211 210.86 167.321C210.83 167.351 210.82 167.361 210.8 167.381C210.78 167.391 210.76 167.401 210.73 167.421C210.44 167.611 210.16 167.791 209.85 167.951C209.7 168.031 209.54 168.101 209.39 168.171C209.83 167.961 209.48 168.131 209.25 168.201C208.91 168.311 208.56 168.411 208.2 168.471C208.16 168.471 208.1 168.481 208.05 168.491C208.08 168.491 208.11 168.491 208.16 168.491C207.97 168.491 207.77 168.531 207.58 168.531C207.24 168.541 206.9 168.531 206.57 168.511C206.53 168.511 206.5 168.511 206.46 168.501C206.27 168.451 206.06 168.431 205.87 168.381C205.53 168.301 205.21 168.181 204.88 168.071C204.87 168.071 204.87 168.071 204.86 168.071C204.84 168.061 204.83 168.051 204.8 168.041C204.62 167.951 204.44 167.861 204.26 167.761C204.11 167.671 203.95 167.581 203.8 167.481C203.77 167.461 203.65 167.381 203.55 167.311C203.47 167.241 203.3 167.111 203.26 167.081C203.08 166.921 202.91 166.751 202.74 166.581C202.59 166.421 202.45 166.261 202.31 166.091C202.26 166.021 202.21 165.951 202.16 165.881C201.89 165.481 201.64 165.061 201.43 164.631H212.73C212.73 164.631 212.72 164.691 212.71 164.721C212.69 164.791 212.66 164.861 212.63 164.921L212.64 164.931Z" fill="#323232"/>
<path d="M208.05 168.5C207.87 168.51 207.72 168.5 208.05 168.5Z" fill="#323232"/>
<path d="M222.907 161.398C222.922 161.512 222.955 161.651 222.968 161.754C223.055 162.693 224.012 163.95 224.895 164.283C225.835 164.636 226.439 164.175 226.35 163.175C226.181 161.292 224.873 158.996 223.571 157.134C222.138 155.082 220.3 153.201 218.376 152.241C217.478 151.793 216.758 152.405 216.921 153.349C217.089 154.377 217.835 155.318 218.744 155.819C218.816 155.866 218.892 155.908 218.958 155.958C219.068 156.026 219.186 156.124 219.303 156.211C219.197 156.128 219.142 156.057 219.358 156.245C219.364 156.253 219.376 156.269 219.386 156.273C219.403 156.286 219.42 156.298 219.437 156.31C219.42 156.298 219.403 156.286 219.393 156.281C219.455 156.334 219.517 156.387 219.575 156.444C219.74 156.595 219.901 156.749 220.057 156.906C220.207 157.056 220.339 157.22 220.489 157.369C219.97 156.859 220.501 157.385 220.634 157.56C220.939 157.932 221.231 158.325 221.508 158.717C221.569 158.797 221.62 158.883 221.676 158.966C221.664 158.95 221.658 158.942 221.651 158.923C221.744 159.103 221.879 159.289 221.982 159.463C222.207 159.844 222.419 160.236 222.606 160.634C222.626 160.669 222.641 160.708 222.656 160.747C222.73 160.929 222.8 161.115 222.858 161.297C222.869 161.339 222.884 161.378 222.901 161.428L222.907 161.398Z" fill="#323232"/>
</g>
<defs>
<clipPath id="clip0_2_87">
<rect width="184.57" height="171.6" fill="white" transform="translate(112 73)"/>
</clipPath>
</defs>
</svg>
