<svg width="297" height="93" viewBox="0 0 297 93" fill="none" xmlns="http://www.w3.org/2000/svg">
<mask id="mask0_1_15" style="mask-type:alpha" maskUnits="userSpaceOnUse" x="0" y="0" width="297" height="93">
<rect width="297" height="93" fill="#D9D9D9"/>
</mask>
<g mask="url(#mask0_1_15)">
<rect x="8.5" y="20.5" width="287" height="71" stroke="#2B5174" stroke-width="3"/>
<path d="M35.3726 43.1628C40.5038 38.308 45.9341 33.9819 51.6634 30.1847C52.0728 30.2187 52.4341 30.3767 52.7472 30.6588C53.0626 30.8998 53.4257 31.3864 53.8365 32.1187C54.2473 32.851 54.3381 33.4246 54.1088 33.8394C53.9253 34.1712 52.4941 35.1 49.8153 36.6256C47.1365 38.1512 44.1591 40.5858 40.883 43.9294C40.2877 44.2685 39.9313 44.7471 39.8138 45.3654C39.6963 45.9836 39.6817 46.6001 39.7701 47.2148C39.6221 48.3676 39.52 49.4375 39.4638 50.4244C39.965 50.2924 41.4734 49.8142 43.9888 48.9898C46.5454 48.1647 49.9751 47.1806 54.2777 46.0374C58.5828 44.8532 62.6926 44.2064 66.6072 44.097C67.8792 44.157 68.7835 44.5315 69.3203 45.2205C69.8181 45.8691 70.0319 46.8102 69.9616 48.0439C69.7055 49.6505 69.2203 52.3908 68.5059 56.2649C67.8326 60.1382 67.2269 63.1888 66.6885 65.4165C66.1937 67.6024 64.8149 73.0286 62.5521 81.6951C62.0405 82.731 61.3317 83.2569 60.4257 83.2727C59.4926 83.0425 58.9088 82.457 58.6744 81.5162C58.4671 80.8214 58.397 80.2475 58.4639 79.7945C58.185 79.635 57.0125 79.6349 54.9464 79.7942C52.8779 79.9946 49.5594 80.833 44.9909 82.3094C43.8237 82.5763 42.8726 83.0242 42.1373 83.6533C40.7478 84.2115 39.5218 84.0686 38.459 83.2244C37.7506 82.6617 37.1362 81.8918 36.6158 80.915C36.0932 79.9792 35.8188 79.0186 35.7926 78.0331C35.579 75.2844 35.4313 72.8222 35.3495 70.6463C35.3492 69.2085 35.3587 67.2364 35.378 64.7302C35.3706 63.4157 35.3703 61.9779 35.3769 60.4167C35.4793 55.7317 35.5346 51.1502 35.5429 46.6723C35.492 45.3997 35.4352 44.2298 35.3726 43.1628ZM60.9905 48.4468C57.416 49.0843 54.1375 49.9426 51.155 51.0216C48.1725 52.1006 45.8595 52.9831 44.2159 53.6691C43.7924 53.8819 43.3288 54.0748 42.8253 54.2479C42.324 54.3799 41.7487 54.3694 41.0991 54.2164C40.4519 54.0223 39.9206 53.6002 39.5051 52.9502L39.3153 56.281C39.2711 58.5002 39.2338 59.877 39.2034 60.4116C41.0529 59.722 43.4595 59.0022 46.4233 58.2522L46.8627 58.1213C49.6594 57.4152 51.9925 56.9021 53.8621 56.5819C55.8576 56.2185 57.4148 55.9654 58.5338 55.8226C59.6621 55.5154 60.7576 55.7838 61.8203 56.628C62.2288 57.4014 62.3114 58.1189 62.068 58.7804C61.6987 59.4852 60.9833 59.7647 59.922 59.6189C56.2745 60.0933 53.2401 60.6392 50.8188 61.2566C48.3997 61.8328 44.9631 62.9403 40.5087 64.5791C39.8816 64.7543 39.431 64.7211 39.1567 64.4794C39.123 65.7946 39.1605 67.6631 39.2694 70.085C40.4683 69.9819 42.3461 69.5178 44.9027 68.6927C47.5029 67.8257 50.136 67.102 52.8021 66.5214C55.4706 65.8997 57.1595 65.5006 57.869 65.3239C58.9126 65.0592 59.9375 65.1235 60.9436 65.5167C61.179 65.718 61.3456 66.0438 61.4433 66.494C61.5846 66.9023 61.5842 67.272 61.4419 67.6032C61.3019 67.8932 61.1067 68.4306 60.8563 69.2155C59.3302 69.2832 57.9059 69.3697 56.5834 69.4749C55.3021 69.5794 53.6578 69.9162 51.6506 70.4853C49.6458 71.0132 47.6933 71.7045 45.7933 72.5593C43.9367 73.3722 42.6937 73.8869 42.0643 74.1032C41.4784 74.2778 40.6276 74.0461 39.512 73.4083C39.0654 75.4701 39.277 77.1713 40.1469 78.5118C40.3589 79.1243 40.759 79.3227 41.3472 79.1071C42.8485 78.7522 44.351 78.3768 45.8546 77.9809C50.0773 76.7981 54.0488 76.051 57.7693 75.7396C58.7553 75.7635 59.556 75.7906 60.1714 75.8209C60.6231 75.1147 60.9928 74.0401 61.2808 72.5973C61.6098 71.1537 61.9284 69.8952 62.2364 68.8217C62.5444 67.7483 62.9323 65.9956 63.3999 63.5636C63.8676 61.1317 64.2284 59.133 64.4821 57.5675C64.7794 55.9602 65.0126 54.395 65.1816 52.8721C65.3507 51.3491 65.4109 49.9308 65.3623 48.6171C64.9187 48.4605 64.4727 48.345 64.0244 48.2707C63.1254 48.1631 62.1141 48.2218 60.9905 48.4468ZM112.924 77.1809C112.482 77.7227 111.961 78.2042 111.361 78.6255C110.761 79.0467 110.117 79.1607 109.428 78.9673C108.779 78.8143 108.161 78.4553 107.577 77.8904C107.033 77.3247 106.756 76.775 106.745 76.2411C106.732 75.7484 106.914 75.4371 107.292 75.3073C108.767 75.4048 109.975 74.788 110.915 73.4571C111.896 72.1254 112.902 70.3413 113.935 68.105C114.967 65.8686 116.125 63.2398 117.408 60.2185C117.668 59.2691 117.868 58.2797 118.009 57.2502C115.429 57.0487 112.206 57.6595 108.34 59.0826C109.377 59.6396 109.799 60.1869 109.604 60.7243C109.45 61.2611 109.127 61.8623 108.637 62.5282C106.458 66.8386 103.923 71.6071 101.034 76.8337C100.474 77.9937 99.8385 78.3129 99.1277 77.7912C98.6063 77.5539 98.1562 77.1509 97.7772 76.5824C97.4393 76.0131 97.4333 75.397 97.759 74.7341C98.6647 73.2804 99.5556 71.7244 100.432 70.0658C101.351 68.3655 102.366 66.4375 103.477 64.282C103.918 63.0419 104.276 61.8032 104.552 60.5659C103.969 60.6994 103.508 60.8512 103.169 61.0214C102.832 61.1505 102.04 61.6984 100.792 62.665C100.439 63.082 99.9465 63.4192 99.3147 63.6767C98.7241 63.9335 98.3399 63.817 98.1621 63.3271C97.6113 62.8848 97.1452 62.4 96.7639 61.8726C96.5402 61.4657 96.3371 61.0584 96.1547 60.6508C96.0957 60.241 96.2174 59.9102 96.5198 59.6585C96.8656 59.3649 97.2068 59.1535 97.5433 59.0244C101.978 57.0163 105.865 55.5723 109.207 54.6924C109.664 54.6022 110.081 54.5128 110.456 54.4241C114.125 53.5796 116.809 53.0398 118.509 52.8047C119.427 52.5833 120.286 52.671 121.086 53.0679C121.928 53.464 122.488 54.091 122.769 54.9488C123.051 55.7655 123.045 56.6078 122.748 57.4756C121.481 60.9485 120.327 63.8648 119.288 66.2246C118.25 68.5432 117.227 70.6151 116.218 72.4402C115.253 74.2236 114.155 75.8038 112.924 77.1809ZM98.1028 38.3715C99.4882 35.7182 100.354 34.2447 100.7 33.9511C101.47 34.1431 102.235 34.4378 102.994 34.8354C104.3 35.7575 104.476 36.9869 103.525 38.5234C98.0709 46.8758 93.7137 53.6685 90.4534 58.9016C87.6859 63.4276 85.7483 66.7479 84.6404 68.8623C84.4593 69.1531 84.2987 69.4434 84.1588 69.7334C83.9636 70.2709 83.669 70.7485 83.2749 71.1661C82.922 71.5831 82.4414 71.7147 81.833 71.561C81.4718 71.403 81.1746 71.2028 80.9416 70.9604C80.3613 70.3132 80.1417 69.4749 80.2826 68.4454C80.3566 67.869 80.5518 67.3315 80.8682 66.833C81.8244 65.2142 83.3228 62.7437 85.3634 59.4217C87.4476 56.0578 89.4229 52.7985 91.2894 49.6438C93.1583 46.448 95.4294 42.6906 98.1028 38.3715ZM116.315 36.082C117.163 34.917 118.144 34.6739 119.257 35.3529C120.13 35.9128 120.807 36.661 121.289 37.5974C122.418 40.1658 123.92 42.6866 125.795 45.1599C126.252 45.8092 126.73 46.4376 127.23 47.0451C129.809 50.1633 131.98 52.8574 133.743 55.1271C135.509 57.3558 136.676 58.8965 137.244 59.7493C137.733 60.5624 137.588 61.3044 136.809 61.9752C136.415 62.3929 135.973 62.565 135.484 62.4913C135.038 62.3759 134.703 62.1147 134.479 61.7078C133.223 59.9221 131.202 57.4925 128.415 54.419C126.749 52.5994 124.855 50.106 122.731 46.9387C121.252 44.7461 119.647 42.2271 117.916 39.3816C117.357 38.3644 116.823 37.2645 116.315 36.082ZM156.738 71.2283C156.224 71.9952 155.607 72.6737 154.887 73.2637C154.203 73.8531 153.52 74.4064 152.84 74.9235C152.201 75.3678 151.625 75.6305 151.115 75.7115C150.602 75.8288 149.995 75.695 149.294 75.3102C148.629 74.9248 148.176 74.3191 147.934 73.4932C147.359 72.1679 147.086 70.2959 147.115 67.8772C147.147 65.4224 147.441 62.4758 147.998 59.0374C148.594 55.5622 149.368 52.12 150.322 48.7107C150.679 47.5135 150.912 46.5891 151.022 45.9375C151.17 45.2492 151.391 44.8483 151.687 44.7349C151.834 44.6962 151.997 44.6753 152.178 44.6722C152.359 44.669 152.592 44.7011 152.878 44.7683C153.378 44.8678 153.816 45.1128 154.191 45.5033C154.569 45.8576 154.724 46.3061 154.657 46.8486C154.592 47.355 154.548 47.8069 154.525 48.2043C153.774 50.5995 153.078 52.9937 152.435 55.3869C151.793 57.7802 151.278 60.478 150.89 63.4804C150.54 66.446 150.393 68.7043 150.45 70.2552C150.544 71.7695 150.656 72.6517 150.787 72.9021C151.924 71.98 153.069 71.2201 154.224 70.6225C154.6 70.3633 154.952 70.2128 155.28 70.171C155.644 70.1286 155.947 70.1955 156.19 70.3717C156.469 70.5473 156.652 70.8328 156.738 71.2283ZM168.167 69.5132C166.769 69.9345 165.633 69.5754 164.758 68.4357C164.514 67.646 164.478 67.015 164.649 66.5428C164.823 66.0345 165.363 65.7544 166.269 65.7025C168.404 65.6653 170.55 65.4293 172.707 64.9947C174.867 64.5239 176.993 63.9996 179.086 63.4217C180.186 63.1499 180.844 63.3369 181.06 63.9828C181.313 64.6281 181.357 65.1145 181.194 65.4422C181.031 65.7699 180.597 66.0842 179.893 66.3852C179.189 66.6862 177.68 67.1637 175.366 67.8176C173.088 68.4709 170.688 69.0361 168.167 69.5132ZM165.658 56.4556C165.27 56.2819 164.939 56.0712 164.664 55.8233C164.388 55.5755 164.134 55.2912 163.899 54.9705C163.666 54.6136 163.542 54.2548 163.526 53.8942C163.549 53.4968 163.667 53.0075 163.881 52.4263C167.392 51.7154 170.869 50.951 174.313 50.133C175.26 50.0082 176.042 49.9224 176.659 49.8755C177.312 49.828 177.883 49.9625 178.371 50.2788C178.897 50.5583 179.253 51.292 179.438 52.4798C178.943 52.9215 178.44 53.1829 177.93 53.264C177.421 53.309 176.914 53.3359 176.407 53.3447C175.901 53.3536 174.934 53.5148 173.506 53.8284C172.079 54.1421 170.794 54.4893 169.652 54.8701C168.509 55.251 167.178 55.7795 165.658 56.4556ZM218.067 37.3269C217.671 37.7857 216.266 39.3301 213.854 41.9603C211.441 44.5905 208.275 48.1787 204.354 52.7248C200.477 57.2292 197.914 60.3344 196.665 62.0405C195.418 63.7055 194.611 64.8698 194.244 65.5335C194.058 65.9065 193.891 66.3202 193.741 66.7747C193.599 67.1058 193.476 67.4572 193.373 67.8287C192.667 68.6626 191.748 68.9046 190.616 68.5546L190.191 68.4388C188.893 67.3933 188.714 66.2051 189.653 64.8741C190.595 63.502 191.864 61.8161 193.459 59.8164C195.098 57.7749 198.381 53.9382 203.31 48.3063C208.28 42.6737 212.134 38.2109 214.872 34.9177C216.054 33.6647 217.31 32.205 218.639 30.5385C218.922 29.9174 219.339 29.4582 219.89 29.1611C220.06 29.0759 220.247 29.0316 220.453 29.028C220.783 29.0222 221.105 29.1399 221.421 29.3809C222.02 29.6991 222.383 30.1857 222.51 30.8408C222.678 31.4951 222.559 32.1545 222.15 32.8189C221.665 33.4025 221.314 33.7784 221.099 33.9464C220.886 34.0734 220.748 34.3223 220.686 34.6931C223.613 37.4766 226.707 40.2162 229.968 42.9117C230.715 43.5149 231.442 44.1184 232.148 44.7223C234.703 46.814 237.32 48.9045 239.999 50.994C243.427 53.6456 245.54 55.1903 246.338 55.6283C246.927 56.111 247.411 56.6571 247.787 57.2668C248.23 58.1628 248.12 59.0069 247.458 59.799C246.563 60.3487 245.744 60.2808 245.001 59.5954C243.744 58.5492 242.408 57.4428 240.994 56.2761C239.623 55.0676 237.814 53.5997 235.567 51.8724C233.483 50.1833 231.259 48.4146 228.896 46.5661L228.539 46.3258C226.101 44.3554 224.038 42.6454 222.352 41.1959C220.707 39.7457 219.278 38.456 218.067 37.3269ZM228.905 52.9129C228.354 53.9084 227.513 54.2312 226.381 53.8812C225.237 53.7368 223.611 53.7652 221.501 53.9663C219.432 54.1667 217.48 54.4883 215.645 54.9312C214.769 55.1518 213.954 55.3715 213.201 55.59C212.404 55.8504 211.669 56.1097 210.997 56.3679C209.273 57.0142 207.919 56.5859 206.935 55.0831C206.264 53.8623 206.683 53.0129 208.191 52.5347C213.01 51.7112 217.807 50.9292 222.58 50.1886L224.694 49.9053C225.36 49.7704 226.04 49.7585 226.733 49.8697C227.467 49.9801 227.98 50.3615 228.272 51.0137C228.605 51.6651 228.816 52.2982 228.905 52.9129ZM211.641 77.5544C210.722 78.5153 209.748 78.6349 208.72 77.9134C208.064 77.1443 207.442 75.7995 206.852 73.879C206.259 71.9996 205.881 69.9727 205.717 67.7983C205.596 65.582 205.484 63.9407 205.38 62.8745C205.447 62.4214 205.614 62.0282 205.88 61.6949C206.148 61.3205 206.77 61.2275 207.747 61.4159C208.723 61.6043 209.261 61.9235 209.358 62.3737C209.497 62.8232 209.535 63.2539 209.47 63.6658C212.508 62.3393 215.756 61.2968 219.213 60.5381C222.671 59.7794 225.551 59.4211 227.853 59.4631C228.383 59.536 228.993 59.6691 229.681 59.8625C230.411 60.0552 230.861 60.4582 231.032 61.0714C231.205 61.6435 231.235 62.1976 231.122 62.7336C230.757 64.0957 230.161 65.5233 229.335 67.0166C228.51 68.51 227.846 69.6923 227.344 70.5638C227.678 70.4758 228.03 70.4286 228.401 70.4221C228.771 70.4156 229.257 70.551 229.859 70.828C230.46 71.1051 230.741 71.9424 230.703 73.3398C229.488 73.7307 228.419 74.078 227.496 74.3816C224.359 75.2991 220.511 76.3932 215.954 77.664C214.751 77.8493 213.825 77.4957 213.176 76.6033C212.896 75.7455 212.748 75.0908 212.733 74.6391C212.715 74.2286 213.081 73.9347 213.832 73.7573C216.956 73.0866 219.857 72.3581 222.534 71.572C223.359 70.8181 224.238 69.4677 225.172 67.5206C226.108 65.5324 226.642 64.1058 226.773 63.2408C225.829 63.2162 224.505 63.342 222.802 63.6182C221.102 63.8532 219.141 64.3393 216.918 65.0765C214.737 65.8129 212.909 66.4815 211.435 67.0823C210.629 67.5072 209.918 67.3553 209.301 66.6266C209.309 69.3789 209.577 71.5309 210.106 73.0828C210.678 74.5928 211.017 75.5112 211.121 75.838C211.267 76.1641 211.441 76.7362 211.641 77.5544ZM263.526 53.9728C262.957 53.8595 262.329 53.6856 261.643 53.4511C261 53.1747 260.635 52.7292 260.547 52.1146C260.502 51.458 260.66 50.8391 261.023 50.2576C262.349 48.6323 263.933 47.1874 265.775 45.9229C267.657 44.6576 269.415 43.7643 271.049 43.2428C272.727 42.6795 274.45 42.4029 276.219 42.4132C278.104 42.5446 279.734 43.1735 281.11 44.2998C282.529 45.3842 283.369 46.8895 283.63 48.8158C283.851 50.7016 283.758 52.6957 283.35 54.7979C282.945 56.859 281.973 59.4846 280.433 62.6747C278.935 65.864 277.262 68.8716 275.414 71.6973C273.61 74.4812 272.315 76.2702 271.529 77.0645C270.743 77.8587 269.915 78.6742 269.045 79.511C268.525 79.972 267.935 80.2082 267.276 80.2197C266.659 80.2305 266.143 79.8903 265.73 79.1991C265.278 78.4676 265.381 77.7468 266.038 77.037C268.854 73.8247 271.235 70.6816 273.179 67.6077C275.166 64.4919 277.094 60.2681 278.961 54.9361C279.505 53.3244 279.866 51.6955 280.042 50.0492C280.347 49.0168 280.187 48.2185 279.561 47.6543C278.935 47.0901 277.924 46.7791 276.529 46.7213C275.133 46.6634 273.64 46.8743 272.049 47.354C270.459 47.8336 268.803 48.7252 267.083 50.0287C265.405 51.3315 264.219 52.6462 263.526 53.9728ZM271.544 39.9682C272.071 37.9461 272.481 35.8027 272.775 33.5382C273.112 31.2318 272.851 28.9563 271.991 26.7119C271.967 25.6853 272.313 25.0425 273.027 24.7835C273.278 24.697 273.528 24.6516 273.775 24.6473C274.104 24.6415 274.386 24.7598 274.619 25.0023C274.966 25.407 275.409 26.3031 275.947 27.6904C276.526 29.0771 276.766 30.634 276.668 32.3611C276.57 34.0882 276.275 35.6544 275.783 37.0597C275.333 38.4643 274.968 39.4566 274.688 40.0366C274.5 40.4507 274.234 40.784 273.89 41.0365C273.588 41.2883 273.136 41.2756 272.535 40.9985C271.934 40.7214 271.603 40.378 271.544 39.9682Z" fill="#D5A712"/>
<path d="M0.999302 18.9997L21.9995 37.9998L56.0402 0.256226" stroke="#D5A712" stroke-width="7"/>
</g>
</svg>
