<svg width="172" height="172" viewBox="0 0 172 172" fill="none" xmlns="http://www.w3.org/2000/svg">
<g clip-path="url(#clip0_289_6013)">
<circle cx="86" cy="86" r="86" fill="white"/>
<path d="M124.513 14.335L131.433 35.6985C119.031 24.5731 102.586 17.8159 84.4968 17.8159C45.7829 17.8159 14.332 49.0762 14.332 87.708C14.332 126.34 45.7829 157.668 84.5654 157.668C123.348 157.668 154.799 126.34 154.799 87.708" stroke="#2B5174" stroke-width="6.60323" stroke-linecap="round" stroke-linejoin="round"/>
<path d="M111.801 40.1327L131.867 34.3994" stroke="#2B5174" stroke-width="6.60323" stroke-linecap="round" stroke-linejoin="round"/>
<path d="M38.0699 102.657L55.2808 79.7552C56.2524 78.4367 57.0158 77.1181 57.571 75.6607C58.1262 74.2033 58.4038 72.9542 58.4038 71.705C58.4038 69.6924 57.8486 68.1657 56.6688 67.0553C55.489 65.9449 53.8928 65.4591 51.7415 65.4591C49.7289 65.4591 48.1327 66.0837 46.8836 67.2635C45.6344 68.4432 44.871 70.1088 44.5934 72.3296H37.4453C37.8617 69.4842 38.6945 67.0553 39.9437 65.0427C41.1928 63.0301 42.789 61.5034 44.8016 60.4624C46.8142 59.4214 49.1043 58.8662 51.6721 58.8662C54.5868 58.8662 57.0852 59.352 59.1671 60.393C61.2491 61.434 62.8453 62.8913 63.8863 64.7651C64.9272 66.6389 65.4824 68.9984 65.4824 71.705C65.4824 73.5094 65.1354 75.3137 64.372 77.1875C63.6087 79.0613 62.6371 80.935 61.3879 82.67L47.0917 102.032H65.76V108.625H38.0699V102.657Z" fill="#2B5174"/>
<path d="M71.2422 95.0958L87.7591 59.4248H94.9072L78.8067 94.6794H102.957V101.064H71.2422V95.0958ZM92.4782 79.6893H99.2099V108.698H92.4782V79.6893Z" fill="#2B5174"/>
<path d="M110.66 71.1494H116.212V110.846H110.66V71.1494ZM127.871 93.6346C127.871 91.6221 127.385 90.0953 126.344 88.9849C125.303 87.8745 123.846 87.3193 121.972 87.3193C120.098 87.3193 118.78 87.8051 117.739 88.7073C116.767 89.6789 116.281 90.9975 116.281 92.7324L115.726 87.2499C116.628 85.5844 117.739 84.2658 119.127 83.3636C120.515 82.4614 122.111 81.9756 123.777 81.9756C126.83 81.9756 129.259 83.0166 130.925 84.9598C132.59 86.9723 133.423 89.8177 133.423 93.4958V110.707H127.871V93.5652V93.6346Z" fill="#2B5174"/>
</g>
<defs>
<clipPath id="clip0_289_6013">
<rect width="172" height="172" fill="white"/>
</clipPath>
</defs>
</svg>
