<svg width="272" height="72" viewBox="0 0 272 72" fill="none" xmlns="http://www.w3.org/2000/svg">
<path d="M117.728 42.7967C117.728 45.0442 117.452 47.0706 116.899 48.8759C116.346 50.6813 115.518 52.2195 114.412 53.4906C113.325 54.7617 111.962 55.7381 110.323 56.4197C108.683 57.1013 106.776 57.4421 104.603 57.4421C103.608 57.4421 102.631 57.3776 101.673 57.2487C100.715 57.1382 99.7115 56.9539 98.6614 56.696C98.7167 55.9592 98.7812 55.2223 98.8549 54.4854C98.9286 53.7485 98.993 53.0117 99.0483 52.2748C99.1036 51.8695 99.2602 51.5471 99.5181 51.3076C99.7944 51.0497 100.181 50.9208 100.679 50.9208C100.992 50.9208 101.397 50.9852 101.894 51.1142C102.41 51.2431 103.055 51.3076 103.829 51.3076C104.879 51.3076 105.809 51.1602 106.62 50.8655C107.43 50.5523 108.103 50.0641 108.637 49.401C109.19 48.7378 109.604 47.8811 109.88 46.8311C110.157 45.7626 110.295 44.4731 110.295 42.9625V17.0428H117.728V42.7967ZM146.767 41.9124L141.904 28.621C141.664 28.0315 141.416 27.3315 141.158 26.5209C140.9 25.7103 140.642 24.8353 140.384 23.8958C140.145 24.8353 139.896 25.7196 139.638 26.5485C139.38 27.3591 139.131 28.0684 138.892 28.6763L134.056 41.9124H146.767ZM159.893 57H154.145C153.501 57 152.975 56.8434 152.57 56.5302C152.165 56.1986 151.861 55.7934 151.658 55.3144L148.674 47.1627H132.122L129.138 55.3144C128.99 55.7381 128.705 56.125 128.281 56.475C127.857 56.825 127.332 57 126.706 57H120.903L136.626 17.0428H144.197L159.893 57ZM177.016 37.1319C178.379 37.1319 179.568 36.9661 180.581 36.6346C181.594 36.2845 182.432 35.7964 183.095 35.17C183.777 34.5252 184.284 33.7515 184.615 32.8488C184.947 31.9278 185.113 30.9053 185.113 29.7816C185.113 28.7131 184.947 27.746 184.615 26.8801C184.284 26.0143 183.786 25.2774 183.123 24.6695C182.46 24.0616 181.622 23.601 180.609 23.2879C179.595 22.9563 178.398 22.7905 177.016 22.7905H171.462V37.1319H177.016ZM177.016 17.0428C179.687 17.0428 181.999 17.356 183.952 17.9823C185.905 18.6087 187.517 19.4837 188.788 20.6075C190.059 21.7312 190.998 23.076 191.606 24.6419C192.233 26.2077 192.546 27.921 192.546 29.7816C192.546 31.7159 192.224 33.4936 191.579 35.1147C190.934 36.7175 189.967 38.0991 188.677 39.2597C187.388 40.4203 185.767 41.3229 183.814 41.9677C181.88 42.6125 179.614 42.9349 177.016 42.9349H171.462V57H164.029V17.0428H177.016ZM216.551 41.9124L211.688 28.621C211.448 28.0315 211.2 27.3315 210.942 26.5209C210.684 25.7103 210.426 24.8353 210.168 23.8958C209.928 24.8353 209.68 25.7196 209.422 26.5485C209.164 27.3591 208.915 28.0684 208.676 28.6763L203.84 41.9124H216.551ZM229.677 57H223.929C223.284 57 222.759 56.8434 222.354 56.5302C221.949 56.1986 221.645 55.7934 221.442 55.3144L218.458 47.1627H201.906L198.921 55.3144C198.774 55.7381 198.488 56.125 198.065 56.475C197.641 56.825 197.116 57 196.49 57H190.687L206.41 17.0428H213.981L229.677 57ZM267.497 17.0428V57H263.684C263.094 57 262.597 56.9079 262.192 56.7237C261.805 56.521 261.427 56.1894 261.059 55.7289L240.196 29.0908C240.306 30.3066 240.362 31.4304 240.362 32.462V57H233.813V17.0428H237.709C238.022 17.0428 238.289 17.0613 238.51 17.0981C238.75 17.1165 238.952 17.1718 239.118 17.2639C239.302 17.3376 239.477 17.4573 239.643 17.6231C239.809 17.7705 239.993 17.9731 240.196 18.231L261.142 44.9797C261.086 44.3349 261.04 43.6994 261.003 43.073C260.967 42.4467 260.948 41.8664 260.948 41.3321V17.0428H267.497Z" fill="#2B5174"/>
<rect x="2.5" y="7.58887" width="79" height="54.7526" stroke="#2B5174" stroke-width="5"/>
<circle cx="41.5696" cy="33.6663" r="17.3196" fill="#919DDA"/>
</svg>
