<svg width="277" height="93" viewBox="0 0 277 93" fill="none" xmlns="http://www.w3.org/2000/svg">
<mask id="mask0_1_77" style="mask-type:alpha" maskUnits="userSpaceOnUse" x="0" y="0" width="277" height="93">
<rect width="277" height="93" fill="#D9D9D9"/>
</mask>
<g mask="url(#mask0_1_77)">
<rect x="6.5" y="20.5042" width="269" height="71" stroke="#2B5174" stroke-width="3"/>
<path d="M44.1209 54.2567C44.3957 52.3211 44.6189 50.5713 44.7902 49.0072C44.964 47.402 45.1084 46.3109 45.2236 45.7337C45.3046 45.034 45.5293 44.7014 45.8976 44.736C46.3094 44.7289 46.8124 44.9255 47.4067 45.3259C48.0034 45.6853 48.3848 46.2127 48.5508 46.9081C48.7604 47.5618 48.8053 48.2183 48.6855 48.8777C48.5399 49.9894 48.309 51.5134 47.993 53.4497C48.746 53.2312 49.3513 53.0768 49.809 52.9867C50.2691 52.8554 51.1273 52.594 52.3839 52.2023C52.7809 49.5662 53.0523 47.6923 53.1979 46.5806C53.2377 45.8815 53.3117 45.3051 53.4198 44.8513C53.5691 44.3968 53.9103 44.1855 54.4433 44.2173C55.0199 44.2072 55.6383 44.5456 56.2986 45.2325C56.9612 45.8782 57.1602 46.7169 56.8958 47.7485C56.796 48.7773 56.6422 50.0329 56.4343 51.5155C57.8897 51.2436 59.2616 50.9937 60.55 50.7659C60.8389 48.5835 61.1402 46.5448 61.4539 44.6496C63.0857 44.1693 64.166 44.705 64.6947 46.2569C64.8786 47.3628 64.903 48.7386 64.7681 50.3842C65.3082 50.2926 65.8265 50.222 66.323 50.1722C67.6914 49.984 68.9133 49.8395 69.9887 49.7386C70.0674 49.0799 70.1631 48.4826 70.2759 47.9465C70.2923 47.6587 70.3282 47.391 70.3834 47.1436C70.5056 46.4431 70.6266 45.7631 70.7465 45.1037C70.8228 44.4862 71.0021 43.8669 71.2843 43.2457C71.8337 42.9897 72.3897 42.98 72.9522 43.2166C73.517 43.4122 73.8872 43.7755 74.0626 44.3065C74.3321 44.6304 74.517 44.9969 74.6171 45.406C74.7879 46.0192 74.771 46.6768 74.5664 47.3787C74.4583 47.8325 74.3749 48.5734 74.3163 49.6015C75.8742 49.6975 77.4197 49.65 78.9528 49.459C80.4401 49.3509 81.391 49.9916 81.8055 51.3811C81.9763 51.9943 81.8564 52.6537 81.446 53.3593C81.1024 53.6117 80.6218 53.7434 80.0041 53.7541C78.2932 53.4553 76.9253 53.2738 75.9004 53.2095C74.8756 53.1452 74.1343 53.1581 73.6766 53.2483C73.1111 55.23 72.3685 57.0711 71.4488 58.7714C70.5291 60.4718 69.3876 62.0938 68.0243 63.6376C69.5986 63.4458 71.1053 63.3579 72.5443 63.3739C74.3151 63.343 75.2349 64.1691 75.3035 65.8523C75.1991 66.9633 74.6321 67.5277 73.6026 67.5457C72.6259 67.3573 71.6881 67.2094 70.7891 67.1018C66.2909 67.3446 60.9879 67.9916 54.8803 69.043C48.7726 70.0944 44.9494 71.1265 43.4106 72.1393C42.6459 72.5634 41.8417 72.598 40.9979 72.243C40.1566 71.8468 39.7251 71.1149 39.7037 70.0472C39.714 69.1432 40.1587 68.5603 41.0375 68.2985C42.3858 67.7409 43.9353 67.262 45.6861 66.8618C45.1363 65.68 44.6541 64.3944 44.2396 63.0049C43.9945 61.5302 43.8088 60.0956 43.6825 58.7011C43.1813 58.8331 42.466 59.1126 41.5366 59.5396C40.6483 59.9659 39.903 60.4102 39.3007 60.8726C38.8701 61.2088 38.4043 61.4428 37.903 61.5748C37.4018 61.7068 36.8894 61.6747 36.3657 61.4784C35.8856 61.2403 35.5567 60.8763 35.3789 60.3864C34.6302 59.0849 35.017 58.0717 36.5394 57.3467C38.2677 56.6182 39.846 55.995 41.2743 55.4772C42.7462 54.9174 43.695 54.5106 44.1209 54.2567ZM36.9436 50.2533C37.0822 49.2649 37.283 47.9057 37.5462 46.1757C37.8528 44.4039 38.3382 42.3825 39.0025 40.1115C39.7079 37.8397 40.5303 35.3194 41.4697 32.5506C41.8648 31.3935 42.3829 30.6039 43.0241 30.1819C43.5159 30.2144 44.0248 30.3083 44.5508 30.4634C45.0792 30.5774 45.4987 30.7961 45.8094 31.1193C46.1225 31.4014 46.3555 31.6438 46.5085 31.8466C46.6156 32.1322 46.3446 32.9175 45.6955 34.2023C45.0463 35.4872 44.3589 37.0808 43.6334 38.9831C49.1444 37.5724 53.3736 36.636 56.321 36.1738C59.2683 35.7116 64.7302 35.1644 72.7064 34.5323C74.1525 34.425 75.5903 34.4615 77.02 34.642C77.6377 34.6312 78.2073 34.7445 78.7286 34.9819C79.4876 35.3795 79.9925 35.9047 80.2433 36.5576C80.5376 37.1687 80.5436 37.7848 80.2614 38.406C79.8781 39.3575 79.4587 39.8578 79.0034 39.9068C78.548 39.9558 78.0309 40.0059 77.452 40.0571C76.8731 40.1083 76.3677 39.9528 75.9358 39.5906C75.5062 39.1873 75.0961 38.8041 74.7053 38.4412C74.1064 38.123 72.5279 38.0273 69.9699 38.1541C67.4554 38.239 64.3092 38.5815 60.5312 39.1814C56.7967 39.7395 53.5116 40.3514 50.6761 41.0171C47.8406 41.6827 46.0381 42.2687 45.2687 42.7751C44.5405 43.2808 43.9876 43.5986 43.6099 43.7284C43.2346 43.8171 42.7428 43.7846 42.1344 43.6309C40.8059 48.1729 40.0731 51.2873 39.9359 52.974C39.2652 53.1911 38.611 53.1204 37.9732 52.7618C37.3377 52.362 36.9945 51.5259 36.9436 50.2533ZM39.0976 74.1864C39.7083 74.2989 40.2902 74.5558 40.8433 74.957C41.44 75.3163 41.6966 75.8664 41.6133 76.6073C41.5711 77.3475 41.2418 78.0722 40.6254 78.7813C38.7599 81.1965 37.3549 83.1107 36.4104 84.524C36.2152 85.0614 35.9035 85.4777 35.4753 85.7727C35.0859 86.1081 34.6694 86.1976 34.2258 86.041C33.0573 85.6095 32.4293 84.7166 32.3419 83.3625C32.3995 83.0739 32.4994 82.7641 32.6417 82.433C33.7814 80.4823 35.4468 77.9678 37.6381 74.8896C37.984 74.596 38.4705 74.3616 39.0976 74.1864ZM53.8192 74.6691C56.1224 76.8473 57.9773 78.9511 59.3839 80.9806C60.0372 81.7908 60.0645 82.7558 59.4659 83.8754C57.9374 83.9842 56.7118 83.4715 55.7891 82.3374C54.6333 80.9608 53.4533 79.6462 52.2493 78.3937C51.7444 77.8685 51.3654 77.2999 51.1123 76.6882C50.898 76.1168 51.0978 75.4971 51.7119 74.8291C52.3671 74.1603 53.0695 74.107 53.8192 74.6691ZM63.5381 71.9731C64.2911 71.7546 65.0542 71.7207 65.8273 71.8715C66.6003 72.0224 67.0446 72.5281 67.1602 73.3888C67.9055 75.471 68.5238 77.6169 69.015 79.8267C69.0304 80.2783 68.9646 80.7108 68.8177 81.1242C68.6707 81.5376 68.4507 81.7879 68.1578 81.8752C67.906 81.9617 67.5583 81.9267 67.1146 81.7701C66.7099 81.6539 66.3933 81.4335 66.1649 81.1088C65.2277 78.7836 64.3147 76.3963 63.4257 73.9469C63.2937 73.3741 63.3312 72.7162 63.5381 71.9731ZM77.8745 70.5523C79.5483 72.9468 80.6284 75.2901 81.115 77.5822C81.4823 78.3563 81.2195 78.9976 80.3265 79.5062C79.3653 79.7694 78.6345 79.5973 78.1343 78.9898C77.322 77.3608 76.5462 75.8132 75.8069 74.3472C75.5679 73.4887 75.5312 72.6882 75.6969 71.9459C75.9768 71.3659 76.3091 70.9493 76.6938 70.6961C77.0808 70.4018 77.4744 70.3538 77.8745 70.5523ZM55.7117 55.5335C55.6153 55.7816 55.5371 56.0706 55.4772 56.4003C55.3208 56.9781 55.1792 57.6584 55.0523 58.4412C54.8585 59.677 54.5753 61.0376 54.2027 62.523C54.1675 63.1398 53.8146 63.5568 53.144 63.7739C52.5674 63.7839 52.0644 63.5873 51.6348 63.184C51.2427 62.1227 51.0554 61.0784 51.0728 60.0511C51.135 59.6803 51.1996 59.2684 51.2666 58.8153C51.4347 58.0318 51.5903 57.1048 51.7336 56.0342C50.1841 56.5131 48.7558 57.031 47.4487 57.5878C47.3054 58.6584 47.3016 59.8088 47.4372 61.0388C47.4643 61.2848 47.4903 61.5514 47.5151 61.8385C47.7166 63.355 48.1277 64.8062 48.7481 66.1921C54.071 65.1955 59.0103 64.4316 63.5661 63.9002C65.1634 61.8594 66.4161 60.0916 67.3241 58.5969C68.2756 57.0603 68.907 55.365 69.2184 53.5109C67.3675 53.5021 65.6308 53.6556 64.0083 53.9715C63.6568 55.0868 63.2659 56.5314 62.8357 58.3054C62.4055 60.0794 62.1041 61.3992 61.9313 62.265C61.862 62.7591 61.5674 63.2367 61.0474 63.6977C60.5121 63.707 59.9849 63.5724 59.4659 63.2939C59.1234 62.8069 58.9903 62.2546 59.0666 61.6371C58.9876 60.8579 59.0221 59.8919 59.17 58.7391C59.3793 57.9549 59.545 57.2125 59.6672 56.512C59.8329 55.7697 59.9104 55.1316 59.8997 54.5977C59.2337 54.7326 58.5884 54.8671 57.9636 55.0012C57.1741 55.1382 56.4235 55.3156 55.7117 55.5335ZM136.287 29.9727C136.709 29.801 137.125 29.7116 137.537 29.7044C138.072 29.6951 138.601 29.8091 139.122 30.0465C140.005 30.4419 140.457 31.1735 140.478 32.2412C140.404 32.8176 140.351 33.3937 140.318 33.9694C140.02 36.3162 139.751 38.4981 139.513 40.5153C139.101 44.1376 138.757 47.2862 138.481 49.9613C138.041 54.0771 137.831 56.3196 137.851 56.689C139.73 56.2044 141.086 55.8726 141.919 55.6938C142.514 55.3547 143.32 55.6488 144.337 56.5759C145.168 57.876 144.789 58.7453 143.201 59.1838C141.99 59.4925 140.093 59.9364 137.509 60.5155L136.315 68.4855C135.98 70.7508 135.671 72.9334 135.386 75.0335C135.141 77.174 135.054 78.6955 135.126 79.598C135.23 80.6643 134.756 81.412 133.703 81.8412C132.741 82.1045 132.015 81.8501 131.524 81.0781C130.711 80.1885 130.523 79.1648 130.959 78.0069C131.186 77.6332 131.433 76.5403 131.701 74.7281C132.01 72.9151 132.309 70.9175 132.598 68.7352C132.93 66.511 133.182 64.2677 133.352 62.0053C131.679 62.4864 130.188 63.0053 128.881 63.5622C127.615 64.1183 126.028 64.906 124.118 65.9252C122.25 66.9437 120.98 67.9313 120.309 68.8879C120.002 69.2219 119.613 69.5367 119.144 69.8325C118.718 70.0864 118.244 70.0947 117.723 69.8573C116.816 69.1747 116.128 68.2419 115.661 67.0587C115.861 66.439 116.178 65.9199 116.614 65.5015C118.564 64.4816 120.807 63.3949 123.341 62.2415C125.877 61.047 129.42 59.5269 133.968 57.6811C134.153 56.6097 134.406 54.3253 134.729 50.8278C134.979 48.6051 135.255 45.93 135.556 42.8026C135.742 40.9918 135.936 39.0371 136.137 36.9385C136.227 34.6364 136.277 32.3144 136.287 29.9727ZM123.249 41.107C123.282 40.5313 123.658 40.0729 124.376 39.7317C125.098 39.3494 126.005 39.6622 127.1 40.6701C128 41.476 128.755 42.6748 129.364 44.2663C129.612 44.9603 129.783 45.5736 129.876 46.106C130.001 46.8022 129.968 47.3779 129.778 47.8331C129.054 48.2565 128.53 48.43 128.205 48.3535L127.262 47.5689C126.949 47.2868 126.579 46.9235 126.152 46.4791C125.147 45.3463 124.424 44.3114 123.984 43.3742C123.546 42.3959 123.301 41.6402 123.249 41.107ZM120.763 52.2422C122.49 52.9926 124.169 53.8466 125.801 54.8041C126.366 54.9996 126.691 55.4253 126.777 56.0811C126.959 57.2282 126.432 57.8125 125.196 57.834C123.774 57.5302 122.354 57.1852 120.936 56.7992C119.847 56.4073 119.192 55.6382 118.969 54.4919C118.559 53.0201 119.157 52.2702 120.763 52.2422ZM104.697 59.1159C104.666 59.6505 104.681 60.1226 104.74 60.5324C104.784 61.1889 104.939 61.7203 105.204 62.1265C106.616 63.3343 107.759 64.2181 108.632 64.778C109.506 65.3379 110.495 65.6699 111.599 65.7738C112.743 65.9182 113.178 66.5885 112.904 67.7846C112.594 68.8992 111.846 69.3846 110.661 69.241C109.685 69.0526 108.754 68.7813 107.869 68.427C107.025 68.072 105.682 67.4586 103.839 66.587C103.659 67.5761 103.44 69.6134 103.182 72.699C102.968 75.7427 102.673 78.3976 102.297 80.6636C102.312 81.1152 102.204 81.5689 101.972 82.0249C101.782 82.4801 101.396 82.7538 100.815 82.8461C100.156 82.8576 99.5726 82.6213 99.0654 82.1372C98.5558 81.6942 98.3209 81.1232 98.3607 80.4241C98.5509 78.5311 98.7358 77.09 98.9156 76.1009C99.093 75.153 99.3138 73.4443 99.5779 70.9748C99.8444 68.4642 100.022 66.4276 100.111 64.865C99.1737 66.1549 98.0816 67.6323 96.8348 69.2973C95.6315 70.9204 94.0729 73.0016 92.1592 75.5409C91.8428 76.0394 91.4076 76.4578 90.8535 76.7961C90.3382 77.1748 89.8246 77.1633 89.3126 76.7614C88.8395 76.3999 88.4706 76.0161 88.2057 75.6099C88.4056 74.9902 88.909 74.0982 89.7158 72.9338C90.5639 71.7688 91.7489 70.1049 93.271 67.9421L94.2131 66.57C95.334 64.9483 96.3014 63.4936 97.1153 62.2059C98.1974 60.5438 99.1637 59.1097 100.014 57.9035C100.461 57.2795 100.799 56.4109 101.027 55.2978C96.3134 57.1464 93.2503 58.5555 91.8375 59.525C91.3657 59.8619 90.8369 60.1176 90.251 60.2921C89.7062 60.466 89.1332 60.4143 88.5318 60.1373C87.814 59.739 87.3503 59.213 87.1407 58.5594C87.004 58.0688 87.0469 57.6778 87.2692 57.3863C87.535 57.053 87.8797 56.78 88.3033 56.5672C90.2492 55.6295 91.6845 54.9882 92.6093 54.6435C93.534 54.2987 94.6888 53.8883 96.0736 53.4123C93.3759 50.2139 91.6481 48.0462 90.89 46.9092C90.0978 45.6495 89.6116 44.7953 89.4315 44.3465C89.2949 43.8559 89.3436 43.3621 89.5776 42.8651C89.8552 42.3262 90.4881 42.0481 91.4765 42.0309C92.5061 42.0129 93.2992 42.5331 93.8561 43.5915C94.3024 45.1448 94.9058 46.4694 95.6661 47.5653C96.4265 48.6613 97.6841 50.0566 99.4389 51.7514C100.155 51.4513 100.785 51.235 101.327 51.1023C102.455 42.8664 103.304 36.6279 103.875 32.3866C104.075 31.7669 104.378 31.4946 104.785 31.5696C105.236 31.6029 105.761 31.7786 106.36 32.0968C107.002 32.3731 107.406 32.859 107.573 33.5545C107.782 34.2082 107.804 34.9062 107.638 35.6485C107.114 37.6295 106.643 40.1231 106.225 43.1293C105.848 46.1348 105.58 48.3168 105.42 49.6752C106.635 49.2843 107.872 48.8724 109.131 48.4397C110.431 48.0062 111.873 47.6113 113.457 47.2551C114.326 47.1577 115.056 47.3504 115.646 47.8331C115.782 48.3237 115.922 48.7526 116.066 49.1198C116.21 49.487 116.247 49.9177 116.177 50.4119C116.11 50.865 115.866 51.1773 115.445 51.349C114.292 51.3691 112.758 51.5807 110.842 51.9839C108.97 52.3452 107.07 52.8507 105.14 53.5006C105.558 54.1095 105.915 54.699 106.212 55.2689C106.506 55.88 106.386 56.5394 105.852 57.2471C105.321 57.9137 104.936 58.5366 104.697 59.1159ZM114.837 33.8592C115.749 33.0217 116.591 33.0481 117.363 33.9384C118.397 35.276 118.661 36.0725 118.152 36.3278C115.537 40.3583 113.783 42.977 112.891 44.1839C112.043 45.3489 111.399 46.1818 110.959 46.6824C110.444 47.0611 109.965 47.1722 109.521 47.0156C109.118 46.8583 108.822 46.6375 108.633 46.3533C108.487 46.0272 108.724 45.1192 109.344 43.6295C112.697 37.4911 114.528 34.2343 114.837 33.8592ZM192.721 76.1287C193.052 74.644 193.272 73.6748 193.38 73.221C193.012 73.1863 191.799 73.5361 189.741 74.2704C187.722 75.0451 184.732 76.268 180.769 77.9393C180.098 78.1564 179.43 78.3324 178.764 78.4672C178.137 78.6425 177.479 78.6334 176.791 78.44C176.144 78.2459 175.696 77.8018 175.448 77.1078C175.238 76.4542 175.067 75.8409 174.935 75.2681C174.598 72.5216 174.403 69.8136 174.349 67.1443C174.337 64.4743 174.454 61.3295 174.701 57.7101C174.848 55.8589 174.967 54.1314 175.058 52.5277C175.186 51.0055 175.307 49.6066 175.421 48.3311C175.694 45.6972 175.884 43.0852 175.991 40.4953C176.753 40.1123 177.462 39.9356 178.119 39.9652C178.819 39.953 179.42 40.2301 179.923 40.7964C180.307 41.2827 180.463 41.7935 180.391 42.3288C180.363 42.8223 180.273 43.3168 180.122 43.8124C179.97 44.308 179.963 44.7806 180.102 45.23C182.192 44.6595 184.577 43.9607 187.257 43.1334C189.395 42.4388 191.963 41.7778 194.961 41.1504C195.752 40.9723 196.565 40.7938 197.398 40.6149C198.43 40.5558 199.437 40.9285 200.42 41.733C201.405 42.4964 201.667 43.6626 201.208 45.2317C200.981 47.0432 200.659 49.452 200.241 52.4582C199.823 55.4644 199.386 58.7996 198.93 62.4637C198.516 66.1272 198.142 68.7218 197.808 70.2476C197.474 71.7734 197.268 72.8656 197.189 73.5243C197.11 74.183 196.908 74.8438 196.582 75.5068C196.426 76.0846 196.09 76.5629 195.575 76.9416C195.101 77.3196 194.584 77.3697 194.024 77.0919C193.505 76.8134 193.07 76.4923 192.721 76.1287ZM178.828 74.091C182.678 72.9558 185.758 71.9777 188.067 71.1569C190.377 70.3361 192.46 69.5192 194.316 68.7063C194.612 66.4006 194.793 64.6721 194.859 63.5207C194.275 63.6541 193.079 64.0652 191.271 64.7541C189.506 65.4011 187.344 66.1577 184.785 67.0239C182.228 67.849 180.032 68.483 178.197 68.9258C177.896 69.8759 177.846 70.7601 178.046 71.5782C178.287 72.3956 178.548 73.2332 178.828 74.091ZM172.836 59.0367C172.767 59.5309 172.677 60.0254 172.566 60.5203C172.497 61.0145 172.212 61.3276 171.711 61.4595C171.251 61.5908 170.552 61.5825 169.614 61.4345C168.676 61.2865 167.601 61.0177 166.389 60.628C165.257 60.278 164.234 59.8235 163.32 59.2643L163.079 59.1452C162.822 61.4913 162.564 64.2277 162.303 67.3544C162.079 70.5626 161.865 74.3252 161.66 78.6423C161.659 79.3818 161.5 80.0007 161.184 80.4992C160.909 80.997 160.484 81.2304 159.91 81.1993C158.521 81.0181 157.763 80.2508 157.634 78.8974C157.987 74.8653 158.347 71.0796 158.713 67.5402C158.917 65.4005 159.112 63.4252 159.298 61.6144C159.407 60.4212 159.491 59.3105 159.549 58.2825C158.848 59.0342 157.764 60.3676 156.298 62.2829C155.896 62.824 155.451 63.4274 154.96 64.0933C153.796 65.7568 152.425 67.7937 150.848 70.2039C150.364 70.7464 149.762 71.2088 149.041 71.5911C148.515 71.4359 147.95 71.2404 147.346 71.0044C146.786 70.7266 146.486 70.2183 146.446 69.4796C146.627 69.1889 146.807 68.9187 146.985 68.6691C148.691 66.1745 150.642 63.347 152.838 60.1865C155.299 56.6928 157.374 53.4934 159.062 50.5883C159.749 50.0834 160.323 49.3955 160.784 48.5248C160.905 47.1259 161.045 46.117 161.203 45.498C159.528 46.0202 157.828 46.6044 156.105 47.2507C154.384 47.8559 152.803 48.5202 151.363 49.2437C150.269 49.6736 149.234 49.4246 148.258 48.4968C147.129 47.3662 147.41 46.4164 149.099 45.6475C151.416 44.7033 153.643 43.8839 155.781 43.1894C157.919 42.4948 159.762 41.908 161.312 41.4291C161.542 40.2749 161.675 39.0196 161.711 37.6633C161.748 36.307 161.724 34.9106 161.642 33.4742C161.541 33.0652 161.547 32.6132 161.657 32.1183C161.77 31.5823 162.139 31.2472 162.763 31.1131C163.422 31.1016 164.067 31.3368 164.698 31.8188C165.395 32.5872 165.676 33.4244 165.542 34.3305C165.494 35.8924 165.448 37.783 165.404 40.0021C166.661 39.6104 168 39.2174 169.421 38.8229C170.012 38.5661 170.656 38.4521 171.354 38.481C172.093 38.5092 172.585 38.8909 172.831 39.6261C173.121 40.3194 173.287 41.0149 173.329 41.7125C172.748 41.8048 172.185 41.9379 171.64 42.1117C170.057 42.468 167.881 43.1016 165.114 44.0125C164.6 47.2669 164.254 49.7172 164.078 51.3635C163.946 52.968 163.874 54.2222 163.864 55.1262C164.657 55.6464 165.691 56.2651 166.967 56.9823C168.405 57.7378 170.361 58.4226 172.836 59.0367ZM178.815 55.913C180.616 55.3475 182.506 54.6778 184.483 53.9038C186.461 53.1299 189.077 52.3448 192.332 51.5486C192.92 51.3329 193.456 51.303 193.941 51.4589C194.47 51.5729 194.823 51.8749 195 52.3648C195.219 52.8539 195.354 53.3856 195.403 53.9599C193.81 54.4806 191.227 55.4089 187.654 56.7448C184.122 58.0799 181.076 59.5503 178.516 61.156C178.407 62.3492 178.279 63.5223 178.131 64.6751C180.968 63.9683 183.829 63.2201 186.713 62.4303C189.64 61.5987 192.671 60.3956 195.805 58.821C196.251 55.3213 196.658 51.4321 197.025 47.1533C197.17 45.3432 196.406 44.6581 194.736 45.0981C191.149 45.9412 188.302 46.8124 186.194 47.7119C184.127 48.6106 182.672 49.2317 181.83 49.575C181.113 49.8751 180.429 49.9692 179.777 49.8573L179.413 49.7404L178.815 55.913ZM245.312 67.324C244.762 68.3195 243.866 69.9578 242.625 72.2389C241.426 74.5193 239.91 77.2981 238.077 80.5755C237.337 82.0262 236.332 82.3313 235.063 81.4907C233.902 80.9359 233.684 80.0564 234.411 78.8524C236.748 74.6625 238.759 70.7864 240.443 67.224C242.17 63.6199 243.309 60.9708 243.858 59.277C244.409 57.5419 244.781 56.4263 244.974 55.9299C245.169 55.3925 245.58 55.0361 246.207 54.8609C247.365 54.7585 248.307 55.194 249.033 56.1672C249.764 57.0583 249.832 58.043 249.235 59.1215C248.591 60.3241 248.025 61.587 247.538 62.91C248.89 65.187 250.411 67.3788 252.101 69.4856C253.832 71.5916 255.808 73.3852 258.027 74.8665C258.626 75.1847 259.033 75.6295 259.247 76.2009C259.498 76.8538 259.459 77.5323 259.131 78.2364C258.495 78.5762 257.871 78.6897 257.26 78.5771C255.9 77.9025 254.612 77.0417 253.396 75.9948C251.258 73.8138 249.511 71.975 248.156 70.4787C246.843 68.9816 245.895 67.93 245.312 67.324ZM251.576 61.3607C250.616 60.8845 250.189 60.44 250.295 60.0274C250.4 59.6147 250.867 59.0109 251.694 58.216C252.871 57.0452 254.071 55.8534 255.292 54.6408C256.554 53.4275 257.675 52.1549 258.656 50.8232C259.553 49.5341 260.531 49.3322 261.591 50.2175C262.812 51.1821 262.952 52.3299 262.012 53.6609C261.311 54.4126 260.053 55.5643 258.236 57.1159C256.42 58.6676 255.128 59.6761 254.361 60.1413C253.596 60.5655 252.668 60.9719 251.576 61.3607ZM237.609 43.3028C235.944 42.921 234.768 42.2637 234.081 41.3308C233.194 40.2782 232.29 39.1848 231.367 38.0506C230.508 37.244 230.476 36.3613 231.271 35.4026C232.224 34.5643 233.171 34.5478 234.113 35.353C234.693 36.0002 235.225 36.7714 235.709 37.6668C236.192 38.5621 236.834 39.2082 237.635 39.6051C238.476 40.0012 239.303 40.2949 240.115 40.4861C240.522 40.5612 240.773 40.8444 240.869 41.3357C241.008 41.7851 240.918 42.2797 240.599 42.8193C239.481 43.6604 238.485 43.8216 237.609 43.3028ZM229.616 59.0324C230.194 58.2828 230.829 57.9636 231.522 58.0748C232.217 58.1448 232.882 58.4003 233.515 58.8411C234.202 59.774 234.861 60.4814 235.492 60.9634C236.166 61.4035 236.872 61.6582 237.609 61.7275C238.345 61.7969 239.084 61.8251 239.825 61.8121C240.124 62.341 240.278 62.8929 240.286 63.4679C240.297 64.0017 240.003 64.4793 239.403 64.9006C238.846 65.28 238.304 65.4127 237.775 65.2987C236.462 65.2394 235.208 64.871 234.012 64.1935C232.86 63.4741 231.671 62.6732 230.446 61.7908C229.854 61.3493 229.578 60.4298 229.616 59.0324ZM249.836 38.8377L252.366 35.5892C253.209 34.5064 254.278 33.0705 255.573 31.2814C255.853 30.7014 256.375 30.5691 257.139 30.8844C257.66 31.1218 258.053 31.4436 258.318 31.8498C258.585 32.2149 258.746 32.6434 258.8 33.1354C258.854 33.6274 258.704 34.1025 258.349 34.5606C256.894 36.2703 255.059 37.7812 252.845 39.0933C252.051 39.3126 251.428 39.4056 250.978 39.3724C250.527 39.3391 250.146 39.1609 249.836 38.8377ZM211.861 66.3052C215.674 65.0885 219.632 63.8486 223.736 62.5857C224.199 62.4133 224.657 62.3026 225.113 62.2536C225.609 62.2038 226.174 62.3994 226.807 62.8402C227.65 63.9347 227.873 65.0811 227.475 66.2794C226.66 68.3066 225.958 70.1674 225.368 71.8621C225.177 73.7551 224.286 74.962 222.693 75.4827C221.258 76.124 219.842 76.7854 218.445 77.4671C217.046 78.1898 215.668 78.9123 214.31 79.6343C213.047 80.1493 211.99 79.9213 211.14 78.9501C210.131 77.1602 209.34 75.161 208.767 72.9527C208.271 70.8251 207.904 68.5926 207.667 66.2551L207.623 65.9478C207.559 65.6202 207.582 65.2296 207.69 64.7758C207.798 64.322 208.161 64.0898 208.779 64.079C209.403 63.9449 210.012 64.0986 210.604 64.5401L210.662 64.6007C211.295 65.0416 211.695 65.6097 211.861 66.3052ZM211.855 70.7421C211.883 71.6864 212.019 72.5467 212.263 73.323C212.546 74.1397 212.96 74.8103 213.506 75.3348C213.925 75.2043 214.598 74.9461 215.525 74.5602C216.45 74.2154 217.422 73.7671 218.441 73.2153C219.457 72.7046 220.503 72.029 221.58 71.1887C222.244 68.9176 222.494 67.4138 222.331 66.6772C218.514 67.2368 215.022 68.5917 211.855 70.7421ZM204.444 49.1806C203.648 48.7015 203.021 48.1579 202.562 47.5497C201.719 46.4552 202.118 45.5855 203.76 44.9407C206.778 43.9432 210 43.0038 213.424 42.1224C216.85 41.2 220.499 40.3353 224.371 39.5283C225.243 39.3898 226.131 39.3333 227.034 39.3586C228.267 39.3782 229.056 39.9806 229.4 41.166C229.534 41.6977 229.436 42.3361 229.106 43.0814C228.387 43.4225 227.764 43.5156 227.238 43.3604C225.69 43.0999 223.435 43.324 220.473 44.033C217.553 44.7412 214.605 45.5732 211.63 46.5288C208.698 47.4427 206.302 48.3266 204.444 49.1806ZM207.847 52.264C208.34 51.557 209.003 51.1141 209.836 50.9352C213.434 49.8865 216.278 49.0769 218.367 48.5064C220.457 47.936 221.831 47.645 222.49 47.6335C223.682 47.6538 224.222 48.2811 224.111 49.5155C224.174 49.843 223.969 50.1958 223.495 50.5738C223.064 50.9099 222.705 51.0805 222.417 51.0855C221.417 51.3084 219.659 51.832 217.143 52.6564C214.63 53.4397 212.856 54.2512 211.821 55.0908C210.894 55.4767 210.01 55.4716 209.168 55.0755C208.816 54.753 208.49 54.3479 208.188 53.8602C207.93 53.3306 207.817 52.7985 207.847 52.264ZM225.427 55.6546L225.021 56.2779C224.354 57.1522 223.517 57.7625 222.51 58.1087C221.922 58.3244 221.291 58.5613 220.618 58.8196C219.948 59.0367 219.214 59.2754 218.418 59.5358C216.907 60.0551 215.209 60.6188 213.323 61.2268C212.572 61.4042 211.816 61.3147 211.055 60.9582C210.334 60.6011 209.962 59.9092 209.939 58.8826C210.075 57.9353 210.619 57.4123 211.571 57.3136C213.862 56.8217 215.925 56.3544 217.76 55.9116C219.637 55.468 221.285 55.0696 222.703 54.7162C223.125 54.5445 223.622 54.4742 224.197 54.5053C224.812 54.5356 225.222 54.9187 225.427 55.6546ZM217.708 25.41C217.999 25.3638 218.288 25.3382 218.577 25.3332C219.194 25.3224 219.787 25.3943 220.354 25.5487C221.12 25.8229 221.513 26.5144 221.532 27.6233C221.643 30.004 221.721 31.8924 221.764 33.2884C221.811 34.6432 221.764 35.4657 221.624 35.7557C221.642 36.1662 221.533 36.6199 221.299 37.117C221.065 37.6141 220.557 37.8694 219.775 37.883C219.036 37.8549 218.579 37.5753 218.403 37.0443C218.269 36.5126 218.193 36.0415 218.175 35.631C218.182 34.0698 218.121 32.6125 217.992 31.259C217.905 29.9049 217.793 28.6128 217.658 27.3827C217.647 26.8489 217.664 26.1913 217.708 25.41ZM241.797 42.367C243.458 39.2159 244.974 36.0673 246.347 32.9213C246.623 31.684 246.862 30.735 247.064 30.0742C247.31 29.3715 247.69 28.8308 248.206 28.4521C248.911 28.3577 249.559 28.5312 250.151 28.9728C250.633 29.1698 250.984 29.5128 251.203 30.002C251.466 30.4493 251.561 30.9406 251.489 31.4759C251.418 32.0112 251.247 32.4866 250.976 32.9022C249.652 35.9241 248.545 38.3878 247.655 40.293C246.764 42.1983 246.136 43.4827 245.769 44.1464C246.966 45.5223 248.329 46.505 249.859 47.0945C250.218 47.2937 250.576 47.5134 250.932 47.7536C251.291 47.9528 251.541 48.2565 251.683 48.6649C251.865 49.0725 252.007 49.4603 252.11 49.8282C250.964 51.1628 249.757 51.4098 248.488 50.5692L243.818 48.0626C242.321 49.773 241.2 51.7644 240.453 54.0369C240.256 54.6155 239.915 55.176 239.432 55.7185C238.992 56.2191 238.467 56.4132 237.856 56.3006C236.336 55.5465 235.849 54.3431 236.395 52.6904L238.673 48.4604C239.783 46.3048 240.825 44.2737 241.797 42.367Z" fill="#D5A712"/>
<path d="M0.999302 18.7478L21.9995 37.7478L56.0402 0.00427294" stroke="#D5A712" stroke-width="7"/>
</g>
</svg>
