<svg width="293" height="93" viewBox="0 0 293 93" fill="none" xmlns="http://www.w3.org/2000/svg">
<mask id="mask0_1_69" style="mask-type:alpha" maskUnits="userSpaceOnUse" x="0" y="0" width="293" height="93">
<rect width="293" height="93" fill="#D9D9D9"/>
</mask>
<g mask="url(#mask0_1_69)">
<rect x="8.5" y="20.3257" width="283" height="71" stroke="#2B5174" stroke-width="3"/>
<path d="M70.255 36.6064C71.2421 35.8909 72.3456 35.2965 73.5656 34.8233C73.8586 34.736 74.1492 34.6899 74.4375 34.6849C75.4259 34.6676 76.5097 35.1417 77.6889 36.1071C78.5635 37.3653 79.2391 38.5038 79.7159 39.5225C80.2363 40.4994 80.3438 42.2229 80.0385 44.6931C79.7941 46.0941 79.1278 47.3176 78.0397 48.3636C77.2492 49.2401 76.437 50.1375 75.603 51.0558C74.8102 51.9734 73.9202 52.79 72.9332 53.5056C71.9874 54.2205 70.9115 54.6911 69.7055 54.9175C68.5407 55.1433 67.4393 54.9776 66.4013 54.4206C65.4046 53.8628 64.7331 53.0118 64.3869 51.8676C63.5863 50.0329 63.2823 48.1485 63.4747 46.2144C63.6672 44.2802 64.2657 42.4417 65.2701 40.6988C65.791 39.4983 66.2273 38.3405 66.5788 37.2252C66.9986 36.3551 67.5198 35.8736 68.1422 35.7806C68.7646 35.6876 69.4689 35.9629 70.255 36.6064ZM67.4795 46.3294C67.3619 46.9477 67.3504 47.8722 67.4449 49.1029C67.5393 50.3337 68.1472 50.8572 69.2685 50.6733C69.8544 50.4988 70.7426 50.0725 71.9332 49.3944C73.1673 48.6745 74.4136 47.3793 75.6722 45.5087C76.9578 43.8841 77.3033 42.1527 76.7087 40.3144C76.2684 39.3772 75.784 38.8516 75.2557 38.7376C74.7709 38.5817 74.0214 38.7386 73.0073 39.2082C72.0591 39.9642 71.1315 40.7198 70.2245 41.4751C68.4681 42.697 67.5531 44.3151 67.4795 46.3294ZM40.5379 76.1926C39.7732 76.6167 39.1349 76.6279 38.6229 76.226C38.1498 75.8645 37.8862 75.4378 37.8319 74.9457C37.78 74.4126 37.9134 73.8762 38.2321 73.3366C40.3247 70.5477 42.3655 67.9446 44.3546 65.5272C46.3848 63.1091 48.3463 60.8154 50.239 58.6462C52.134 56.4359 53.5343 54.6039 54.4399 53.1503C55.3867 51.6959 56.0324 50.4728 56.3769 49.4808C55.112 49.2975 53.5094 49.2638 51.5692 49.3798C49.6312 49.4547 47.3463 49.8437 44.7144 50.5469C42.0847 51.209 39.6928 52.0313 37.5387 53.0137C35.3868 53.955 33.2816 55.1625 31.2228 56.6363C30.6828 56.7278 30.0756 56.5536 29.4012 56.1134C28.7704 55.6315 28.3638 55.1867 28.1813 54.779C28.04 54.3707 28.0681 53.8772 28.2657 53.2987C30.0797 51.7881 32.3108 50.5373 34.9592 49.5463C37.6511 48.5134 40.4571 47.6428 43.3774 46.9346C46.3411 46.1845 49.8056 45.6722 53.7708 45.3977C55.0568 45.2109 56.3241 45.3531 57.5726 45.8243C58.8235 46.2544 59.7009 47.1018 60.2048 48.3665C60.7228 49.3845 60.7648 50.4519 60.3309 51.5686C60.0604 51.9842 59.4253 53.0222 58.4256 54.6829C57.4259 56.3436 56.4896 57.6129 55.6167 58.4908C54.7439 59.3687 53.2053 61.1004 51.0009 63.6859C48.8377 66.2706 47.2474 68.1881 46.2299 69.4382C45.256 70.6466 44.3462 71.8127 43.5004 72.9366C42.6982 74.0187 42.1401 74.7884 41.8261 75.2458C41.5144 75.6621 41.085 75.9777 40.5379 76.1926ZM106.445 56.8033C105.686 56.4057 104.714 56.1351 103.529 55.9914C102.388 55.8059 100.278 56.007 97.2 56.5948C94.1656 57.1407 91.6354 57.8626 89.6095 58.7607C87.6247 59.658 86.29 60.3385 85.6053 60.8024C85.223 61.0144 84.8418 61.206 84.4618 61.3769C84.0841 61.5067 83.6758 61.4522 83.2369 61.2134C82.4942 60.528 82.0081 59.6738 81.7784 58.6507C81.7948 58.3629 81.9141 58.0732 82.1364 57.7818C82.3999 57.4896 82.6599 57.2592 82.9164 57.0904C84.6128 56.1981 87.4259 55.2042 91.3556 54.1086C95.2877 52.9719 99.1516 52.3089 102.947 52.1194C104.142 52.0986 105.304 52.2837 106.433 52.6748C107.606 53.0241 108.559 53.6443 109.289 54.5353C109.756 55.0201 110.114 55.589 110.365 56.2419C110.657 56.8941 110.722 57.5503 110.561 58.2104C110.441 58.8698 110.157 59.532 109.707 60.1972C108.401 62.1918 106.61 64.3798 104.335 66.7611C102.06 69.1424 99.943 71.2744 97.9843 73.1572C96.0669 75.0393 94.62 76.6051 93.6437 77.8545C93.1603 78.397 92.7891 78.7732 92.5303 78.9831C92.2715 79.193 91.7603 79.1403 90.9965 78.825C90.1233 78.2651 89.6184 77.7398 89.4818 77.2493C89.3452 76.7587 89.718 75.9922 90.6002 74.9498C94.9644 70.5602 98.4387 66.9872 101.023 64.2308C103.61 61.4332 105.148 59.7015 105.639 59.0357C106.129 58.3698 106.398 57.6257 106.445 56.8033ZM108.127 41.3686C107.655 41.7055 107.311 41.958 107.096 42.1261C106.883 42.253 106.372 42.2003 105.562 41.9679C104.888 41.5278 103.806 41.3824 102.316 41.5316C100.827 41.6808 99.2925 41.8924 97.7135 42.1664C96.1369 42.3993 94.5155 42.6946 92.8495 43.0523C91.1858 43.3689 89.5563 43.8082 87.9609 44.37C87.1691 44.5482 86.4348 44.4377 85.7582 44.0387C85.0838 43.5986 84.6877 42.9687 84.5699 42.1492C84.5133 41.6983 84.6808 41.2846 85.0726 40.908C85.5055 40.5307 85.929 40.3179 86.3432 40.2696C88.3504 39.7006 90.6012 39.1889 93.0955 38.7346C95.5899 38.2803 97.9342 37.9313 100.129 37.6876C101.495 37.5405 102.734 37.4573 103.846 37.4379C104.504 37.4264 105.121 37.4362 105.695 37.4673C106.677 37.5734 107.33 38.0139 107.656 38.7887C108.024 39.5629 108.18 40.4228 108.127 41.3686ZM145.392 37.2679C146.335 37.3336 146.88 37.509 147.028 37.794C147.179 38.0378 147.363 38.4249 147.579 38.9552C147.84 39.4436 147.659 40.0835 147.038 40.8749C146.232 41.2997 145.137 42.0993 143.754 43.2737C142.373 44.407 140.223 46.3958 137.305 49.2402C137.894 49.7229 138.259 50.189 138.398 50.6385C138.58 51.0461 138.505 52.362 138.173 54.5861C137.884 56.7685 137.417 59.5496 136.772 62.9294C136.168 66.3086 135.698 69.1308 135.364 71.3961C135.031 73.6203 135.044 75.2017 135.402 76.1403C135.656 77.4504 135.341 78.2981 134.455 78.6833C133.566 79.1096 132.712 78.9396 131.892 78.1734C131.529 77.317 131.278 76.3149 131.137 75.1671C131.085 73.1961 131.263 71.1595 131.671 69.0573C132.602 63.5362 133.261 59.5604 133.646 57.1299C134.073 54.6987 134.37 53.0914 134.538 52.3079C132.11 54.4865 130.023 56.4537 128.277 58.2095C126.575 59.9235 125.104 61.5513 123.865 63.0929C122.627 64.5934 121.768 65.5943 121.287 66.0957C120.893 66.5134 120.605 66.8676 120.424 67.1583C120.284 67.4483 120.109 67.9854 119.9 68.7696C119.839 69.8388 119.253 70.383 118.141 70.4024C117.118 70.297 116.462 69.8977 116.173 69.2043C115.883 68.511 115.932 67.6475 116.32 66.6137C116.752 65.538 117.985 63.7501 120.02 61.2497C122.096 58.7487 124.422 56.2022 126.997 53.6103C129.574 50.9772 132.17 48.3849 134.783 45.8334C137.4 43.2408 139.528 41.2729 141.168 39.9297C142.807 38.5865 144.216 37.6992 145.392 37.2679ZM168.934 43.3276C169.379 42.7447 169.924 42.5708 170.569 42.8061C171.213 43.0413 171.668 43.362 171.933 43.7682C172.198 44.1744 172.383 44.5409 172.488 44.8677C172.592 45.1946 172.572 45.5441 172.428 45.9163C172.286 46.2475 172.099 46.641 171.867 47.0969C169.632 50.217 167.359 53.6458 165.048 57.3834C162.739 61.0798 161.006 64.0679 159.847 66.3475C159.29 67.4664 158.871 68.3159 158.591 68.8959C158.314 69.4348 158.236 70.0729 158.359 70.8102C158.484 71.5064 158.438 72.3083 158.222 73.2158C158.005 74.1234 157.46 74.6669 156.586 74.8465C155.387 74.9496 154.557 74.7176 154.095 74.1505C153.634 73.5834 153.397 73.0535 153.384 72.5607C153.371 72.068 153.471 71.3884 153.685 70.522C154.005 69.2429 154.535 67.878 155.276 66.4272C156.06 64.9347 157.89 61.6984 160.766 56.7186C163.685 51.6969 165.687 48.3344 166.771 46.6312C167.897 44.9273 168.618 43.826 168.934 43.3276ZM183.381 51.8874C184.164 53.3116 185.401 55.0565 187.094 57.1221C188.786 59.1877 190.465 60.7811 192.129 61.9024C193.836 62.9818 195.497 63.795 197.112 64.3419C197.633 64.5793 197.853 65.0479 197.772 65.7477C197.694 66.4064 197.393 66.9867 196.871 67.4888C196.349 67.9909 195.544 68.0255 194.458 67.5925C193.537 67.1567 192.397 66.5809 191.039 65.8651C189.683 65.1082 187.86 63.5379 185.568 61.1541C183.277 58.7703 181.345 56.2159 179.772 53.4909C178.984 52.149 178.737 51.0852 179.028 50.2996C179.829 49.957 180.515 49.8423 181.084 49.9556C181.656 50.0278 182.422 50.6717 183.381 51.8874ZM201.444 38.139C201.595 39.8207 201.725 41.5027 201.835 43.1851C201.945 44.8675 201.89 46.5528 201.67 48.2409C201.557 48.7769 201.129 49.072 200.386 49.126C199.683 49.1794 199.245 48.92 199.072 48.3478C198.899 47.7757 198.754 47.0799 198.636 46.2603C198.308 43.3493 197.939 40.439 197.529 37.5294C197.493 36.7084 197.709 36.1706 198.176 35.916C198.345 35.8309 198.533 35.7865 198.739 35.7829C199.11 35.7765 199.556 35.8919 200.077 36.1293C200.836 36.5269 201.292 37.1968 201.444 38.139ZM189.455 47.0983C188.284 44.5306 187.216 41.9817 186.249 39.4515C186.28 38.917 186.446 38.5238 186.749 38.272C187.092 38.0196 187.554 37.8472 188.136 37.7549C188.717 37.6626 189.267 37.7557 189.786 38.0342C190.346 38.312 190.701 38.9426 190.851 39.9259C191.82 42.4149 192.642 44.9476 193.318 47.5239C193.377 47.9337 193.214 48.2651 192.83 48.5183C192.488 48.7297 192.032 48.7993 191.46 48.7271C190.888 48.6549 190.22 48.112 189.455 47.0983ZM238.098 54.5072C235.582 56.0711 232.287 58.3058 228.213 61.2114C224.182 64.0752 221.288 66.1387 219.529 67.4018C217.626 69.0371 215.698 70.7345 213.747 72.4939C213 73.3286 212.144 73.8981 211.181 74.2025C210.336 74.5869 209.509 74.2932 208.701 73.3214C207.931 72.39 207.555 71.7598 207.574 71.4308C207.595 71.0607 207.762 70.6675 208.073 70.2513C209.537 69.1166 211.042 67.9811 212.587 66.845C215.686 64.4494 218.813 62.2792 221.968 60.3344C225.126 58.3485 227.872 56.719 230.208 55.4459C232.584 54.172 235.695 52.6388 239.541 50.8464C240.073 51.6176 240.222 52.2518 239.988 52.7488C239.795 53.2452 239.165 53.8313 238.098 54.5072ZM219.434 53.9084C216.968 53.8692 215.076 53.8611 213.758 53.8841C212.481 53.9064 211.219 54.0311 209.972 54.2583C208.146 54.5366 206.742 53.9038 205.76 52.3598C205.393 51.5857 205.262 50.9923 205.368 50.5797C205.474 50.167 206.129 49.868 207.332 49.6827C208.531 49.5796 210.032 49.5945 211.835 49.7274C213.637 49.8603 215.17 50.039 216.432 50.2634C217.736 50.4872 218.765 50.839 219.52 51.3188C220.008 52.1319 220.201 52.7242 220.097 53.0957C220.035 53.4665 219.814 53.7374 219.434 53.9084ZM206.319 37.1296C206.871 36.8324 207.394 36.6795 207.888 36.6709C210.064 36.7562 212.037 37.1532 213.807 37.8617C215.579 38.5292 217.491 39.6256 219.544 41.1509C219.82 41.3514 220.028 41.6765 220.167 42.1259C220.308 42.5343 220.279 43.0483 220.079 43.668C219.923 44.2459 219.659 44.538 219.289 44.5445C218.92 44.5098 218.435 44.354 217.834 44.0769C216.645 43.276 215.445 42.6807 214.233 42.291C213.065 41.8595 211.603 41.5153 209.849 41.2583C208.826 41.1529 207.946 40.7164 207.208 39.9487C206.511 39.1803 206.215 38.2406 206.319 37.1296ZM271.404 50.5988C272.032 51.1219 272.439 51.5667 272.623 51.9332C272.852 52.2578 272.873 52.6066 272.687 52.9796C272.543 53.3519 271.989 53.6902 271.025 53.9945C269.746 54.0579 265.786 54.5994 259.145 55.619C252.546 56.6379 248.854 57.1747 248.069 57.2295C247.277 57.4076 246.538 57.7492 245.851 58.2541C245.34 58.5506 244.816 58.724 244.278 58.7745C243.743 58.7838 243.321 58.6063 243.013 58.242C242.707 57.8365 242.461 57.4505 242.276 57.084C242.094 56.6764 241.933 56.2479 241.794 55.7984C241.725 54.8547 242.095 54.1294 242.906 53.6223C243.666 53.2804 244.461 53.0405 245.292 52.9028C246.125 52.724 249.354 52.3595 254.981 51.8095C260.607 51.2595 264.311 50.8868 266.091 50.6914C267.622 50.5415 268.717 50.4608 269.376 50.4493C269.499 50.4471 269.602 50.4453 269.684 50.4439C270.3 50.4742 270.873 50.5259 271.404 50.5988Z" fill="#D5A712"/>
<path d="M0.999302 18.8254L21.9995 37.8254L56.0402 0.0819097" stroke="#D5A712" stroke-width="7"/>
</g>
</svg>
