<svg width="240" height="93" viewBox="0 0 240 93" fill="none" xmlns="http://www.w3.org/2000/svg">
<mask id="mask0_1_61" style="mask-type:alpha" maskUnits="userSpaceOnUse" x="0" y="0" width="240" height="93">
<rect width="240" height="93" fill="#D9D9D9"/>
</mask>
<g mask="url(#mask0_1_61)">
<rect x="11.5" y="20.5" width="227" height="71" stroke="#2B5174" stroke-width="3"/>
<path d="M46.03 70.3491C47.9221 70.3572 49.9847 70.2596 52.2179 70.0563C54.4946 69.8112 57.1878 69.4767 60.2976 69.0527C63.4509 68.5869 65.6511 68.2405 66.8983 68.0133C67.5501 68.1252 67.8368 68.5104 67.7581 69.1691C67.6794 69.8278 67.4007 70.3872 66.9219 70.8475C66.4431 71.3077 65.9749 71.5829 65.5172 71.673C63.0617 72.1678 59.4713 72.7233 54.7461 73.3398C50.0232 73.9151 46.8082 74.382 45.101 74.7404C43.4373 75.057 41.7725 75.3942 40.1064 75.7519C39.6511 75.8009 39.2016 75.7471 38.758 75.5905C38.3579 75.3921 37.9807 75.1522 37.6264 74.8708C37.3157 74.5476 37.0256 74.224 36.7561 73.9C36.5301 73.5343 36.4311 73.1046 36.4592 72.6112C36.6544 72.0737 36.9879 71.6365 37.4596 71.2997C38.8421 70.8648 40.0933 70.2062 41.2132 69.324C42.3767 68.3999 43.4131 67.5397 44.3224 66.7433C45.2317 65.9469 47.225 63.817 50.3022 60.3536C53.3818 56.8491 55.7778 53.7879 57.4903 51.1699C59.2028 48.552 60.2108 46.7474 60.5141 45.7561C60.8174 44.7649 60.4101 43.9709 59.2921 43.3742C58.2177 42.7357 56.8568 42.4307 55.2096 42.4595C53.6058 42.4464 52.0174 42.8849 50.4445 43.775C48.8716 44.6651 47.6835 46.021 46.8803 47.8425C46.5639 48.341 46.2022 48.5527 45.795 48.4777C45.4291 48.4019 44.9695 48.1634 44.4164 47.7623C43.9045 47.3604 43.5608 46.894 43.3853 46.363C43.2099 45.832 43.3286 45.1932 43.7414 44.4465C44.1542 43.6998 45.0935 42.7386 46.5593 41.5628C48.0251 40.3869 50.0316 39.4687 52.5788 38.8081C53.666 38.5015 54.7037 38.3397 55.6921 38.3224C56.9276 38.3009 58.0678 38.5069 59.1127 38.9406C60.9649 39.6478 62.1559 40.4075 62.6856 41.2199C63.2176 41.9912 63.602 42.8266 63.8387 43.7263C64.1167 44.6252 64.161 45.6514 63.9719 46.805C63.7851 47.9174 62.9889 49.6156 61.5834 51.8996C60.1803 54.1424 57.949 57.2008 54.8895 61.0747C51.8301 64.9485 48.8769 68.04 46.03 70.3491ZM89.1957 65.5909C87.2967 65.7062 84.9617 65.8907 82.1908 66.1444C79.461 66.3974 76.8984 66.6065 74.5028 66.7715C72.7956 67.1299 71.6982 66.5328 71.2107 64.9803C70.9281 64.1636 70.9932 63.3819 71.406 62.6353C72.1436 61.9651 72.9317 61.1297 73.7704 60.1292C74.9185 58.7535 76.29 57.0658 77.885 55.0661C79.5235 53.0245 81.452 50.5877 83.6704 47.7555C85.8912 44.8822 87.8244 42.3631 89.4699 40.1982C91.1567 38.0326 92.5741 36.2619 93.7221 34.8862C93.9197 34.3076 94.2932 33.8903 94.8426 33.6343C95.0944 33.5477 95.3438 33.5023 95.5909 33.498C95.8792 33.4929 96.1639 33.5496 96.4452 33.6679C97.003 33.9868 97.3673 34.4529 97.538 35.0662C97.7111 35.6383 97.6978 36.2342 97.4979 36.8539C93.6115 41.5227 90.0297 45.8987 86.7526 49.9817C83.5191 54.023 80.172 58.251 76.7115 62.666C79.1777 62.7051 81.5274 62.6231 83.7606 62.4198C86.035 62.2158 88.2476 62.0129 90.3985 61.811C91.0018 60.6092 91.662 58.7696 92.3791 56.2922C93.1398 53.773 93.727 51.7704 94.1408 50.2842C94.5546 48.7981 94.872 47.5601 95.0929 46.5703C95.3139 45.5806 95.4373 44.8595 95.463 44.4071C95.6535 43.9519 96.0165 43.7197 96.5518 43.7103C97.1307 43.6591 97.6773 43.8139 98.1916 44.1747C98.7471 44.5347 99.0278 45.0228 99.0339 45.6389C99.0787 46.2954 98.8554 47.3263 98.364 48.7317C97.9137 50.1363 97.2623 52.1811 96.4099 54.8662C95.6011 57.5095 94.9439 59.6572 94.4383 61.3092C95.5114 61.2494 96.628 61.1478 97.7882 61.0043C98.9918 60.819 99.8042 60.6405 100.225 60.4689C100.69 60.2553 101.105 60.1865 101.471 60.2623C101.988 60.5819 102.276 60.9466 102.335 61.3564C102.435 61.7655 102.516 62.1543 102.577 62.523C102.638 62.8916 102.537 63.222 102.274 63.5142C102.01 63.8064 101.688 64.0379 101.308 64.2089C100.969 64.3791 100.571 64.5093 100.114 64.5994C98.8416 64.5395 97.6632 64.6422 96.5784 64.9076C95.4959 65.1319 94.3164 65.2551 93.0397 65.2774C92.2051 68.373 91.4833 70.9326 90.8743 72.9562C90.3089 74.9379 89.8857 76.5885 89.6048 77.908C89.3216 79.2686 89.1271 80.1553 89.0213 80.5679C88.7531 80.9423 88.3525 81.1136 87.8195 81.0819C87.3276 81.0494 86.8316 80.7294 86.3314 80.1219C85.8405 79.3499 85.7067 78.4484 85.93 77.4175C86.7295 74.9387 87.3914 72.7088 87.9157 70.7278C88.4811 68.7461 88.9078 67.0338 89.1957 65.5909ZM150.787 58.0465C147.686 59.0455 144.637 60.2078 141.64 61.5336C138.646 62.8182 135.736 64.4301 132.91 66.3691C132.564 66.6627 132.204 66.8538 131.828 66.9425C131.496 66.9894 131.048 66.915 130.483 66.7195C129.918 66.5239 129.482 66.244 129.173 65.8796C128.867 65.4742 128.644 65.0673 128.502 64.6589C128.402 64.2498 128.503 63.9194 128.806 63.6677C129.154 63.333 130.046 62.845 131.481 62.2037C132.919 61.5214 134.567 60.7532 136.426 59.8991C138.326 59.0444 140.643 58.1002 143.376 57.0666C146.109 56.033 148.799 55.0207 151.448 54.0296C151.362 53.3738 151.337 52.7169 151.375 52.059C151.299 50.4992 151.99 49.9326 153.447 50.3591C154.683 51.0359 155.771 51.7975 156.71 52.6438C157.875 52.4181 159.064 52.1303 160.277 51.7805C161.575 51.3881 162.789 51.7367 163.92 52.8261C164.258 53.3954 164.345 54.0306 164.182 54.7318C164.076 55.1445 163.856 55.3948 163.522 55.4828C163.188 55.5708 162.897 55.6169 162.65 55.6212C160.374 55.8664 158.82 56.0578 157.989 56.1955C157.2 56.3325 156.431 56.4692 155.683 56.6055C155.455 57.7186 155.093 60.0871 154.599 63.7108C154.146 67.3338 153.46 72.8712 152.542 80.3228C152.47 80.8581 152.354 81.4558 152.193 82.1159C152.07 82.8164 151.652 83.2961 150.938 83.5551C150.347 83.8119 149.732 83.7815 149.092 83.464C148.452 83.1465 147.979 82.7851 147.673 82.3796C147.049 81.7743 146.366 81.1289 145.623 80.4435C146.671 80.0965 147.511 79.7943 148.143 79.5368C148.685 77.9663 149.201 75.4103 149.691 71.8688C150.183 68.2862 150.482 65.9188 150.589 64.7667C150.737 63.6138 150.823 62.4621 150.848 61.3114C150.913 60.16 150.893 59.0717 150.787 58.0465ZM133.631 50.4582C134.653 49.8653 136.516 48.929 139.222 47.6494C141.928 46.3697 143.765 45.5366 144.733 45.15C145.475 42.9598 145.922 40.179 146.073 36.8078C145.453 36.8597 144.574 37.1215 143.436 37.5932C142.339 38.0642 141.155 38.6395 139.882 39.319C139.289 39.6169 138.719 39.8733 138.172 40.0883C137.627 40.2621 137.115 40.2299 136.634 39.9918C136.157 39.7126 135.788 39.3288 135.528 38.8403C135.267 38.3519 135.008 37.8429 134.751 37.3133C136.834 36.1267 138.883 35.1872 140.897 34.4948C142.953 33.8017 144.864 33.111 146.631 32.4229C146.593 31.6431 146.548 30.6374 146.494 29.4059C146.781 28.7025 147.337 28.3436 148.16 28.3293C148.943 28.3156 149.569 28.5101 150.04 28.9127C150.511 29.3153 150.942 30.0472 151.334 31.1085C152.17 30.8885 152.983 30.6895 153.775 30.5113C154.61 30.2913 155.378 30.1753 156.078 30.163C156.778 30.1508 157.382 30.3868 157.889 30.8709C158.438 31.3543 158.812 32.0051 159.012 32.8232C158.735 33.3621 158.408 33.6759 158.033 33.7646C157.701 33.8115 156.746 33.9719 155.167 34.2459C153.59 34.4788 152.197 34.7496 150.986 35.0583C150.499 37.8192 149.991 40.601 149.461 43.4038C150.045 43.2704 150.944 43.0082 152.16 42.6173C153.375 42.2263 154.592 41.8149 155.809 41.3828L156.372 41.2497C157.741 41.0616 158.886 41.5345 159.809 42.6687C160.436 43.9313 160.057 44.8211 158.67 45.3383C156.86 45.3288 154.803 45.6933 152.498 46.4319C150.234 47.1697 147.94 48.0724 145.617 49.14C143.334 50.2068 140.604 51.5485 137.427 53.165C136.744 53.5877 136.143 53.6803 135.621 53.4429C135.063 53.124 134.656 52.6998 134.398 52.1702L133.631 50.4582ZM147.782 69.6221C147.259 70.8636 146.398 71.536 145.199 71.639C142.712 71.97 140.369 71.5589 138.172 70.4059C137.612 70.1281 137.181 69.7454 136.88 69.2576C136.581 68.7288 136.573 68.1538 136.855 67.5327C137.723 66.737 138.631 66.6801 139.58 67.3619C141.379 68.2754 143.316 68.5908 145.389 68.3082C145.89 68.1762 146.337 68.2711 146.73 68.5929C147.126 68.8735 147.476 69.2166 147.782 69.6221ZM122.608 68.459C119.36 69.8713 116.114 71.2425 112.871 72.5726C112.358 72.9102 111.735 73.0032 111.003 72.8516C110.315 72.6582 109.776 72.3595 109.388 71.9555C108.57 71.1481 107.92 70.2762 107.439 69.3398C106.7 67.8737 106.361 66.2364 106.423 64.4278C106.47 58.5524 106.738 53.844 107.228 50.3025C107.72 46.7199 108.067 44.2284 108.271 42.8281C108.341 41.5945 108.988 41.0697 110.212 41.2537C111.572 41.9284 112.3 42.5114 112.395 43.0027C112.493 43.4528 112.509 44.2536 112.444 45.405C113.192 45.2688 114.618 44.792 116.721 43.9748C118.866 43.1568 121.697 42.5734 125.214 42.2245C127.937 42.0949 129.182 43.3466 128.95 45.9799C128.141 50.061 127.456 54.1399 126.895 58.2167C126.537 60.8932 126.24 63.5686 126.005 66.243C125.945 67.3122 125.814 68.1566 125.614 68.7763C125.456 69.3953 124.97 69.6091 124.158 69.4179C123.39 69.1848 122.873 68.8652 122.608 68.459ZM110.696 56.589C113.543 55.7177 116.113 55.0156 118.406 54.4826C120.699 53.9497 122.469 53.5696 123.717 53.3424C123.94 52.3115 124.129 51.158 124.284 49.8818C124.439 48.6056 124.382 47.4357 124.114 46.3723C121.062 46.5077 118.212 47.4201 115.565 49.1095C114.384 49.6231 113.552 49.7814 113.069 49.5844C112.63 49.3455 112.216 49.0447 111.825 48.6818C111.433 51.2356 111.056 53.8714 110.696 56.589ZM110.93 68.7243C111.586 68.7539 112.797 68.4452 114.562 67.7982C116.368 67.1505 117.968 66.5064 119.362 65.8659C120.756 65.2254 121.776 64.653 122.422 64.1487C122.577 62.8725 122.729 61.658 122.877 60.5052C123.029 59.2701 123.179 58.0761 123.327 56.9233C121.657 57.3632 119.566 57.9543 117.055 58.6964C114.586 59.4379 112.337 60.2782 110.308 61.2173C110.281 63.1486 110.292 64.7506 110.343 66.0232C110.349 66.6393 110.401 67.1724 110.499 67.6226C110.597 68.0728 110.74 68.44 110.93 68.7243ZM188.128 59.1207C189.97 58.5545 191.83 58.0496 193.707 57.6061C195.586 57.1214 197.604 56.7165 199.762 56.3913C200.629 56.3351 201.252 56.5912 201.631 57.1598C202.01 57.7283 202.196 58.444 202.188 59.3068C202.185 61.5252 202.078 63.766 201.866 66.0291C201.699 68.2504 201.491 70.0821 201.245 71.5243C200.998 72.9664 200.749 74.0799 200.499 74.8648C199.864 75.9029 199.342 76.405 198.932 76.3711C198.564 76.3364 198.025 76.0377 197.317 75.4749C196.033 75.6205 194.428 75.9977 192.501 76.6065C190.612 77.2556 188.712 77.7612 186.799 78.1232C186.023 78.0135 185.358 77.7786 184.802 77.4186C184.288 77.0578 183.83 76.429 183.429 75.5323C183.258 72.7417 183.197 69.8466 183.245 66.8469C183.333 63.8464 183.536 61.378 183.852 59.4417C183.967 58.8646 184.221 58.3672 184.615 57.9495C185.01 57.5318 185.553 57.3786 186.246 57.4897C186.98 57.6001 187.608 58.1438 188.128 59.1207ZM197.59 71.7729C197.942 69.9181 198.131 68.4153 198.155 67.2647C195.985 67.7955 194.356 68.2347 193.266 68.5823C192.22 68.8882 189.976 69.6462 186.534 70.8565C186.514 71.925 186.59 73.115 186.762 74.4266C188.039 74.4043 189.762 74.1278 191.932 73.5969C194.101 73.0661 195.987 72.4581 197.59 71.7729ZM186.679 67.2183C188.732 66.5663 190.738 66.0178 192.697 65.5728L198.262 64.305C198.474 62.7402 198.473 61.3229 198.257 60.0532C196.925 60.3229 195.338 60.7409 193.496 61.307C191.697 61.8314 190.42 62.2234 189.664 62.483C188.95 62.742 188.092 62.6337 187.091 62.1582C186.764 63.5606 186.627 65.2473 186.679 67.2183ZM213.283 76.8602C213.609 76.1972 213.899 75.083 214.152 73.5175C214.406 71.952 214.689 69.1536 215.001 65.1222C215.356 61.049 215.667 56.689 215.931 52.0423C216.196 47.3955 216.342 43.7573 216.368 41.1277C213.926 42.1152 211.528 43.0402 209.175 43.9029C208.294 44.2058 207.454 44.508 206.655 44.8095C205.268 45.3267 203.942 45.8428 202.679 46.3578C202.623 46.6052 202.588 46.8729 202.571 47.1607C202.55 47.5308 202.548 47.9211 202.566 48.3316C202.689 49.0689 202.939 49.7219 203.319 50.2904C204.122 49.9066 205.276 49.5168 206.779 49.1208C208.326 48.6831 209.755 48.1652 211.064 47.5672C212.374 46.9692 213.193 46.6674 213.523 46.6616C214.211 46.855 214.768 47.1945 215.192 47.6801C215.157 48.2969 214.959 48.896 214.596 49.4775C213.19 50.3236 211.667 51.0691 210.026 51.7139C208.428 52.3169 206.756 53.1472 205.009 54.2047C202.76 55.3941 201.192 54.7642 200.303 52.3149C199.913 51.2125 199.627 50.0877 199.446 48.9406C199.203 47.4249 199.126 45.8857 199.215 44.3231C199.413 41.5672 199.57 39.1818 199.685 37.1668C199.799 35.1518 199.909 33.5889 200.014 32.4779C200.117 30.6685 200.995 30.0575 202.648 30.6449C203.483 31.1644 204.235 31.6853 204.904 32.2077C207.611 31.6264 209.884 31.0938 211.722 30.6099C213.603 30.0841 215.154 29.5846 216.374 29.1115C216.877 28.9384 217.397 28.8471 217.932 28.8378C218.179 28.8335 218.405 28.8501 218.608 28.8876C219.386 28.9562 219.94 29.3368 220.271 30.0294C220.602 30.722 220.749 31.3973 220.711 32.0553L220.437 36.8665C220.153 41.8422 219.802 47.2916 219.382 53.2145C218.855 61.0291 218.32 67.1595 217.779 71.6056C217.279 76.0511 216.995 78.5003 216.928 78.9534C216.565 80.2743 215.709 80.8644 214.359 80.7236C212.806 80.5453 211.403 79.8919 210.151 78.7635C208.899 77.6351 208.138 76.19 207.868 74.4282C208.81 74.4939 209.556 74.7685 210.104 75.2519C210.694 75.7346 211.753 76.2707 213.283 76.8602ZM175.836 35.4876C176.882 35.1818 178.303 34.7873 180.1 34.3041C181.899 33.7797 183.85 33.1089 185.954 32.2917C187.048 31.8618 188.026 32.0296 188.887 32.7951C189.749 33.5607 190.149 34.478 190.088 35.5472C189.741 38.7575 189.412 41.6389 189.102 44.1913C188.833 46.743 188.603 48.986 188.41 50.9201C187.887 52.1617 187.468 53.0111 187.154 53.4685C186.884 53.884 186.398 54.0979 185.698 54.1101C185.039 54.1216 184.557 53.9246 184.251 53.5191C179.618 55.4075 176.881 56.5028 176.041 56.805C175.244 57.0654 174.623 57.1378 174.177 57.0224C173.734 56.8658 173.253 56.6277 172.737 56.308C172.365 59.2313 172.101 62.0499 171.947 64.7639C171.866 65.4637 171.806 66.1426 171.769 66.8005C171.623 70.0895 171.586 72.5345 171.659 74.1354C171.733 75.7362 171.983 76.7589 172.41 77.2033C172.883 77.5648 173.135 78.1972 173.166 79.1004C173.296 79.7144 173.122 80.2309 172.646 80.65C172.17 81.0691 171.651 81.1398 171.091 80.862C169.824 80.7198 169.125 79.9925 168.994 78.6802C168.5 76.5115 168.324 73.1049 168.465 68.4603L168.567 66.6715C168.77 62.3956 169.173 57.4794 169.778 51.9229C170.47 45.5433 171.022 40.9121 171.433 38.0293C171.844 35.1464 172.069 33.376 172.106 32.7181C172.268 31.3185 172.876 30.7533 173.931 31.0225C174.813 31.4179 175.402 31.9212 175.696 32.5322C176.034 33.1015 176.17 33.5921 176.106 34.004C176.041 34.4159 175.951 34.9105 175.836 35.4876ZM173.729 48.6497C173.561 49.4332 173.469 51.0369 173.454 53.4609C175.128 52.9799 176.739 52.4999 178.288 52.021C179.84 51.5009 181.93 50.5607 184.559 49.2003C184.8 48.5799 184.988 47.796 185.124 46.8488C185.304 45.8597 185.356 44.955 185.279 44.1348C183.04 45.1598 180.997 45.9965 179.15 46.6449C177.344 47.2926 175.537 47.9609 173.729 48.6497ZM174.465 44.385C178.981 43.1149 181.662 42.267 182.509 41.8415C183.4 41.374 184.432 41.315 185.605 41.6642C185.783 39.9768 185.927 38.1873 186.034 36.2957C183.8 37.2384 181.762 37.9929 179.919 38.5591C178.077 39.1253 176.39 39.8531 174.858 40.7425C174.799 41.7705 174.668 42.9847 174.465 44.385ZM216.69 36.5621C216.797 35.41 216.804 34.198 216.712 32.9261C214.339 33.4194 212.041 34.0346 209.818 34.7717C207.598 35.4677 205.536 36.2842 203.631 37.2212L203.168 42.0974C206.366 40.8503 208.736 40.0489 210.279 39.6934C211.862 39.3371 212.884 39.0934 213.344 38.9621C213.765 38.7904 214.747 38.8965 216.288 39.2805L216.593 39.3368C216.602 38.4739 216.634 37.549 216.69 36.5621Z" fill="#D5A712"/>
<path d="M0.999302 18.7434L21.9995 37.7434L56.0402 -0.000121591" stroke="#D5A712" stroke-width="7"/>
</g>
</svg>
