<svg width="322" height="93" viewBox="0 0 322 93" fill="none" xmlns="http://www.w3.org/2000/svg">
<mask id="mask0_1_93" style="mask-type:alpha" maskUnits="userSpaceOnUse" x="0" y="0" width="322" height="93">
<rect width="322" height="93" fill="#D9D9D9"/>
</mask>
<g mask="url(#mask0_1_93)">
<rect x="8.5" y="20.5051" width="312" height="71" stroke="#2B5174" stroke-width="3"/>
<path d="M30.2777 35.0898C31.4907 34.74 32.5292 34.9273 33.393 35.6516C34.3004 36.3342 34.623 37.1707 34.3608 38.1612C33.6297 40.8853 32.8354 45.4386 31.9781 51.8211C31.2453 57.4619 30.8017 62.3583 30.6475 66.5102L30.5561 68.1139C30.4243 72.594 30.5062 75.4888 30.8019 76.7982C31.1364 78.148 31.7227 79.4113 32.5607 80.5881C35.3869 80.0869 38.9213 79.4296 43.1641 78.6161C47.4068 77.8027 51.5213 77.0736 55.5076 76.429C59.4916 75.8254 62.0418 75.4728 63.1584 75.3712C64.275 75.2696 65.1916 75.0687 65.9081 74.7687C67.7464 67.0545 68.9025 60.4819 69.3765 55.051C69.8636 50.1128 70.1821 46.3278 70.332 43.696L70.3707 43.0175C70.5618 40.385 70.4431 38.4973 70.0145 37.3546C67.9835 36.897 63.9395 37.1113 57.8824 37.9975C51.8664 38.883 46.1083 40.298 40.608 42.2425C40.061 42.4575 39.4385 42.5505 38.7408 42.5216C38.0842 42.4919 37.5023 42.2351 36.9951 41.7509C36.529 41.2661 36.1558 40.5948 35.8756 39.737C36.8191 39.0632 38.6068 38.3748 41.2387 37.6716C43.9142 36.9265 47.9122 36.0763 53.2327 35.1208C58.5944 34.1646 62.5131 33.6238 64.9887 33.4985L70.7336 33.3983C71.3466 33.4697 71.9756 33.6231 72.6205 33.8583C73.3065 34.0928 73.7531 34.5575 73.9604 35.2522C74.2112 35.9052 74.2996 36.5198 74.2256 37.0963L73.9656 41.6608C73.7651 44.4578 73.5369 47.3785 73.2812 50.4229C72.9271 55.1945 72.3581 59.7644 71.5744 64.1326C70.7931 68.4597 70.1538 71.7368 69.6567 73.9638C69.3758 75.2833 69.2854 76.1476 69.3855 76.5566C69.4833 77.0068 69.407 77.6244 69.1565 78.4093C68.6614 79.1574 67.965 79.8268 67.0673 80.4176C66.1426 80.7624 65.4437 80.754 64.9706 80.3925C64.5363 80.0715 64.029 79.5873 63.4488 78.9402C62.6228 78.9957 60.5749 79.1957 57.3051 79.5403C54.0765 79.8842 50.2515 80.5876 45.8299 81.6507C41.4084 82.7137 37.6069 83.7249 34.4256 84.6842C33.8326 84.9821 33.2537 85.0332 32.6889 84.8377C32.1217 84.6833 31.4792 84.4069 30.7613 84.0086C28.8512 82.1522 27.614 80.0376 27.0498 77.6647C26.6152 75.9058 26.4956 72.9501 26.691 68.7975C26.7295 67.4001 26.8174 65.858 26.9546 64.1713C27.4553 57.5486 27.9211 52.2616 28.352 48.3103C28.7851 44.3179 29.427 39.9111 30.2777 35.0898ZM49.7198 67.5332C51.1247 67.4265 52.6054 67.0721 54.162 66.4698C55.7597 65.8668 57.3745 65.3251 59.0064 64.8448C60.3775 66.0533 60.3566 67.1423 58.9437 68.1118C56.5883 69.0156 54.2111 69.9403 51.8122 70.8859C49.4156 71.7904 46.7525 72.679 43.8229 73.5517C42.5982 74.1071 41.2679 73.9865 39.8322 73.1899C39.5449 72.4555 39.3948 71.8419 39.3817 71.3491C39.5956 70.4827 40.1179 69.9806 40.9486 69.8429C42.2393 69.5739 43.1535 69.4142 43.6912 69.3637C44.2725 69.2714 44.7966 69.098 45.2637 68.8433C45.656 66.2895 46.0219 63.8388 46.3614 61.4913C45.6978 61.585 44.9642 61.8237 44.1607 62.2075C43.5172 62.6706 42.9277 62.9068 42.3923 62.9162C41.8593 62.8844 41.4274 62.5222 41.0966 61.8296C40.9506 61.5035 40.8276 61.1359 40.7274 60.7268C40.6708 60.2759 40.636 59.8041 40.623 59.3114C41.5253 58.6383 43.6553 57.7179 47.0132 56.5502C47.2538 54.492 47.4641 52.9683 47.6439 51.9792C44.9366 52.5605 42.7658 53.1119 41.1316 53.6333C40.2115 53.8959 39.1525 53.7089 37.9545 53.0725C37.2601 52.263 37.1069 51.3414 37.4949 50.3076C38.5432 49.9607 40.0251 49.5856 41.9406 49.1825C43.8584 48.7382 45.8803 48.2716 48.0064 47.7827C50.1348 47.2526 53.118 46.5227 56.9559 45.5931C57.4548 45.5022 57.9913 45.4723 58.5655 45.5034C59.1833 45.4926 59.8087 45.7076 60.4418 46.1485C60.7609 47.0467 60.84 47.8259 60.6789 48.486C60.2591 49.356 59.5538 49.8202 58.5631 49.8785C56.2064 50.084 54.1456 50.5102 52.3808 51.1572C52.0845 52.025 51.7947 53.1393 51.5115 54.4999L51.3317 55.4889C51.8306 55.3981 52.4118 55.3058 53.0754 55.212C53.7802 55.1176 54.8386 54.9553 56.2505 54.7253C57.806 54.8625 58.3993 56.0024 58.0304 58.1451C55.9914 58.5504 54.4936 58.8435 53.5371 59.0245C52.5805 59.2055 51.6604 59.468 50.7769 59.8121C50.4347 60.7629 50.1955 61.712 50.0593 62.6592C49.923 63.6064 49.8062 64.5739 49.7088 65.5615C49.6549 66.5073 49.6586 67.1645 49.7198 67.5332ZM63.8428 66.609C63.4038 66.3702 62.8449 66.0719 62.1659 65.714C61.0784 64.5827 59.9738 63.3901 58.8521 62.1361C58.7497 61.7682 58.6666 61.4204 58.603 61.0929C58.5394 60.7654 58.6176 60.4764 58.8375 60.2261C59.0575 59.9758 59.464 59.7017 60.0569 59.4038C60.6335 59.3937 61.429 59.8728 62.4435 60.8411C63.5015 61.7675 64.3613 62.9233 65.023 64.3085C65.3491 65.0833 64.9557 65.8502 63.8428 66.609ZM105.636 56.6986C104.311 60.4601 102.773 64.3485 101.022 68.3639C100.367 68.2931 99.7167 68.1607 99.0695 67.9666C98.4635 67.7717 98.0763 67.3471 97.9079 66.6928C97.7806 66.0377 97.8352 65.4411 98.0716 64.9029C99.0217 62.668 99.8584 60.6199 100.582 58.7586C101.403 56.6081 102.065 54.7479 102.566 53.1781C103.558 50.203 104.098 48.3038 104.186 47.4807C102.14 48.0093 100.291 48.6989 98.6378 49.5493C96.9871 50.3587 95.8218 50.9541 95.1418 51.3357C94.503 51.7166 93.9159 51.9117 93.3805 51.921C92.8452 51.9303 92.2345 51.8178 91.5484 51.5832C90.9131 56.2365 90.5217 60.5773 90.3745 64.6058L90.371 64.6675C90.2238 68.696 90.1697 71.4493 90.2089 72.9276C90.2917 74.3639 90.5391 75.7975 90.9513 77.2281C91.3635 78.6587 91.6138 79.6814 91.7022 80.2961C90.8093 80.8046 89.9762 80.9835 89.2032 80.8326C88.4301 80.6818 87.8281 80.0555 87.3971 78.9539C86.9742 76.9893 86.6959 74.6526 86.5623 71.9436C86.5184 70.5476 86.5344 68.8219 86.6104 66.7666C86.7252 64.7516 86.8782 62.4279 87.0693 59.7954C87.4998 54.4063 88.0795 48.5627 88.8086 42.2646C88.8508 41.5244 89.0413 41.0692 89.3801 40.899C89.7625 40.6869 90.3355 40.7385 91.0992 41.0538C91.8653 41.328 92.352 41.8125 92.5592 42.5073C92.8077 43.2013 92.8114 43.8586 92.5703 44.479C92.3788 45.6737 92.2138 46.7652 92.0752 47.7535C93.3823 47.1967 94.9218 46.5331 96.6936 45.7627C98.4654 44.9924 100.145 44.3879 101.734 43.9494C103.325 43.4698 104.622 43.0774 105.627 42.7723C105.928 41.8222 106.302 40.3163 106.748 38.2544C107.197 36.1515 107.574 33.8649 107.88 31.3947C108.58 31.3825 109.255 31.4529 109.904 31.6059C110.597 31.7171 111.05 32.0789 111.262 32.6914C111.474 33.3039 111.519 33.9605 111.396 34.661C111.305 36.2647 110.88 38.6754 110.12 41.8929C112.244 41.4451 114.511 41.0153 116.92 40.6035C119.33 40.1918 121.648 39.9459 123.874 39.866C126.187 39.7024 127.687 39.7379 128.373 39.9724C129.059 40.2069 129.667 40.7304 130.197 41.5428C130.911 42.7216 131.231 43.969 131.156 45.2849C130.608 47.6772 129.953 51.2421 129.189 55.9797C128.425 60.7173 127.538 65.4571 126.528 70.199C125.56 74.8991 124.592 78.1819 123.621 80.0475C123.185 81.2054 122.403 81.9379 121.275 82.2452C120.144 82.5935 119.042 82.4279 117.97 81.7482C116.398 80.461 115.269 79.3304 114.584 78.3565C113.938 77.4229 113.636 76.586 113.678 75.8458C113.759 75.146 114.24 75.0144 115.12 75.4509C115.627 75.935 116.564 76.4733 117.929 77.0657C119.294 77.6581 120.163 77.5608 120.537 76.7737C121.582 73.5923 122.532 69.9195 123.387 65.7554C124.284 61.5495 125.002 57.2646 125.538 52.9007C126.118 48.4949 126.427 45.9631 126.465 45.3051C126.498 44.7294 126.462 44.2782 126.357 43.9513C126.172 43.5848 125.893 43.4254 125.52 43.473C122.054 43.6567 118.906 44.0197 116.078 44.562C113.293 45.0624 110.956 45.6372 109.068 46.2864L107.227 52.6038C107.821 53.0043 108.434 53.4455 109.064 53.9275C110.331 54.8092 111.675 55.7717 113.096 56.815C115.314 58.3374 117.669 59.9601 120.163 61.683C120.478 61.924 120.791 62.2061 121.102 62.5294C121.413 62.8526 121.616 63.2599 121.711 63.7512C121.85 64.2006 121.759 64.7157 121.438 65.2965C121.005 65.6737 120.563 65.8458 120.113 65.8125C119.705 65.7375 119.305 65.5391 118.912 65.2173C117.44 64.3392 115.552 63.1808 113.248 61.742C110.946 60.2622 108.408 58.581 105.636 56.6986ZM150.131 74.1009C149.965 71.2281 149.879 68.4156 149.871 65.6633C149.888 64.6359 149.879 63.7118 149.844 62.8908C149.809 61.3303 149.762 59.996 149.702 58.8879C149.654 58.2725 149.693 57.594 149.818 56.8524C149.945 56.0696 150.421 55.6505 151.247 55.595C152.112 55.5799 152.833 55.9165 153.411 56.6048C154.032 57.2513 154.361 57.985 154.396 58.806L154.309 60.3481C154.157 62.2815 154.029 64.1735 153.924 66.0239C153.833 68.326 154.066 70.7458 154.621 73.2831C156.994 72.7898 159.223 72.2991 161.308 71.8108C161.335 70.619 161.531 68.6232 161.896 65.8233C162.302 63.0227 162.773 59.461 163.307 55.1382C163.882 50.8147 164.244 47.7068 164.393 45.8144C164.542 43.9221 164.578 42.5658 164.502 41.7455C162.3 42.1126 159.858 42.7303 157.176 43.5987C154.493 44.4671 151.669 45.6666 148.702 47.1973C146.939 46.3653 146.261 44.8982 146.669 42.796C149.487 41.7199 152.109 40.832 154.535 40.1324C157.004 39.3909 160.387 38.5103 164.683 37.4905C168.981 36.4296 172.063 35.7597 173.93 35.4806C175.798 35.2016 177.311 34.9903 178.471 34.8468C179.06 34.6312 179.683 34.5176 180.342 34.5061L180.589 34.5018C181.328 34.53 181.843 34.8907 182.132 35.584C182.465 36.2355 182.761 36.8261 183.019 37.3556C182.569 38.0207 182.161 38.6851 181.794 39.3488C179.948 39.2578 177.906 39.355 175.668 39.6405C173.471 39.9253 171.411 40.3515 169.486 40.9192C168.749 44.465 168.186 48.2132 167.796 52.1637L168.919 51.9593C169.543 51.8251 170.375 51.6668 171.414 51.4844C173.286 51.1231 175.739 50.6695 178.774 50.1236C179.151 49.9938 179.542 49.987 179.947 50.1031C181.212 50.2865 181.871 50.9939 181.925 52.2254C181.813 53.4598 181.158 54.1285 179.959 54.2316C177.75 54.722 175.939 55.1028 174.525 55.3739C173.154 55.6032 172.051 55.8279 171.216 56.0478C170.422 56.2671 169.11 56.9062 167.28 57.9651C166.802 59.8632 166.458 61.574 166.247 63.0977C166.037 64.6213 165.887 67.2531 165.798 70.993C166.667 70.8957 169.03 70.5875 172.885 70.0684C176.785 69.5074 181.176 68.9789 186.059 68.4829C186.674 68.5133 187.409 68.6032 188.265 68.7526C187.988 70.7293 186.895 71.8575 184.987 72.1373C182.08 72.5988 174.58 73.9004 162.486 76.0421C158.415 76.7293 154.959 77.4469 152.119 78.1948C149.318 78.9831 147.118 79.6788 145.521 80.2818C144.085 80.923 142.802 80.6989 141.671 79.6094C141.379 78.9572 141.208 78.344 141.159 77.7697C141.109 77.1955 141.387 76.6566 141.991 76.1531C142.596 75.6496 143.144 75.414 143.636 75.4465C146.044 75.0759 148.208 74.6274 150.131 74.1009ZM232.206 64.4738C231.37 64.6938 230.534 64.9343 229.696 65.1954C230.073 65.8051 230.31 66.335 230.408 66.7852C230.547 67.2346 230.342 67.9366 229.794 68.891C228.302 70.5191 226.9 72.3922 225.586 74.5103C224.272 76.6283 223.338 78.2262 222.783 79.304C222.225 80.4229 221.775 81.1086 221.431 81.3611C221.129 81.6128 220.694 81.6615 220.127 81.5071C218.746 81.2025 218.219 80.3285 218.549 78.8849C219.104 77.8071 220.201 75.8777 221.84 73.0967C223.48 70.3157 224.735 68.137 225.607 66.5608C223.63 66.5953 222.327 66.0018 221.697 64.7803C221.347 61.5411 221.218 58.0309 221.31 54.2498C221.29 53.8805 221.289 53.5313 221.308 53.2023C221.423 49.0101 221.697 44.9177 222.131 40.9253C222.605 36.9322 222.885 34.1749 222.972 32.6534C223.218 31.9508 223.615 31.4714 224.165 31.2153C224.755 30.9585 225.427 31.0906 226.179 31.6116C226.931 32.1325 227.656 32.7566 228.355 33.4839C229.704 32.9263 231.61 32.3179 234.075 31.6587C236.584 30.9577 238.798 30.3645 240.718 29.8791C241.137 29.7485 241.552 29.6797 241.964 29.6725C243.117 29.6524 244.119 30.1279 244.968 31.099C245.663 31.9085 245.858 32.8089 245.555 33.8001C245.281 34.9962 244.876 37.4065 244.341 41.031L244.24 41.7105C243.642 45.7058 242.532 52.1954 240.91 61.1793C240.512 62.3776 239.956 63.1062 239.242 63.3652C238.569 63.6234 237.681 63.6799 236.579 63.5348C236.308 66.1277 236.217 68.4503 236.305 70.5028C236.394 72.5553 236.873 74.6215 237.742 76.7015C237.986 77.4778 239.308 77.3726 241.709 76.3858C244.149 75.4395 246.121 74.4192 247.623 73.3249C249.164 72.271 250.156 71.4731 250.598 70.9314C251.541 70.9971 252.142 71.2742 252.402 71.7626C252.665 72.2099 252.678 72.7027 252.441 73.2408C252.203 73.8201 251.889 74.2775 251.499 74.6129C250.365 75.7419 248.631 76.943 246.295 78.2161C243.96 79.4893 242.1 80.3639 240.715 80.8399C239.328 81.3571 237.91 81.3407 236.46 80.7909C235.008 80.2821 234.04 78.8612 233.555 76.528C233.071 74.1949 232.733 71.8181 232.542 69.3976C232.351 66.9772 232.239 65.3359 232.206 64.4738ZM225.691 44.4989C230.507 43.0182 235.365 41.5161 240.265 39.9929C240.454 38.8393 240.579 37.7279 240.64 36.6588C240.745 35.5478 240.8 34.5814 240.806 33.7597C239.895 33.8577 237.909 34.4059 234.849 35.4041C231.791 36.3612 229.005 37.6011 226.491 39.1239C226.238 40.6894 226.047 41.8635 225.92 42.6463C225.796 43.3879 225.72 44.0054 225.691 44.4989ZM225.19 63.0556C226.703 62.4952 228.085 62.0603 229.337 61.7509C230.591 61.4004 233.132 60.4934 236.959 59.0299C237.352 57.9138 237.619 56.8411 237.76 55.8116C237.942 54.7814 238.076 53.8753 238.161 53.0933C234.751 53.7279 231.992 54.4949 229.884 55.3944C227.819 56.252 226.132 56.9798 224.823 57.5777C224.73 58.4831 224.697 59.4286 224.723 60.4141C224.751 61.3584 224.907 62.239 225.19 63.0556ZM206.206 42.0658C206.394 39.4744 206.502 37.5828 206.529 36.391C206.729 35.7713 207.316 35.5762 208.29 35.8057C209.265 36.0352 209.882 36.3941 210.142 36.8826C210.402 37.371 210.596 38.6617 210.724 40.7546C211.98 40.3629 213.169 40.0752 214.29 39.8913C214.801 39.5948 215.366 39.4206 215.986 39.3687C216.648 39.3161 217.237 39.4496 217.753 39.7693C218.597 40.1243 219.051 40.8147 219.116 41.8406C218.873 42.5022 218.417 42.9209 217.749 43.0969C216.584 43.3226 215.501 43.5469 214.501 43.7697C213.545 43.9507 212.19 44.2619 210.437 44.7033C209.798 47.2615 209.274 49.5917 208.866 51.6939C209.534 51.5179 210.654 51.0054 212.224 50.1564C213.836 49.3067 215.222 48.4609 216.38 47.6191C216.849 48.0628 217.234 48.5285 217.535 49.0163C217.877 49.5033 217.887 50.0577 217.564 50.6795C217.284 51.2595 216.848 51.6779 216.258 51.9347C214.366 53.3645 212.783 54.4396 211.507 55.1603C210.276 55.839 208.959 56.5604 207.558 57.3243C206.916 58.4857 206.572 59.4571 206.528 60.2384C206.587 60.6482 206.942 61.2788 207.593 62.1301C207.785 62.3733 207.975 62.637 208.165 62.9212C209.204 64.1766 210.561 65.6318 212.236 67.2869C213.913 68.9009 215.043 70.0109 215.625 70.617C215.435 71.0722 215.145 71.4675 214.756 71.803C214.407 72.1377 213.987 72.2888 213.496 72.2563C213.045 72.2231 212.601 72.0665 212.165 71.7865C210.903 70.8226 209.727 69.7955 208.637 68.7054C207.55 67.5741 206.389 66.2797 205.156 64.8223C204.438 66.6013 203.783 68.3381 203.193 70.0327C202.646 71.6855 202.123 73.646 201.624 75.9141C201.41 76.7806 200.891 77.221 200.067 77.2353C199.244 77.2497 198.605 76.9116 198.15 76.2212C197.735 75.5712 197.59 74.8548 197.717 74.072C198.459 71.8818 199.392 69.2363 200.514 66.1357L200.652 65.8868C201.823 62.6621 202.56 60.5541 202.864 59.5629C201.644 60.036 200.691 60.5045 200.007 60.9684C199.324 61.3911 198.644 61.7727 197.967 62.1131C197.069 62.7039 195.913 62.416 194.498 61.2493C193.468 59.8294 193.856 58.7956 195.662 58.1479C197.979 57.2038 199.771 56.433 201.04 55.8358C202.349 55.2378 203.432 54.6438 204.288 54.0537C204.916 51.7012 205.325 49.9481 205.514 48.7946C205.705 47.5999 205.838 46.7143 205.912 46.1379C202.847 47.2184 200.742 48.0562 199.598 48.6513C198.453 49.2464 197.673 49.5681 197.259 49.6164C196.845 49.6647 196.36 49.5088 195.805 49.1488C195.249 48.7887 194.844 48.3234 194.588 47.7527C194.335 47.1409 194.51 46.6038 195.112 46.1414C198.555 44.9311 201.094 44.0446 202.731 43.482C204.409 42.9187 205.567 42.4466 206.206 42.0658ZM224.705 53.1431C227.349 52.2343 229.76 51.4322 231.939 50.7369C234.118 50.0416 236.478 49.4253 239.018 48.8881C239.248 47.7338 239.383 46.8071 239.423 46.108C239.504 45.4083 239.61 44.6259 239.742 43.7609C237.236 44.4208 235.291 44.9888 233.906 45.4648C232.439 45.9423 229.488 47.1851 225.054 49.1932L224.758 52.2178L224.705 53.1431ZM255.625 36.952C256.648 36.318 258.246 35.715 260.418 35.143C262.592 34.53 265.77 33.6324 269.951 32.4503C270.032 30.3127 270.269 28.6859 270.661 27.5698C270.827 26.8275 271.188 26.2666 271.745 25.8872C272.326 25.7949 272.871 25.9702 273.381 26.4132C274.499 27.0099 274.835 27.9695 274.389 29.2918C274.132 30.2001 273.982 31.0243 273.94 31.7645C274.942 31.5006 276.73 31.1818 279.302 30.8083C281.876 30.3937 285.836 29.8522 291.181 29.1838L291.722 27.2641C292.086 25.9432 292.448 24.992 292.811 24.4106C293.079 24.0362 293.46 23.8447 293.954 23.836C294.16 23.8325 294.365 23.8494 294.569 23.887C295.858 24.3574 296.544 25.3109 296.627 26.7473C296.51 27.3655 296.393 27.9632 296.278 28.5404C299.257 28.2419 302.251 28.0459 305.26 27.9524C306.095 27.7324 306.855 27.7602 307.538 28.0359C308.627 28.4277 309.075 29.2209 308.884 30.4156C308.363 31.6161 307.47 32.1246 306.205 31.9413C303.95 31.8163 301.769 31.8132 299.664 31.9321C297.6 32.0502 295.823 32.2045 294.331 32.3948C293.826 33.3074 293.433 34.0743 293.15 34.6954C292.871 35.2754 292.298 36.2919 291.434 37.7448C290.613 39.1559 289.779 40.0742 288.932 40.4998C288.128 40.8835 287.544 41.0375 287.178 40.9617C286.855 40.8441 286.822 40.3517 287.077 39.4846C288.002 36.9625 288.869 34.7495 289.677 32.8457C286.697 33.1442 283.859 33.5018 281.161 33.9186C278.463 34.3354 275.879 34.9145 273.41 35.6559C273.157 36.4819 273.082 37.0789 273.184 37.4469C273.33 37.773 273.555 38.1593 273.859 38.6059C274.629 38.7979 274.971 39.3054 274.883 40.1286L277.442 38.5434C278.55 37.8668 279.7 37.1689 280.893 36.4497C281.186 36.3624 281.614 36.4371 282.176 36.6738C282.78 36.9098 283.132 37.602 283.231 38.7506C282.978 39.5766 282.409 40.1822 281.523 40.5674C280.424 41.0795 279.407 41.5902 278.473 42.0995C277.539 42.6087 276.32 43.4311 274.815 44.5665C274.503 44.9827 274.314 45.4174 274.247 45.8704C279.159 44.1415 282.925 43.0283 285.545 42.5307C288.166 42.0331 289.806 41.758 290.468 41.7054C292.403 41.6716 293.4 42.5991 293.457 44.4878L293.414 45.228C293.319 46.1746 293.021 47.4327 292.52 49.0025C293.338 48.3721 294.166 47.5565 295.005 46.556C295.885 45.5547 296.912 44.4892 298.087 43.3595C298.653 42.8156 299.221 42.2306 299.792 41.6044C300.365 40.9371 300.919 40.2291 301.456 39.4803C301.738 38.8591 302.207 38.5634 302.864 38.593C303.31 38.7085 303.691 38.8867 304.006 39.1277C304.479 39.4892 304.841 39.9964 305.092 40.6493C305.047 41.4306 304.722 42.0936 304.115 42.6382C302.635 44.0608 301.071 45.5053 299.424 46.9719C297.821 48.3966 296.472 49.6936 295.377 50.863C296.271 51.0528 297.482 51.463 299.009 52.0937C300.578 52.7236 301.626 53.0956 302.155 53.2096C303.614 53.595 304.593 54.4611 305.092 55.8081C305.069 56.2193 304.986 56.5905 304.844 56.9216C304.704 57.2116 304.465 57.4212 304.129 57.5503C303.079 57.1989 301.521 56.7536 299.453 56.2145C297.427 55.6748 295.93 55.2284 294.963 54.8756C293.939 54.0718 293.406 52.9514 293.365 51.5143C292.962 51.357 292.582 51.1787 292.223 50.9796C291.897 51.6426 291.606 52.4076 291.351 53.2748C291.096 54.1419 290.431 56.0638 289.357 59.0403C289.297 59.37 289.113 59.7019 288.806 60.0359C288.543 60.328 288.023 60.4193 287.248 60.3095C286.514 60.1991 286.008 59.6944 285.73 58.7955C284.567 58.9801 283.422 59.226 282.293 59.5333C282.696 59.6906 282.992 59.9113 283.181 60.1956C283.485 60.6422 283.583 61.0924 283.475 61.5462C283.408 61.9992 283.386 62.3899 283.408 62.7181C287.031 61.9566 291.21 61.1648 295.947 60.3427C296.871 60.7374 297.45 61.4051 297.685 62.3459C297.569 62.923 297.412 63.5215 297.212 64.1412C291.883 64.5217 287.251 65.3008 283.317 66.4786C282.953 67.1012 282.872 67.801 283.074 68.578C284.443 69.8276 286.086 70.9492 288.004 71.9428C289.964 72.9356 291.788 73.7665 293.478 74.4354C295.168 75.1043 296.699 75.6733 298.071 76.1423C298.956 76.4966 299.6 77.1016 300.004 77.9572C299.821 78.2891 299.476 78.5621 298.97 78.7763C298.503 79.031 297.884 79.0623 297.113 78.8704C295.131 78.2887 292.428 77.3499 289.004 76.054C285.581 74.758 283.511 73.9109 282.793 73.5126C282.271 76.8903 281.913 80.2857 281.719 83.6988C281.51 84.483 281.01 84.9436 280.221 85.0806C279.349 85.2191 278.71 84.881 278.304 84.0665C278.094 83.4128 278.013 82.6748 278.06 81.8524C278.443 79.463 278.695 77.5689 278.815 76.17C278.936 74.7712 279.008 73.8661 279.032 73.4549C276.565 75.5931 274.425 77.4174 272.611 78.928C270.838 80.4378 269.301 81.7792 268 82.9521C267.043 83.1331 266.301 83.1666 265.772 83.0526C265.285 82.9379 264.99 82.6965 264.888 82.3286C264.785 81.9606 264.828 81.5696 265.016 81.1555C265.113 80.9074 266.419 79.6522 268.934 77.3899C271.449 75.1277 273.358 73.3896 274.661 72.1755C276.008 70.9196 277.582 69.6597 279.382 68.3959L279.385 68.3342L279.286 67.9046C278.167 68.0473 276.31 68.5111 273.715 69.2958C271.163 70.0387 269.297 70.6463 268.118 71.1188C266.94 71.5912 265.973 71.9573 265.217 72.2169C264.505 72.4348 263.843 72.5079 263.23 72.4365C262.674 72.0764 262.268 71.6316 262.01 71.1021C261.755 70.5314 261.727 69.9362 261.927 69.3165C262.103 69.108 263.323 68.6349 265.587 67.897C267.85 67.1592 270.55 66.3521 273.685 65.4758C276.862 64.5988 278.826 64.0715 279.577 63.8941C279.648 63.3588 279.682 62.7626 279.678 62.1053C279.67 61.5304 279.641 60.9557 279.592 60.3815C277.911 60.9859 276.229 61.6314 274.544 62.3181C273.941 62.0822 273.275 61.8473 272.548 61.6135C272.055 60.8826 271.647 60.0887 271.326 59.2316C270.266 59.7841 268.562 60.7998 266.215 62.2785C263.868 63.7573 262.159 64.8757 261.087 65.6339C260.17 65.8553 259.376 65.7048 258.706 65.1824C258.51 65.0215 258.314 64.8401 258.12 64.6381C257.831 63.9447 257.788 63.2471 257.993 62.5452C260.2 61.3564 262.087 60.3581 263.656 59.5502C265.224 58.7423 266.536 58.1032 267.591 57.6329C268.69 57.1208 269.707 56.5895 270.644 56.0392L270.743 48.8894C270.743 46.7121 270.771 45.1505 270.824 44.2047C270.888 43.0944 271.389 42.2435 272.328 41.652C270.986 40.6484 270.194 39.7379 269.953 38.9205C269.712 38.1031 269.528 37.3463 269.403 36.6501C265.858 37.4925 263.268 38.1949 261.631 38.7575C259.997 39.279 258.766 39.588 257.937 39.6846C257.278 39.6961 256.718 39.4183 256.257 38.8513C255.839 38.2423 255.628 37.6093 255.625 36.952ZM267.313 54.9264C266.773 55.018 266.258 55.027 265.769 54.9534C265.282 54.8386 264.883 54.6196 264.572 54.2964C263.645 53.2445 262.409 52.1774 260.867 51.0951C260.064 50.7394 259.584 50.1315 259.428 49.2716C259.22 48.5768 259.441 47.9568 260.089 47.4114C261.009 47.1489 261.844 47.2986 262.594 47.8607C264.159 49.2712 265.467 50.5014 266.518 51.5511C267.455 52.4386 267.72 53.5637 267.313 54.9264ZM289.817 45.5373C289.459 45.3381 288.906 45.2861 288.16 45.3813C287.414 45.4765 285.747 45.8547 283.159 46.5161C280.614 47.1356 278.853 47.7004 277.878 48.2103C276.903 48.7203 276.082 49.0427 275.416 49.1776C274.794 49.2706 274.24 49.2392 273.755 49.0833C273.713 49.8235 273.761 50.7881 273.899 51.977C274.572 51.7188 275.265 51.4808 275.976 51.2629C276.732 51.0033 277.86 50.696 279.361 50.3412C280.863 49.9864 282.363 49.6521 283.862 49.3384C285.404 48.9829 286.568 48.7777 287.353 48.7229C288.029 49.1219 288.545 49.4621 288.899 49.7435C289.111 48.9182 289.297 48.1755 289.458 47.5154C289.628 46.6908 289.748 46.0314 289.817 45.5373ZM274.426 55.7267L274.401 56.1585C274.375 57.3503 274.496 58.1082 274.766 58.4321C277.693 57.6005 279.868 56.9669 281.292 56.5313C282.757 56.0949 284.093 55.743 285.302 55.4754C285.772 55.878 286.391 56.2164 287.157 56.4906C287.658 54.9208 288.185 53.2478 288.739 51.4717C285.688 52.3055 283.305 52.9632 281.591 53.445C280.252 53.8381 278.43 54.4039 276.126 55.1425C275.581 55.3163 275.014 55.511 274.426 55.7267Z" fill="#D5A712"/>
<path d="M0.999302 19.2012L21.9995 38.2012L56.0402 0.457642" stroke="#D5A712" stroke-width="7"/>
</g>
</svg>
