<svg width="222" height="174" viewBox="0 0 222 174" fill="none" xmlns="http://www.w3.org/2000/svg">
<path d="M20.1289 97.8076L31.9037 141.71C36.6038 159.234 54.3879 169.679 71.6449 165.051C88.902 160.422 99.0726 142.48 94.3725 124.956L82.5977 81.0532" fill="white"/>
<path d="M70.5516 36.872C65.9841 19.842 48.4761 9.75206 31.4275 14.3246C14.3789 18.8971 4.26978 36.3941 8.83729 53.424L20.7004 97.6556L82.4147 81.1036L70.5516 36.872Z" fill="#ACB2D5" stroke="#2B5174" stroke-width="6" stroke-linecap="round" stroke-linejoin="round"/>
<path d="M23.9844 109.908L32.582 141.965C37.1495 158.995 54.6576 169.084 71.7062 164.512C88.7548 159.939 98.8639 142.442 94.2964 125.413L85.6987 93.3562" stroke="#2B5174" stroke-width="6" stroke-linecap="round" stroke-linejoin="round"/>
<path d="M187.309 65.5491C204.6 65.5491 218.618 51.547 218.618 34.2745C218.618 17.0021 204.6 3 187.309 3C170.017 3 156 17.0021 156 34.2745C156 51.547 170.017 65.5491 187.309 65.5491Z" fill="white" stroke="#2B5174" stroke-width="6" stroke-linecap="round" stroke-linejoin="round"/>
<path d="M151.207 147.218C168.499 147.218 182.516 133.216 182.516 115.943C182.516 98.671 168.499 84.6689 151.207 84.6689C133.916 84.6689 119.898 98.671 119.898 115.943C119.898 133.216 133.916 147.218 151.207 147.218Z" fill="white" stroke="#2B5174" stroke-width="6" stroke-linecap="round" stroke-linejoin="round"/>
<path d="M139.227 111.156L163.187 120.65" stroke="#2B5174" stroke-width="6" stroke-linecap="round" stroke-linejoin="round"/>
<path d="M174.77 31.4824L199.928 37.0672" stroke="#2B5174" stroke-width="6" stroke-linecap="round" stroke-linejoin="round"/>
</svg>
