<svg width="206" height="288" viewBox="0 0 206 288" fill="none" xmlns="http://www.w3.org/2000/svg">
<g clip-path="url(#clip0_289_5877)">
<path d="M107.339 191.33C104.909 186.29 101.039 180.54 102.579 174.71C104.249 168.33 111.459 165.89 117.079 168.41C121.629 170.45 123.569 175.2 125.719 179.4C128.319 184.44 130.869 189.51 133.409 194.58C133.409 193.16 133.399 191.75 133.399 190.33V53.5401C133.399 50.6501 132.869 47.9001 131.079 45.5301C128.529 42.1801 124.789 41.1401 120.839 41.1401H52.8991C49.4991 41.1701 46.3091 42.7001 44.1591 45.3901C41.0791 49.2701 41.7291 54.4501 41.7291 59.1101V197.93C41.7291 199.01 41.7191 200.08 41.7291 201.16C41.7991 207.41 46.7191 212.46 52.8991 212.52C58.9591 212.59 65.0091 212.52 71.0691 212.52H117.589C117.199 211.72 116.809 210.91 116.419 210.11C113.389 203.85 110.349 197.59 107.329 191.33H107.339ZM105.349 44.2101C108.879 44.2101 108.879 49.7601 105.349 49.7601C101.819 49.7601 101.819 44.2101 105.349 44.2101ZM77.9891 44.2101H97.1791C98.6691 44.2101 99.9191 45.4801 99.9191 46.9901C99.9191 48.5001 98.6591 49.7701 97.1791 49.7701H77.9891C76.4991 49.7701 75.2491 48.5001 75.2491 46.9901C75.2491 45.4801 76.5091 44.2101 77.9891 44.2101ZM64.6491 47.5001C64.6491 48.6301 64.4891 49.9101 64.9191 50.9701C65.4191 52.1901 66.5991 53.0701 67.8991 53.2101C68.6591 53.2901 69.4891 53.2101 70.2491 53.2101H106.989C107.869 53.2101 108.769 53.2901 109.589 52.9301C111.879 51.9501 111.799 49.6501 111.799 47.5001C111.799 43.9201 117.279 43.9201 117.279 47.5001C117.279 49.1001 117.339 50.7201 116.859 52.2601C116.179 54.4601 114.649 56.4101 112.669 57.5501C110.869 58.5701 108.949 58.7501 106.939 58.7501H68.8391C66.4291 58.7501 64.2191 58.0901 62.3391 56.5201C59.5691 54.1801 59.1491 50.9101 59.1491 47.4901C59.1491 44.0701 64.6291 43.9101 64.6291 47.4901H64.6391L64.6491 47.5001ZM107.639 202.61H67.2891C63.7591 202.61 63.7591 197.06 67.2891 197.06H107.639C111.169 197.06 111.169 202.61 107.639 202.61Z" fill="white"/>
<path d="M62.3597 56.5202C64.2297 58.1002 66.4497 58.7502 68.8597 58.7502H106.96C108.95 58.7502 110.88 58.5702 112.69 57.5502C114.68 56.4202 116.21 54.4602 116.88 52.2602C117.36 50.7002 117.3 49.0902 117.3 47.4902C117.3 43.9102 111.82 43.9102 111.82 47.4902C111.82 49.6402 111.9 51.9402 109.61 52.9202C108.79 53.2802 107.89 53.2002 107.01 53.2002H70.2697C69.4997 53.2002 68.6697 53.2802 67.9097 53.2002C66.6097 53.0602 65.4297 52.1802 64.9297 50.9602C64.4897 49.9002 64.6597 48.6302 64.6597 47.4902C64.6597 43.9102 59.1797 43.9102 59.1797 47.4902C59.1797 51.0702 59.5997 54.1802 62.3697 56.5202H62.3597Z" fill="#2B5174"/>
<path d="M77.99 49.7499H97.18C98.66 49.7499 99.92 48.4699 99.92 46.9699C99.92 45.4699 98.67 44.1899 97.18 44.1899H77.99C76.51 44.1899 75.25 45.4699 75.25 46.9699C75.25 48.4699 76.5 49.7499 77.99 49.7499Z" fill="#2B5174"/>
<path d="M105.358 49.7502C108.888 49.7502 108.888 44.2002 105.358 44.2002C101.828 44.2002 101.828 49.7502 105.358 49.7502Z" fill="#2B5174"/>
<path d="M107.662 197.061H67.3116C63.7816 197.061 63.7816 202.611 67.3116 202.611H107.662C111.192 202.611 111.192 197.061 107.662 197.061Z" fill="#2B5174"/>
<path d="M184.768 210.24C184.178 209.21 183.598 208.16 183.008 207.13C182.658 206.51 182.138 205.53 181.908 205.26C181.718 205.05 181.528 204.85 181.318 204.66C181.318 204.66 181.305 204.65 181.278 204.63C181.278 204.63 181.258 204.62 181.238 204.6C181.118 204.51 180.478 204.18 180.528 204.18C180.238 204.07 179.938 203.99 179.638 203.91C179.588 203.9 179.558 203.89 179.528 203.88H179.488C179.328 203.87 179.148 203.86 178.988 203.86C178.738 203.86 178.488 203.86 178.228 203.89H178.198C177.828 203.97 177.468 204.07 177.098 204.18C177.048 204.2 177.008 204.21 176.978 204.22C176.858 204.28 176.728 204.34 176.608 204.41C176.468 204.49 176.008 204.79 175.878 204.87C175.798 204.95 175.528 205.19 175.488 205.24C175.378 205.35 175.268 205.47 175.158 205.59C175.148 205.6 175.138 205.61 175.138 205.62C175.118 205.65 175.118 205.68 175.078 205.71C174.998 205.85 174.918 205.99 174.838 206.13C174.818 206.16 174.808 206.19 174.798 206.21C174.758 206.34 174.708 206.47 174.678 206.6C174.678 206.6 174.638 206.88 174.598 207.01V207.23C174.598 207.3 174.628 207.62 174.628 207.77C174.668 207.93 174.758 208.29 174.748 208.26C174.798 208.45 174.868 208.62 174.888 208.69C175.018 208.97 175.138 209.26 175.268 209.53C176.288 211.77 177.318 214.02 178.338 216.26C178.958 217.63 178.728 219.24 177.348 220.06C176.118 220.78 174.278 220.39 173.598 219.06C172.308 216.52 171.018 213.97 169.708 211.43C169.028 210.12 168.458 208.8 167.568 207.91C167.528 207.86 167.428 207.78 167.388 207.74C167.268 207.65 167.138 207.57 167.018 207.48C166.908 207.4 166.788 207.35 166.668 207.28C166.628 207.26 166.598 207.25 166.588 207.24C166.298 207.13 166.018 207.05 165.718 206.98C165.718 206.98 165.638 206.97 165.578 206.96C165.478 206.96 165.328 206.94 165.288 206.94C164.938 206.94 164.598 206.94 164.258 206.96C164.108 206.98 163.958 207.01 163.808 207.05C163.518 207.13 163.218 207.22 162.918 207.32C162.378 207.5 162.848 207.31 162.478 207.51C162.168 207.68 161.868 207.85 161.568 208.05C161.218 208.27 161.588 207.96 161.198 208.34C160.978 208.55 160.758 208.76 160.548 208.98C160.528 209.01 160.448 209.1 160.408 209.15C160.368 209.22 160.318 209.27 160.278 209.34C160.208 209.45 159.958 209.91 159.898 210.02C159.868 210.13 159.728 210.54 159.688 210.65C159.658 210.76 159.628 210.88 159.618 211V211.07C159.618 211.34 159.618 211.61 159.638 211.88C159.658 211.86 159.798 212.48 159.848 212.61C159.978 212.99 160.158 213.34 160.308 213.7C160.728 214.66 161.168 215.6 161.588 216.55C162.728 219.05 163.888 221.53 165.098 224C165.758 225.35 165.468 227 164.108 227.8C162.718 228.62 161.258 227.99 160.358 226.8C159.678 225.9 159.238 224.68 158.738 223.68C157.818 221.85 156.918 220.02 156.018 218.18C155.428 216.97 154.828 215.75 154.298 214.52C154.248 214.39 153.718 213.28 154.108 214.06C154.018 213.89 153.948 213.72 153.858 213.55C153.748 213.35 153.628 213.15 153.498 212.97C153.478 212.95 153.478 212.94 153.468 212.93C153.438 212.9 153.408 212.88 153.358 212.82C153.258 212.72 152.878 212.4 152.848 212.35C152.608 212.22 152.188 211.99 152.238 211.98C151.958 211.88 151.658 211.79 151.358 211.74C151.518 211.8 150.668 211.68 150.488 211.68C150.358 211.68 149.938 211.73 149.838 211.73C149.478 211.8 149.128 211.87 148.778 211.97C148.578 212.03 148.388 212.1 148.188 212.18C148.138 212.2 148.058 212.24 148.038 212.26C147.668 212.46 147.308 212.66 146.958 212.9C146.928 212.92 146.848 212.98 146.808 213.01C146.718 213.09 146.618 213.17 146.548 213.24C146.448 213.33 145.908 213.93 145.928 213.89C145.708 214.19 145.528 214.52 145.348 214.86C145.338 214.89 145.328 214.9 145.318 214.93C145.318 214.95 145.318 214.96 145.298 215.01C145.228 215.21 145.178 215.41 145.128 215.61C145.128 215.65 145.098 215.74 145.088 215.81C145.088 215.92 145.068 216.03 145.068 216.14C145.068 216.36 145.068 216.58 145.088 216.81V216.88C145.088 216.88 145.108 216.97 145.128 217.04C145.548 218.82 146.368 220.47 147.158 222.13C148.728 225.28 150.288 228.44 151.848 231.6C153.418 234.78 148.788 237.58 147.118 234.4C146.888 233.96 146.658 233.51 146.428 233.07C146.198 232.63 145.958 232.18 145.738 231.74C144.578 229.49 143.468 227.2 142.418 224.89C140.218 220.44 138.018 215.99 135.798 211.54C130.758 201.41 125.738 191.27 120.548 181.23C119.788 179.77 119.048 178.31 118.258 176.87C118.088 176.55 117.898 176.23 117.698 175.91C117.498 175.61 117.368 175.45 117.328 175.4C117.108 175.14 116.888 174.91 116.648 174.68C116.578 174.61 116.108 174.22 116.088 174.19C115.838 174 115.558 173.83 115.288 173.68C115.178 173.61 114.808 173.44 114.698 173.38C114.578 173.35 114.098 173.18 113.988 173.15C113.778 173.1 113.558 173.05 113.348 173.01C113.288 173.01 112.858 172.95 112.708 172.94C112.388 172.94 112.088 172.94 111.778 172.96H111.658C111.658 172.96 111.568 172.99 111.478 173.02C111.228 173.09 110.968 173.15 110.708 173.22C110.708 173.22 110.468 173.31 110.358 173.35C110.298 173.37 110.238 173.41 110.218 173.42C109.988 173.55 109.758 173.68 109.538 173.82C109.448 173.87 109.378 173.93 109.288 174C109.268 174.02 109.258 174.03 109.208 174.08C109.018 174.27 108.838 174.46 108.658 174.65C108.658 174.65 108.648 174.66 108.628 174.68C108.628 174.68 108.618 174.7 108.608 174.71C108.548 174.81 108.488 174.9 108.418 175C108.308 175.19 108.208 175.38 108.108 175.58C108.098 175.65 107.928 176.08 107.898 176.21C107.868 176.32 107.798 176.68 107.768 176.82C107.768 176.95 107.738 177.24 107.738 177.28V177.84C107.748 178.23 107.758 178.36 107.768 178.43C107.888 179.24 108.118 180.06 108.418 180.83C109.198 182.83 110.268 184.75 111.198 186.68C112.458 189.29 113.718 191.9 114.978 194.51C118.198 201.17 121.428 207.84 124.658 214.5C131.418 228.44 138.198 242.38 144.958 256.33C145.618 257.68 145.328 259.33 143.968 260.13C143.638 260.33 143.258 260.43 142.858 260.47C142.148 260.69 141.368 260.65 140.758 260.2C140.598 260.08 140.408 259.99 140.228 259.89C139.528 259.5 138.808 259.18 138.068 258.85C137.938 258.8 137.428 258.57 137.358 258.54C137.078 258.42 136.788 258.3 136.508 258.18C135.588 257.8 134.668 257.44 133.748 257.07C129.128 255.27 123.938 252.98 119.138 252.55C118.258 252.47 117.358 252.45 116.488 252.55H116.448C116.248 252.59 116.068 252.63 115.878 252.67C115.658 252.72 115.438 252.8 115.228 252.88C115.198 252.91 114.688 253.15 114.548 253.22C114.428 253.3 114.318 253.38 114.208 253.44C113.978 253.65 113.758 253.86 113.538 254.09C113.448 254.19 113.268 254.42 113.198 254.5C113.018 254.76 112.848 255.01 112.688 255.28C112.618 255.39 112.398 255.8 112.318 255.96C112.318 256.07 112.168 256.62 112.148 256.54C112.128 256.84 112.128 257.14 112.138 257.44C112.138 257.66 112.168 257.85 112.328 258.41C112.428 258.79 112.578 259.22 112.638 259.34C112.968 260.1 113.428 260.86 113.918 261.45C115.428 263.28 117.398 264.15 119.548 265.01C122.198 266.09 124.848 267.19 127.478 268.3C131.688 270.08 135.868 271.89 140.038 273.72C145.878 276.26 152.088 279.24 158.638 280.88C167.358 283.06 177.608 281.97 185.708 278.05C190.038 275.96 193.588 272.95 196.068 268.76C198.618 264.46 200.278 259.2 200.578 254.19C201.178 244.2 198.158 234.33 193.488 225.66C190.698 220.46 187.698 215.36 184.788 210.23L184.748 210.26L184.768 210.24Z" fill="white"/>
<path d="M200.779 228.06C197.879 221.61 194.079 215.52 190.589 209.38C189.489 207.45 188.369 205.51 187.289 203.57C185.049 199.52 180.839 197.53 176.339 198.62C173.819 199.23 171.549 200.88 170.239 203.09C168.949 202.2 167.489 201.66 165.899 201.48C162.539 201.1 158.919 202.56 156.659 205.09C156.019 205.8 155.529 206.55 155.149 207.32C154.889 207.17 154.619 207.04 154.349 206.92C150.419 205.22 145.719 206.45 142.639 209.33C142.199 209.74 141.799 210.2 141.429 210.69C140.439 208.71 139.459 206.74 138.469 204.75C138.679 203.79 138.819 202.81 138.859 201.78C138.899 200.74 138.869 199.69 138.869 198.65V53.2901C138.869 48.9101 137.639 44.8501 134.839 41.4601C131.389 37.2901 126.369 35.5801 121.159 35.5801H54.229C49.329 35.5801 44.709 36.9101 41.149 40.5201C37.819 43.9001 36.279 48.4101 36.279 53.1301V190.78C36.279 194.24 36.249 197.72 36.279 201.19C36.379 209.98 43.009 217.18 51.589 218.01C53.609 218.2 55.689 218.08 57.699 218.08H120.309C125.849 229.51 131.409 240.94 136.949 252.38C133.039 250.75 129.049 249.24 125.009 248.1C120.939 246.96 116.159 246.09 112.229 248.18C109.159 249.8 106.709 253.38 106.619 256.91C106.499 261.76 109.919 266.36 113.969 268.62C116.819 270.21 120.069 271.21 123.069 272.46C125.559 273.49 128.039 274.55 130.519 275.61C137.699 278.7 144.799 282.01 152.149 284.65C161.829 288.13 172.259 288.33 182.129 285.33C187.189 283.79 192.159 281.38 196.029 277.65C200.369 273.45 203.039 267.91 204.649 262.12C206.349 256.02 206.249 250.02 205.369 243.79C204.599 238.31 203.059 233.08 200.789 228.05H200.769L200.779 228.06ZM104.409 212.53H71.079C65.019 212.53 58.969 212.6 52.909 212.53C46.729 212.45 41.799 207.42 41.739 201.17C41.729 200.09 41.739 199.02 41.739 197.94V59.1101C41.739 54.4601 41.089 49.2801 44.169 45.3901C46.309 42.6901 49.519 41.1801 52.909 41.1401H120.839C124.799 41.1401 128.539 42.1701 131.079 45.5301C132.879 47.9001 133.399 50.6501 133.399 53.5401V190.33C133.399 191.75 133.399 193.16 133.409 194.58C130.869 189.5 128.319 184.44 125.719 179.4C123.559 175.2 121.619 170.45 117.079 168.41C111.459 165.89 104.249 168.33 102.579 174.71C101.049 180.54 104.909 186.29 107.339 191.33C110.359 197.59 113.399 203.86 116.429 210.11C116.819 210.91 117.209 211.72 117.599 212.52H104.399L104.409 212.53ZM200.539 254.2C200.229 259.21 198.579 264.47 196.029 268.77C193.539 272.96 189.989 275.97 185.669 278.06C177.579 281.98 167.309 283.08 158.599 280.89C152.049 279.25 145.839 276.27 139.999 273.73C135.819 271.91 131.629 270.09 127.439 268.31C124.799 267.2 122.159 266.1 119.509 265.02C117.369 264.15 115.399 263.29 113.879 261.45C113.389 260.85 112.929 260.1 112.599 259.34C112.539 259.22 112.389 258.79 112.289 258.41C112.139 257.85 112.109 257.67 112.099 257.44C112.089 257.14 112.089 256.84 112.109 256.54C112.129 256.62 112.269 256.07 112.269 255.96C112.359 255.8 112.579 255.39 112.639 255.28C112.799 255.01 112.979 254.76 113.149 254.5C113.209 254.41 113.399 254.19 113.489 254.09C113.699 253.86 113.929 253.66 114.159 253.45C114.279 253.37 114.389 253.29 114.499 253.23C114.639 253.14 115.149 252.92 115.179 252.89C115.399 252.81 115.609 252.73 115.829 252.68C116.019 252.64 116.209 252.59 116.399 252.56H116.439C117.319 252.47 118.209 252.48 119.089 252.56C123.889 252.99 129.079 255.28 133.699 257.08C134.619 257.43 135.549 257.81 136.459 258.19C136.739 258.31 137.029 258.42 137.309 258.55C137.389 258.58 137.889 258.8 138.019 258.86C138.739 259.18 139.479 259.51 140.179 259.9C140.349 260 140.539 260.09 140.709 260.21C141.319 260.65 142.099 260.7 142.809 260.48C143.199 260.45 143.589 260.34 143.919 260.14C145.279 259.34 145.549 257.7 144.909 256.34C138.149 242.4 131.369 228.46 124.609 214.51C121.379 207.85 118.149 201.18 114.929 194.52C113.669 191.91 112.409 189.3 111.149 186.69C110.219 184.76 109.149 182.84 108.369 180.84C108.069 180.07 107.839 179.25 107.719 178.44C107.719 178.37 107.699 178.24 107.689 177.85V177.29C107.689 177.29 107.709 176.96 107.719 176.83C107.749 176.69 107.819 176.33 107.849 176.22C107.879 176.1 108.049 175.65 108.059 175.59C108.159 175.39 108.249 175.2 108.369 175.01C108.429 174.91 108.489 174.82 108.559 174.72C108.559 174.7 108.569 174.7 108.579 174.69C108.579 174.69 108.589 174.68 108.609 174.66C108.789 174.46 108.969 174.28 109.159 174.09C109.199 174.05 109.219 174.03 109.239 174.01C109.329 173.95 109.399 173.89 109.489 173.83C109.709 173.69 109.939 173.56 110.169 173.43C110.189 173.42 110.249 173.39 110.309 173.36C110.419 173.33 110.659 173.24 110.659 173.23C110.909 173.15 111.169 173.1 111.429 173.03C111.509 173.01 111.559 173 111.609 172.97H111.729C112.039 172.96 112.349 172.94 112.659 172.95C112.799 172.95 113.239 173.02 113.289 173.02C113.509 173.06 113.719 173.11 113.929 173.16C114.039 173.19 114.519 173.36 114.639 173.39C114.739 173.45 115.109 173.62 115.229 173.69C115.499 173.84 115.769 174.01 116.029 174.2C116.049 174.23 116.519 174.62 116.589 174.69C116.829 174.92 117.049 175.17 117.269 175.41C117.309 175.47 117.439 175.62 117.639 175.92C117.849 176.23 118.019 176.55 118.199 176.88C118.989 178.31 119.739 179.78 120.489 181.25C125.679 191.3 130.699 201.44 135.739 211.56C137.949 216 140.149 220.46 142.359 224.91C143.409 227.22 144.529 229.51 145.679 231.76C145.909 232.21 146.139 232.65 146.369 233.09C146.599 233.53 146.829 233.98 147.059 234.42C148.719 237.59 153.359 234.8 151.789 231.62C150.239 228.45 148.669 225.3 147.099 222.15C146.309 220.5 145.499 218.84 145.069 217.06C145.049 216.99 145.039 216.95 145.029 216.9V216.83C145.019 216.61 145.019 216.39 145.009 216.16C145.009 216.05 145.019 215.94 145.029 215.83C145.039 215.76 145.059 215.66 145.069 215.63C145.129 215.43 145.179 215.23 145.249 215.03C145.259 215 145.259 214.98 145.269 214.95C145.279 214.93 145.289 214.92 145.299 214.88C145.479 214.55 145.659 214.23 145.879 213.91C145.879 213.95 146.419 213.35 146.499 213.27C146.589 213.19 146.679 213.11 146.759 213.04C146.819 213 146.889 212.94 146.909 212.93C147.259 212.7 147.619 212.49 147.989 212.29C148.019 212.28 148.089 212.25 148.139 212.21C148.339 212.13 148.529 212.07 148.729 212C149.079 211.89 149.429 211.81 149.789 211.76C149.899 211.76 150.319 211.72 150.439 211.72C150.599 211.72 151.459 211.83 151.309 211.78C151.609 211.85 151.899 211.92 152.189 212.02C152.149 212.02 152.559 212.24 152.799 212.39C152.819 212.43 153.219 212.76 153.309 212.86C153.349 212.91 153.389 212.94 153.419 212.97C153.419 212.98 153.429 212.99 153.449 213.01C153.579 213.2 153.699 213.39 153.809 213.59C153.899 213.76 153.969 213.94 154.059 214.1C153.669 213.31 154.189 214.42 154.249 214.56C154.789 215.8 155.389 217.01 155.969 218.22C156.859 220.06 157.769 221.9 158.689 223.72C159.189 224.73 159.629 225.94 160.309 226.84C161.209 228.03 162.659 228.66 164.059 227.84C165.419 227.04 165.689 225.4 165.049 224.04C163.859 221.57 162.679 219.09 161.549 216.59C161.109 215.65 160.679 214.69 160.269 213.74C160.109 213.38 159.939 213.02 159.809 212.65C159.769 212.52 159.619 211.9 159.599 211.92C159.579 211.65 159.579 211.38 159.579 211.11V211.04C159.599 210.93 159.619 210.81 159.649 210.7C159.679 210.59 159.829 210.17 159.859 210.07C159.929 209.97 160.179 209.52 160.239 209.39C160.279 209.32 160.329 209.27 160.369 209.2C160.409 209.14 160.489 209.06 160.509 209.03C160.719 208.81 160.939 208.6 161.159 208.39C161.569 208.01 161.179 208.32 161.529 208.1C161.819 207.91 162.129 207.73 162.439 207.56C162.809 207.35 162.339 207.55 162.879 207.37C163.179 207.27 163.459 207.18 163.769 207.1C163.909 207.07 164.069 207.03 164.219 207.01C164.569 206.98 164.909 206.99 165.249 206.99C165.279 206.99 165.439 207 165.539 207.01C165.609 207.02 165.669 207.03 165.679 207.03C165.979 207.1 166.259 207.18 166.539 207.29C166.559 207.3 166.579 207.31 166.619 207.33C166.739 207.4 166.859 207.45 166.969 207.53C167.089 207.61 167.219 207.7 167.339 207.79C167.369 207.82 167.459 207.9 167.519 207.96C168.409 208.85 168.989 210.17 169.659 211.48C170.979 214.01 172.269 216.56 173.549 219.11C174.229 220.44 176.069 220.83 177.299 220.11C178.679 219.29 178.909 217.68 178.289 216.31C177.269 214.07 176.239 211.82 175.219 209.58C175.089 209.3 174.959 209.01 174.839 208.74C174.809 208.66 174.749 208.5 174.699 208.31C174.709 208.34 174.619 207.98 174.579 207.82C174.579 207.67 174.549 207.34 174.549 207.28V207.06C174.579 206.93 174.629 206.65 174.629 206.65C174.659 206.52 174.709 206.38 174.749 206.26C174.759 206.24 174.769 206.22 174.789 206.18C174.869 206.03 174.949 205.9 175.029 205.76C175.049 205.72 175.059 205.69 175.079 205.67C175.079 205.67 175.089 205.66 175.099 205.64C175.209 205.52 175.319 205.4 175.429 205.28C175.469 205.24 175.749 204.99 175.819 204.91C175.949 204.83 176.409 204.53 176.549 204.45C176.669 204.38 176.799 204.32 176.919 204.26C176.949 204.25 176.999 204.24 177.039 204.22C177.399 204.1 177.759 204.01 178.139 203.93H178.169C178.419 203.91 178.669 203.9 178.929 203.9C179.089 203.9 179.269 203.91 179.429 203.92H179.469C179.469 203.92 179.539 203.94 179.579 203.95C179.879 204.03 180.169 204.11 180.469 204.22C180.429 204.22 181.059 204.56 181.179 204.64C181.199 204.65 181.209 204.66 181.219 204.67C181.229 204.68 181.239 204.69 181.259 204.7C181.469 204.89 181.679 205.09 181.849 205.3C182.079 205.57 182.589 206.54 182.949 207.17C183.539 208.2 184.119 209.25 184.709 210.28C187.619 215.41 190.609 220.51 193.409 225.71C198.079 234.39 201.099 244.25 200.499 254.24L200.539 254.21V254.2Z" fill="#2B5174"/>
<path d="M28.5598 2.87978C28.2498 2.37978 27.9498 1.87978 27.6498 1.37978C26.8898 0.149776 25.1598 -0.440224 23.8998 0.379776C22.6798 1.17978 22.1098 2.85978 22.9098 4.17978C25.0598 7.68978 27.1998 11.1998 29.3398 14.7198C29.6498 15.2198 29.9498 15.7198 30.2498 16.2198C31.0098 17.4498 32.7398 18.0398 33.9998 17.2198C35.2198 16.4198 35.7898 14.7398 34.9898 13.4198C32.8398 9.90978 30.6998 6.39978 28.5598 2.87978Z" fill="#2B5174"/>
<path d="M23.9592 24.9401C19.1692 22.1001 14.3792 19.2401 9.58916 16.4001C8.89916 15.9901 8.21916 15.5901 7.52916 15.1801C6.28916 14.4501 4.46916 14.8501 3.77916 16.1801C3.08916 17.5101 3.43916 19.1901 4.76916 19.9801C9.55916 22.8201 14.3492 25.6801 19.1392 28.5201C19.8292 28.9301 20.5092 29.3301 21.1992 29.7401C22.4392 30.4701 24.2592 30.0701 24.9492 28.7401C25.6392 27.4101 25.2892 25.7301 23.9592 24.9401Z" fill="#2B5174"/>
<path d="M16.9019 39.4899C12.7719 38.9899 8.63189 38.4799 4.50189 37.9799C3.91189 37.9099 3.33189 37.8399 2.74189 37.7699C1.32189 37.5899 -0.0581121 39.1699 0.00188786 40.5499C0.0818879 42.2099 1.20189 43.1399 2.74189 43.3299C6.87189 43.8299 11.0119 44.3399 15.1419 44.8399C15.7319 44.9099 16.3119 44.9799 16.9019 45.0499C18.3219 45.2299 19.7019 43.6499 19.6419 42.2699C19.5619 40.6199 18.4419 39.6799 16.9019 39.4899Z" fill="#2B5174"/>
<path d="M73.2674 129.109V132H62.2374V113.17H65.7404V129.109H73.2674ZM79.2846 132H75.7685V113.17H79.2846V132ZM99.3749 113.17V132H97.5778C97.3 132 97.0656 131.957 96.8746 131.87C96.6922 131.774 96.5143 131.618 96.3406 131.401L86.5087 118.847C86.5608 119.42 86.5869 119.95 86.5869 120.436V132H83.5006V113.17H85.3367C85.4843 113.17 85.6102 113.178 85.7144 113.196C85.8272 113.204 85.9227 113.23 86.0009 113.274C86.0877 113.309 86.1701 113.365 86.2483 113.443C86.3264 113.513 86.4132 113.608 86.5087 113.73L96.3797 126.335C96.3537 126.031 96.332 125.732 96.3146 125.437C96.2972 125.142 96.2886 124.868 96.2886 124.616V113.17H99.3749ZM107.084 115.956V121.178H113.674V123.874H107.084V129.2H115.445V132H103.568V113.17H115.445V115.956H107.084Z" fill="#2B5174"/>
</g>
<defs>
<clipPath id="clip0_289_5877">
<rect width="206" height="287.42" fill="white"/>
</clipPath>
</defs>
</svg>
