<svg width="293" height="93" viewBox="0 0 293 93" fill="none" xmlns="http://www.w3.org/2000/svg">
<mask id="mask0_1_53" style="mask-type:alpha" maskUnits="userSpaceOnUse" x="0" y="0" width="293" height="93">
<rect width="293" height="93" fill="#D9D9D9"/>
</mask>
<g mask="url(#mask0_1_53)">
<rect x="8.5" y="20.5" width="283" height="71" stroke="#2B5174" stroke-width="3"/>
<path d="M42.0838 75.662C43.1204 75.5207 44.4352 75.1897 46.0282 74.6689C47.6213 74.1482 49.9079 73.3688 52.888 72.3309C55.9094 71.2923 58.6312 70.0946 61.0536 68.7377C60.7934 68.2493 60.5286 67.8431 60.259 67.5192C60.0307 67.1945 59.7799 66.5416 59.5067 65.5604C59.3724 65.0287 59.5858 64.532 60.147 64.0703C60.7516 63.5668 61.294 63.4341 61.7741 63.6722C62.5814 63.9457 63.1163 64.3061 63.3788 64.7534L70.6863 74.054C71.0382 74.3765 71.2801 74.8242 71.412 75.397C71.5851 75.9691 71.5076 76.6072 71.1795 77.3113C69.5959 77.6676 68.2385 77.301 67.1075 76.2116C66.0752 74.8328 65.3661 73.9209 64.98 73.4757C64.5963 72.9894 64.1637 72.2781 63.6822 71.3416C61.6011 72.4871 59.0416 73.7231 56.0039 75.0495C53.0096 76.3342 49.5395 77.6682 45.5934 79.0516C44.0874 79.4887 42.5896 79.7818 41.1 79.9311C40.0681 79.9901 39.1133 79.7809 38.2354 79.3032C37.3822 79.1127 36.9138 78.6689 36.8301 77.972C36.7464 77.2751 36.8845 76.6565 37.2444 76.1162C38.7192 73.338 40.1399 70.7868 41.5066 68.4624C42.9168 66.0962 43.9659 64.2909 44.6539 63.0465C45.3831 61.8013 46.0941 60.5154 46.7868 59.1888L47.076 58.4443C47.3606 57.782 47.6028 57.141 47.8027 56.5213C48.3494 54.8686 49.336 54.5227 50.7623 55.4838L51.2866 56.0292L51.9787 56.8799C52.3825 57.7355 52.3792 58.5161 51.9687 59.2216C48.9307 64.1632 46.7766 67.6721 45.5063 69.7483C44.2773 71.8238 43.1364 73.795 42.0838 75.662ZM26.9819 72.1049C26.2454 72.0356 25.5923 71.9443 25.0228 71.831C24.7804 71.753 24.5403 71.634 24.3026 71.4738L23.84 70.9273C23.5822 70.3977 23.5074 69.9061 23.6155 69.4523C23.7672 68.9567 23.9783 68.5011 24.2488 68.0856C26.0142 65.2613 28.253 61.7098 30.9653 57.4312C33.7187 53.1519 36.9455 48.1453 40.6458 42.4116C41.2879 41.2502 41.9142 40.0068 42.5245 38.6816C42.7585 38.1846 43.0202 37.5638 43.3094 36.8193C44.1307 36.846 44.8203 37.0189 45.3781 37.3378C45.9794 37.6149 46.4525 37.9763 46.7974 38.4222C47.1188 39.2793 47.0526 40.0815 46.5986 40.8289C42.9629 46.1507 39.6355 51.1179 36.6162 55.7305C33.597 60.3431 30.91 64.5391 28.5553 68.3186C28.3719 68.6504 28.1872 69.0028 28.0014 69.3758C27.6251 70.204 27.2853 71.1137 26.9819 72.1049ZM78.5833 55.6764C77.6998 56.0205 76.9114 56.1369 76.2184 56.0258C75.5276 55.8735 74.8257 55.5571 74.1125 55.0765C70.7362 52.9581 67.4229 50.8181 64.1725 48.6564C62.785 47.7358 61.4387 46.8144 60.1335 45.8923C59.411 45.5762 58.7126 45.1982 58.0382 44.758C57.4898 44.2746 57.0996 43.542 56.8675 42.5601C56.7332 42.0284 56.9249 41.5526 57.4425 41.1328C58.0013 40.7122 58.5208 40.621 59.0009 40.8591C59.4057 40.9753 59.887 41.1928 60.4448 41.5118C62.8127 43.278 65.2252 44.9819 67.6824 46.6233C70.4986 48.4639 73.3824 50.2007 76.3338 51.8335C77.1387 52.1481 77.7489 52.6304 78.1644 53.2805C78.6211 53.9298 78.7608 54.7285 78.5833 55.6764ZM123.911 76.8847C125.172 74.973 126.455 72.6706 127.76 69.9776C129.065 67.2846 130.364 64.3452 131.657 61.1594C132.057 61.3578 132.38 61.8246 132.626 62.5598C132.872 63.2949 132.712 65.0231 132.145 67.7443C131.584 70.3833 130.808 72.8001 129.819 74.9946C128.83 77.1891 128.125 78.742 127.702 79.6531C127.144 81.5115 125.997 82.1477 124.261 81.5618C122.812 81.0119 121.721 80.2915 120.99 79.4004C119.501 77.3724 118.234 74.7037 117.188 71.3944C116.145 68.0439 115.219 64.0752 114.411 59.4883L113.311 52.7907C112.778 49.8833 112.215 46.7504 111.625 43.3921C108.851 44.4264 105.798 45.6505 102.468 47.0642C99.1393 48.4369 96.4987 49.6537 94.5457 50.7148C92.5928 51.7759 91.0898 52.521 90.0368 52.9502C89.4121 53.0843 88.7967 53.054 88.1907 52.8591C87.441 52.2971 86.9754 51.4425 86.7939 50.2954C87.042 49.5516 87.5632 49.0701 88.3573 48.8508C91.3516 47.5662 94.2381 46.3656 97.0171 45.249C99.8372 44.1317 102.636 43.0354 105.412 41.9599C108.191 40.8434 110.147 40.0903 111.28 39.7008C111.163 38.1418 111.029 36.5215 110.878 34.8398C110.768 33.1574 110.622 31.3935 110.439 29.548C110.874 29.1296 111.566 28.9122 112.513 28.8956L112.636 28.8935C113.664 28.9166 114.384 29.9927 114.797 32.1217C115.011 33.4326 115.128 34.6219 115.15 35.6896C115.171 36.7573 115.291 37.5358 115.51 38.0249C118.145 37.2806 121.626 36.1107 125.954 34.5152C126.922 34.8681 127.654 35.3688 128.152 36.0174C128.65 36.666 128.82 37.2998 128.661 37.9188C128.546 38.496 128.029 38.8952 127.112 39.1166C126.194 39.338 125.345 39.435 124.565 39.4075C123.105 39.7616 121.789 40.1132 120.617 40.4623C119.486 40.8107 117.829 41.3736 115.645 42.1512C115.697 42.6843 115.903 44.4883 116.263 47.5631C116.369 48.5883 116.512 49.695 116.691 50.8832C116.978 53.0554 117.316 55.4322 117.704 58.0136C118.344 61.9462 119.045 65.1588 119.808 67.6514C120.613 70.1433 121.4 72.2042 122.171 73.8339C122.986 75.4219 123.566 76.4388 123.911 76.8847ZM111.129 65.0914C111.66 65.1643 112.015 65.4252 112.196 65.8739C112.376 66.3227 112.148 67.0661 111.513 68.1042C110.572 68.7368 109.461 69.4545 108.181 70.2574C106.901 71.0603 104.904 72.1837 102.189 73.6279C99.5144 75.0712 96.5632 76.6838 93.3349 78.4655C93.0303 78.7584 92.5461 78.9517 91.8825 79.0454C91.2601 79.1384 90.7465 79.1268 90.3417 79.0107C89.0272 78.253 88.5657 76.967 88.957 75.1527C91.1795 74.4155 93.702 73.4678 96.5244 72.3093C96.8448 68.853 96.9164 65.7912 96.7392 63.124C96.1968 63.2567 95.5891 63.4522 94.9161 63.7104C94.4949 63.8821 93.822 64.1403 92.8972 64.4851C92.3913 64.6993 91.8225 64.9352 91.1907 65.1927C90.36 65.3304 89.7428 64.9715 89.339 64.1158C88.9352 63.2601 88.8414 62.3785 89.0577 61.471C95.0592 59.3944 100.706 57.4062 105.998 55.5064C106.783 55.4516 107.413 55.5844 107.888 55.9048L108.293 56.3907C108.749 57.04 108.776 57.6558 108.373 58.2379L104.959 59.6531C103.822 60.1249 102.641 60.6384 101.416 61.1938C101.05 62.5559 100.799 64.0803 100.662 65.767C100.568 67.4118 100.548 68.85 100.601 70.0815C104.229 68.4982 107.739 66.8349 111.129 65.0914ZM140.277 48.4999C138.936 48.9341 138.082 48.3944 137.716 46.8808C136.902 44.5534 135.955 42.3926 134.876 40.3985C134.205 39.1778 133.47 37.9993 132.671 36.8629C132.317 35.8421 132.09 34.7779 131.988 33.6705C132.717 33.1649 133.389 32.9272 134.004 32.9575C134.663 32.9461 135.451 33.5485 136.369 34.7649C137.04 35.9857 137.648 37.228 138.194 38.492C139.364 41.0597 140.285 43.6728 140.956 46.3314C140.981 46.6185 140.944 46.9067 140.845 47.196C140.79 47.4434 140.6 47.8781 140.277 48.4999ZM145.604 74.2263C146.435 74.0886 148.555 73.7024 151.965 73.0678C155.377 72.3921 159.716 71.7002 164.981 70.9922C166.729 70.6331 168.098 70.4449 169.086 70.4276C170.075 70.4104 170.869 70.5403 171.471 70.8174C172.116 71.0526 172.585 71.4758 172.88 72.0869C173.217 72.6561 173.029 73.0702 172.315 73.3291C171.441 73.5087 170.507 73.6482 169.514 73.7477C168.562 73.8465 167.463 74.0094 166.216 74.2366C165.007 74.5042 162.862 74.9729 159.779 75.6429C156.738 76.3121 154.488 76.8033 153.03 77.1163C151.611 77.4697 149.201 77.902 145.798 78.4132C144.587 78.7219 143.533 78.4527 142.635 77.6057C141.778 76.7579 141.407 75.6963 141.52 74.4208C142.081 68.9062 143.486 63.0277 145.734 56.7853C148.024 50.5421 150.201 44.4653 152.265 38.5547C152.686 36.9452 153.075 35.5417 153.431 34.3441C153.757 33.6812 154.125 33.3461 154.537 33.3389C154.578 33.3382 154.619 33.3375 154.661 33.3367C155.068 33.4118 155.468 33.6102 155.861 33.932C156.298 34.212 156.685 34.6366 157.023 35.2058C157.404 35.7332 157.536 36.306 157.418 36.9243C157.356 37.2951 156.816 38.8245 155.799 41.5125C154.782 44.2005 153.481 47.5507 151.894 51.5633C150.308 55.5758 149.041 59.0487 148.092 61.9819C147.143 64.9152 146.53 67.3702 146.253 69.3469C145.976 71.3237 145.759 72.9501 145.604 74.2263ZM186.044 72.9048C189.275 72.5198 192.164 71.997 194.711 71.3364C195.881 71.0284 196.438 71.3679 196.381 72.3548C196.328 73.3006 196.084 73.9622 195.651 74.3394C195.259 74.716 194.578 75.1181 193.608 75.5459C191.479 76.076 189.27 76.5869 186.979 77.0788C184.727 77.611 182.496 78.1429 180.285 78.6744C178.878 78.8222 177.909 78.4899 177.379 77.6775C176.847 76.9063 176.622 76.1708 176.703 75.471C176.784 74.7712 177.164 74.2305 177.844 73.8489C179.039 73.8281 179.801 73.8148 180.13 73.8091C180.501 73.8026 181.434 73.6631 182.931 73.3905C182.713 72.1619 182.632 71.0541 182.688 70.0672C182.747 69.0391 183.139 66.4853 183.865 62.4056C184.633 58.3252 185.606 53.8715 186.786 49.0445C188.01 44.1756 188.948 40.3593 189.599 37.5955C188.356 37.7404 187.425 37.8388 186.805 37.8907C186.185 37.9426 185.649 37.9519 185.199 37.9187C184.75 37.8444 184.286 37.339 183.804 36.4025C183.32 35.5072 183.192 34.8726 183.419 34.499C183.648 34.0842 184.219 33.8072 185.132 33.668C189.402 33.1006 193.578 32.7402 197.66 32.5868C198.074 32.5385 198.466 32.5111 198.837 32.5047C199.784 32.4881 200.431 32.6823 200.779 33.087C201.24 33.6541 201.452 34.2666 201.414 34.9246C201.418 35.5818 200.897 36.0633 199.851 36.3691C198.984 36.4253 198.013 36.5039 196.937 36.6048C195.864 36.6646 194.829 36.7854 193.831 36.9671C190.937 47.3288 188.917 55.3338 187.773 60.9818C186.628 66.6298 186.052 70.6042 186.044 72.9048ZM227.305 65.8382C227.713 63.736 228.4 60.7046 229.366 56.744C230.373 52.7826 231.404 49.129 232.459 45.7831C233.557 42.3953 234.449 39.73 235.136 37.7872C235.825 35.8033 236.482 34.0254 237.106 32.4535C237.507 31.9124 237.958 31.5759 238.46 31.4439C238.501 31.4432 238.542 31.4425 238.583 31.4418C240.025 31.4166 241.037 32.0562 241.621 33.3606C241.974 34.3815 241.937 35.0395 241.509 35.3345C241.122 35.6288 240.771 36.0046 240.457 36.462C240.102 36.9201 239.611 37.9557 238.984 39.5688C238.36 41.1407 237.523 43.5586 236.473 46.8223C235.425 50.0448 234.338 53.5967 233.212 57.478C232.086 61.3592 231.409 64.5753 231.181 67.1263C231.417 68.7654 231.618 69.9327 231.784 70.6282C231.991 71.323 232.138 71.9982 232.224 72.654C232.157 73.1071 231.884 73.5637 231.405 74.024C230.926 74.4842 230.421 74.6984 229.888 74.6667C229.085 74.3109 228.206 73.4841 227.252 72.1862C226.258 70.8478 224.893 68.8176 223.156 66.0955C221.459 63.3726 219.997 60.5225 218.768 57.545C217.541 54.5264 216.598 51.9342 215.94 49.7684C215.325 47.5608 214.725 45.4556 214.14 43.4528C213.554 45.0652 212.935 46.9041 212.283 48.9695C211.633 50.9938 210.711 54.1731 209.518 58.5074C208.368 62.7999 207.588 66.3875 207.177 69.2704C206.765 72.1532 206.584 74.2515 206.633 75.5652C206.681 76.8789 207.003 78.0852 207.599 79.184C207.804 79.9199 207.692 80.4353 207.264 80.7304C206.834 81.0665 206.429 81.2995 206.052 81.4294C205.713 81.5996 205.263 81.5458 204.703 81.268C204.182 81.0306 203.711 80.628 203.291 80.0602C202.91 79.5328 202.709 78.3655 202.688 76.5583C202.611 74.3002 202.825 71.6262 203.33 68.5364C203.836 65.4465 204.873 60.9506 206.444 55.0486C208.014 49.1467 209.336 44.3582 210.41 40.6833C210.872 39.0731 211.171 37.4247 211.309 35.7379C211.379 34.5043 212.033 33.8561 213.271 33.7935C214.092 33.8202 214.742 33.9732 215.219 34.2525C215.741 34.4898 216.136 35.1403 216.404 36.2037C217.04 39.479 217.761 42.7119 218.567 45.9021C219.416 49.0505 220.489 52.2361 221.787 55.4589C223.084 58.6816 224.143 61.0459 224.962 62.5516C225.825 64.0154 226.606 65.111 227.305 65.8382ZM246.737 40.0498C245.987 40.2272 245.254 40.0962 244.538 39.6568C243.825 39.1762 243.492 38.5247 243.539 37.7023C243.571 37.1266 243.904 36.71 244.535 36.4525C246.383 35.8041 249.194 35.2005 252.97 34.6416C256.787 34.0821 260.617 33.6456 264.461 33.332C268.349 32.9767 271.302 32.7608 273.323 32.6845C273.773 32.7177 274.219 32.8332 274.661 33.0309C275.143 33.2279 275.471 33.6125 275.644 34.1846C275.819 34.7156 275.818 35.1059 275.639 35.3555C275.501 35.6043 275.266 35.7728 274.931 35.8608C274.6 35.9076 274.163 35.9974 273.62 36.1301C271.227 36.254 268.561 36.4648 265.623 36.7626C265.001 36.8556 264.359 36.9284 263.698 36.981C259.973 37.3746 256.861 37.8397 254.361 38.3763C254.598 39.2759 254.584 40.2415 254.32 41.2732C254.099 42.263 253.758 43.1932 253.297 44.064C252.175 47.863 251.148 51.0852 250.216 53.7306C250.749 53.7624 252.942 53.5393 256.796 53.0613C260.649 52.5833 263.093 52.2942 264.127 52.194C265.202 52.0931 266.008 52.0379 266.543 52.0286C267.04 51.9788 267.448 52.0333 267.768 52.1921C268.09 52.3097 268.367 52.5103 268.598 52.7938C268.828 53.0774 268.93 53.815 268.904 55.0069C267.533 55.2362 265.204 55.667 261.918 56.2995C258.632 56.9319 255.641 57.436 252.946 57.8116C251.66 57.9984 250.792 58.0546 250.344 57.9803C249.939 57.8641 249.456 57.6876 248.893 57.451C248.087 60.0531 247.384 62.6329 246.786 65.1904C246.19 67.7067 245.858 69.9309 245.789 71.8629C247.23 71.8377 249.938 71.6056 253.913 71.1666C257.931 70.6857 261.476 70.1925 264.55 69.687C267.666 69.1397 269.744 68.7748 270.783 68.5924C270.883 69.0014 270.969 69.3081 271.039 69.5122C271.112 69.6753 271.07 70.0663 270.911 70.6853C270.793 71.3035 270.253 71.7649 269.289 72.0692C266.653 72.8547 263.032 73.5751 258.428 74.2305L246.545 75.9167C245.972 76.584 245.458 76.9421 245.003 76.9911C244.589 77.0394 244.05 76.7407 243.388 76.095C242.725 75.4492 242.307 74.8403 242.134 74.2682C242.002 73.6954 241.957 73.0389 241.999 72.2987C242.044 71.5174 242.17 70.3854 242.378 68.9029C242.627 67.4197 243.18 64.9452 244.035 61.4795C244.935 57.9719 245.992 54.2151 247.208 50.2091C248.426 46.1619 249.277 43.4973 249.761 42.2154C250.248 40.8923 250.574 39.8596 250.74 39.1173C249.367 39.3877 248.033 39.6985 246.737 40.0498Z" fill="#D5A712"/>
<path d="M0.999302 18.9997L21.9995 37.9998L56.0402 0.256226" stroke="#D5A712" stroke-width="7"/>
</g>
</svg>
