<svg width="150" height="150" viewBox="0 0 150 150" fill="none" xmlns="http://www.w3.org/2000/svg">
<g id="LINE&#229;&#144;&#185;&#227;&#129;&#141;&#229;&#135;&#186;&#227;&#129;&#151;&#227;&#130;&#162;&#227;&#130;&#164;&#227;&#130;&#179;&#227;&#131;&#179;&#239;&#188;&#136;&#231;&#183;&#145;&#239;&#188;&#137; 1">
<g id="Clip path group">
<mask id="mask0_2001_334" style="mask-type:luminance" maskUnits="userSpaceOnUse" x="13" y="16" width="124" height="118">
<g id="36c89afe5e">
<path id="Vector" d="M13.9142 16.8516H136.111V133.148H13.9142V16.8516Z" fill="white"/>
</g>
</mask>
<g mask="url(#mask0_2001_334)">
<g id="Group">
<path id="Vector_2" d="M136.044 66.3675C136.044 39.0686 108.671 16.8594 75.0254 16.8594C41.3795 16.8594 14.0068 39.07 14.0068 66.3675C14.0068 90.8394 35.714 111.335 65.0377 115.209C67.0241 115.638 69.728 116.52 70.4145 118.216C71.0287 119.761 70.8153 122.174 70.6113 123.734L69.7396 128.957C69.4727 130.502 68.5135 134.989 75.0254 132.246C81.5372 129.503 110.164 111.558 122.969 96.8254H122.967C131.811 87.1335 136.044 77.2927 136.044 66.3675Z" fill="#00B900"/>
</g>
</g>
</g>
<path id="Vector_3" d="M62.6273 53.1779H58.3464C57.6903 53.1779 57.1586 53.7117 57.1586 54.3657V80.9463C57.1586 81.0237 57.1658 81.1011 57.181 81.177C57.1962 81.2537 57.2186 81.3275 57.249 81.3998C57.2787 81.4714 57.3155 81.5394 57.3589 81.6045C57.4023 81.6689 57.4515 81.729 57.5065 81.7839C57.5615 81.8389 57.6215 81.8874 57.6866 81.9308C57.7517 81.9735 57.8197 82.0103 57.8921 82.0393C57.9644 82.0689 58.0382 82.0914 58.1149 82.1058C58.1916 82.121 58.2682 82.1283 58.3464 82.1275H62.6273C62.7047 82.1283 62.7821 82.121 62.8588 82.1058C62.9348 82.0914 63.0093 82.0689 63.0809 82.0393C63.1532 82.0103 63.2219 81.9735 63.2863 81.9308C63.3514 81.8874 63.4115 81.8389 63.4664 81.7839C63.5221 81.729 63.5713 81.6689 63.6147 81.6045C63.6581 81.5394 63.6943 81.4714 63.7247 81.3998C63.7543 81.3275 63.7768 81.2537 63.792 81.177C63.8072 81.1011 63.8151 81.0237 63.8151 80.9463V54.383C63.8151 53.7291 63.2813 53.1952 62.6273 53.1952M92.0877 53.1757H87.8089C87.1506 53.1757 86.6189 53.7096 86.6189 54.3635V70.1556L74.4148 53.7038C74.388 53.6618 74.3576 53.622 74.3236 53.5837L74.3157 53.5765C74.2933 53.5504 74.2694 53.5265 74.2433 53.5041L74.1594 53.4274C74.1479 53.4202 74.1406 53.4123 74.1291 53.405L74.0683 53.3631L74.03 53.3399L73.967 53.3016C73.9554 53.298 73.9403 53.29 73.9287 53.2828C73.9063 53.2712 73.8853 53.2596 73.86 53.2524C73.8354 53.2444 73.8332 53.2408 73.8223 53.2408C73.7992 53.2292 73.7746 53.2256 73.7515 53.2177L73.7095 53.2068C73.6863 53.2025 73.6654 53.1952 73.6429 53.1909L73.593 53.1837C73.5778 53.18 73.5511 53.1757 73.5301 53.1757L73.4693 53.1721C73.4541 53.1721 73.4426 53.1699 73.4274 53.1699H69.1486C68.4925 53.1699 67.9601 53.7038 67.9601 54.3577V80.9383C67.9601 81.0164 67.968 81.0931 67.9832 81.1698C67.9984 81.2457 68.0208 81.3202 68.0512 81.3919C68.0809 81.4642 68.1178 81.5322 68.1612 81.5966C68.2046 81.6617 68.2538 81.721 68.3087 81.776C68.3637 81.8309 68.4238 81.8801 68.4889 81.9228C68.554 81.9662 68.622 82.0024 68.6943 82.032C68.7659 82.0617 68.8404 82.0834 68.9171 82.0986C68.9931 82.1131 69.0705 82.1203 69.1486 82.1203H73.4274C74.0835 82.1203 74.6173 81.5901 74.6173 80.9383V65.1534L86.815 81.6248C86.8982 81.7405 86.9987 81.8382 87.1166 81.9185C87.1506 81.9445 87.1774 81.9604 87.202 81.9756C87.2135 81.9829 87.2251 81.9908 87.2367 81.9944C87.2483 81.998 87.2743 82.0132 87.2938 82.0212C87.3126 82.0284 87.3322 82.0364 87.351 82.048L87.4653 82.0899C87.5702 82.1181 87.6772 82.1326 87.7857 82.1319H92.0645C92.1427 82.1319 92.2193 82.1246 92.296 82.1102C92.3727 82.095 92.4465 82.0726 92.5188 82.0436C92.5911 82.014 92.6591 81.9778 92.7243 81.9344C92.7894 81.8917 92.8494 81.8425 92.9044 81.7875C92.9594 81.7326 93.0085 81.6725 93.0519 81.6081C93.0953 81.5438 93.1322 81.475 93.1619 81.4034C93.1916 81.3318 93.2147 81.2573 93.2299 81.1814C93.2451 81.1047 93.2523 81.0273 93.2523 80.9499V54.383C93.2523 53.7291 92.7185 53.1952 92.0645 53.1952" fill="white"/>
<path id="Vector_4" d="M52.309 75.4747H40.6778V54.3831C40.6778 53.727 40.1439 53.1953 39.4893 53.1953H35.2105C34.5551 53.1953 34.0227 53.7292 34.0227 54.3831V80.9615C34.0227 81.1149 34.0516 81.2624 34.1088 81.4042C34.1659 81.5467 34.2484 81.6726 34.3547 81.7826C34.3772 81.8057 34.3815 81.8137 34.3851 81.8173C34.6007 82.0213 34.8886 82.1486 35.2047 82.1486H52.3054C52.9615 82.1486 53.4932 81.6155 53.4932 80.9615V76.6813C53.4932 76.0259 52.963 75.4935 52.3054 75.4935M115.723 59.8352C116.379 59.8352 116.91 59.3014 116.91 58.6474V54.3831C116.91 53.727 116.38 53.1953 115.723 53.1953H98.622C98.3015 53.1953 98.0121 53.3226 97.7987 53.531C97.7756 53.5498 97.7676 53.557 97.764 53.565C97.56 53.7559 97.4342 54.0641 97.4342 54.3845V80.9651C97.4342 81.1185 97.4631 81.2661 97.5202 81.4078C97.5774 81.5503 97.6599 81.6762 97.7662 81.7869L97.7966 81.8173C97.9065 81.9236 98.0331 82.0054 98.1749 82.0632C98.3174 82.1204 98.465 82.1493 98.6183 82.1486H115.719C116.374 82.1486 116.907 81.6155 116.907 80.9615V76.6798C116.907 76.0237 116.377 75.492 115.719 75.492H104.091V70.9984H115.719C115.797 70.9991 115.875 70.9919 115.951 70.9767C116.028 70.9615 116.102 70.9398 116.174 70.9094C116.246 70.8798 116.315 70.8436 116.38 70.8002C116.445 70.7568 116.505 70.7076 116.56 70.6526C116.616 70.5969 116.665 70.5369 116.709 70.4718C116.751 70.4074 116.788 70.3387 116.818 70.2663C116.848 70.194 116.87 70.1195 116.885 70.0428C116.9 69.9661 116.907 69.8887 116.907 69.8106V65.5159C116.907 64.8598 116.377 64.3267 115.719 64.3267H104.091V59.8352H115.723Z" fill="white"/>
</g>
</svg>
