<svg width="420" height="73" viewBox="0 0 420 73" fill="none" xmlns="http://www.w3.org/2000/svg">
<path d="M79.2984 23.8643H65.7682L57.3395 71.6663H44.9086L53.3374 23.8643H50.124C45.0728 35.2457 38.14 44.9893 29.3255 53.0952C20.7757 60.9789 11.3122 66.5308 0.935042 69.7509L3.02021 57.9253C18.1859 51.2075 29.6872 39.8538 37.524 23.8643H9.70261L11.6409 12.8715H55.2757L57.4196 0.712756H69.8505L67.7066 12.8715H81.2367L79.2984 23.8643ZM131.918 20.8662C121.177 18.4789 109.875 16.8689 98.0143 16.0361L100.114 4.12719C111.431 4.84894 122.747 6.37572 134.062 8.70753L131.918 20.8662ZM163.499 15.3698C158.585 33.9688 149.797 47.682 137.134 56.5096C125.312 64.7264 109.42 69.168 89.4584 69.8342L91.5142 58.1752C107.674 57.0093 120.082 53.6226 128.738 48.0151C139.102 41.3528 146.433 30.4711 150.73 15.3698H163.499ZM244.769 14.8702H184.221L186.189 3.7108H246.736L244.769 14.8702ZM247.371 25.5299C243.625 41.0197 235.213 52.5955 222.136 60.2571C211.002 66.8084 196.978 70.2506 180.063 70.5837L182.001 59.5909C206.787 58.425 223.138 50.0971 231.056 34.6073H176.09L177.984 23.8643H247.664L247.371 25.5299ZM333.88 1.54554C328.108 12.5384 319.297 21.588 307.445 28.6945L299.721 72.4991H287.036L293.542 35.6066C283.157 39.8261 271.344 42.8796 258.101 44.7673L260.113 33.3581C289.708 28.2503 309.788 17.6461 320.35 1.54554H333.88ZM385.609 20.8662C374.867 18.4789 363.566 16.8689 351.705 16.0361L353.805 4.12719C365.122 4.84894 376.438 6.37572 387.753 8.70753L385.609 20.8662ZM417.19 15.3698C412.276 33.9688 403.487 47.682 390.825 56.5096C379.003 64.7264 363.111 69.168 343.149 69.8342L345.205 58.1752C361.365 57.0093 373.773 53.6226 382.429 48.0151C392.792 41.3528 400.123 30.4711 404.421 15.3698H417.19Z" fill="#E7D05E"/>
</svg>
