<svg width="59" height="67" viewBox="0 0 59 67" fill="none" xmlns="http://www.w3.org/2000/svg">
<path d="M50.217 24.5667C51.424 23.9451 49.92 21.2143 43.8446 12.9094C37.4078 4.12234 35.6682 2.41828 34.5612 3.6132C33.059 5.27515 48.2392 25.5217 50.217 24.5667Z" fill="white"/>
<path d="M13.8353 56.0242C15.948 59.4942 16.8144 59.5782 25.8102 57.2043C35.1041 54.7621 36.7148 53.9853 36.4014 52.2057C35.8199 48.9813 33.1515 48.8392 21.5053 51.2866C12.914 53.0972 12.276 53.463 13.8353 56.0242Z" fill="white"/>
<path d="M14.0858 29.5776C15.5718 32.0928 16.6209 32.6998 21.3693 33.8403C35.4681 37.1699 45.2748 40.6665 42.2841 35.8286C41.0769 33.8458 38.5198 32.9565 22.1577 28.5135C13.1012 26.1003 12.1198 26.1995 14.0858 29.5776Z" fill="white"/>
</svg>
