<svg width="105" height="105" viewBox="0 0 105 105" fill="none" xmlns="http://www.w3.org/2000/svg">
<g id="24h" clip-path="url(#clip0_2001_1829)">
<circle id="Ellipse 342" cx="52.5" cy="52.5" r="52.5" fill="white"/>
<path id="Vector" d="M76.0115 8.75L80.2362 21.7917C72.6651 15 62.6261 10.875 51.5832 10.875C27.9496 10.875 8.75 29.9583 8.75 53.5417C8.75 77.125 27.9496 96.25 51.625 96.25C75.3004 96.25 94.5 77.125 94.5 53.5417" stroke="#2B5174" stroke-width="3.34946" stroke-linecap="round" stroke-linejoin="round"/>
<path id="Vector_2" d="M68.25 24.5L80.5 21" stroke="#2B5174" stroke-width="3.34946" stroke-linecap="round" stroke-linejoin="round"/>
<g id="Group">
<path id="Vector_3" d="M23.239 62.6682L33.7456 48.6876C34.3387 47.8826 34.8047 47.0777 35.1437 46.188C35.4826 45.2983 35.6521 44.5357 35.6521 43.7732C35.6521 42.5446 35.3131 41.6125 34.5929 40.9347C33.8727 40.2568 32.8983 39.9603 31.585 39.9603C30.3564 39.9603 29.382 40.3416 28.6194 41.0618C27.8568 41.782 27.3908 42.7988 27.2213 44.1545H22.8577C23.1119 42.4175 23.6202 40.9347 24.3828 39.7061C25.1454 38.4775 26.1198 37.5454 27.3484 36.91C28.577 36.2745 29.9751 35.9355 31.5426 35.9355C33.322 35.9355 34.8471 36.2321 36.1181 36.8676C37.389 37.5031 38.3635 38.3927 38.9989 39.5366C39.6344 40.6805 39.9733 42.1209 39.9733 43.7732C39.9733 44.8747 39.7615 45.9762 39.2955 47.12C38.8295 48.2639 38.2364 49.4078 37.4738 50.4669L28.7465 62.2869H40.1428V66.3116H23.239V62.6682Z" fill="#2B5174"/>
<path id="Vector_4" d="M43.4897 58.0513L53.5727 36.2754H57.9364L48.1076 57.7971H62.8508V61.6947H43.4897V58.0513ZM56.4536 48.6461H60.5631V66.3549H56.4536V48.6461Z" fill="#2B5174"/>
<path id="Vector_5" d="M67.5535 43.4336H70.9427V67.6667H67.5535V43.4336ZM78.0601 57.16C78.0601 55.9314 77.7636 54.9994 77.1281 54.3215C76.4926 53.6437 75.6029 53.3048 74.4591 53.3048C73.3152 53.3048 72.5102 53.6013 71.8748 54.1521C71.2816 54.7452 70.9851 55.5501 70.9851 56.6093L70.6461 53.2624C71.1969 52.2456 71.8748 51.4407 72.7221 50.8899C73.5694 50.3392 74.5438 50.0426 75.5606 50.0426C77.4246 50.0426 78.9074 50.6781 79.9242 51.8643C80.941 53.0929 81.4494 54.8299 81.4494 57.0753V67.582H78.0601V57.1177V57.16Z" fill="#2B5174"/>
</g>
</g>
<defs>
<clipPath id="clip0_2001_1829">
<rect width="105" height="105" fill="white"/>
</clipPath>
</defs>
</svg>
