<svg width="155" height="155" viewBox="0 0 155 155" fill="none" xmlns="http://www.w3.org/2000/svg">
<circle cx="77.1171" cy="77.1171" r="77.1171" fill="white"/>
<circle cx="77.1171" cy="77.1171" r="76.3964" stroke="#2B5174" stroke-width="1.44144"/>
<path d="M81.1856 128.881C70.4173 128.881 63.1861 124.322 58.7058 118.899L63.2647 113.161C67.5877 118.113 73.6399 121.336 80.6354 121.336C87.7095 121.336 92.9757 117.72 92.9757 111.825C92.9757 105.458 87.8667 101.371 73.7185 101.371V94.6113C86.2946 94.6113 91.5609 89.9739 91.5609 84.7076C91.5609 79.7558 87.6308 76.2188 80.4782 76.2188C74.9762 76.2188 69.6313 78.5768 64.9153 83.45L60.042 77.8694C65.7799 72.3673 72.7753 68.9089 80.7926 68.9089C92.7399 68.9089 100.207 74.8826 100.207 83.7644C100.207 90.5241 96.1983 95.4759 89.5173 97.4409V97.7553C96.5127 99.2487 101.7 104.515 101.7 112.454C101.7 122.593 92.4255 128.881 81.1856 128.881Z" fill="#2B5174"/>
<path d="M56.9686 49.2358C54.2796 49.2358 51.6444 48.214 49.7083 46.3586L51.994 43.6159C53.3922 44.9335 55.3014 45.794 57.0492 45.794C59.1197 45.794 60.1953 44.9066 60.1953 43.5352C60.1953 42.0563 58.9853 41.5723 57.2106 40.8194L54.5485 39.69C52.5586 38.8833 50.515 37.243 50.515 34.3658C50.515 31.1122 53.3922 28.6114 57.3988 28.6114C59.7113 28.6114 62.0238 29.5257 63.6372 31.166L61.6474 33.6667C60.3567 32.618 59.0391 32.0264 57.3988 32.0264C55.651 32.0264 54.5485 32.8062 54.5485 34.0969C54.5485 35.5221 55.9736 36.0599 57.6677 36.7321L60.276 37.8077C62.6692 38.8026 64.2557 40.3622 64.2557 43.2125C64.2557 46.4662 61.5398 49.2358 56.9686 49.2358ZM70.997 48.8594V32.2684H65.377V28.961H80.5966V32.2684H74.9767V48.8594H70.997ZM83.8503 48.8594V28.961H96.0582V32.2684H87.8299V36.8666H94.7944V40.2278H87.8299V45.5251H96.354V48.8594H83.8503ZM100.394 48.8594V28.961H106.928C111.311 28.961 114.699 30.4937 114.699 35.2263C114.699 39.7707 111.311 41.7874 107.035 41.7874H104.373V48.8594H100.394ZM104.373 38.6413H106.767C109.509 38.6413 110.827 37.485 110.827 35.2263C110.827 32.8869 109.375 32.134 106.632 32.134H104.373V38.6413Z" fill="#2B5174"/>
</svg>
