<svg width="155" height="155" viewBox="0 0 155 155" fill="none" xmlns="http://www.w3.org/2000/svg">
<circle cx="77.1171" cy="77.1171" r="77.1171" fill="white"/>
<circle cx="77.1171" cy="77.1171" r="76.3964" stroke="#2B5174" stroke-width="1.44144"/>
<path d="M80.321 128.881C70.4173 128.881 64.0507 125.108 59.0988 120.235L63.5005 114.497C67.6663 118.506 72.3823 121.336 79.3778 121.336C86.6876 121.336 92.7399 116.855 92.7399 109.074C92.7399 101.607 87.2378 97.1265 79.7708 97.1265C74.9762 97.1265 71.4391 98.0697 67.5091 100.742L63.0289 97.9911L64.7581 69.8521H99.5781V77.6336H72.6181L71.3605 92.8035C74.5045 91.0743 77.8058 90.3669 82.1288 90.3669C92.7399 90.3669 101.936 96.3405 101.936 108.838C101.936 121.807 91.5609 128.881 80.321 128.881Z" fill="#2B5174"/>
<path d="M56.9029 49.2358C54.2408 49.2358 51.5787 48.1871 49.6427 46.3317L51.9283 43.589C53.3535 44.9066 55.2357 45.794 56.9836 45.794C59.0541 45.794 60.1566 44.9066 60.1566 43.5083C60.1566 42.0294 58.9465 41.5723 57.1718 40.8194L54.5097 39.69C52.493 38.8564 50.4763 37.243 50.4763 34.3389C50.4763 31.0853 53.3266 28.5846 57.36 28.5846C59.6725 28.5846 61.9851 29.4988 63.5984 31.1391L61.5817 33.6398C60.3179 32.5911 59.0003 31.9995 57.36 31.9995C55.6122 31.9995 54.5097 32.7793 54.5097 34.0969C54.5097 35.5221 55.908 36.033 57.602 36.7052L60.2103 37.8077C62.6304 38.8026 64.2169 40.3353 64.2169 43.2125C64.2169 46.4662 61.501 49.2358 56.9029 49.2358ZM71.0626 48.8594V32.2684H65.4696V28.9341H80.6891V32.2684H75.0423V48.8594H71.0626ZM83.9159 48.8594V28.9341H96.1238V32.2684H87.8956V36.8666H94.8869V40.2009H87.8956V45.5251H96.4196V48.8594H83.9159ZM100.459 48.8594V28.9341H106.994C111.403 28.9341 114.792 30.4937 114.792 35.1994C114.792 39.7438 111.377 41.7874 107.101 41.7874H104.439V48.8594H100.459ZM104.439 38.6413H106.832C109.575 38.6413 110.893 37.485 110.893 35.1994C110.893 32.8869 109.441 32.1071 106.698 32.1071H104.439V38.6413Z" fill="#2B5174"/>
</svg>
