<svg width="212" height="240" viewBox="0 0 212 240" fill="none" xmlns="http://www.w3.org/2000/svg">
<path fill-rule="evenodd" clip-rule="evenodd" d="M195.502 81.2367C191.247 82.4917 167.27 82.1725 160.827 80.7959C154.076 79.346 154.071 80.0477 160.256 89.311C165.297 96.787 165.514 95.6494 157.221 102.699C142.268 115.403 95.3027 159.394 94.7979 157.651C94.7589 157.587 90.1228 123.01 90.135 122.959C88.698 110.828 74.7406 125.717 67.097 132.543C57.7835 140.917 36.7227 159.462 29.5186 165.582C21.7579 172.218 7.52756 185.527 5.51088 188.074C-5.40504 201.796 6.8555 198.776 9.69938 197.076C62.8763 164.735 66.9481 161.976 67.1043 162.23C67.1823 162.357 70.7371 197.378 71.3024 201.136C72.7132 210.882 78.3461 211.794 84.5789 205.659C98.8899 191.557 181.925 116.763 182.169 116.876C182.413 116.988 184.668 119.797 187.235 123.114C192.654 130.14 200.582 137.548 201.111 128.753C201.66 119.422 200.768 124.291 203.154 87.9847C203.588 79.8155 195.68 81.1711 195.502 81.2367ZM192.797 114.115C192.629 120.942 192.468 121.39 190.921 119.02C185.749 111.188 175.973 104.257 176.599 108.895C176.655 109.341 176.669 111.777 175.795 112.488C175.795 112.488 79.548 197.915 79.2917 197.853C79.138 197.817 78.668 193.433 78.2251 188.028C75.0032 149.571 73.7245 148.347 50.1216 162.338C42.8594 166.659 37.2083 169.906 37.4988 169.597C37.7893 169.287 69.2596 142.089 74.0176 137.819C78.7757 133.548 82.8013 130.075 82.955 130.112C83.5188 130.247 86.2728 156.372 87.1862 163.89C87.7634 168.732 89.9685 174.017 95.7737 169.671C96.9015 168.805 156.962 115.127 172.156 101.183C174.295 99.2604 175.523 98.2019 172.455 95.8472C169.62 93.6561 165.523 87.2166 167.083 87.2646C175.611 87.625 193.655 87.6086 195.139 87.7467C195.676 87.7668 192.972 107.938 192.797 114.115Z" fill="#FF783F"/>
<path d="M131.648 1.26348C129.362 1.89874 106.238 9.6065 91.8814 9.6065C89.6369 9.6065 89.0863 12.3169 90.6533 13.6298C92.8555 15.4932 96.0741 17.8648 98.9116 19.6436L101.156 21.0411C87.604 31.1205 91.2462 29.2148 61.9821 53.7356C40.8069 71.4805 42.0774 68.1348 52.4532 78.3412C57.1118 82.9574 61.008 87.023 61.135 87.4465C61.4315 88.463 65.2854 91.3851 70.4945 86.0913C95.1848 61.1893 111.447 47.5529 116.656 39.2522C116.699 39.2099 130.124 48.8653 130.166 48.9077C130.209 48.95 134.867 53.058 135.883 40.607C136.307 35.5673 141.05 3.71981 141.431 3.08455C143.168 -0.218792 139.356 -0.938732 131.648 1.26348ZM52.5379 70.8452C52.1991 70.4217 52.9614 69.5747 55.9683 67.0336C60.5845 63.1374 60.2033 62.8414 61.0927 70.9727C61.4738 74.5724 61.9397 78.0875 62.0668 78.8075C62.3209 79.9509 55.0789 73.8944 52.5379 70.8452ZM69.7322 77.3252C66.4712 80.798 66.5559 80.7975 66.2171 77.833C65.7512 73.8944 63.549 60.9356 63.8878 60.3851C64.1843 59.8768 70.2827 54.9642 70.8756 54.456C71.4685 68.3893 71.5956 68.3889 72.3579 74.445L69.7322 77.3252ZM78.8799 68.6857C77.0588 70.3798 75.4495 71.7769 75.3224 71.7769C74.5601 71.8193 74.0943 52.084 74.0943 52.0416L77.3129 49.2046C81.3362 45.6895 81.2938 45.6471 81.2938 49.7975C81.2938 53.8207 81.8867 61.4434 82.2255 65.5937L78.8799 68.6857ZM85.6983 62.0363C85.2748 53.5662 85.1901 52.9314 85.1054 42.3862C86.7994 40.9462 90.738 37.5159 91.1191 37.5159C91.585 37.5159 91.2462 52.3808 91.8814 54.456C92.3896 56.1924 92.432 55.8108 85.6983 62.0363ZM100.394 48.1877C95.5236 53.1004 97.0482 53.1008 95.2271 37.0923C94.846 33.662 94.6342 34.0431 98.7422 30.6127L102.215 27.7329L103.655 44.9272L100.394 48.1877ZM110.007 37.0923C109.245 38.0664 108.567 38.6589 108.483 38.4895C108.313 37.8542 106.789 26.4196 106.408 25.4879C106.365 25.3609 106.619 25.0221 107.001 24.6409C108.398 23.1586 108.525 20.9141 107.297 19.3048C107.001 18.966 103.443 17.6954 99.2504 14.3498C98.6151 13.8416 98.1493 13.3334 98.234 13.2486C98.6575 12.8251 110.007 11.724 110.05 11.724C110.516 16.0014 111.278 24.8103 111.49 27.309C112.04 34.4238 111.574 35.1442 110.007 37.0923ZM118.477 34.0431L116.572 33.1114L115.809 25.446C114.751 14.8584 113.904 11.0892 114.115 10.8351C114.242 10.6657 118.943 9.69163 120.087 9.56458C120.722 9.47988 120.468 11.5127 120.637 24.4719C120.764 36.0332 120.934 35.2709 118.477 34.0431ZM129.065 34.7203C128.557 40.1835 128.303 41.0309 128.049 42.2167C125.846 40.4804 125.719 40.6493 126.228 38.8706C127.371 34.8474 125.126 11.6817 125.084 8.12426C129.87 6.47257 134.613 4.73621 134.613 5.54088C134.613 5.62556 129.954 25.0221 129.065 34.7203Z" fill="#FF783F"/>
</svg>
