<svg width="97" height="90" viewBox="0 0 97 90" fill="none" xmlns="http://www.w3.org/2000/svg">
<path d="M86.6484 1.26348C84.3615 1.89874 61.2382 9.6065 46.8814 9.6065C44.6369 9.6065 44.0863 12.3169 45.6533 13.6298C47.8555 15.4932 51.0741 17.8648 53.9116 19.6436L56.1562 21.0411C42.604 31.1205 46.2462 29.2148 16.9821 53.7356C-4.19315 71.4805 -2.92263 68.1348 7.45322 78.3412C12.1118 82.9574 16.008 87.023 16.135 87.4465C16.4315 88.463 20.2854 91.3851 25.4945 86.0913C50.1848 61.1893 66.4473 47.5529 71.6564 39.2522C71.6988 39.2099 85.1238 48.8653 85.1662 48.9077C85.2085 48.95 89.8671 53.058 90.8835 40.607C91.307 35.5673 96.0502 3.71981 96.4314 3.08455C98.1678 -0.218792 94.3562 -0.938732 86.6484 1.26348ZM7.5379 70.8452C7.1991 70.4217 7.96141 69.5747 10.9683 67.0336C15.5845 63.1374 15.2033 62.8414 16.0927 70.9727C16.4738 74.5724 16.9397 78.0875 17.0668 78.8075C17.3209 79.951 10.0789 73.8944 7.5379 70.8452ZM24.7322 77.3252C21.4712 80.798 21.5559 80.7975 21.2171 77.833C20.7512 73.8944 18.549 60.9356 18.8878 60.3851C19.1843 59.8768 25.2827 54.9642 25.8756 54.456C26.4685 68.3893 26.5956 68.3889 27.3579 74.445L24.7322 77.3252ZM33.8799 68.6857C32.0588 70.3798 30.4495 71.7769 30.3224 71.7769C29.5601 71.8193 29.0943 52.084 29.0943 52.0416L32.3129 49.2046C36.3362 45.6895 36.2938 45.6471 36.2938 49.7975C36.2938 53.8207 36.8867 61.4434 37.2255 65.5937L33.8799 68.6857ZM40.6983 62.0363C40.2748 53.5662 40.1901 52.9314 40.1054 42.3862C41.7994 40.9462 45.738 37.5159 46.1191 37.5159C46.585 37.5159 46.2462 52.3808 46.8814 54.456C47.3896 56.1924 47.432 55.8108 40.6983 62.0363ZM55.3939 48.1877C50.5236 53.1004 52.0482 53.1008 50.2271 37.0924C49.846 33.662 49.6342 34.0431 53.7422 30.6127L57.2149 27.7329L58.6548 44.9272L55.3939 48.1877ZM65.0074 37.0924C64.2451 38.0664 63.5675 38.6589 63.4828 38.4895C63.3134 37.8542 61.7888 26.4196 61.4076 25.4879C61.3653 25.3609 61.6194 25.0221 62.0005 24.6409C63.3981 23.1586 63.5251 20.9141 62.297 19.3048C62.0005 18.966 58.4431 17.6954 54.2504 14.3498C53.6151 13.8416 53.1493 13.3334 53.234 13.2486C53.6575 12.8251 65.0074 11.724 65.0497 11.724C65.5156 16.0014 66.2779 24.8103 66.4897 27.309C67.0402 34.4238 66.5743 35.1442 65.0074 37.0924ZM73.4775 34.0431L71.5717 33.1114L70.8094 25.446C69.7506 14.8584 68.9036 11.0892 69.1154 10.8351C69.2424 10.6657 73.9433 9.69163 75.0868 9.56458C75.722 9.47988 75.4679 11.5127 75.6373 24.4719C75.7644 36.0332 75.9338 35.2709 73.4775 34.0431ZM84.0651 34.7203C83.5568 40.1835 83.3028 41.0309 83.0487 42.2167C80.8464 40.4804 80.7194 40.6493 81.2276 38.8706C82.3711 34.8474 80.1265 11.6817 80.0841 8.12426C84.8697 6.47257 89.613 4.73621 89.613 5.54088C89.613 5.62556 84.9544 25.0221 84.0651 34.7203Z" fill="#FF783F"/>
</svg>
