<svg width="203" height="130" viewBox="0 0 203 130" fill="none" xmlns="http://www.w3.org/2000/svg">
<path fill-rule="evenodd" clip-rule="evenodd" d="M194.502 1.23672C190.247 2.49165 166.27 2.17247 159.827 0.795936C153.076 -0.654039 153.071 0.0476806 159.256 9.31099C164.296 16.787 164.514 15.6494 156.221 22.6988C141.268 35.4032 94.3027 79.3936 93.7979 77.6509C93.7589 77.5875 89.1228 43.0103 89.135 42.9592C87.698 30.8285 73.7406 45.7172 66.097 52.5431C56.7835 60.9168 35.7227 79.4621 28.5186 85.5819C20.7579 92.2177 6.52756 105.527 4.51088 108.074C-6.40504 121.796 5.8555 118.776 8.69937 117.076C61.8763 84.7348 65.9481 81.9763 66.1043 82.2299C66.1823 82.3566 69.7371 117.378 70.3024 121.136C71.7132 130.882 77.3461 131.794 83.5789 125.659C97.8899 111.557 180.925 36.7633 181.169 36.8756C181.413 36.988 183.668 39.7974 186.235 43.114C191.654 50.1397 199.582 57.5483 200.111 48.753C200.66 39.4217 199.768 44.2913 202.154 7.98473C202.588 -0.184491 194.68 1.17113 194.502 1.23672ZM191.797 34.1147C191.629 40.9417 191.468 41.3899 189.921 39.0198C184.749 31.1879 174.973 24.2572 175.599 28.8946C175.655 29.3406 175.669 31.7771 174.795 32.4876C174.795 32.4876 78.548 117.915 78.2917 117.853C78.138 117.817 77.668 113.433 77.2251 108.028C74.0032 69.5711 72.7245 68.3466 49.1216 82.3376C41.8594 86.6592 36.2083 89.9056 36.4988 89.5965C36.7893 89.2874 68.2596 62.0894 73.0176 57.8186C77.7757 53.5478 81.8013 50.0754 81.955 50.1121C82.5188 50.2467 85.2728 76.3719 86.1862 83.8896C86.7634 88.7317 88.9685 94.0166 94.7737 89.6714C95.9015 88.8052 155.962 35.1273 171.156 21.1829C173.295 19.2604 174.523 18.2019 171.455 15.8472C168.62 13.6561 164.523 7.21658 166.083 7.26462C174.611 7.62501 192.655 7.60863 194.139 7.74673C194.676 7.76683 191.972 27.9383 191.797 34.1147Z" fill="#FF783F"/>
</svg>
