<svg width="311" height="311" viewBox="0 0 311 311" fill="none" xmlns="http://www.w3.org/2000/svg">
<circle cx="162.544" cy="162.543" r="148.456" fill="#FAEFBF"/>
<circle cx="148.456" cy="148.456" r="145.259" stroke="#2B5174" stroke-width="6.39422"/>
<mask id="mask0_2104_1926" style="mask-type:alpha" maskUnits="userSpaceOnUse" x="0" y="0" width="297" height="297">
<circle cx="148.456" cy="148.456" r="145.259" fill="#D9D9D9" stroke="#2B5174" stroke-width="6.39422"/>
</mask>
<g mask="url(#mask0_2104_1926)">
<path d="M184.307 174.554L178.607 163.719C176.969 161.637 174.267 160.712 171.704 161.35L144.177 168.216L119.981 162.442C117.723 161.906 115.419 163.164 114.651 165.357L111.81 173.481L86.6423 184.862L107.017 391.285H179.514L199.287 186.065L184.307 174.564V174.554Z" fill="#2B5174"/>
<path d="M195.734 72.1148C192.468 69.6443 190.285 66.1282 189.572 62.2235C188.351 55.4781 184.631 47.206 173.824 46.0864C169.845 45.6793 166.051 43.875 162.859 40.8863C158.455 36.7595 151.478 31.9665 143.271 32.5587C136.581 33.0398 130.196 37.0278 124.274 44.4116C121.896 47.3818 118.63 49.6673 114.827 51.0367C107.887 53.5258 96.4416 59.8455 97.7 74.1042C97.9313 76.7413 97.0245 79.4801 95.2017 81.6268C93.0735 84.1344 91.2599 88.1409 94.702 92.9616L95.2665 93.3872C98.5327 95.6727 100.846 99.0778 101.78 102.964L107.323 126.189L185.038 128.743L190.136 101.641C190.941 97.3567 193.208 93.4428 196.521 90.6206L198.853 88.6313L198.899 88.5295C201.018 83.7365 202.184 77.0004 195.716 72.0963L195.734 72.1148Z" fill="#919DDA"/>
<path d="M171.565 162.95L169.058 136.783H122.016L121.452 163.811C150.533 181.984 171.565 162.95 171.565 162.95Z" fill="white"/>
<path d="M121.461 171.305C121.461 171.305 121.434 171.305 121.424 171.305C120.221 171.287 119.268 170.288 119.287 169.085L119.851 136.755C119.87 135.561 120.841 134.608 122.026 134.608H169.067C170.206 134.608 171.149 135.478 171.242 136.616L173.749 167.919C173.842 169.122 172.954 170.177 171.751 170.269C170.548 170.352 169.502 169.473 169.41 168.27L167.069 138.976H124.182L123.654 169.159C123.636 170.352 122.664 171.305 121.48 171.305H121.461Z" fill="#2B5174"/>
<path d="M126.874 65.9609C139.208 76.3705 139.208 78.3228 152.181 83.5229C152.181 83.5229 181.605 88.8804 179.893 89.5836C180.421 90.7957 181.707 95.2279 182.725 99.2159C183.4 101.862 183.946 104.314 184.076 105.48C184.964 105.119 185.871 104.99 186.787 105.128C190.71 105.776 193.023 111.291 191.959 117.444C190.895 123.597 186.852 131.777 182.928 131.138C182.308 131.037 181.735 130.805 181.207 130.472C179.838 136.033 174.925 150.394 159.463 159.489C145.232 167.437 132.583 159.489 132.583 159.489C117.122 150.394 112.208 136.033 110.839 130.472C110.312 130.796 109.729 131.037 109.118 131.138C105.195 131.777 101.151 123.607 100.087 117.444C99.0231 111.291 101.336 105.776 105.26 105.128C106.166 104.98 107.082 105.119 107.971 105.48L109.229 95.8108C111.986 80.2474 119.111 71.1611 126.893 65.9609H126.874Z" fill="white"/>
<path d="M187.092 103.343C186.62 103.269 186.148 103.241 185.667 103.269C184.945 98.4664 183.446 93.1183 181.614 88.8804C181.216 87.9551 180.124 87.5295 179.171 87.9181C178.227 88.3067 177.783 89.3708 178.181 90.2961C180.133 94.793 181.66 100.604 182.206 105.517L181.512 113.715C181.429 114.715 182.188 115.584 183.215 115.668C183.27 115.668 183.316 115.668 183.372 115.668C184.334 115.668 185.148 114.955 185.222 114.002L185.824 106.905C186.046 106.887 186.268 106.887 186.472 106.924C188.961 107.331 191.07 111.633 190.117 117.148C188.998 123.579 185.167 129.658 183.233 129.353C182.891 129.297 182.548 129.158 182.188 128.945C181.679 128.631 181.049 128.575 180.494 128.797C179.939 129.02 179.523 129.482 179.384 130.056C178.033 135.543 173.286 149.246 158.519 157.926C145.491 165.198 134.054 158.268 133.536 157.944C118.731 149.237 113.994 135.534 112.633 130.056C112.495 129.491 112.078 129.02 111.523 128.797C110.968 128.575 110.339 128.631 109.83 128.945C109.478 129.168 109.136 129.297 108.794 129.353C106.85 129.676 103.02 123.579 101.909 117.148C100.956 111.633 103.066 107.331 105.546 106.924C105.759 106.887 105.981 106.887 106.203 106.905L106.804 114.002C106.887 114.946 107.702 115.668 108.655 115.668C108.71 115.668 108.757 115.668 108.812 115.668C109.839 115.584 110.598 114.715 110.515 113.715L109.811 105.378L109.487 98.7718C109.441 97.7725 108.581 97.0045 107.535 97.0507C106.508 97.097 105.712 97.9483 105.759 98.9476L105.971 103.278C105.62 103.278 105.268 103.306 104.926 103.361C99.9107 104.185 96.9683 110.514 98.2267 117.768C99.226 123.533 103.519 133.905 109.413 132.943C109.46 132.943 109.515 132.924 109.562 132.915C111.597 139.716 117.177 152.577 131.565 161.035C131.935 161.266 137.82 164.875 146.129 164.875C150.395 164.875 155.299 163.921 160.425 161.062C174.841 152.577 180.439 139.716 182.474 132.915C182.521 132.924 182.576 132.933 182.622 132.943C182.882 132.989 183.131 133.008 183.381 133.008C188.859 133.008 192.847 123.283 193.8 117.768C195.058 110.514 192.116 104.194 187.101 103.361L187.092 103.343Z" fill="#2B5174"/>
<path d="M146.12 165.19C137.663 165.19 131.63 161.451 131.38 161.294C117.131 152.911 111.459 140.262 109.321 133.267C103.289 134.1 98.9026 123.635 97.8941 117.796C97.1261 113.355 97.8571 109.154 99.9112 106.267C101.197 104.454 102.918 103.325 104.871 103.001C105.121 102.964 105.37 102.936 105.62 102.918L105.426 98.9388C105.398 98.3744 105.592 97.8285 105.981 97.4121C106.379 96.9772 106.925 96.7181 107.526 96.6904C108.738 96.6163 109.766 97.5509 109.83 98.7353L110.154 105.342L110.857 113.669C110.904 114.234 110.728 114.78 110.358 115.215C109.978 115.668 109.442 115.936 108.84 115.992C108.785 115.992 108.72 115.992 108.655 115.992C107.517 115.992 106.555 115.122 106.462 114.021L105.889 107.22C105.787 107.22 105.685 107.229 105.602 107.248C104.862 107.368 104.158 107.886 103.548 108.738C102.178 110.662 101.679 113.854 102.243 117.084C103.353 123.478 107.165 129.27 108.738 129.011C109.044 128.964 109.34 128.844 109.655 128.65C110.256 128.28 110.996 128.215 111.653 128.474C112.31 128.733 112.8 129.288 112.967 129.964C114.309 135.405 119.018 149.006 133.712 157.648C134.193 157.945 145.528 164.792 158.362 157.621C173.009 149.006 177.719 135.405 179.061 129.964C179.227 129.288 179.717 128.733 180.374 128.474C181.031 128.215 181.772 128.28 182.373 128.65C182.688 128.844 182.993 128.964 183.298 129.02C184.899 129.288 188.684 123.468 189.794 117.093C190.349 113.873 189.849 110.671 188.489 108.747C187.888 107.896 187.175 107.377 186.435 107.257C186.343 107.239 186.25 107.239 186.148 107.229L185.575 114.03C185.473 115.196 184.418 116.103 183.197 115.992C182.604 115.946 182.068 115.668 181.688 115.224C181.318 114.789 181.142 114.243 181.189 113.679L181.883 105.481C181.346 100.669 179.819 94.8768 177.885 90.4262C177.663 89.8987 177.654 89.3251 177.867 88.7976C178.089 88.2517 178.515 87.8353 179.061 87.604C180.18 87.1414 181.466 87.6595 181.938 88.7514C183.724 92.8782 185.223 98.1523 185.972 102.927C186.37 102.908 186.768 102.955 187.157 103.01C189.118 103.334 190.83 104.463 192.126 106.276C194.171 109.163 194.911 113.364 194.143 117.796C193.301 122.654 189.424 133.313 183.391 133.313C183.16 133.313 182.937 133.295 182.715 133.267C180.578 140.262 174.897 152.92 160.601 161.322C156.012 163.885 151.154 165.18 146.139 165.18L146.12 165.19ZM109.562 132.564C109.71 132.564 109.849 132.656 109.886 132.804C111.931 139.633 117.482 152.347 131.732 160.73C131.991 160.887 137.857 164.523 146.12 164.523C151.015 164.523 155.771 163.256 160.249 160.757C174.527 152.356 180.088 139.642 182.132 132.804C182.179 132.638 182.345 132.536 182.521 132.573L182.66 132.601C182.891 132.638 183.16 132.647 183.363 132.656C188.656 132.656 192.551 122.913 193.449 117.694C194.18 113.494 193.467 109.376 191.552 106.674C190.368 105.009 188.804 103.972 187.027 103.676C186.583 103.602 186.13 103.584 185.676 103.612C185.501 103.63 185.352 103.501 185.325 103.325C184.603 98.5317 183.095 93.1835 181.29 89.0197C180.967 88.2702 180.069 87.9094 179.283 88.2332C178.903 88.3905 178.607 88.6774 178.459 89.0567C178.311 89.4176 178.32 89.8062 178.468 90.1671C180.421 94.6825 181.975 100.549 182.521 105.49L181.827 113.753C181.799 114.132 181.92 114.511 182.17 114.808C182.438 115.122 182.808 115.307 183.224 115.344C183.271 115.344 183.308 115.344 183.354 115.344C184.14 115.344 184.807 114.752 184.871 113.993L185.473 106.896C185.491 106.73 185.621 106.6 185.778 106.591C186.046 106.572 186.287 106.572 186.509 106.609C187.434 106.758 188.295 107.368 189.007 108.377C190.497 110.468 191.025 113.78 190.432 117.223C189.359 123.422 185.501 130.093 183.169 129.705C182.78 129.64 182.392 129.492 182.003 129.251C181.587 128.992 181.068 128.955 180.606 129.131C180.152 129.307 179.81 129.695 179.699 130.158C178.33 135.682 173.555 149.487 158.676 158.241C145.491 165.606 133.832 158.565 133.342 158.259C118.436 149.487 113.661 135.691 112.292 130.158C112.181 129.695 111.838 129.316 111.385 129.131C110.922 128.946 110.404 128.992 109.988 129.251C109.599 129.492 109.22 129.64 108.831 129.705C106.499 130.084 102.632 123.441 101.558 117.223C100.966 113.78 101.493 110.468 102.983 108.368C103.696 107.368 104.556 106.758 105.481 106.6C105.704 106.563 105.944 106.554 106.212 106.582C106.379 106.591 106.509 106.721 106.518 106.887L107.119 113.984C107.184 114.78 107.924 115.409 108.766 115.335C109.183 115.298 109.562 115.113 109.83 114.798C110.08 114.502 110.2 114.132 110.173 113.743L109.469 105.407L109.146 98.7908C109.109 97.9673 108.387 97.3566 107.545 97.3843C107.128 97.4028 106.749 97.5786 106.472 97.884C106.212 98.1708 106.074 98.5409 106.092 98.9296L106.305 103.26C106.305 103.352 106.277 103.445 106.212 103.51C106.148 103.575 106.064 103.612 105.972 103.612C105.639 103.612 105.306 103.639 104.982 103.695C103.205 103.991 101.642 105.018 100.457 106.684C98.5418 109.385 97.8293 113.503 98.5603 117.704C99.5411 123.357 103.714 133.526 109.358 132.601L109.488 132.573C109.488 132.573 109.534 132.573 109.553 132.573L109.562 132.564Z" fill="#2B5174"/>
<path d="M119.472 114.123C117.343 113.253 115.706 111.384 115.178 109.034C114.42 105.647 113.753 101.529 113.726 101.363C113.559 100.317 114.262 99.3365 115.308 99.1699C116.344 99.0034 117.325 99.7066 117.492 100.752C117.492 100.789 118.167 104.925 118.898 108.201C119.231 109.709 120.545 110.801 122.09 110.838C125.958 110.949 131.685 110.958 137.006 110.357C138.033 110.236 138.856 109.478 139.069 108.469C139.486 106.443 140.032 103.51 140.281 101.067C140.383 100.021 141.318 99.2532 142.363 99.355C143.409 99.466 144.177 100.391 144.075 101.446C143.816 104.055 143.242 107.118 142.807 109.237C142.271 111.874 140.106 113.854 137.441 114.15C131.908 114.78 125.986 114.77 121.988 114.65C121.109 114.622 120.258 114.437 119.481 114.113L119.472 114.123Z" fill="#2B5174"/>
<path d="M107.1 101.9C106.24 102.252 105.749 103.196 105.971 104.121C106.221 105.148 107.257 105.777 108.275 105.518L116.085 103.603C117.102 103.353 117.732 102.317 117.482 101.289C117.232 100.262 116.196 99.6332 115.178 99.8923L107.368 101.808C107.276 101.826 107.183 101.863 107.1 101.891V101.9Z" fill="#2B5174"/>
<path d="M154.031 113.365C152.199 112.615 150.802 111.014 150.349 109.006C149.868 106.897 149.229 103.843 148.905 101.243C148.776 100.198 149.525 99.2447 150.561 99.1151C151.607 98.9856 152.56 99.7351 152.69 100.781C152.986 103.214 153.596 106.138 154.059 108.155C154.29 109.164 155.132 109.904 156.169 109.997C161.489 110.478 167.217 110.339 171.084 110.145C172.63 110.061 173.916 108.951 174.221 107.433C174.878 104.149 175.452 99.9941 175.461 99.9571C175.609 98.9116 176.571 98.1806 177.608 98.3286C178.653 98.4767 179.375 99.439 179.236 100.485C179.208 100.66 178.635 104.787 177.959 108.192C177.312 111.421 174.563 113.799 171.288 113.966C167.3 114.17 161.369 114.318 155.826 113.809C155.197 113.753 154.596 113.605 154.031 113.374V113.365Z" fill="#2B5174"/>
<path d="M176.645 100.817C176.081 101.048 175.636 101.548 175.498 102.187C175.276 103.223 175.933 104.231 176.96 104.453L185.398 106.258C186.425 106.48 187.443 105.823 187.656 104.787C187.878 103.75 187.221 102.742 186.194 102.52L177.755 100.715C177.367 100.632 176.978 100.678 176.636 100.817H176.645Z" fill="#2B5174"/>
<path d="M143.474 104.518C142.798 104.241 142.308 103.584 142.289 102.797C142.261 101.743 143.094 100.864 144.14 100.836L148.692 100.716C149.747 100.688 150.617 101.521 150.654 102.575C150.682 103.63 149.849 104.509 148.803 104.537L144.251 104.657C143.973 104.657 143.714 104.611 143.483 104.518H143.474Z" fill="#2B5174"/>
<path d="M184.511 92.2956C143.113 92.2956 118.945 62.4642 117.908 61.1688C117.205 60.2805 117.353 58.9851 118.232 58.2726C119.12 57.5602 120.416 57.7082 121.119 58.5965C121.36 58.9018 145.149 88.1688 184.575 88.1688C185.38 88.1688 186.185 88.1595 187.009 88.1318C187.027 88.1318 187.055 88.1318 187.074 88.1318C188.184 88.1318 189.091 89.0108 189.128 90.1304C189.165 91.2685 188.267 92.2215 187.138 92.2493C186.25 92.277 185.38 92.2863 184.511 92.2863V92.2956Z" fill="#2B5174"/>
<path d="M111.181 190.256C111.181 190.256 107.526 172.306 105.685 173.074L92.2496 180.069L53.7575 198.64C53.7575 198.64 44.1715 203.433 43.3758 212.223L29.7462 289.54C-0.501488 395.8 69.3024 353.144 69.3024 353.144L71.3473 391.266L126.069 391.35L126.152 296.97L111.181 190.266V190.256Z" fill="white"/>
<path d="M111.182 190.256C111.182 190.256 107.527 172.306 105.685 173.074L92.2502 180.069L91.1028 192.449L56.9504 208.623C56.9504 208.623 50.3623 209.826 50.9823 217.997L38.3798 289.531C13.8134 394.366 69.303 353.135 69.303 353.135L76.7238 342.235L79.7218 391.248L126.07 391.331L126.153 296.952L111.182 190.247V190.256Z" fill="#919DDA"/>
<path d="M282.23 341.642C266.047 285.042 253.093 233.846 253.093 233.846C249.493 217.672 243.941 200.526 243.941 200.526C232.237 195.289 202.886 180.059 202.886 180.059L189.849 173.036C188.591 172.36 187.027 173.091 186.749 174.498L166.337 296.886L165.135 391.265H257.46L281.425 355.216C285.95 349.378 284.256 348.739 282.221 341.633L282.23 341.642Z" fill="#919DDA"/>
<path d="M172.028 305.289C171.768 305.289 171.509 305.242 171.26 305.141C170.168 304.715 169.631 303.484 170.057 302.393L199.851 226.25L187.082 215.221C186.49 214.712 186.231 213.916 186.397 213.158C186.564 212.399 187.138 211.788 187.887 211.575L202.886 207.319L195.965 180.384C195.632 179.264 196.261 178.08 197.39 177.747C198.509 177.404 199.694 178.043 200.027 179.172L207.559 208.17C207.725 208.716 207.661 209.299 207.383 209.799C207.115 210.298 206.652 210.669 206.106 210.817L192.819 214.592L203.747 224.03C204.431 224.622 204.663 225.575 204.339 226.408L173.998 303.947C173.675 304.78 172.87 305.298 172.018 305.298L172.028 305.289Z" fill="#2B5174"/>
<path d="M219.264 393.292C219.209 393.292 219.144 393.292 219.089 393.292C217.978 393.19 217.164 392.219 217.266 391.108L224.289 249.141C224.298 249.058 224.317 248.975 224.326 248.891L237.567 215.174C237.631 214.905 237.789 214.665 238.029 214.535C240.065 213.406 241.74 215.035 241.351 216.645L228.277 249.65L221.272 391.469C221.18 392.515 220.301 393.301 219.274 393.301L219.264 393.292Z" fill="#2B5174"/>
<path d="M159.583 99.8089C159.593 101.502 160.981 102.862 162.674 102.853C164.367 102.844 165.727 101.456 165.709 99.7627C165.7 98.0694 164.312 96.7092 162.618 96.7277C160.925 96.737 159.565 98.1249 159.574 99.8182L159.583 99.8089Z" fill="#2B5174"/>
<path d="M126.874 100.058C126.883 101.751 128.271 103.111 129.964 103.102C131.657 103.093 133.018 101.705 132.999 100.012C132.99 98.3184 131.602 96.9582 129.909 96.9767C128.215 96.986 126.855 98.3739 126.864 100.067L126.874 100.058Z" fill="#2B5174"/>
<path d="M144.612 126.707C143.603 126.707 142.789 125.874 142.798 124.865C142.798 123.857 143.631 123.043 144.64 123.052L147.98 123.08C148.988 123.08 149.803 123.912 149.793 124.921C149.793 125.929 148.961 126.744 147.952 126.734L144.612 126.707Z" fill="#2B5174"/>
<path d="M147.943 126.994L144.603 126.966C144.048 126.966 143.529 126.744 143.132 126.346C142.743 125.948 142.53 125.421 142.53 124.866C142.53 124.31 142.752 123.792 143.15 123.394C143.548 123.006 144.075 122.793 144.631 122.793L147.971 122.821C148.526 122.821 149.044 123.043 149.442 123.441C149.831 123.839 150.044 124.366 150.044 124.921C150.044 125.476 149.821 125.994 149.424 126.392C149.229 126.587 148.998 126.735 148.748 126.836C148.498 126.938 148.221 126.994 147.943 126.994ZM143.52 123.765C143.224 124.061 143.058 124.449 143.048 124.875C143.048 125.291 143.206 125.689 143.502 125.994C143.798 126.291 144.186 126.457 144.612 126.466L147.952 126.494C148.369 126.494 148.767 126.337 149.063 126.041C149.359 125.745 149.525 125.356 149.535 124.93C149.535 124.514 149.377 124.116 149.081 123.811C148.785 123.515 148.396 123.348 147.971 123.339L144.631 123.311C144.418 123.311 144.214 123.348 144.02 123.431C143.835 123.505 143.659 123.616 143.511 123.765H143.52Z" fill="#2B5174"/>
<path d="M130.853 86.2439C131.963 86.2532 133.129 86.3642 134.304 86.6233C135.451 86.8824 136.173 88.0205 135.923 89.1678C135.664 90.3152 134.535 91.0369 133.379 90.7871C129.169 89.8526 124.829 91.5458 124.783 91.5643C123.691 91.9992 122.451 91.4718 122.016 90.38C121.581 89.2881 122.099 88.0482 123.191 87.6133C123.367 87.5393 126.726 86.2069 130.853 86.2439Z" fill="#2B5174"/>
<path d="M176.479 138.615C175.128 137.782 173.379 137.94 172.084 138.856L150.645 153.975L130.399 162.025C139.004 140.41 126.171 144.269 126.171 144.269L114.494 169.612L107.026 198.722L104.214 207.966L97.1628 228.165L115.78 246.004L137.154 217.913C150.802 209.326 169.641 188.266 169.641 188.266C173.407 184.056 172.37 175.969 172.37 175.969C176.164 168.113 171.464 163.654 171.464 163.654C172.019 153.411 167.17 156.834 167.17 156.834L174.711 148.405C179.255 142.242 178.209 139.679 176.479 138.615Z" fill="white"/>
<path d="M115.78 248.225C115.215 248.225 114.66 248.003 114.253 247.614L95.636 229.774C95.0068 229.173 94.794 228.266 95.0809 227.452L102.132 207.253C102.539 206.096 103.797 205.495 104.944 205.893C106.101 206.291 106.703 207.558 106.305 208.706L99.7258 227.563L115.521 242.701L135.396 216.58C135.553 216.367 135.757 216.191 135.979 216.043C149.21 207.716 167.809 186.998 167.994 186.786C170.529 183.945 170.436 178.217 170.187 176.246C170.131 175.821 170.205 175.395 170.39 175.007C173.444 168.678 169.983 165.291 169.946 165.254C169.474 164.81 169.224 164.181 169.261 163.533C169.456 160.008 168.928 158.832 168.734 158.518C168.632 158.546 168.503 158.601 168.419 158.657C167.503 159.304 166.254 159.147 165.505 158.305C164.755 157.463 164.774 156.186 165.523 155.344L172.99 146.998C175.84 143.112 175.794 141.437 175.711 141.021C175.674 140.817 175.59 140.66 175.313 140.484C174.758 140.142 173.971 140.216 173.351 140.651L151.912 155.77C151.773 155.872 151.616 155.955 151.459 156.02L131.213 164.07C130.39 164.393 129.455 164.199 128.835 163.579C128.215 162.95 128.021 162.015 128.345 161.201C132.564 150.607 130.927 147.609 130.325 146.952C129.659 146.212 128.502 146.165 127.697 146.239L116.585 170.352L109.173 199.268C108.868 200.452 107.665 201.165 106.48 200.859C105.296 200.554 104.584 199.351 104.889 198.167L112.356 169.057C112.393 168.927 112.43 168.798 112.486 168.678L124.163 143.334C124.431 142.76 124.931 142.325 125.532 142.14C127.392 141.585 131.176 141.326 133.573 143.945C136.043 146.637 136.238 151.31 134.119 158.157L149.58 152.004L170.807 137.033C172.889 135.561 175.563 135.441 177.635 136.709C178.94 137.514 179.773 138.707 180.06 140.169C180.541 142.668 179.375 145.786 176.497 149.7C176.46 149.755 176.414 149.811 176.368 149.866L171.649 155.141C173.555 156.862 173.795 160.146 173.721 162.867C175.109 164.69 177.737 169.399 174.647 176.339C174.822 178.532 175.054 185.536 171.297 189.728C170.529 190.588 152.393 210.788 138.681 219.559L117.547 247.336C117.168 247.836 116.585 248.151 115.955 248.206C115.9 248.206 115.844 248.206 115.78 248.206V248.225Z" fill="#2B5174"/>
<path d="M151.247 170.279C150.553 170.279 149.868 169.955 149.433 169.344C148.73 168.345 148.97 166.966 149.97 166.263L165.894 155.03C166.893 154.327 168.272 154.567 168.975 155.567C169.678 156.566 169.438 157.945 168.438 158.648L152.514 169.881C152.126 170.159 151.681 170.288 151.237 170.288L151.247 170.279Z" fill="#2B5174"/>
<path d="M157.807 178.098C157.196 178.098 156.594 177.848 156.16 177.357C155.345 176.45 155.419 175.053 156.335 174.239L170.002 162.007C170.909 161.192 172.315 161.266 173.12 162.183C173.934 163.089 173.86 164.486 172.944 165.301L159.278 177.533C158.852 177.912 158.325 178.098 157.807 178.098Z" fill="#2B5174"/>
<path d="M161.786 186.694C161.138 186.694 160.5 186.407 160.065 185.871C159.297 184.918 159.454 183.53 160.407 182.762L171.002 174.258C171.955 173.49 173.343 173.648 174.111 174.601C174.879 175.554 174.721 176.942 173.768 177.71L163.174 186.213C162.767 186.537 162.276 186.703 161.786 186.703V186.694Z" fill="#2B5174"/>
<path d="M122.404 168.326C121.599 168.326 120.822 167.882 120.434 167.123C119.878 166.032 120.313 164.699 121.396 164.144L129.4 160.054C130.491 159.499 131.824 159.934 132.379 161.016C132.934 162.108 132.499 163.431 131.417 163.996L123.413 168.086C123.089 168.252 122.747 168.326 122.414 168.326H122.404Z" fill="#2B5174"/>
<path d="M95.8951 214.619L38.2681 296.517L91.6943 317.678L131.241 233.199L95.8951 214.619Z" fill="#919DDA"/>
<path d="M91.6942 319.889C91.3796 319.889 91.065 319.824 90.7597 319.676C89.6493 319.158 89.1774 317.844 89.6956 316.734L128.345 234.161L96.589 217.469L40.0815 297.775C39.3783 298.774 37.9996 299.014 37.0003 298.311C36.001 297.608 35.7604 296.229 36.4637 295.23L94.0907 213.333C94.7292 212.426 95.9413 212.13 96.9314 212.648L132.277 231.218C133.323 231.764 133.749 233.041 133.249 234.115L93.7021 318.594C93.3227 319.399 92.527 319.87 91.6942 319.87V319.889Z" fill="#2B5174"/>
<path d="M95.2199 211.445C95.0441 211.445 94.859 211.427 94.6832 211.381L87.4937 209.586C86.3186 209.289 85.5969 208.105 85.8744 206.93L92.407 179.578C92.6938 178.394 93.8782 177.663 95.0718 177.941C96.2562 178.228 96.9964 179.421 96.7096 180.606L90.686 205.829L95.7473 207.097C96.9317 207.393 97.6534 208.596 97.3573 209.78C97.1075 210.788 96.2007 211.455 95.2106 211.455L95.2199 211.445Z" fill="#2B5174"/>
<path d="M42.8115 364.312C39.7951 364.312 37.926 363.794 37.6577 363.711C11.4164 356.327 23.0566 308.249 23.7783 305.371L41.2756 211.834C41.4884 210.677 42.608 209.909 43.7646 210.131C44.9212 210.344 45.6799 211.463 45.4671 212.62L27.9606 306.222C27.9606 306.222 27.9421 306.315 27.9329 306.352C27.8126 306.824 16.3205 353.283 38.8513 359.621C38.9253 359.639 44.4863 361.175 52.5456 358.066C66.2399 352.792 76.4736 338.487 82.6453 327.421C83.2189 326.394 84.5144 326.024 85.5414 326.597C86.5685 327.171 86.9386 328.466 86.3649 329.493C69.3026 360.084 51.389 364.312 42.8115 364.312Z" fill="#2B5174"/>
<path d="M119.259 300.115C118.473 300.115 117.714 299.699 117.316 298.959L110.127 285.773C109.544 284.7 109.932 283.358 111.006 282.776C112.079 282.193 113.421 282.581 114.004 283.655L121.193 296.84C121.776 297.913 121.387 299.255 120.314 299.838C119.981 300.023 119.611 300.106 119.259 300.106V300.115Z" fill="#2B5174"/>
<path d="M65.7309 244.793C64.9166 244.793 64.1394 244.348 63.7508 243.571L50.9725 218.005C50.4266 216.914 50.8707 215.581 51.9626 215.035C53.0544 214.489 54.3868 214.933 54.9328 216.025L67.711 241.591C68.2569 242.683 67.8128 244.015 66.721 244.561C66.4064 244.719 66.064 244.793 65.7309 244.793Z" fill="#2B5174"/>
<path d="M48.1595 203.173C47.336 203.173 46.5495 202.691 46.1979 201.877C45.7352 200.795 46.2349 199.545 47.3175 199.083L80.8685 184.704C81.9511 184.241 83.2002 184.741 83.6629 185.823C84.1255 186.906 83.6259 188.155 82.5433 188.618L48.9923 202.997C48.7147 203.117 48.4371 203.173 48.1503 203.173H48.1595Z" fill="#2B5174"/>
<path d="M283.674 349.193C282.637 349.193 281.925 348.388 281.573 347.388C274.273 326.791 243.812 203.034 242.896 202.395L208.623 186.989C207.559 186.49 207.106 185.213 207.606 184.149C208.114 183.085 209.382 182.631 210.446 183.131L244.858 198.602C244.932 198.639 244.997 198.676 245.061 198.713C245.515 198.99 279.408 324.321 285.783 346.731C286.107 347.86 285.163 348.98 283.998 349.165C283.886 349.183 283.775 349.193 283.674 349.193Z" fill="#2B5174"/>
<path d="M145.177 138.689C138.311 138.689 133.638 136.987 133.333 136.867C132.112 136.413 131.492 135.053 131.954 133.832C132.408 132.61 133.768 131.99 134.989 132.444C135.091 132.481 145.51 136.219 157.668 131.75C158.89 131.296 160.25 131.926 160.703 133.147C161.157 134.368 160.527 135.729 159.306 136.182C154.134 138.088 149.276 138.689 145.186 138.689H145.177Z" fill="#2B5174"/>
<circle cx="148.456" cy="148.456" r="145.259" stroke="#2B5174" stroke-width="6.39422"/>
</g>
<mask id="mask1_2104_1926" style="mask-type:alpha" maskUnits="userSpaceOnUse" x="0" y="0" width="297" height="297">
<circle cx="148.456" cy="148.456" r="145.259" fill="#D9D9D9" stroke="#2B5174" stroke-width="6.39422"/>
</mask>
<g mask="url(#mask1_2104_1926)">
<path d="M184.307 174.554L178.607 163.719C176.969 161.637 174.267 160.712 171.704 161.35L144.177 168.216L119.981 162.442C117.723 161.906 115.419 163.164 114.651 165.357L111.81 173.481L86.6423 184.862L107.017 391.285H179.514L199.287 186.065L184.307 174.564V174.554Z" fill="#2B5174"/>
<path d="M195.734 72.1148C192.468 69.6443 190.285 66.1282 189.572 62.2235C188.351 55.4781 184.631 47.206 173.824 46.0864C169.845 45.6793 166.051 43.875 162.859 40.8863C158.455 36.7595 151.478 31.9665 143.271 32.5587C136.581 33.0398 130.196 37.0278 124.274 44.4116C121.896 47.3818 118.63 49.6673 114.827 51.0367C107.887 53.5258 96.4416 59.8455 97.7 74.1042C97.9313 76.7413 97.0245 79.4801 95.2017 81.6268C93.0735 84.1344 91.2599 88.1409 94.702 92.9616L95.2665 93.3872C98.5327 95.6727 100.846 99.0778 101.78 102.964L107.323 126.189L185.038 128.743L190.136 101.641C190.941 97.3567 193.208 93.4428 196.521 90.6206L198.853 88.6313L198.899 88.5295C201.018 83.7365 202.184 77.0004 195.716 72.0963L195.734 72.1148Z" fill="#FF783F"/>
<path d="M171.565 162.95L169.058 136.783H122.016L121.452 163.811C150.533 181.984 171.565 162.95 171.565 162.95Z" fill="white"/>
<path d="M121.461 171.305C121.461 171.305 121.434 171.305 121.424 171.305C120.221 171.287 119.268 170.288 119.287 169.085L119.851 136.755C119.87 135.561 120.841 134.608 122.026 134.608H169.067C170.206 134.608 171.149 135.478 171.242 136.616L173.749 167.919C173.842 169.122 172.954 170.177 171.751 170.269C170.548 170.352 169.502 169.473 169.41 168.27L167.069 138.976H124.182L123.654 169.159C123.636 170.352 122.664 171.305 121.48 171.305H121.461Z" fill="#2B5174"/>
<path d="M126.874 65.9609C139.208 76.3705 139.208 78.3228 152.181 83.5229C152.181 83.5229 181.605 88.8804 179.893 89.5836C180.421 90.7957 181.707 95.2279 182.725 99.2159C183.4 101.862 183.946 104.314 184.076 105.48C184.964 105.119 185.871 104.99 186.787 105.128C190.71 105.776 193.023 111.291 191.959 117.444C190.895 123.597 186.852 131.777 182.928 131.138C182.308 131.037 181.735 130.805 181.207 130.472C179.838 136.033 174.925 150.394 159.463 159.489C145.232 167.437 132.583 159.489 132.583 159.489C117.122 150.394 112.208 136.033 110.839 130.472C110.312 130.796 109.729 131.037 109.118 131.138C105.195 131.777 101.151 123.607 100.087 117.444C99.0231 111.291 101.336 105.776 105.26 105.128C106.166 104.98 107.082 105.119 107.971 105.48L109.229 95.8108C111.986 80.2474 119.111 71.1611 126.893 65.9609H126.874Z" fill="white"/>
<path d="M187.092 103.343C186.62 103.269 186.148 103.241 185.667 103.269C184.945 98.4664 183.446 93.1183 181.614 88.8804C181.216 87.9551 180.124 87.5295 179.171 87.9181C178.227 88.3067 177.783 89.3708 178.181 90.2961C180.133 94.793 181.66 100.604 182.206 105.517L181.512 113.715C181.429 114.715 182.188 115.584 183.215 115.668C183.27 115.668 183.316 115.668 183.372 115.668C184.334 115.668 185.148 114.955 185.222 114.002L185.824 106.905C186.046 106.887 186.268 106.887 186.472 106.924C188.961 107.331 191.07 111.633 190.117 117.148C188.998 123.579 185.167 129.658 183.233 129.353C182.891 129.297 182.548 129.158 182.188 128.945C181.679 128.631 181.049 128.575 180.494 128.797C179.939 129.02 179.523 129.482 179.384 130.056C178.033 135.543 173.286 149.246 158.519 157.926C145.491 165.198 134.054 158.268 133.536 157.944C118.731 149.237 113.994 135.534 112.633 130.056C112.495 129.491 112.078 129.02 111.523 128.797C110.968 128.575 110.339 128.631 109.83 128.945C109.478 129.168 109.136 129.297 108.794 129.353C106.85 129.676 103.02 123.579 101.909 117.148C100.956 111.633 103.066 107.331 105.546 106.924C105.759 106.887 105.981 106.887 106.203 106.905L106.804 114.002C106.887 114.946 107.702 115.668 108.655 115.668C108.71 115.668 108.757 115.668 108.812 115.668C109.839 115.584 110.598 114.715 110.515 113.715L109.811 105.378L109.487 98.7718C109.441 97.7725 108.581 97.0045 107.535 97.0507C106.508 97.097 105.712 97.9483 105.759 98.9476L105.971 103.278C105.62 103.278 105.268 103.306 104.926 103.361C99.9107 104.185 96.9683 110.514 98.2267 117.768C99.226 123.533 103.519 133.905 109.413 132.943C109.46 132.943 109.515 132.924 109.562 132.915C111.597 139.716 117.177 152.577 131.565 161.035C131.935 161.266 137.82 164.875 146.129 164.875C150.395 164.875 155.299 163.921 160.425 161.062C174.841 152.577 180.439 139.716 182.474 132.915C182.521 132.924 182.576 132.933 182.622 132.943C182.882 132.989 183.131 133.008 183.381 133.008C188.859 133.008 192.847 123.283 193.8 117.768C195.058 110.514 192.116 104.194 187.101 103.361L187.092 103.343Z" fill="#2B5174"/>
<path d="M146.12 165.19C137.663 165.19 131.63 161.451 131.38 161.294C117.131 152.911 111.459 140.262 109.321 133.267C103.289 134.1 98.9026 123.635 97.8941 117.796C97.1261 113.355 97.8571 109.154 99.9112 106.267C101.197 104.454 102.918 103.325 104.871 103.001C105.121 102.964 105.37 102.936 105.62 102.918L105.426 98.9388C105.398 98.3744 105.592 97.8285 105.981 97.4121C106.379 96.9772 106.925 96.7181 107.526 96.6904C108.738 96.6163 109.766 97.5509 109.83 98.7353L110.154 105.342L110.857 113.669C110.904 114.234 110.728 114.78 110.358 115.215C109.978 115.668 109.442 115.936 108.84 115.992C108.785 115.992 108.72 115.992 108.655 115.992C107.517 115.992 106.555 115.122 106.462 114.021L105.889 107.22C105.787 107.22 105.685 107.229 105.602 107.248C104.862 107.368 104.158 107.886 103.548 108.738C102.178 110.662 101.679 113.854 102.243 117.084C103.353 123.478 107.165 129.27 108.738 129.011C109.044 128.964 109.34 128.844 109.655 128.65C110.256 128.28 110.996 128.215 111.653 128.474C112.31 128.733 112.8 129.288 112.967 129.964C114.309 135.405 119.018 149.006 133.712 157.648C134.193 157.945 145.528 164.792 158.362 157.621C173.009 149.006 177.719 135.405 179.061 129.964C179.227 129.288 179.717 128.733 180.374 128.474C181.031 128.215 181.772 128.28 182.373 128.65C182.688 128.844 182.993 128.964 183.298 129.02C184.899 129.288 188.684 123.468 189.794 117.093C190.349 113.873 189.849 110.671 188.489 108.747C187.888 107.896 187.175 107.377 186.435 107.257C186.343 107.239 186.25 107.239 186.148 107.229L185.575 114.03C185.473 115.196 184.418 116.103 183.197 115.992C182.604 115.946 182.068 115.668 181.688 115.224C181.318 114.789 181.142 114.243 181.189 113.679L181.883 105.481C181.346 100.669 179.819 94.8768 177.885 90.4262C177.663 89.8987 177.654 89.3251 177.867 88.7976C178.089 88.2517 178.515 87.8353 179.061 87.604C180.18 87.1414 181.466 87.6595 181.938 88.7514C183.724 92.8782 185.223 98.1523 185.972 102.927C186.37 102.908 186.768 102.955 187.157 103.01C189.118 103.334 190.83 104.463 192.126 106.276C194.171 109.163 194.911 113.364 194.143 117.796C193.301 122.654 189.424 133.313 183.391 133.313C183.16 133.313 182.937 133.295 182.715 133.267C180.578 140.262 174.897 152.92 160.601 161.322C156.012 163.885 151.154 165.18 146.139 165.18L146.12 165.19ZM109.562 132.564C109.71 132.564 109.849 132.656 109.886 132.804C111.931 139.633 117.482 152.347 131.732 160.73C131.991 160.887 137.857 164.523 146.12 164.523C151.015 164.523 155.771 163.256 160.249 160.757C174.527 152.356 180.088 139.642 182.132 132.804C182.179 132.638 182.345 132.536 182.521 132.573L182.66 132.601C182.891 132.638 183.16 132.647 183.363 132.656C188.656 132.656 192.551 122.913 193.449 117.694C194.18 113.494 193.467 109.376 191.552 106.674C190.368 105.009 188.804 103.972 187.027 103.676C186.583 103.602 186.13 103.584 185.676 103.612C185.501 103.63 185.352 103.501 185.325 103.325C184.603 98.5317 183.095 93.1835 181.29 89.0197C180.967 88.2702 180.069 87.9094 179.283 88.2332C178.903 88.3905 178.607 88.6774 178.459 89.0567C178.311 89.4176 178.32 89.8062 178.468 90.1671C180.421 94.6825 181.975 100.549 182.521 105.49L181.827 113.753C181.799 114.132 181.92 114.511 182.17 114.808C182.438 115.122 182.808 115.307 183.224 115.344C183.271 115.344 183.308 115.344 183.354 115.344C184.14 115.344 184.807 114.752 184.871 113.993L185.473 106.896C185.491 106.73 185.621 106.6 185.778 106.591C186.046 106.572 186.287 106.572 186.509 106.609C187.434 106.758 188.295 107.368 189.007 108.377C190.497 110.468 191.025 113.78 190.432 117.223C189.359 123.422 185.501 130.093 183.169 129.705C182.78 129.64 182.392 129.492 182.003 129.251C181.587 128.992 181.068 128.955 180.606 129.131C180.152 129.307 179.81 129.695 179.699 130.158C178.33 135.682 173.555 149.487 158.676 158.241C145.491 165.606 133.832 158.565 133.342 158.259C118.436 149.487 113.661 135.691 112.292 130.158C112.181 129.695 111.838 129.316 111.385 129.131C110.922 128.946 110.404 128.992 109.988 129.251C109.599 129.492 109.22 129.64 108.831 129.705C106.499 130.084 102.632 123.441 101.558 117.223C100.966 113.78 101.493 110.468 102.983 108.368C103.696 107.368 104.556 106.758 105.481 106.6C105.704 106.563 105.944 106.554 106.212 106.582C106.379 106.591 106.509 106.721 106.518 106.887L107.119 113.984C107.184 114.78 107.924 115.409 108.766 115.335C109.183 115.298 109.562 115.113 109.83 114.798C110.08 114.502 110.2 114.132 110.173 113.743L109.469 105.407L109.146 98.7908C109.109 97.9673 108.387 97.3566 107.545 97.3843C107.128 97.4028 106.749 97.5786 106.472 97.884C106.212 98.1708 106.074 98.5409 106.092 98.9296L106.305 103.26C106.305 103.352 106.277 103.445 106.212 103.51C106.148 103.575 106.064 103.612 105.972 103.612C105.639 103.612 105.306 103.639 104.982 103.695C103.205 103.991 101.642 105.018 100.457 106.684C98.5418 109.385 97.8293 113.503 98.5603 117.704C99.5411 123.357 103.714 133.526 109.358 132.601L109.488 132.573C109.488 132.573 109.534 132.573 109.553 132.573L109.562 132.564Z" fill="#2B5174"/>
<path d="M119.472 114.123C117.343 113.253 115.706 111.384 115.178 109.034C114.42 105.647 113.753 101.529 113.726 101.363C113.559 100.317 114.262 99.3365 115.308 99.1699C116.344 99.0034 117.325 99.7066 117.492 100.752C117.492 100.789 118.167 104.925 118.898 108.201C119.231 109.709 120.545 110.801 122.09 110.838C125.958 110.949 131.685 110.958 137.006 110.357C138.033 110.236 138.856 109.478 139.069 108.469C139.486 106.443 140.032 103.51 140.281 101.067C140.383 100.021 141.318 99.2532 142.363 99.355C143.409 99.466 144.177 100.391 144.075 101.446C143.816 104.055 143.242 107.118 142.807 109.237C142.271 111.874 140.106 113.854 137.441 114.15C131.908 114.78 125.986 114.77 121.988 114.65C121.109 114.622 120.258 114.437 119.481 114.113L119.472 114.123Z" fill="#2B5174"/>
<path d="M107.1 101.9C106.24 102.252 105.749 103.196 105.971 104.121C106.221 105.148 107.257 105.777 108.275 105.518L116.085 103.603C117.102 103.353 117.732 102.317 117.482 101.289C117.232 100.262 116.196 99.6332 115.178 99.8923L107.368 101.808C107.276 101.826 107.183 101.863 107.1 101.891V101.9Z" fill="#2B5174"/>
<path d="M154.031 113.365C152.199 112.615 150.802 111.014 150.349 109.006C149.868 106.897 149.229 103.843 148.905 101.243C148.776 100.198 149.525 99.2447 150.561 99.1151C151.607 98.9856 152.56 99.7351 152.69 100.781C152.986 103.214 153.596 106.138 154.059 108.155C154.29 109.164 155.132 109.904 156.169 109.997C161.489 110.478 167.217 110.339 171.084 110.145C172.63 110.061 173.916 108.951 174.221 107.433C174.878 104.149 175.452 99.9941 175.461 99.9571C175.609 98.9116 176.571 98.1806 177.608 98.3286C178.653 98.4767 179.375 99.439 179.236 100.485C179.208 100.66 178.635 104.787 177.959 108.192C177.312 111.421 174.563 113.799 171.288 113.966C167.3 114.17 161.369 114.318 155.826 113.809C155.197 113.753 154.596 113.605 154.031 113.374V113.365Z" fill="#2B5174"/>
<path d="M176.645 100.817C176.081 101.048 175.636 101.548 175.498 102.187C175.276 103.223 175.933 104.231 176.96 104.453L185.398 106.258C186.425 106.48 187.443 105.823 187.656 104.787C187.878 103.75 187.221 102.742 186.194 102.52L177.755 100.715C177.367 100.632 176.978 100.678 176.636 100.817H176.645Z" fill="#2B5174"/>
<path d="M143.474 104.518C142.798 104.241 142.308 103.584 142.289 102.797C142.261 101.743 143.094 100.864 144.14 100.836L148.692 100.716C149.747 100.688 150.617 101.521 150.654 102.575C150.682 103.63 149.849 104.509 148.803 104.537L144.251 104.657C143.973 104.657 143.714 104.611 143.483 104.518H143.474Z" fill="#2B5174"/>
<path d="M184.511 92.2956C143.113 92.2956 118.945 62.4642 117.908 61.1688C117.205 60.2805 117.353 58.9851 118.232 58.2726C119.12 57.5602 120.416 57.7082 121.119 58.5965C121.36 58.9018 145.149 88.1688 184.575 88.1688C185.38 88.1688 186.185 88.1595 187.009 88.1318C187.027 88.1318 187.055 88.1318 187.074 88.1318C188.184 88.1318 189.091 89.0108 189.128 90.1304C189.165 91.2685 188.267 92.2215 187.138 92.2493C186.25 92.277 185.38 92.2863 184.511 92.2863V92.2956Z" fill="#2B5174"/>
<path d="M111.181 190.256C111.181 190.256 107.526 172.306 105.685 173.074L92.2496 180.069L53.7575 198.64C53.7575 198.64 44.1715 203.433 43.3758 212.223L29.7462 289.54C-0.501488 395.8 69.3024 353.144 69.3024 353.144L71.3473 391.266L126.069 391.35L126.152 296.97L111.181 190.266V190.256Z" fill="white"/>
<path d="M111.182 190.256C111.182 190.256 107.527 172.306 105.685 173.074L92.2502 180.069L91.1028 192.449L56.9504 208.623C56.9504 208.623 50.3623 209.826 50.9823 217.997L38.3798 289.531C13.8134 394.366 69.303 353.135 69.303 353.135L76.7238 342.235L79.7218 391.248L126.07 391.331L126.153 296.952L111.182 190.247V190.256Z" fill="#919DDA"/>
<path d="M282.23 341.642C266.047 285.042 253.093 233.846 253.093 233.846C249.493 217.672 243.941 200.526 243.941 200.526C232.237 195.289 202.886 180.059 202.886 180.059L189.849 173.036C188.591 172.36 187.027 173.091 186.749 174.498L166.337 296.886L165.135 391.265H257.46L281.425 355.216C285.95 349.378 284.256 348.739 282.221 341.633L282.23 341.642Z" fill="#919DDA"/>
<path d="M172.028 305.289C171.768 305.289 171.509 305.242 171.26 305.141C170.168 304.715 169.631 303.484 170.057 302.393L199.851 226.25L187.082 215.221C186.49 214.712 186.231 213.916 186.397 213.158C186.564 212.399 187.138 211.788 187.887 211.575L202.886 207.319L195.965 180.384C195.632 179.264 196.261 178.08 197.39 177.747C198.509 177.404 199.694 178.043 200.027 179.172L207.559 208.17C207.725 208.716 207.661 209.299 207.383 209.799C207.115 210.298 206.652 210.669 206.106 210.817L192.819 214.592L203.747 224.03C204.431 224.622 204.663 225.575 204.339 226.408L173.998 303.947C173.675 304.78 172.87 305.298 172.018 305.298L172.028 305.289Z" fill="#2B5174"/>
<path d="M219.264 393.292C219.209 393.292 219.144 393.292 219.089 393.292C217.978 393.19 217.164 392.219 217.266 391.108L224.289 249.141C224.298 249.058 224.317 248.975 224.326 248.891L237.567 215.174C237.631 214.905 237.789 214.665 238.029 214.535C240.065 213.406 241.74 215.035 241.351 216.645L228.277 249.65L221.272 391.469C221.18 392.515 220.301 393.301 219.274 393.301L219.264 393.292Z" fill="#2B5174"/>
<path d="M159.583 99.8089C159.593 101.502 160.981 102.862 162.674 102.853C164.367 102.844 165.727 101.456 165.709 99.7627C165.7 98.0694 164.312 96.7092 162.618 96.7277C160.925 96.737 159.565 98.1249 159.574 99.8182L159.583 99.8089Z" fill="#2B5174"/>
<path d="M126.874 100.058C126.883 101.751 128.271 103.111 129.964 103.102C131.657 103.093 133.018 101.705 132.999 100.012C132.99 98.3184 131.602 96.9582 129.909 96.9767C128.215 96.986 126.855 98.3739 126.864 100.067L126.874 100.058Z" fill="#2B5174"/>
<path d="M144.612 126.707C143.603 126.707 142.789 125.874 142.798 124.865C142.798 123.857 143.631 123.043 144.64 123.052L147.98 123.08C148.988 123.08 149.803 123.912 149.793 124.921C149.793 125.929 148.961 126.744 147.952 126.734L144.612 126.707Z" fill="#2B5174"/>
<path d="M147.943 126.994L144.603 126.966C144.048 126.966 143.529 126.744 143.132 126.346C142.743 125.948 142.53 125.421 142.53 124.866C142.53 124.31 142.752 123.792 143.15 123.394C143.548 123.006 144.075 122.793 144.631 122.793L147.971 122.821C148.526 122.821 149.044 123.043 149.442 123.441C149.831 123.839 150.044 124.366 150.044 124.921C150.044 125.476 149.821 125.994 149.424 126.392C149.229 126.587 148.998 126.735 148.748 126.836C148.498 126.938 148.221 126.994 147.943 126.994ZM143.52 123.765C143.224 124.061 143.058 124.449 143.048 124.875C143.048 125.291 143.206 125.689 143.502 125.994C143.798 126.291 144.186 126.457 144.612 126.466L147.952 126.494C148.369 126.494 148.767 126.337 149.063 126.041C149.359 125.745 149.525 125.356 149.535 124.93C149.535 124.514 149.377 124.116 149.081 123.811C148.785 123.515 148.396 123.348 147.971 123.339L144.631 123.311C144.418 123.311 144.214 123.348 144.02 123.431C143.835 123.505 143.659 123.616 143.511 123.765H143.52Z" fill="#2B5174"/>
<path d="M130.853 86.2439C131.963 86.2532 133.129 86.3642 134.304 86.6233C135.451 86.8824 136.173 88.0205 135.923 89.1678C135.664 90.3152 134.535 91.0369 133.379 90.7871C129.169 89.8526 124.829 91.5458 124.783 91.5643C123.691 91.9992 122.451 91.4718 122.016 90.38C121.581 89.2881 122.099 88.0482 123.191 87.6133C123.367 87.5393 126.726 86.2069 130.853 86.2439Z" fill="#2B5174"/>
<path d="M176.479 138.615C175.128 137.782 173.379 137.94 172.084 138.856L150.645 153.975L130.399 162.025C139.004 140.41 126.171 144.269 126.171 144.269L114.494 169.612L107.026 198.722L104.214 207.966L97.1628 228.165L115.78 246.004L137.154 217.913C150.802 209.326 169.641 188.266 169.641 188.266C173.407 184.056 172.37 175.969 172.37 175.969C176.164 168.113 171.464 163.654 171.464 163.654C172.019 153.411 167.17 156.834 167.17 156.834L174.711 148.405C179.255 142.242 178.209 139.679 176.479 138.615Z" fill="white"/>
<path d="M115.78 248.225C115.215 248.225 114.66 248.003 114.253 247.614L95.636 229.774C95.0068 229.173 94.794 228.266 95.0809 227.452L102.132 207.253C102.539 206.096 103.797 205.495 104.944 205.893C106.101 206.291 106.703 207.558 106.305 208.706L99.7258 227.563L115.521 242.701L135.396 216.58C135.553 216.367 135.757 216.191 135.979 216.043C149.21 207.716 167.809 186.998 167.994 186.786C170.529 183.945 170.436 178.217 170.187 176.246C170.131 175.821 170.205 175.395 170.39 175.007C173.444 168.678 169.983 165.291 169.946 165.254C169.474 164.81 169.224 164.181 169.261 163.533C169.456 160.008 168.928 158.832 168.734 158.518C168.632 158.546 168.503 158.601 168.419 158.657C167.503 159.304 166.254 159.147 165.505 158.305C164.755 157.463 164.774 156.186 165.523 155.344L172.99 146.998C175.84 143.112 175.794 141.437 175.711 141.021C175.674 140.817 175.59 140.66 175.313 140.484C174.758 140.142 173.971 140.216 173.351 140.651L151.912 155.77C151.773 155.872 151.616 155.955 151.459 156.02L131.213 164.07C130.39 164.393 129.455 164.199 128.835 163.579C128.215 162.95 128.021 162.015 128.345 161.201C132.564 150.607 130.927 147.609 130.325 146.952C129.659 146.212 128.502 146.165 127.697 146.239L116.585 170.352L109.173 199.268C108.868 200.452 107.665 201.165 106.48 200.859C105.296 200.554 104.584 199.351 104.889 198.167L112.356 169.057C112.393 168.927 112.43 168.798 112.486 168.678L124.163 143.334C124.431 142.76 124.931 142.325 125.532 142.14C127.392 141.585 131.176 141.326 133.573 143.945C136.043 146.637 136.238 151.31 134.119 158.157L149.58 152.004L170.807 137.033C172.889 135.561 175.563 135.441 177.635 136.709C178.94 137.514 179.773 138.707 180.06 140.169C180.541 142.668 179.375 145.786 176.497 149.7C176.46 149.755 176.414 149.811 176.368 149.866L171.649 155.141C173.555 156.862 173.795 160.146 173.721 162.867C175.109 164.69 177.737 169.399 174.647 176.339C174.822 178.532 175.054 185.536 171.297 189.728C170.529 190.588 152.393 210.788 138.681 219.559L117.547 247.336C117.168 247.836 116.585 248.151 115.955 248.206C115.9 248.206 115.844 248.206 115.78 248.206V248.225Z" fill="#2B5174"/>
<path d="M151.247 170.279C150.553 170.279 149.868 169.955 149.433 169.344C148.73 168.345 148.97 166.966 149.97 166.263L165.894 155.03C166.893 154.327 168.272 154.567 168.975 155.567C169.678 156.566 169.438 157.945 168.438 158.648L152.514 169.881C152.126 170.159 151.681 170.288 151.237 170.288L151.247 170.279Z" fill="#2B5174"/>
<path d="M157.807 178.098C157.196 178.098 156.594 177.848 156.16 177.357C155.345 176.45 155.419 175.053 156.335 174.239L170.002 162.007C170.909 161.192 172.315 161.266 173.12 162.183C173.934 163.089 173.86 164.486 172.944 165.301L159.278 177.533C158.852 177.912 158.325 178.098 157.807 178.098Z" fill="#2B5174"/>
<path d="M161.786 186.694C161.138 186.694 160.5 186.407 160.065 185.871C159.297 184.918 159.454 183.53 160.407 182.762L171.002 174.258C171.955 173.49 173.343 173.648 174.111 174.601C174.879 175.554 174.721 176.942 173.768 177.71L163.174 186.213C162.767 186.537 162.276 186.703 161.786 186.703V186.694Z" fill="#2B5174"/>
<path d="M122.404 168.326C121.599 168.326 120.822 167.882 120.434 167.123C119.878 166.032 120.313 164.699 121.396 164.144L129.4 160.054C130.491 159.499 131.824 159.934 132.379 161.016C132.934 162.108 132.499 163.431 131.417 163.996L123.413 168.086C123.089 168.252 122.747 168.326 122.414 168.326H122.404Z" fill="#2B5174"/>
<path d="M95.8951 214.619L38.2681 296.517L91.6943 317.678L131.241 233.199L95.8951 214.619Z" fill="#919DDA"/>
<path d="M91.6942 319.889C91.3796 319.889 91.065 319.824 90.7597 319.676C89.6493 319.158 89.1774 317.844 89.6956 316.734L128.345 234.161L96.589 217.469L40.0815 297.775C39.3783 298.774 37.9996 299.014 37.0003 298.311C36.001 297.608 35.7604 296.229 36.4637 295.23L94.0907 213.333C94.7292 212.426 95.9413 212.13 96.9314 212.648L132.277 231.218C133.323 231.764 133.749 233.041 133.249 234.115L93.7021 318.594C93.3227 319.399 92.527 319.87 91.6942 319.87V319.889Z" fill="#2B5174"/>
<path d="M95.2199 211.445C95.0441 211.445 94.859 211.427 94.6832 211.381L87.4937 209.586C86.3186 209.289 85.5969 208.105 85.8744 206.93L92.407 179.578C92.6938 178.394 93.8782 177.663 95.0718 177.941C96.2562 178.228 96.9964 179.421 96.7096 180.606L90.686 205.829L95.7473 207.097C96.9317 207.393 97.6534 208.596 97.3573 209.78C97.1075 210.788 96.2007 211.455 95.2106 211.455L95.2199 211.445Z" fill="#2B5174"/>
<path d="M42.8115 364.312C39.7951 364.312 37.926 363.794 37.6577 363.711C11.4164 356.327 23.0566 308.249 23.7783 305.371L41.2756 211.834C41.4884 210.677 42.608 209.909 43.7646 210.131C44.9212 210.344 45.6799 211.463 45.4671 212.62L27.9606 306.222C27.9606 306.222 27.9421 306.315 27.9329 306.352C27.8126 306.824 16.3205 353.283 38.8513 359.621C38.9253 359.639 44.4863 361.175 52.5456 358.066C66.2399 352.792 76.4736 338.487 82.6453 327.421C83.2189 326.394 84.5144 326.024 85.5414 326.597C86.5685 327.171 86.9386 328.466 86.3649 329.493C69.3026 360.084 51.389 364.312 42.8115 364.312Z" fill="#2B5174"/>
<path d="M119.259 300.115C118.473 300.115 117.714 299.699 117.316 298.959L110.127 285.773C109.544 284.7 109.932 283.358 111.006 282.776C112.079 282.193 113.421 282.581 114.004 283.655L121.193 296.84C121.776 297.913 121.387 299.255 120.314 299.838C119.981 300.023 119.611 300.106 119.259 300.106V300.115Z" fill="#2B5174"/>
<path d="M65.7309 244.793C64.9166 244.793 64.1394 244.348 63.7508 243.571L50.9725 218.005C50.4266 216.914 50.8707 215.581 51.9626 215.035C53.0544 214.489 54.3868 214.933 54.9328 216.025L67.711 241.591C68.2569 242.683 67.8128 244.015 66.721 244.561C66.4064 244.719 66.064 244.793 65.7309 244.793Z" fill="#2B5174"/>
<path d="M48.1595 203.173C47.336 203.173 46.5495 202.691 46.1979 201.877C45.7352 200.795 46.2349 199.545 47.3175 199.083L80.8685 184.704C81.9511 184.241 83.2002 184.741 83.6629 185.823C84.1255 186.906 83.6259 188.155 82.5433 188.618L48.9923 202.997C48.7147 203.117 48.4371 203.173 48.1503 203.173H48.1595Z" fill="#2B5174"/>
<path d="M283.674 349.193C282.637 349.193 281.925 348.388 281.573 347.388C274.273 326.791 243.812 203.034 242.896 202.395L208.623 186.989C207.559 186.49 207.106 185.213 207.606 184.149C208.114 183.085 209.382 182.631 210.446 183.131L244.858 198.602C244.932 198.639 244.997 198.676 245.061 198.713C245.515 198.99 279.408 324.321 285.783 346.731C286.107 347.86 285.163 348.98 283.998 349.165C283.886 349.183 283.775 349.193 283.674 349.193Z" fill="#2B5174"/>
<path d="M145.177 138.689C138.311 138.689 133.638 136.987 133.333 136.867C132.112 136.413 131.492 135.053 131.954 133.832C132.408 132.61 133.768 131.99 134.989 132.444C135.091 132.481 145.51 136.219 157.668 131.75C158.89 131.296 160.25 131.926 160.703 133.147C161.157 134.368 160.527 135.729 159.306 136.182C154.134 138.088 149.276 138.689 145.186 138.689H145.177Z" fill="#2B5174"/>
<circle cx="148.456" cy="148.456" r="145.259" stroke="#2B5174" stroke-width="6.39422"/>
</g>
<path d="M237.312 133.286C228.188 137.342 225.482 140.629 222.141 151.707C218.803 140.629 216.096 137.34 206.972 133.286C216.096 129.23 218.803 125.943 222.143 114.864C225.483 125.943 228.19 129.23 237.314 133.286H237.312Z" fill="#2B5174"/>
</svg>
