<svg width="288" height="284" viewBox="0 0 288 284" fill="none" xmlns="http://www.w3.org/2000/svg">
<circle cx="151" cy="147" r="137" fill="#FAEFBF"/>
<mask id="mask0_2104_1844" style="mask-type:alpha" maskUnits="userSpaceOnUse" x="0" y="0" width="274" height="274">
<circle cx="137" cy="137" r="134.05" fill="#D7AC21" stroke="#2B5174" stroke-width="5.90077"/>
</mask>
<g mask="url(#mask0_2104_1844)">
<path d="M231.482 120.899C237.387 119.499 243.567 119.372 249.563 120.361C257.046 121.595 264.279 124.586 270.423 129.034C273.54 131.292 276.39 133.897 278.843 136.862C281.531 140.109 283.681 143.706 285.377 147.563C287.39 152.141 288.815 156.936 290.121 161.755C291.369 166.37 292.466 171.052 294.042 175.573C295.323 179.245 296.983 182.828 299.27 185.985C301.359 188.871 304.126 191.45 307.51 192.713C308.368 193.034 309.256 193.268 310.158 193.431C310.905 193.564 310.977 194.611 310.385 194.975C303.267 199.387 294.205 199.448 286.423 196.887C277.786 194.04 270.445 188.391 263.59 182.579C256.093 176.222 249.076 169.317 242.37 162.134C238.978 158.501 235.663 154.796 232.398 151.048C230.789 149.197 229.187 147.339 227.6 145.474C226.009 143.609 224.371 141.765 222.91 139.792C220.807 136.953 219.194 133.442 219.667 129.918L231.482 120.895V120.899Z" fill="#919DDA"/>
<path d="M192.115 123.539L169.744 91.4815L165.155 84.562C160.865 75.7665 161.132 72.552 164.238 69.1175C166.219 66.9313 170.934 65.0841 173.185 64.1425C175.079 63.3489 176.93 62.4505 178.723 61.4512C197.508 50.9818 209.417 55.329 216.149 57.14C223.844 59.2109 228.614 62.6165 228.657 62.649C239.848 70.1926 242.626 82.2603 242.987 91.0522C243.376 100.566 241.093 108.405 241.067 108.484C241.067 108.484 220.864 155.814 192.111 123.539H192.115Z" fill="#919DDA"/>
<path d="M205.774 116.501L232.222 141.582L194.085 165.948L182.62 141.733L205.774 116.501Z" fill="white"/>
<path d="M159.127 183.427L160.451 151.38C160.451 151.38 149.328 127.013 169.719 116.154L185.863 142.173L173.954 182.896L159.123 183.427H159.127Z" fill="white"/>
<path d="M159.126 185.047C158.697 185.047 158.282 184.877 157.979 184.57C157.661 184.249 157.492 183.813 157.51 183.362L158.819 151.686C158.199 150.215 156.031 144.615 155.821 137.891C155.497 127.486 160.042 119.477 168.961 114.726C169.715 114.325 170.649 114.578 171.1 115.303L187.244 141.322C187.486 141.711 187.551 142.187 187.421 142.631L175.512 183.355C175.317 184.026 174.711 184.495 174.015 184.52L159.184 185.05C159.166 185.05 159.144 185.05 159.126 185.05V185.047ZM169.163 118.334C162.185 122.565 158.787 129.102 159.054 137.79C159.274 144.832 161.893 150.647 161.922 150.709C162.027 150.94 162.077 151.192 162.066 151.448L160.814 181.746L172.727 181.32L184.106 142.415L169.163 118.337V118.334Z" fill="#20110D"/>
<path d="M214.558 112.976L206.567 104.841L203.699 104.646C201.264 103.286 165.263 90.0171 169.073 77.7763C170.299 73.8331 166.392 83.2599 164.992 93.6104C164.931 94.0649 164.87 95.2194 164.545 94.8983C164.293 94.6494 165.241 97.2577 159.61 103.048C158.946 103.73 155.728 107.439 155.613 108.38C155.468 109.553 155.602 110.426 156.698 111.266C157.001 111.497 157.388 111.584 157.759 111.667C158.773 111.89 161.042 112.789 159.538 116.216C159.538 116.216 158.906 117.558 159.65 119.409C159.945 120.148 160.025 120.964 159.823 121.736C159.574 122.692 159.422 124.088 160.046 125.408C160.461 126.285 160.779 127.201 160.901 128.165L161.042 129.265C161.266 131.008 161.233 132.786 160.836 134.5C160.371 136.52 160.815 139.666 167.944 139.908L181.094 140.254C182.627 140.333 186.527 142.967 186.891 144.461L196.184 141.791L210.925 121.083C210.821 120.722 214.775 113.29 214.558 112.984V112.976Z" fill="white"/>
<path d="M205.132 104.744C205.132 104.744 205.175 104.098 206.982 102.262C207.996 101.234 209.338 100.606 210.756 100.339C213.108 99.8951 217.113 99.9384 218.675 104.001C219.151 105.242 219.212 108.034 219.01 109.351C218.444 113.02 215.904 119.813 206.672 123.684L205.132 104.744Z" fill="white"/>
<path d="M205.348 124.24C205.042 123.507 205.384 122.667 206.117 122.36C215.215 118.543 217.174 111.837 217.593 109.131C217.78 107.929 217.686 105.426 217.336 104.517C216.106 101.309 212.856 101.407 211.027 101.75C209.807 101.98 208.765 102.504 208.011 103.268C206.896 104.401 206.593 104.946 206.535 105.076C206.376 105.747 205.752 106.223 205.042 106.176C204.248 106.122 203.649 105.437 203.703 104.647C203.757 103.853 204.497 102.745 205.965 101.252C207.134 100.068 208.7 99.2639 210.496 98.9247C215.038 98.0697 218.596 99.7761 220.021 103.485C220.619 105.043 220.663 108.077 220.435 109.571C219.941 112.757 217.668 120.632 207.231 125.012C207.105 125.066 206.975 125.098 206.845 125.113C206.225 125.189 205.604 124.846 205.352 124.24H205.348Z" fill="#20110D"/>
<path d="M185.101 140.157C185 139.504 184.463 139.002 183.795 138.948L164.061 137.74C163.271 137.678 162.579 138.266 162.514 139.057C162.449 139.847 163.041 140.539 163.831 140.604L182.619 141.737C182.76 142.119 182.948 142.599 183.182 143.213L185.863 142.177C185.524 141.293 185.199 140.456 185.098 140.157H185.101Z" fill="#20110D"/>
<path d="M155.226 105.862C155.27 105.815 155.32 105.776 155.371 105.736C156.543 104.827 159.065 102.276 162.294 98.7372C162.824 98.1563 163.726 98.1167 164.307 98.6434C164.888 99.1737 164.927 100.076 164.401 100.653C162.499 102.738 159.047 106.443 157.236 107.89C157.128 108.031 156.915 108.373 156.962 108.806C157.023 109.394 157.539 110.058 158.459 110.722L160.504 112.331C161.121 112.818 161.229 113.713 160.742 114.33C160.508 114.629 160.169 114.817 159.794 114.863C159.415 114.907 159.043 114.802 158.744 114.568L156.767 113.013C155.132 111.826 154.245 110.48 154.122 109.023C153.971 107.201 155.104 105.992 155.233 105.859L155.226 105.862Z" fill="#20110D"/>
<path d="M160.84 134.261C161.594 134.171 162.153 133.507 162.102 132.742L161.756 127.342C161.752 127.28 161.745 127.215 161.731 127.154L161.056 123.741L161.807 121.313C161.908 120.985 161.89 120.631 161.752 120.318L160.526 117.496C160.208 116.768 159.361 116.436 158.635 116.753C157.907 117.071 157.575 117.915 157.892 118.644L158.906 120.978L158.206 123.243C158.138 123.471 158.123 123.712 158.17 123.947L158.899 127.623L159.242 132.93C159.292 133.724 159.977 134.323 160.768 134.272C160.793 134.272 160.822 134.268 160.847 134.265L160.84 134.261Z" fill="#20110D"/>
<path d="M172.146 124.208C173.431 124.053 174.664 123.735 175.566 123.14C176.23 122.703 176.414 121.812 175.978 121.148C175.541 120.485 174.65 120.304 173.986 120.737C172.457 121.744 168.12 121.47 166.262 121.177C165.479 121.055 164.743 121.592 164.621 122.375C164.498 123.158 165.032 123.894 165.818 124.017C166.295 124.092 169.35 124.54 172.15 124.204L172.146 124.208Z" fill="#20110D"/>
<path d="M206.358 116.552C206.91 116.487 207.393 116.105 207.563 115.538C209.799 108.103 211.704 107.37 212.061 107.298C212.498 107.215 212.859 107.645 212.873 107.663C213.349 108.298 214.244 108.413 214.879 107.937C215.514 107.461 215.633 106.548 215.153 105.913C214.637 105.227 213.299 104.156 211.571 104.466C208.952 104.935 206.74 108.283 204.81 114.708C204.583 115.47 205.012 116.271 205.773 116.498C205.968 116.556 206.167 116.57 206.358 116.548V116.552Z" fill="#20110D"/>
<path d="M175.162 98.9067C174.643 99.9602 173.496 100.343 172.605 99.7617C171.714 99.1809 171.414 97.8533 171.937 96.7962C172.457 95.7428 173.604 95.3604 174.495 95.9412C175.386 96.5221 175.686 97.8497 175.162 98.9067Z" fill="#20110D"/>
<path d="M202.768 124.799C202.556 123.024 203.825 121.415 205.6 121.202C207.375 120.989 208.984 122.259 209.197 124.034C209.41 125.809 208.14 127.418 206.365 127.631C204.59 127.844 202.981 126.574 202.768 124.799Z" fill="white"/>
<path d="M201.423 124.957C201.123 122.442 202.923 120.151 205.442 119.852C207.956 119.552 210.247 121.353 210.546 123.871C210.846 126.385 209.046 128.676 206.528 128.976C204.013 129.275 201.722 127.475 201.423 124.957ZM204.118 124.636C204.24 125.664 205.178 126.403 206.206 126.281C207.235 126.158 207.974 125.22 207.852 124.192C207.729 123.164 206.791 122.424 205.763 122.547C204.735 122.669 203.995 123.607 204.118 124.636Z" fill="#21110D"/>
<path d="M182.969 98.0732C182.912 98.048 182.854 98.0191 182.8 97.983C166.778 88.1449 166.641 70.994 166.645 70.2653C166.645 69.4716 167.29 68.8294 168.084 68.833C168.878 68.833 169.52 69.4788 169.516 70.2725C169.516 70.4348 169.689 86.5575 184.304 95.5334C184.979 95.9483 185.192 96.8322 184.777 97.5104C184.394 98.1309 183.619 98.3618 182.969 98.0732Z" fill="#20110D"/>
<path d="M198.851 95.4897C198.389 95.6412 197.866 95.5763 197.444 95.2732C183.006 84.8687 182.014 72.4295 181.978 71.9063C181.92 71.0405 182.573 70.2937 183.439 70.236C184.301 70.1783 185.048 70.8276 185.109 71.6899C185.12 71.827 186.116 83.2417 199.28 92.7262C199.984 93.2313 200.142 94.2126 199.634 94.9161C199.432 95.1939 199.154 95.3887 198.851 95.4897Z" fill="#20110D"/>
<path d="M165.443 96.1357C165.288 96.1862 165.122 96.2114 164.949 96.2078C164.123 96.1934 163.466 95.508 163.481 94.6818C163.567 90.2263 167.049 80.2691 167.197 79.847C167.471 79.0678 168.326 78.6565 169.105 78.9307C169.884 79.2049 170.296 80.0599 170.022 80.8392C169.055 83.5846 166.537 91.4385 166.475 94.7395C166.461 95.3925 166.031 95.9409 165.443 96.1321V96.1357Z" fill="#20110D"/>
<path d="M243.347 138.933C243.347 138.933 233.812 131.516 212.094 145.82C212.094 145.82 192.613 161.301 186.314 165.648L187.201 169.129C187.201 169.129 167.103 172.081 164.985 168.902L159.48 162.419C159.48 162.419 157.362 161.005 155.948 168.599C155.948 168.599 134.832 258.055 163.658 246.29C163.658 246.29 159.754 264.74 200.012 250.439L206.268 250.172H296.846C296.846 250.172 281.318 172.203 243.347 138.937V138.933Z" fill="white"/>
<path d="M186.314 165.645C185.686 165.645 185.095 165.552 184.543 165.35C183.702 165.039 183.273 164.108 183.579 163.268C183.89 162.427 184.821 161.998 185.661 162.305C186.368 162.564 189.377 162.846 198.299 155.504C203.346 151.352 207.708 146.853 207.751 146.806C208.375 146.164 209.4 146.146 210.042 146.766C210.684 147.387 210.702 148.415 210.081 149.057C209.901 149.245 205.565 153.718 200.377 157.986C196.239 161.392 190.539 165.638 186.31 165.638L186.314 165.645Z" fill="#20110D"/>
<path d="M255.025 152.931C254.549 152.931 254.076 152.722 253.755 152.321C250.126 147.765 246.338 143.738 242.499 140.347C241.699 140.069 238.794 139.186 234.526 139.254C229.869 139.323 222.56 140.564 214.194 146.08C213.447 146.57 212.44 146.365 211.95 145.618C211.455 144.871 211.665 143.865 212.411 143.374C229.912 131.837 243.398 137.205 243.964 137.436C244.126 137.504 244.278 137.598 244.411 137.714C248.47 141.271 252.467 145.506 256.288 150.301C256.847 151.001 256.732 152.022 256.032 152.577C255.732 152.815 255.379 152.931 255.022 152.931H255.025Z" fill="#20110D"/>
<path d="M296.842 251.789C296.085 251.789 295.41 251.255 295.255 250.487C295.143 249.927 283.775 193.983 257.573 157.38C257.053 156.651 257.219 155.641 257.948 155.118C258.677 154.598 259.687 154.764 260.21 155.493C274.132 174.942 283.786 199.564 289.432 216.798C295.54 235.443 298.412 249.715 298.437 249.855C298.61 250.732 298.044 251.587 297.163 251.76C297.055 251.782 296.951 251.793 296.846 251.793L296.842 251.789Z" fill="#20110D"/>
<path d="M177.999 256.125C173.633 256.125 170.047 255.285 167.258 253.6C163.027 251.045 162.201 247.38 162.071 246.612C161.905 245.959 160.884 241.803 160.862 238.155C160.624 236.33 158.322 216.379 163.373 168.722C163.467 167.831 164.268 167.189 165.155 167.283C166.046 167.376 166.688 168.174 166.595 169.065C163.907 194.427 163.369 211.769 163.391 221.856C163.413 232.783 164.08 237.776 164.087 237.827C164.098 237.899 164.102 237.975 164.102 238.047C164.102 241.532 165.213 245.829 165.227 245.872C165.245 245.944 165.26 246.016 165.271 246.092C165.285 246.19 165.711 248.931 169.037 250.887C173.305 253.394 182.551 254.779 202.372 247.153C203.205 246.832 204.143 247.247 204.464 248.084C204.785 248.917 204.371 249.855 203.534 250.176C193.237 254.137 184.702 256.122 177.995 256.122L177.999 256.125Z" fill="#20110D"/>
<path d="M157.777 249.083C157.64 249.083 157.503 249.065 157.362 249.029C145.096 245.8 145.929 223.349 147.625 206.743C147.715 205.852 148.516 205.206 149.4 205.296C150.291 205.387 150.937 206.184 150.847 207.071C148.415 230.911 150.883 243.971 158.185 245.894C159.05 246.121 159.566 247.008 159.339 247.874C159.148 248.603 158.491 249.083 157.773 249.083H157.777Z" fill="#20110D"/>
<path d="M150.341 201.872C150.273 201.872 150.201 201.869 150.132 201.858C149.244 201.743 148.617 200.931 148.732 200.043C150.821 183.903 154.122 169.31 154.353 168.289C155.334 162.137 156.366 159.89 158.293 159.71C159.368 159.612 160.169 160.29 160.659 161.127L163.56 162.217C164.397 162.531 164.822 163.465 164.505 164.302C164.191 165.139 163.257 165.565 162.42 165.247L158.909 163.927C158.819 163.894 158.733 163.851 158.653 163.804C158.361 164.674 157.968 166.203 157.549 168.844C157.542 168.88 157.535 168.916 157.528 168.956C157.495 169.104 154.086 183.964 151.95 200.455C151.846 201.27 151.149 201.865 150.345 201.865L150.341 201.872Z" fill="#20110D"/>
<path d="M198.85 226.361C198.039 226.361 197.339 225.755 197.245 224.929L190.888 170.37C190.784 169.483 191.422 168.678 192.31 168.574C193.193 168.469 194.002 169.108 194.106 169.995L200.463 224.554C200.568 225.441 199.929 226.246 199.042 226.351C198.977 226.358 198.915 226.361 198.85 226.361Z" fill="#20110D"/>
<path d="M244.581 199.225C244.015 199.225 243.445 199.038 242.972 198.655C229.508 187.746 218.53 182.789 213.187 180.804C211.863 180.314 211.189 178.842 211.679 177.518C212.17 176.194 213.642 175.519 214.966 176.01C220.605 178.102 232.16 183.312 246.194 194.683C247.291 195.571 247.46 197.183 246.569 198.28C246.064 198.904 245.324 199.225 244.581 199.225Z" fill="#919DDA"/>
<path d="M236.936 208.742C236.392 208.742 235.84 208.569 235.374 208.208C220.969 197.075 209.807 192.868 205.676 191.577C204.33 191.155 203.576 189.723 203.998 188.373C204.42 187.024 205.853 186.274 207.202 186.696C211.596 188.07 223.44 192.526 238.499 204.16C239.617 205.023 239.823 206.628 238.957 207.746C238.452 208.399 237.698 208.739 236.933 208.739L236.936 208.742Z" fill="#919DDA"/>
<path d="M231.247 218.053C230.717 218.053 230.183 217.887 229.725 217.548C212.545 204.787 200.373 202.017 200.254 201.992C198.875 201.688 197.999 200.328 198.298 198.954C198.598 197.576 199.95 196.699 201.329 196.995C201.863 197.11 214.608 199.95 232.773 213.446C233.906 214.286 234.144 215.888 233.3 217.021C232.798 217.696 232.026 218.053 231.247 218.053Z" fill="#919DDA"/>
<path d="M256.065 197.493C254.921 197.493 253.879 196.721 253.586 195.563C253.24 194.196 254.07 192.803 255.441 192.46C261.191 191.01 267.003 188.658 269.954 187.384C271.253 186.825 272.754 187.424 273.313 188.719C273.872 190.014 273.274 191.519 271.978 192.078C268.883 193.413 262.786 195.88 256.689 197.417C256.48 197.471 256.267 197.497 256.061 197.497L256.065 197.493Z" fill="#919DDA"/>
<path d="M248.651 211.945C247.496 211.945 246.447 211.155 246.165 209.983C245.837 208.608 246.685 207.23 248.059 206.902C260.996 203.81 275.708 198.554 275.856 198.503C277.184 198.027 278.649 198.716 279.125 200.047C279.601 201.375 278.908 202.84 277.581 203.316C277.429 203.37 262.457 208.72 249.246 211.877C249.048 211.924 248.846 211.949 248.651 211.949V211.945Z" fill="#919DDA"/>
<path d="M238.961 225.594C237.695 225.594 236.598 224.656 236.428 223.368C236.244 221.968 237.233 220.684 238.633 220.504C257.497 218.043 279.883 210.229 280.106 210.15C281.438 209.681 282.899 210.381 283.364 211.715C283.833 213.047 283.133 214.508 281.798 214.973C280.864 215.301 258.695 223.04 239.289 225.572C239.177 225.587 239.065 225.594 238.954 225.594H238.961Z" fill="#919DDA"/>
<path d="M186.964 160.077L191.874 152.097L207.221 139.82C207.221 139.82 218.303 129.163 217.69 122.41C217.69 122.41 211.517 116.493 207.221 116.493C207.221 116.493 205.208 109.303 198.014 115.266C198.014 115.266 193.039 110.865 190.034 117.106C190.034 117.106 182.667 114.649 182.053 122.63L180.214 133.067C180.214 133.067 164.867 143.504 170.39 158.851L168.658 169.273L186.469 168.508L186.964 160.081V160.077Z" fill="white"/>
<path d="M169.145 167.514C169.051 167.514 168.957 167.507 168.86 167.489C167.98 167.333 167.392 166.493 167.547 165.609L168.719 158.982C166.464 152.322 167.558 145.518 171.898 139.277C174.484 135.553 177.493 133.075 178.731 132.141L180.444 122.425C180.682 119.55 181.732 117.472 183.572 116.252C185.502 114.972 187.789 115.04 189.204 115.26C190.268 113.579 191.614 112.565 193.219 112.244C195.153 111.855 196.892 112.598 197.974 113.247C200.438 111.476 202.693 110.895 204.684 111.519C206.694 112.147 207.812 113.835 208.353 114.968C210.254 115.278 212.484 116.339 215.006 118.132C217.156 119.662 218.743 121.177 218.812 121.242C219.093 121.512 219.27 121.877 219.302 122.266C219.595 125.484 217.802 129.648 213.97 134.637C211.232 138.201 208.461 140.878 208.342 140.99C208.306 141.023 208.27 141.055 208.231 141.088L193.104 153.191L188.583 160.537L188.612 165.407C188.616 166.302 187.898 167.03 187.003 167.038H186.992C186.101 167.038 185.376 166.32 185.372 165.429L185.34 160.093C185.34 159.79 185.423 159.49 185.582 159.234L190.492 151.254C190.589 151.095 190.715 150.955 190.86 150.839L206.149 138.609C208.995 135.853 215.951 128.067 216.092 123.143C213.761 121.036 209.688 118.118 207.22 118.118C206.495 118.118 205.857 117.634 205.658 116.934C205.658 116.923 205.063 115.029 203.699 114.614C202.574 114.268 200.961 114.928 199.042 116.519C198.425 117.028 197.534 117.014 196.935 116.483C196.498 116.108 195.084 115.17 193.843 115.43C192.956 115.614 192.162 116.418 191.487 117.814C191.134 118.55 190.286 118.908 189.514 118.648C189.496 118.641 186.999 117.854 185.343 118.965C184.369 119.618 183.803 120.895 183.659 122.761C183.655 122.815 183.648 122.865 183.637 122.919L181.793 133.356C181.718 133.786 181.472 134.168 181.108 134.413C181.072 134.439 177.421 136.96 174.488 141.214C170.678 146.744 169.805 152.495 171.898 158.307C171.995 158.574 172.017 158.859 171.97 159.137L170.722 166.183C170.581 166.969 169.899 167.521 169.127 167.521L169.145 167.514Z" fill="#20110D"/>
<path d="M205.997 132.843C205.954 132.843 205.907 132.843 205.86 132.836C204.969 132.76 204.305 131.978 204.381 131.086L205.607 116.353C205.683 115.462 206.463 114.801 207.357 114.874C208.248 114.949 208.912 115.732 208.836 116.623L207.61 131.357C207.538 132.205 206.83 132.843 205.997 132.843Z" fill="#20110D"/>
<path d="M198.014 132.844C197.119 132.844 196.394 132.118 196.394 131.224V115.263C196.394 114.369 197.119 113.644 198.014 113.644C198.908 113.644 199.633 114.369 199.633 115.263V131.224C199.633 132.118 198.908 132.844 198.014 132.844Z" fill="#20110D"/>
<path d="M189.42 134.07C189.398 134.07 189.377 134.07 189.355 134.07C188.46 134.034 187.764 133.28 187.8 132.386L188.413 117.039C188.449 116.144 189.189 115.448 190.098 115.484C190.993 115.52 191.689 116.274 191.653 117.169L191.04 132.516C191.004 133.389 190.286 134.07 189.42 134.07Z" fill="#20110D"/>
<path d="M207.083 128.086C206.712 128.086 206.34 127.959 206.033 127.7C205.351 127.119 205.268 126.098 205.849 125.416L208.58 122.202C209.161 121.52 210.182 121.437 210.864 122.018C211.546 122.598 211.629 123.619 211.048 124.301L208.317 127.516C207.996 127.891 207.541 128.086 207.083 128.086Z" fill="#20110D"/>
<path d="M174.56 171.277C170.743 171.277 166.951 171.082 164.578 170.465C163.712 170.241 163.192 169.354 163.419 168.488C163.643 167.622 164.531 167.102 165.396 167.33C171.064 168.805 186.913 167.525 187.071 167.51C187.962 167.438 188.745 168.102 188.818 168.993C188.89 169.884 188.226 170.667 187.335 170.739C186.92 170.771 180.711 171.277 174.56 171.277Z" fill="#20110D"/>
<path d="M211.632 243.224C211.218 243.224 210.803 243.066 210.485 242.748C209.854 242.117 209.854 241.089 210.485 240.457C244.3 206.643 256.342 188.471 256.458 188.29C256.948 187.54 257.951 187.334 258.702 187.825C259.449 188.316 259.658 189.319 259.167 190.069C259.048 190.249 246.825 208.703 212.776 242.752C212.459 243.069 212.044 243.228 211.629 243.228L211.632 243.224Z" fill="#20110D"/>
<path d="M199.774 192.05C199.428 192.05 199.081 191.942 198.786 191.714C198.075 191.17 197.945 190.152 198.49 189.442C199.312 188.37 200.12 187.266 200.893 186.159C203.584 182.295 205.954 178.193 207.946 173.968C217.582 153.506 224.808 148.697 225.111 148.502C225.861 148.018 226.868 148.235 227.351 148.989C227.835 149.739 227.618 150.735 226.875 151.222C226.76 151.301 219.988 156.013 210.879 175.35C208.811 179.737 206.347 183.998 203.555 188.013C202.754 189.164 201.917 190.307 201.062 191.419C200.745 191.833 200.261 192.05 199.778 192.05H199.774Z" fill="#20110D"/>
<path d="M44.6406 57.8041C44.6406 57.8041 53.4505 39.7116 74.9198 39.322C81.0781 39.2101 87.1245 40.7939 92.5144 43.6548C96.0788 45.5452 98.6583 48.3916 103.597 48.9941C103.597 48.9941 124.312 52.9662 111.386 74.0819L95.4005 98.1379L70.8575 119.207L62.1125 128.818C62.1125 128.818 58.5734 129.683 56.1851 121.451C53.9881 113.885 52.7434 112.381 51.2174 109.672C41.4983 92.4197 17.013 81.3658 44.6406 57.8041Z" fill="#FF783F"/>
<path d="M62.7 98.498L39.6218 131.653L84.8043 155.561L96.7457 130.336L62.7 98.498Z" fill="white"/>
<path d="M121.221 173.769L119.843 140.387C119.843 140.387 131.43 115.007 110.188 103.697L93.3695 130.798L105.773 173.217L121.221 173.769Z" fill="white"/>
<path d="M121.22 175.389C121.202 175.389 121.181 175.389 121.163 175.389L105.715 174.837C105.018 174.812 104.412 174.343 104.217 173.672L91.8143 131.253C91.6844 130.812 91.7493 130.336 91.9911 129.943L108.81 102.842C109.261 102.117 110.195 101.864 110.949 102.265C120.217 107.2 124.936 115.523 124.601 126.332C124.384 133.349 122.112 139.186 121.477 140.69L122.84 173.7C122.858 174.151 122.689 174.588 122.371 174.909C122.068 175.216 121.653 175.385 121.224 175.385L121.22 175.389ZM106.995 171.637L119.528 172.084L118.222 140.452C118.212 140.196 118.262 139.943 118.367 139.713C118.396 139.651 121.155 133.497 121.361 126.137C121.617 117.085 118.046 110.274 110.74 105.869L95.1225 131.033L106.995 171.637Z" fill="#20110D"/>
<path d="M124.878 95.5945C124.759 94.6132 121.408 90.7494 120.715 90.0387C114.849 84.0067 115.834 81.2865 115.574 81.5498L112.811 65.8745C107.886 65.5534 93.5819 61.769 94.8807 60.1455L82.3621 77.3721C79.8728 80.7994 80.2191 84.187 80.2516 88.4225L80.7242 93.1918C80.652 94.2164 79.6094 94.8802 78.6534 94.5122L71.8024 91.9039L63.4759 100.378C63.2522 100.699 67.3722 108.441 67.2603 108.817L82.6146 130.387L92.294 133.168C92.6728 131.614 96.735 128.868 98.3296 128.789L112.028 128.432C119.456 128.179 119.918 124.903 119.431 122.796C119.02 121.011 118.987 119.16 119.218 117.345L119.344 116.36C119.474 115.35 119.738 114.351 120.199 113.442C120.917 112.031 120.751 110.523 120.488 109.498C120.286 108.719 120.333 107.889 120.643 107.146C121.458 105.184 120.787 103.755 120.787 103.755C119.222 100.183 121.585 99.2491 122.642 99.0146C123.028 98.928 123.432 98.8378 123.746 98.5961C124.889 97.723 125.026 96.8139 124.878 95.5909V95.5945Z" fill="white"/>
<path d="M73.2963 91.8033C73.2963 91.8033 73.253 91.1322 71.3662 89.2202C70.3091 88.1487 68.913 87.4957 67.4338 87.2143C64.9806 86.7525 60.8101 86.7994 59.1867 91.0312C58.6888 92.3264 58.6275 95.2341 58.8367 96.6051C59.4284 100.426 62.0728 107.504 71.6909 111.537L73.2927 91.8069L73.2963 91.8033Z" fill="white"/>
<path d="M71.5141 113.023C71.3806 113.009 71.2435 112.973 71.1137 112.918C60.2401 108.358 57.8735 100.151 57.3612 96.8354C57.1195 95.2841 57.17 92.1202 57.7905 90.4967C59.2733 86.6329 62.982 84.8543 67.7116 85.7454C69.584 86.099 71.2183 86.9359 72.4341 88.1698C73.9637 89.7211 74.7358 90.8791 74.7899 91.7053C74.844 92.5314 74.2199 93.2421 73.3973 93.2999C72.6577 93.3504 72.0084 92.8525 71.8424 92.1562C71.7775 92.0228 71.4672 91.4563 70.3019 90.273C69.5155 89.4757 68.4295 88.9274 67.1596 88.6893C65.2548 88.3321 61.8672 88.2275 60.5865 91.5718C60.2221 92.5206 60.1247 95.1254 60.3195 96.3772C60.756 99.1948 62.7944 106.183 72.2717 110.159C73.0329 110.48 73.3937 111.356 73.0726 112.117C72.8093 112.749 72.1635 113.102 71.5141 113.027V113.023Z" fill="#20110D"/>
<path d="M94.1592 128.692C94.2638 128.014 94.823 127.487 95.5193 127.433L116.076 126.174C116.898 126.109 117.623 126.722 117.688 127.545C117.753 128.367 117.14 129.092 116.317 129.157L96.7459 130.337C96.598 130.737 96.4031 131.235 96.1578 131.874L93.3655 130.795C93.719 129.875 94.0582 129.002 94.1628 128.692H94.1592Z" fill="#20110D"/>
<path d="M125.279 92.9719C125.232 92.925 125.182 92.8817 125.131 92.8384C123.908 91.8932 121.282 89.2344 117.919 85.5473C117.367 84.9448 116.429 84.9015 115.823 85.4499C115.221 86.0019 115.174 86.9399 115.726 87.546C117.707 89.7178 121.303 93.578 123.187 95.086C123.299 95.2339 123.519 95.5875 123.475 96.042C123.414 96.6553 122.873 97.3444 121.917 98.0371L119.785 99.7146C119.142 100.22 119.031 101.154 119.536 101.796C119.781 102.107 120.131 102.305 120.524 102.352C120.917 102.399 121.307 102.291 121.617 102.045L123.677 100.425C125.377 99.1879 126.304 97.7882 126.434 96.2657C126.592 94.3681 125.413 93.109 125.276 92.9719H125.279Z" fill="#20110D"/>
<path d="M119.435 122.554C118.652 122.461 118.068 121.768 118.118 120.971L118.479 115.346C118.482 115.281 118.493 115.216 118.504 115.151L119.208 111.594L118.428 109.065C118.324 108.723 118.342 108.355 118.486 108.026L119.763 105.086C120.091 104.328 120.975 103.982 121.733 104.31C122.491 104.639 122.837 105.523 122.509 106.28L121.452 108.712L122.18 111.071C122.252 111.309 122.267 111.562 122.22 111.804L121.462 115.635L121.109 121.162C121.055 121.988 120.344 122.612 119.518 122.558C119.489 122.558 119.464 122.554 119.435 122.551V122.554Z" fill="#20110D"/>
<path d="M107.655 112.078C106.317 111.919 105.033 111.587 104.091 110.967C103.402 110.512 103.211 109.585 103.665 108.892C104.12 108.203 105.047 108.012 105.74 108.467C107.334 109.516 111.851 109.228 113.788 108.925C114.604 108.798 115.372 109.354 115.498 110.173C115.625 110.988 115.069 111.757 114.25 111.883C113.752 111.962 110.57 112.428 107.655 112.078Z" fill="#20110D"/>
<path d="M72.0194 104.105C71.4458 104.036 70.9407 103.636 70.7639 103.048C68.437 95.3056 66.4491 94.5408 66.0775 94.465C65.623 94.3784 65.2478 94.8258 65.2297 94.8474C64.7319 95.5076 63.8011 95.6303 63.1409 95.1324C62.4807 94.6346 62.358 93.6858 62.8523 93.0255C63.3898 92.3148 64.7824 91.1965 66.5862 91.5175C69.3136 92.0046 71.6189 95.4932 73.6284 102.189C73.8665 102.979 73.4192 103.816 72.6255 104.054C72.4234 104.116 72.2142 104.13 72.0194 104.108V104.105Z" fill="#20110D"/>
<path d="M104.513 85.7284C105.058 86.8252 106.249 87.2256 107.176 86.6195C108.103 86.0134 108.417 84.6317 107.872 83.5314C107.327 82.4346 106.137 82.0342 105.21 82.6403C104.282 83.2463 103.968 84.6281 104.513 85.7284Z" fill="#20110D"/>
<path d="M114.636 82.8379C114.799 82.892 114.972 82.9173 115.152 82.9137C116.014 82.8956 116.696 82.1849 116.682 81.3227C116.592 76.6796 112.966 66.3075 112.811 65.8674C112.526 65.0557 111.635 64.6264 110.823 64.9114C110.011 65.1964 109.582 66.0875 109.867 66.8992C110.873 69.7601 113.496 77.9423 113.561 81.3804C113.576 82.0622 114.023 82.6323 114.636 82.8307V82.8379Z" fill="#20110D"/>
<path d="M124.528 158.318C123.056 150.409 120.848 151.881 120.848 151.881L115.116 158.631C112.908 161.943 91.9726 158.87 91.9726 158.87L91.4567 150.088L88.4082 144.587C81.3697 144.085 66.0406 134.59 66.0406 134.59C43.4169 119.694 44.1745 115.935 44.1745 115.935C-8.60213 158.664 -22.2391 250.169 -22.2391 250.169H72.1124L78.6278 250.447C114.546 262.211 116.498 246.125 116.498 246.125C151.243 251.15 133.648 212.447 124.528 158.318Z" fill="white"/>
<path d="M124.529 158.318C123.057 150.41 120.849 151.882 120.849 151.882L109.903 152.618L110.524 159.667C108.316 162.979 91.9731 158.87 91.9731 158.87L91.4572 150.089L88.4087 144.587C81.3702 144.085 66.0412 134.59 66.0412 134.59C43.4174 119.694 48.3996 120.6 48.3996 120.6C-1.98153 162.86 -14.9836 250.169 -14.9836 250.169H72.1129L78.6283 250.447C114.546 262.212 116.498 246.125 116.498 246.125C151.244 251.15 133.649 212.447 124.529 158.318Z" fill="#919DDA"/>
<path d="M81.3736 144.702C81.1535 144.702 80.9298 144.655 80.7134 144.561C66.4703 138.205 48.9081 124.03 43.9548 118.348C38.5649 123.489 26.0066 137.039 22.5938 141.325C22.0346 142.025 21.0172 142.141 20.3173 141.581C19.6174 141.022 19.502 140.005 20.0612 139.305C23.8492 134.55 38.7309 118.557 43.1142 114.719C43.5147 114.369 44.0594 114.235 44.5753 114.365C45.0912 114.495 45.5097 114.867 45.6973 115.364C46.8229 117.691 66.1564 134.514 82.0374 141.603C82.8527 141.967 83.2207 142.927 82.8563 143.742C82.5858 144.345 81.9941 144.702 81.3772 144.702H81.3736Z" fill="#20110D"/>
<path d="M-22.235 251.789C-22.3288 251.789 -22.4262 251.782 -22.52 251.764C-23.4003 251.608 -23.9883 250.764 -23.8296 249.884C-23.8007 249.718 -20.8136 233.137 -14.4569 212.021C-8.57635 192.497 1.47464 164.97 15.9847 144.706C16.5042 143.977 17.518 143.811 18.2467 144.331C18.9755 144.85 19.1414 145.864 18.6219 146.593C-8.68818 184.737 -20.525 249.801 -20.644 250.45C-20.7847 251.233 -21.4666 251.785 -22.2386 251.785L-22.235 251.789Z" fill="#20110D"/>
<path d="M101.559 256.31C94.5849 256.31 85.6992 254.246 74.9808 250.123C74.1474 249.802 73.7289 248.864 74.05 248.03C74.3711 247.193 75.3091 246.778 76.1425 247.099C96.8217 255.054 106.476 253.6 110.931 250.981C114.427 248.925 114.871 246.042 114.885 245.923C114.892 245.847 114.907 245.793 114.925 245.721C114.936 245.678 116.097 241.19 116.097 237.553C116.097 237.499 116.097 237.442 116.105 237.388C116.134 237.113 118.868 209.46 113.5 158.812C113.406 157.921 114.052 157.124 114.939 157.03C115.83 156.933 116.628 157.582 116.722 158.47C119.546 185.12 120.106 205.221 120.08 217.394C120.051 229.995 119.424 236.778 119.337 237.636C119.323 241.439 118.251 245.786 118.082 246.461C117.952 247.244 117.1 251.046 112.71 253.698C109.813 255.444 106.09 256.317 101.555 256.317L101.559 256.31Z" fill="#20110D"/>
<path d="M121.65 249.259C121.452 249.259 121.253 249.259 121.051 249.252C120.156 249.234 119.446 248.495 119.464 247.6C119.482 246.716 120.203 246.012 121.084 246.012C121.094 246.012 121.105 246.012 121.116 246.012C126.185 246.121 129.792 244.822 132.141 242.055C137.765 235.435 135.186 221.451 133.303 211.245C132.78 208.417 132.289 205.747 132.04 203.586C131.939 202.699 132.574 201.894 133.465 201.79C134.356 201.685 135.157 202.323 135.262 203.215C135.5 205.264 135.983 207.883 136.492 210.657C138.494 221.505 141.236 236.362 134.612 244.154C131.733 247.546 127.372 249.263 121.65 249.263V249.259Z" fill="#20110D"/>
<path d="M131.997 197.078C131.196 197.078 130.5 196.482 130.391 195.667C128.169 178.505 123.014 158.93 122.963 158.735C122.949 158.681 122.938 158.627 122.931 158.573C122.48 155.737 122.061 154.128 121.751 153.23C121.65 153.299 121.538 153.356 121.423 153.4L117.764 154.774C116.927 155.088 115.993 154.666 115.679 153.829C115.365 152.992 115.787 152.058 116.624 151.744L119.666 150.6C120.164 149.738 120.979 149.031 122.079 149.135C124.02 149.316 125.117 151.718 126.116 157.989C126.484 159.388 131.427 178.448 133.606 195.252C133.721 196.14 133.093 196.951 132.206 197.067C132.134 197.078 132.065 197.081 131.997 197.081V197.078Z" fill="#20110D"/>
<path d="M79.8403 218.426C79.779 218.426 79.7141 218.426 79.6527 218.415C78.7653 218.31 78.1267 217.506 78.2313 216.618L84.8514 159.786C84.956 158.899 85.7641 158.264 86.648 158.365C87.5355 158.47 88.1741 159.274 88.0694 160.162L81.4494 216.993C81.3519 217.82 80.6521 218.426 79.8403 218.426Z" fill="#20110D"/>
<path d="M79.2851 179.25C78.6502 179.25 78.0477 178.875 77.788 178.254L75.0281 171.634C75.0101 171.587 74.992 171.54 74.9776 171.49C72.2285 162.636 67.1634 150.313 58.6276 141.882C53.5588 136.874 49.6084 135.604 49.5687 135.593C48.7173 135.33 48.2375 134.424 48.4973 133.573C48.757 132.722 49.6517 132.238 50.5067 132.494C51.2174 132.707 67.9751 138.072 78.0513 170.462L80.7823 177.013C81.1251 177.839 80.7354 178.788 79.9093 179.131C79.7072 179.217 79.4944 179.257 79.2851 179.257V179.25Z" fill="#20110D"/>
<path d="M91.4606 150.089L86.3449 141.776L70.3593 128.987C70.3593 128.987 58.8147 117.886 59.4533 110.851C59.4533 110.851 65.8822 104.69 70.3593 104.69C70.3593 104.69 72.4553 97.2 79.9521 103.409C79.9521 103.409 85.1327 98.8235 88.2642 105.328C88.2642 105.328 95.9377 102.77 96.5762 111.082L98.4955 121.952C98.4955 121.952 114.481 132.822 108.727 148.811L110.531 159.667L91.9801 158.87L91.4642 150.089H91.4606Z" fill="white"/>
<path d="M110.022 157.758C109.257 157.758 108.579 157.21 108.438 156.431L107.139 149.093C107.089 148.815 107.114 148.53 107.212 148.267C109.401 142.184 108.489 136.17 104.502 130.387C101.439 125.946 97.626 123.309 97.5863 123.284C97.2291 123.038 96.9838 122.659 96.908 122.234L94.9888 111.364C94.9779 111.313 94.9743 111.259 94.9707 111.209C94.8192 109.239 94.2167 107.89 93.1813 107.197C91.4244 106.021 88.7908 106.851 88.7655 106.861C88.0007 107.11 87.1637 106.757 86.8138 106.032C86.0994 104.552 85.2553 103.701 84.3064 103.503C82.9824 103.228 81.478 104.221 81.0126 104.625C80.4174 105.141 79.5299 105.155 78.9274 104.654C76.9071 102.98 75.2043 102.29 74.0029 102.655C72.5454 103.102 71.9141 105.115 71.9105 105.133C71.7084 105.819 71.0771 106.299 70.3628 106.299C67.4875 106.299 63.0356 109.78 61.0405 111.577C61.1596 116.732 68.4471 124.9 71.4234 127.779L87.3513 140.521C87.4956 140.636 87.6183 140.777 87.7157 140.936L92.8314 149.248C92.9901 149.504 93.0731 149.8 93.0695 150.099L93.037 155.655C93.0334 156.543 92.3119 157.253 91.428 157.253H91.4172C90.5297 157.25 89.8117 156.525 89.8154 155.634L89.8442 150.536L85.1182 142.855L69.349 130.239C69.3093 130.21 69.2733 130.178 69.2372 130.142C69.1145 130.026 66.232 127.241 63.3855 123.532C59.4063 118.352 57.5447 114.033 57.8478 110.7C57.8838 110.314 58.057 109.953 58.3384 109.683C58.9914 109.055 64.4678 103.921 69.23 103.164C69.7819 101.998 70.9364 100.227 73.0252 99.5739C75.0888 98.9281 77.4266 99.5414 79.9881 101.396C81.0992 100.718 82.9139 99.9275 84.927 100.332C86.5901 100.667 87.9863 101.724 89.0866 103.485C90.5441 103.25 92.936 103.16 94.9491 104.498C96.8431 105.757 97.9254 107.9 98.1707 110.873L99.9637 121.029C101.234 121.985 104.38 124.568 107.089 128.464C111.598 134.951 112.731 142.022 110.383 148.941L111.609 155.864C111.764 156.741 111.18 157.574 110.303 157.73C110.21 157.748 110.116 157.755 110.022 157.755V157.758Z" fill="#20110D"/>
<path d="M71.6329 121.646C70.8032 121.646 70.0997 121.011 70.0311 120.17L68.7504 104.823C68.6783 103.935 69.3349 103.16 70.2223 103.084C71.1098 103.008 71.8855 103.668 71.9612 104.556L73.242 119.903C73.3141 120.791 72.6575 121.566 71.77 121.642C71.7231 121.646 71.6798 121.649 71.6329 121.649V121.646Z" fill="#20110D"/>
<path d="M79.9486 121.646C79.0611 121.646 78.3396 120.924 78.3396 120.037V103.409C78.3396 102.521 79.0611 101.8 79.9486 101.8C80.8361 101.8 81.5576 102.521 81.5576 103.409V120.037C81.5576 120.924 80.8361 121.646 79.9486 121.646Z" fill="#20110D"/>
<path d="M88.8997 122.923C88.0411 122.923 87.3267 122.245 87.2907 121.379L86.6521 105.393C86.616 104.506 87.3087 103.755 88.1962 103.719C89.0837 103.683 89.8341 104.376 89.8701 105.263L90.5087 121.249C90.5448 122.136 89.8521 122.887 88.9646 122.923C88.943 122.923 88.9213 122.923 88.8997 122.923Z" fill="#20110D"/>
<path d="M70.5037 116.686C70.0492 116.686 69.5946 116.495 69.2771 116.119L66.4307 112.772C65.8535 112.093 65.9364 111.08 66.6147 110.502C67.2929 109.925 68.3067 110.008 68.8839 110.686L71.7304 114.034C72.3076 114.712 72.2246 115.726 71.5464 116.303C71.2433 116.56 70.8717 116.686 70.5037 116.686Z" fill="#20110D"/>
<path d="M111.483 67.5019C95.0502 67.5019 88.3003 57.2561 88.0008 56.7835C87.521 56.0331 87.7411 55.0374 88.4915 54.5612C89.2383 54.085 90.234 54.3014 90.7102 55.0482C91.0096 55.5064 97.976 65.882 115.52 64.0674C116.404 63.9772 117.194 64.6194 117.288 65.5032C117.378 66.3871 116.736 67.1772 115.852 67.271C114.326 67.4297 112.869 67.5019 111.483 67.5019Z" fill="#20110D"/>
<path d="M97.1575 78.0035C96.7138 78.0035 96.2736 77.8195 95.9525 77.4624C95.3609 76.7986 95.4222 75.7812 96.086 75.1896C99.4989 72.1555 103.33 72.4982 103.493 72.5163C104.376 72.6065 105.022 73.3929 104.936 74.2768C104.849 75.1571 104.059 75.8029 103.186 75.7199C103.056 75.7091 100.542 75.5395 98.229 77.5959C97.9223 77.8701 97.5399 78.0035 97.1611 78.0035H97.1575Z" fill="#20110D"/>
<path d="M50.2072 117.046C49.8862 117.046 49.5615 116.948 49.2765 116.75C48.5513 116.234 48.3818 115.231 48.8977 114.506L52.6136 109.271C53.1295 108.546 54.1324 108.376 54.8575 108.892C55.5827 109.408 55.7522 110.411 55.2363 111.136L51.5204 116.371C51.2066 116.815 50.7087 117.049 50.2072 117.049V117.046Z" fill="#20110D"/>
<path d="M105.148 161.045C98.7448 161.045 92.2763 160.522 91.8433 160.486C90.9522 160.414 90.2884 159.631 90.3606 158.74C90.4327 157.849 91.2192 157.182 92.1067 157.257C92.2727 157.272 108.792 158.607 114.709 157.066C115.575 156.839 116.459 157.358 116.686 158.224C116.909 159.09 116.394 159.974 115.528 160.201C113.06 160.843 109.117 161.045 105.148 161.045Z" fill="#20110D"/>
<path d="M67.7007 246.269C67.2498 246.269 66.8024 246.081 66.4849 245.717C29.2141 203.327 18.2864 184.772 17.8391 184.004C17.3881 183.232 17.6515 182.24 18.4271 181.789C19.1992 181.338 20.1913 181.601 20.6422 182.373C20.6675 182.42 23.4382 187.146 30.7473 197.013C37.4901 206.119 49.5866 221.585 68.9201 243.577C69.5118 244.248 69.4468 245.273 68.7722 245.865C68.4655 246.135 68.0831 246.269 67.7043 246.269H67.7007Z" fill="#20110D"/>
</g>
<circle cx="137" cy="137" r="134.05" stroke="#2B5174" stroke-width="5.90077"/>
</svg>
