<svg width="336" height="333" viewBox="0 0 336 333" fill="none" xmlns="http://www.w3.org/2000/svg">
<path d="M326.723 174.254C326.723 261.621 255.898 332.446 168.531 332.446C81.1642 332.446 10.3394 261.621 10.3394 174.254C10.3394 86.8873 81.1642 16.0625 168.531 16.0625C255.898 16.0625 326.723 86.8873 326.723 174.254Z" fill="#FAEFBF"/>
<path d="M313.333 158.745C313.333 244.428 243.874 313.887 158.192 313.887C72.5096 313.887 3.0505 244.428 3.0505 158.745C3.0505 73.0633 72.5096 3.60421 158.192 3.60421C243.874 3.60421 313.333 73.0633 313.333 158.745Z" stroke="#2B5174" stroke-width="6.101"/>
<path d="M137.199 157.299C142.358 140.773 142.677 124.411 142.003 113.42C142.071 92.6082 135.832 59.4775 96.0749 55.9053C90.7804 55.4309 85.4739 57.205 81.1521 60.2988C80.2631 60.9327 79.4458 61.6145 78.7879 62.3241C76.9101 64.3455 74.5061 65.8046 71.9026 66.7137C71.2727 66.9329 70.6069 67.1881 69.9172 67.4831C67.5968 68.4758 64.9855 69.939 62.5096 72.06C43.2053 87.6446 43.293 121.437 44.0585 133.968C44.1901 136.161 44.4731 138.333 44.8319 140.498C45.4818 144.421 46.2074 154.612 39.5534 166.859C36.0649 175.483 43.01 177.959 50.8282 178.282C52.694 178.357 54.6077 178.31 56.4416 178.198C62.2026 177.947 67.3377 176.771 67.3377 176.771C78.1779 175.778 97.3387 176.627 109.224 177.329C117.747 180.69 127.543 181.355 134.273 181.32C137.706 181.3 139.882 177.751 138.483 174.614C135.632 168.207 135.828 161.7 137.199 157.303V157.299Z" fill="#FF783F"/>
<path d="M30.2042 163.47C30.2042 163.47 49.0221 155.864 64.7104 160.333H123.524V277.965H76.4716C76.4716 277.965 56.8244 313.252 34.0834 285.807C34.0834 285.807 22.3222 267.77 12.9531 206.6C12.9531 206.6 3.54415 173.665 30.2042 163.47Z" fill="#2B5174"/>
<path d="M148.574 163.47C148.574 163.47 129.756 155.864 114.067 160.333H55.2534V277.965H102.306C102.306 277.965 121.953 313.252 144.694 285.807C144.694 285.807 156.456 267.77 165.825 206.6C165.825 206.6 175.234 173.665 148.574 163.47Z" fill="#2B5174"/>
<path d="M333.296 254.761C333.296 254.761 330.944 205.356 320.75 180.263C308.203 157.522 268.993 145.757 268.993 145.757L258.798 141.838L180.377 152.032C165.279 156.609 157.441 165.986 151.931 173.007C148.251 177.696 145.604 183.269 145.169 189.214C141.521 239.077 148.267 265.259 152.597 277.857C154.53 283.475 158.266 288.45 163.524 291.217C186.652 303.385 201.551 261.822 201.551 261.822H213.312V283.782H319.179C319.179 283.782 334.078 282.215 333.296 254.765V254.761Z" fill="white"/>
<path d="M333.3 255.866C333.3 255.866 331.028 207.872 321.18 183.492C309.06 161.401 268.996 145.757 268.996 145.757L251.917 140.777L185.584 156.071C171 160.516 161.571 169.626 156.248 176.448C152.696 181.001 150.136 186.419 149.718 192.192C146.193 240.632 154.566 266.064 158.748 278.304C160.614 283.762 164.218 288.61 169.305 291.281C187.936 301.077 199.813 262.727 199.813 262.727H211.175V284.057H319.673C319.673 284.057 334.066 282.534 333.308 255.87L333.3 255.866Z" fill="#919DDA"/>
<path d="M333.273 261.351C333.249 261.351 333.221 261.351 333.193 261.351C332.176 261.307 331.387 260.45 331.431 259.433C331.491 257.962 331.499 256.411 331.455 254.816C331.435 254.362 329.007 205.607 319.083 181.06C306.959 159.276 263.136 145.477 262.694 145.342C261.721 145.039 261.178 144.01 261.481 143.037C261.781 142.064 262.813 141.522 263.786 141.825C263.902 141.861 275.312 145.425 288.106 151.748C305.448 160.316 316.974 169.614 322.361 179.381C322.397 179.445 322.428 179.509 322.456 179.577C332.651 204.674 335.039 252.652 335.139 254.681C335.186 256.395 335.178 258.034 335.115 259.593C335.075 260.581 334.257 261.359 333.277 261.359L333.273 261.351Z" fill="#2B5174"/>
<path d="M171.964 295.291C168.871 295.291 165.765 294.474 162.663 292.843C157.261 290.001 153.067 284.89 150.85 278.451C146.907 266.985 137.67 240.129 141.405 189.078C141.481 188.065 142.362 187.3 143.379 187.375C144.395 187.451 145.157 188.332 145.081 189.349C141.401 239.647 150.467 266.004 154.335 277.259C156.244 282.804 159.809 287.182 164.377 289.586C168.799 291.914 173.037 292.233 177.323 290.567C191.042 285.232 199.725 261.439 199.813 261.2C200.076 260.47 200.769 259.98 201.547 259.98H213.308C214.325 259.98 215.15 260.805 215.15 261.822V281.939H319.055C319.849 281.816 326.399 280.484 329.664 270.314C329.975 269.345 331.012 268.811 331.981 269.122C332.949 269.433 333.484 270.469 333.173 271.438C328.994 284.451 319.761 285.567 319.37 285.611C319.306 285.619 319.243 285.623 319.179 285.623H213.312C212.295 285.623 211.47 284.798 211.47 283.781V263.664H202.819C200.773 268.866 192.202 288.729 178.666 293.996C176.45 294.861 174.209 295.291 171.964 295.291Z" fill="#2B5174"/>
<path d="M146.221 180.75C145.942 180.75 145.659 180.686 145.392 180.55C144.483 180.092 144.12 178.983 144.583 178.074C145.659 175.949 146.999 173.86 148.562 171.871C154.259 164.615 164.31 154.979 179.846 150.27C180.819 149.975 181.848 150.525 182.143 151.498C182.438 152.471 181.888 153.499 180.915 153.794C166.295 158.224 156.83 167.306 151.46 174.147C150.045 175.949 148.837 177.831 147.868 179.741C147.545 180.383 146.895 180.75 146.221 180.75Z" fill="#2B5174"/>
<path d="M223.51 166.931C223.51 166.931 252.527 172.421 250.956 133.996H205.47C205.47 133.996 200.765 163.798 223.506 166.931H223.51Z" fill="white"/>
<path d="M227.186 169.053C225.025 169.053 223.538 168.809 223.215 168.75C217.06 167.892 212.212 165.13 208.807 160.541C201.152 150.227 203.548 134.375 203.652 133.705C203.792 132.808 204.565 132.15 205.47 132.15H250.952C251.941 132.15 252.754 132.932 252.794 133.917C253.352 147.607 250.19 157.523 243.397 163.387C237.871 168.16 231.309 169.049 227.182 169.049L227.186 169.053ZM223.849 165.122C224.009 165.15 233.797 166.848 241.025 160.577C246.622 155.721 249.361 147.404 249.17 135.838H207.117C206.746 139.905 206.327 151.028 211.777 158.356C214.58 162.124 218.611 164.396 223.766 165.106C223.794 165.106 223.825 165.114 223.853 165.122H223.849Z" fill="#2B5174"/>
<path d="M128.628 115.193C128.392 114.978 128.863 115.401 128.628 115.193C104.659 107.782 82.9703 78.351 75.192 78.8174C69.6502 78.7257 73.5773 78.2353 75.0245 78.3988C74.9886 78.331 74.9567 78.2633 74.9089 78.1995C74.3468 77.422 73.2623 77.2466 72.4809 77.8088C64.3956 83.6614 58.7861 93.3814 55.8119 106.693C55.784 106.817 55.772 106.945 55.772 107.068L55.7641 111.219C55.4371 111.203 55.1102 111.215 54.7833 111.25C50.0788 111.809 47.0408 117.729 47.8661 124.73C48.6954 131.727 53.0291 136.77 57.7455 136.22C57.7894 136.216 57.8372 136.208 57.8811 136.2C59.4559 142.798 64.0527 155.361 77.0498 164.12C77.3807 164.359 82.6992 168.083 90.4297 168.462C94.4046 168.657 99.0174 167.967 103.921 165.468C117.748 158.008 123.56 145.952 125.777 139.537C125.825 139.549 125.869 139.561 125.917 139.569C130.533 140.578 135.353 135.985 136.868 129.104C138.38 122.218 133.256 116.214 128.624 115.193H128.628Z" fill="white"/>
<path d="M75.0203 78.3955C75.092 78.5311 75.1518 78.6706 75.1877 78.8141C75.71 78.5749 75.5067 78.4473 75.0203 78.3955Z" fill="white"/>
<path d="M110.671 117.514C110.595 119.089 109.255 120.305 107.681 120.225C106.106 120.145 104.89 118.806 104.966 117.235C105.041 115.664 106.385 114.448 107.96 114.524C109.534 114.6 110.746 115.939 110.671 117.514Z" fill="#2B5174"/>
<path d="M80.6779 116.038C80.6022 117.613 79.2626 118.829 77.6878 118.749C76.113 118.67 74.897 117.33 74.9767 115.759C75.0565 114.189 76.3921 112.973 77.9669 113.048C79.5417 113.124 80.7537 114.464 80.6779 116.038Z" fill="#2B5174"/>
<path d="M102.326 146.08C102.039 145.163 101.067 144.653 100.15 144.94C91.3466 147.687 82.8506 144.127 82.7669 144.091C81.8858 143.712 80.8652 144.119 80.4864 144.996C80.1037 145.877 80.5104 146.898 81.3914 147.28C81.6506 147.392 85.8049 149.15 91.4941 149.429C94.4245 149.573 97.7654 149.326 101.186 148.257C102.103 147.97 102.613 146.997 102.326 146.08Z" fill="#2B5174"/>
<path d="M91.8647 139.186H88.6911C87.7303 139.186 86.9529 138.409 86.9529 137.448C86.9529 136.487 87.7303 135.71 88.6911 135.71H91.8647C92.8255 135.71 93.6029 136.487 93.6029 137.448C93.6029 138.409 92.8255 139.186 91.8647 139.186Z" fill="#2B5174"/>
<path d="M131.255 115.006C130.82 114.911 130.382 114.867 129.939 114.871L126.61 117.004C126.638 117.554 126.929 118.052 127.384 118.359C127.842 118.662 128.416 118.734 128.931 118.547C129.493 118.343 130.027 118.295 130.506 118.399C132.806 118.905 134.568 123.116 133.42 128.35C132.268 133.585 128.903 136.671 126.61 136.168C126.291 136.097 125.98 135.953 125.658 135.726C125.199 135.403 124.613 135.323 124.087 135.507C123.556 135.694 123.15 136.121 122.994 136.659C121.475 141.85 116.412 154.743 102.255 162.382C89.7839 168.749 79.4539 161.593 78.9795 161.258C65.6036 152.247 61.8281 138.919 60.8274 133.605C60.7237 133.055 60.3609 132.588 59.8506 132.353C59.3443 132.118 58.7502 132.142 58.2638 132.417C57.925 132.608 57.602 132.724 57.2791 132.76C54.9388 133.031 51.8968 129.634 51.2629 124.312C50.633 118.989 52.7979 114.97 55.1342 114.691C55.6285 114.635 56.1548 114.735 56.693 114.99C57.2312 115.245 57.8612 115.21 58.3675 114.891C58.8698 114.572 59.1768 114.018 59.1768 113.423L59.1888 107.252L55.7561 106.678C55.7282 106.801 55.7162 106.929 55.7162 107.052L55.7083 111.203C55.3813 111.187 55.0544 111.199 54.7275 111.235C50.023 111.793 46.985 117.713 47.8103 124.714C48.6396 131.711 52.9733 136.755 57.6897 136.204C57.7376 136.2 57.7814 136.192 57.8253 136.184C59.4001 142.783 63.9969 155.345 76.994 164.104C77.325 164.344 82.6434 168.067 90.3739 168.446C94.3488 168.641 98.9616 167.952 103.865 165.452C117.692 157.992 123.505 145.936 125.721 139.521C125.769 139.533 125.813 139.545 125.861 139.553C130.478 140.562 135.302 135.969 136.813 129.088C138.324 122.203 135.88 116.015 131.247 114.994L131.255 115.006Z" fill="#2B5174"/>
<path d="M127.208 126.628C127.16 126.628 127.113 126.62 127.065 126.616C126.112 126.492 125.446 125.619 125.57 124.666L126.622 116.684C126.746 115.736 127.619 115.062 128.572 115.189C129.525 115.313 130.19 116.186 130.067 117.139L129.014 125.121C128.895 126.022 128.101 126.671 127.208 126.628Z" fill="#2B5174"/>
<path d="M57.6259 123.212C56.7329 123.168 56.0073 122.446 55.9754 121.533L55.7083 113.488C55.6764 112.531 56.4299 111.726 57.3867 111.694C58.3555 111.67 59.1489 112.416 59.1808 113.372L59.4479 121.418C59.4798 122.375 58.7263 123.18 57.7695 123.212C57.7216 123.212 57.6738 123.212 57.6259 123.212Z" fill="#2B5174"/>
<path d="M129.465 136.024C129.465 138.185 127.715 139.936 125.554 139.936C123.393 139.936 121.643 138.185 121.643 136.024C121.643 133.864 123.393 132.109 125.554 132.109C127.715 132.109 129.465 133.86 129.465 136.024Z" fill="white"/>
<path d="M125.554 141.674C122.44 141.674 119.904 139.138 119.904 136.024C119.904 132.911 122.44 130.375 125.554 130.375C128.667 130.375 131.203 132.911 131.203 136.024C131.203 139.138 128.667 141.674 125.554 141.674ZM125.554 133.848C124.354 133.848 123.377 134.824 123.377 136.024C123.377 137.224 124.354 138.201 125.554 138.201C126.754 138.201 127.73 137.224 127.73 136.024C127.73 134.824 126.754 133.848 125.554 133.848Z" fill="#2B5174"/>
<path d="M90.1303 139.078L93.2998 139.234C94.2567 139.282 95.074 138.544 95.1218 137.583C95.1697 136.622 94.4321 135.809 93.4713 135.761L90.3017 135.606C89.3449 135.558 88.5276 136.295 88.4797 137.256C88.4319 138.217 89.1695 139.03 90.1303 139.078Z" fill="#2B5174"/>
<path d="M83.1697 102.009C82.9424 101.942 77.5522 100.331 71.867 101.914C70.942 102.173 70.4038 103.13 70.6589 104.055C70.9181 104.98 71.8749 105.518 72.7999 105.263C77.4605 103.963 82.0813 105.31 82.153 105.334C82.3284 105.386 82.5078 105.41 82.6793 105.41C83.4129 105.402 84.0906 104.92 84.3179 104.182C84.597 103.265 84.0827 102.292 83.1657 102.013L83.1697 102.009Z" fill="#2B5174"/>
<path d="M87.2 70.8838C87.2 70.8838 70.9337 78.8176 66.6 94.5457C66.6 94.5457 63.0796 103.915 63.1314 121.756C63.1314 121.756 59.1844 148.647 51.1948 152.538L48.0053 143.086C48.0053 143.086 31.2685 73.6507 87.2 70.8838Z" fill="#FF783F"/>
<path d="M43.1612 155.11C41.5625 154.947 39.904 154.52 38.1896 153.83C37.2049 153.436 36.7384 152.371 37.149 151.454C37.5597 150.537 38.692 150.115 39.6767 150.513C43.3366 151.984 46.4424 151.913 49.1853 150.294C58.8375 144.597 61.6363 121.039 61.8994 112.447C61.9991 84.0725 75.949 78.2238 76.5431 77.9886C77.5238 77.6019 78.6601 78.0324 79.0907 78.9534C79.5173 79.8664 79.0787 80.9229 78.1099 81.3136C77.8986 81.4053 65.8543 86.8314 65.7666 112.559C65.7228 113.942 64.6065 145.498 51.2864 153.36C48.8066 154.827 46.0876 155.409 43.1652 155.114L43.1612 155.11Z" fill="#2B5174"/>
<path d="M266.353 67.3395C263.016 65.382 260.576 62.328 259.484 58.7439C257.602 52.5563 253.197 45.2125 242.919 45.352C239.135 45.4039 235.38 44.1361 232.051 41.6841C227.458 38.3033 220.385 34.5756 212.738 36.0308C206.507 37.2149 200.941 41.6562 196.193 49.2233C194.287 52.2652 191.468 54.769 188.048 56.4674C181.804 59.5652 171.741 66.7375 174.488 79.9659C174.995 82.4098 174.441 85.081 172.969 87.2897C171.243 89.8772 169.975 93.8281 173.739 97.9665L174.317 98.3054C177.638 100.091 180.186 103.026 181.481 106.566L189.232 127.728L262.518 121.593L264.344 95.6382C264.631 91.5357 266.333 87.6166 269.14 84.6065L271.114 82.4855L271.146 82.3859C272.613 77.6615 272.972 71.2147 266.357 67.3355L266.353 67.3395Z" fill="#919DDA"/>
<path d="M261.573 98.6403C260.712 98.5965 259.879 98.8277 259.097 99.2663C257.949 94.1232 260.026 96.8861 257.786 92.9312L254.975 87.6925C234 86.4685 199.984 71.4022 199.984 71.4022L198.637 71.0713C192.999 76.7844 188.255 86.0977 187.43 101.232L188.47 107.519C187.609 107.272 186.744 107.244 185.919 107.483C182.354 108.524 180.82 114.034 182.494 119.783C184.168 125.536 188.833 132.891 192.401 131.855C192.963 131.691 193.47 131.404 193.928 131.033C195.822 136.192 201.978 149.349 217.335 156.346C217.335 156.346 229.957 162.55 242.273 153.432C255.605 143.082 258.563 128.861 259.217 123.407C259.747 123.662 260.305 123.821 260.891 123.853C264.603 124.041 267.442 115.804 267.749 109.819C268.052 103.835 265.289 98.8277 261.577 98.6403H261.573Z" fill="white"/>
<path d="M241.73 102.774C241.914 104.341 240.793 105.765 239.223 105.948C237.656 106.131 236.232 105.007 236.049 103.44C235.866 101.873 236.99 100.45 238.561 100.267C240.132 100.083 241.551 101.208 241.73 102.774Z" fill="#2B5174"/>
<path d="M211.853 106.267C212.037 107.833 210.912 109.257 209.345 109.44C207.779 109.624 206.355 108.499 206.172 106.932C205.989 105.366 207.113 103.942 208.68 103.759C210.247 103.575 211.67 104.7 211.853 106.267Z" fill="#2B5174"/>
<path d="M212.04 92.3365C211.809 92.2926 206.268 91.2481 200.77 93.4169C199.877 93.7678 199.438 94.7804 199.789 95.6735C200.144 96.5665 201.152 97.0051 202.045 96.6542C206.555 94.8721 211.299 95.7412 211.375 95.7532C211.554 95.7891 211.733 95.7931 211.909 95.7731C212.642 95.6894 213.264 95.1392 213.416 94.3777C213.599 93.4329 212.985 92.5199 212.04 92.3365Z" fill="#2B5174"/>
<path d="M211.929 95.9254C211.738 95.9494 211.542 95.9414 211.351 95.9015C211.303 95.8935 206.579 95.0284 202.109 96.7946C201.141 97.1813 200.036 96.6989 199.654 95.7301C199.271 94.7573 199.749 93.6569 200.718 93.2742C206.124 91.1452 211.479 92.0742 212.073 92.1858C213.097 92.3851 213.767 93.3818 213.568 94.4065C213.408 95.2198 212.75 95.8298 211.929 95.9254ZM206.084 95.5148C209.039 95.1679 211.375 95.5985 211.407 95.6065C211.566 95.6384 211.73 95.6424 211.893 95.6264C212.583 95.5467 213.133 95.0364 213.265 94.3546C213.432 93.4975 212.87 92.6602 212.009 92.4928C211.774 92.4489 206.236 91.4283 200.826 93.5652C200.012 93.8882 199.61 94.8091 199.933 95.6224C200.256 96.4358 201.177 96.8424 201.994 96.5155C203.377 95.9693 204.789 95.6703 206.08 95.5188L206.084 95.5148Z" fill="#2B5174"/>
<path d="M238.609 135.909C238.174 135.052 237.13 134.709 236.272 135.143C228.028 139.31 219.045 137.193 218.958 137.169C218.025 136.942 217.084 137.508 216.852 138.441C216.621 139.373 217.191 140.318 218.124 140.55C218.399 140.617 222.793 141.67 228.462 141.008C231.381 140.665 234.638 139.872 237.843 138.249C238.7 137.815 239.043 136.77 238.609 135.913V135.909Z" fill="#2B5174"/>
<path d="M228.478 141.16C222.749 141.829 218.272 140.745 218.085 140.697C217.072 140.446 216.45 139.417 216.701 138.405C216.952 137.392 217.981 136.774 218.99 137.021C219.356 137.109 228.092 139.106 236.201 135.008C237.138 134.537 238.274 134.912 238.745 135.841C238.972 136.292 239.012 136.806 238.856 137.284C238.697 137.763 238.362 138.153 237.911 138.385C235.061 139.828 231.883 140.761 228.478 141.16ZM218.36 137.28C217.722 137.356 217.164 137.815 217 138.476C216.789 139.326 217.311 140.187 218.16 140.398C218.344 140.442 222.769 141.514 228.442 140.853C231.815 140.458 234.953 139.537 237.772 138.11C238.15 137.918 238.43 137.591 238.561 137.189C238.693 136.786 238.661 136.355 238.469 135.977C238.075 135.195 237.114 134.884 236.336 135.275C228.12 139.425 219.289 137.4 218.914 137.312C218.727 137.264 218.535 137.256 218.352 137.276L218.36 137.28Z" fill="#2B5174"/>
<path d="M261.657 96.9022C261.214 96.8822 260.776 96.9062 260.337 96.9859L257.399 99.6451C257.519 100.183 257.885 100.63 258.388 100.857C258.89 101.08 259.468 101.056 259.95 100.785C260.473 100.494 260.987 100.359 261.485 100.383C263.842 100.502 266.278 104.374 266.007 109.736C265.688 115.987 262.801 122.199 260.979 122.119C260.652 122.103 260.321 122.011 259.966 121.84C259.46 121.597 258.87 121.617 258.376 121.884C257.885 122.155 257.554 122.645 257.487 123.203C256.841 128.582 253.962 142.157 241.236 152.036C229.961 160.385 218.579 155.018 218.057 154.763C203.353 148.065 197.429 135.519 195.563 130.436C195.368 129.909 194.933 129.507 194.391 129.359C193.849 129.208 193.27 129.331 192.832 129.682C192.529 129.929 192.226 130.093 191.915 130.184L192.892 133.525C192.936 133.513 192.979 133.497 193.023 133.485C195.667 139.745 202.281 151.402 216.566 157.909C216.932 158.088 222.801 160.891 230.504 159.994C234.463 159.532 238.908 158.088 243.337 154.811C255.772 145.159 259.524 132.289 260.656 125.588C260.704 125.588 260.752 125.596 260.8 125.596C261.043 125.607 261.278 125.599 261.513 125.572C266.601 124.978 269.208 115.274 269.483 109.911C269.838 102.863 266.405 97.1494 261.661 96.9062L261.657 96.9022Z" fill="#2B5174"/>
<path d="M269.324 109.903C269.2 112.311 268.566 116.086 267.155 119.467C266.098 122.003 264.256 125.092 261.489 125.415C261.266 125.443 261.035 125.447 260.804 125.435L260.664 125.427C260.576 125.423 260.513 125.479 260.501 125.555C259.36 132.317 255.601 145.086 243.242 154.683C239.342 157.569 235.049 159.304 230.48 159.838C222.781 160.739 216.877 157.888 216.625 157.769C202.42 151.298 195.826 139.74 193.159 133.425C193.131 133.361 193.067 133.325 192.999 133.333C192.991 133.333 192.979 133.333 192.971 133.337L192.84 133.377L191.799 130.359C191.851 130.351 191.903 130.343 191.951 130.327C192.286 130.227 192.601 130.056 192.92 129.797C193.318 129.474 193.849 129.366 194.343 129.502C194.833 129.637 195.232 130.004 195.411 130.487C197.281 135.59 203.23 148.18 217.985 154.898C218.471 155.133 229.997 160.543 241.328 152.151C254.106 142.232 256.988 128.609 257.638 123.215C257.698 122.708 258.001 122.258 258.451 122.011C258.902 121.767 259.444 121.751 259.903 121.971C260.277 122.15 260.628 122.246 260.975 122.266C262.905 122.338 265.835 116.17 266.162 109.739C266.437 104.289 263.925 100.35 261.493 100.226C260.967 100.203 260.425 100.342 259.879 100.649C259.444 100.892 258.91 100.916 258.455 100.713C258.025 100.521 257.702 100.143 257.574 99.6922L260.413 97.1247C260.816 97.0529 261.234 97.029 261.657 97.0529C266.313 97.2921 269.686 102.934 269.336 109.899L269.324 109.903Z" fill="#2B5174"/>
<path d="M259.576 109.054C259.528 109.058 259.48 109.062 259.432 109.066C258.471 109.098 257.666 108.349 257.634 107.388L257.359 99.3264C257.327 98.3656 258.077 97.5562 259.037 97.5283C259.998 97.4964 260.804 98.246 260.835 99.2068L261.111 107.268C261.142 108.181 260.465 108.951 259.576 109.054Z" fill="#2B5174"/>
<path d="M259.592 109.205C259.54 109.209 259.488 109.217 259.436 109.217C258.396 109.253 257.515 108.432 257.479 107.391L257.204 99.3298C257.188 98.8234 257.367 98.337 257.714 97.9663C258.061 97.5995 258.527 97.3882 259.03 97.3722C260.074 97.3363 260.951 98.1576 260.987 99.1982L261.262 107.26C261.294 108.236 260.561 109.09 259.592 109.205ZM258.906 97.6912C258.535 97.735 258.196 97.9065 257.941 98.1816C257.65 98.4925 257.499 98.8992 257.515 99.3218L257.79 107.383C257.822 108.256 258.555 108.946 259.432 108.914C260.297 108.878 260.991 108.137 260.963 107.276L260.688 99.2141C260.66 98.341 259.923 97.6513 259.046 97.6832C259.002 97.6832 258.954 97.6872 258.91 97.6952L258.906 97.6912Z" fill="#2B5174"/>
<path d="M213.236 119.26L204.585 120.272C200.12 120.795 195.89 118.219 194.299 114.013L192.505 109.265C192.166 108.368 192.616 107.367 193.513 107.032C194.406 106.693 195.411 107.148 195.746 108.041L197.54 112.789C198.565 115.504 201.296 117.167 204.182 116.828L212.834 115.815C215.688 115.48 217.965 113.164 218.252 110.305L218.738 105.405C218.834 104.453 219.679 103.755 220.636 103.851C221.589 103.946 222.282 104.795 222.191 105.748L221.704 110.648C221.262 115.117 217.702 118.737 213.24 119.26H213.236Z" fill="#2B5174"/>
<path d="M246.351 115.389L237.7 116.402C233.239 116.924 228.941 114.217 227.478 109.971L225.875 105.315C225.564 104.409 226.042 103.421 226.947 103.11C227.856 102.795 228.841 103.277 229.152 104.182L230.755 108.839C231.692 111.558 234.443 113.288 237.297 112.953L245.949 111.941C248.831 111.606 251.108 109.357 251.478 106.479L252.128 101.447C252.252 100.498 253.121 99.8286 254.07 99.9522C255.019 100.076 255.689 100.945 255.565 101.894L254.915 106.925C254.337 111.386 250.817 114.863 246.347 115.385L246.351 115.389Z" fill="#2B5174"/>
<path d="M227.716 106.474L220.664 107.299C219.711 107.411 218.854 106.729 218.742 105.78C218.63 104.828 219.312 103.97 220.261 103.859L227.314 103.033C228.267 102.922 229.124 103.604 229.235 104.552C229.347 105.505 228.665 106.362 227.716 106.474Z" fill="#2B5174"/>
<path d="M258.017 87.4926C219.129 92.0376 193.151 66.7291 192.042 65.6288C191.281 64.8713 191.277 63.6433 192.035 62.8778C192.792 62.1163 194.024 62.1124 194.785 62.8659C195.045 63.121 220.592 87.9471 257.638 83.6174C258.396 83.5297 259.149 83.43 259.915 83.3144C259.935 83.3144 259.954 83.3104 259.974 83.3064C261.015 83.1868 261.968 83.9124 262.123 84.953C262.279 86.0175 261.545 87.0062 260.485 87.1617C259.655 87.2853 258.834 87.393 258.017 87.4886V87.4926Z" fill="#2B5174"/>
<path d="M225.329 130.368L228.494 129.997C229.451 129.885 230.137 129.016 230.025 128.059C229.913 127.103 229.044 126.417 228.087 126.529L224.922 126.899C223.965 127.011 223.279 127.88 223.391 128.837C223.503 129.794 224.368 130.479 225.329 130.368Z" fill="#2B5174"/>
<path d="M201.551 263.664C201.359 263.664 201.16 263.632 200.969 263.569C200.004 263.246 199.481 262.205 199.804 261.24C204.258 247.884 213.005 225.562 217.821 213.442C218.196 212.497 219.268 212.035 220.213 212.409C221.158 212.784 221.62 213.857 221.246 214.802C216.442 226.886 207.722 249.136 203.301 262.404C203.042 263.178 202.324 263.664 201.555 263.664H201.551Z" fill="#2B5174"/>
<path d="M237.014 176.619C236.878 176.619 236.787 176.619 236.751 176.615C235.734 176.564 234.953 175.698 235.005 174.682C235.056 173.669 235.926 172.892 236.926 172.932C237.536 172.951 251.279 173.147 257.809 149.194C258.077 148.213 259.089 147.635 260.07 147.902C261.051 148.169 261.629 149.182 261.362 150.163C254.413 175.639 239.286 176.619 237.014 176.619Z" fill="#2B5174"/>
<path d="M213.312 263.663C212.315 263.663 211.498 262.87 211.47 261.869L211.207 251.934C211.195 251.416 211.398 250.917 211.773 250.559C212.148 250.2 212.65 250.012 213.172 250.048C224.654 250.814 293.998 244.367 294.699 244.303C295.708 244.208 296.609 244.953 296.705 245.966C296.8 246.978 296.055 247.875 295.042 247.971C292.343 248.222 232.421 253.796 215.56 253.796C215.349 253.796 215.142 253.796 214.946 253.796L215.158 261.778C215.186 262.794 214.38 263.639 213.364 263.667C213.348 263.667 213.332 263.667 213.316 263.667L213.312 263.663Z" fill="#2B5174"/>
<path d="M287.033 241.704C286.945 241.704 286.857 241.696 286.77 241.684C285.761 241.541 285.063 240.608 285.207 239.599C285.757 235.76 282.691 210.599 280.498 194.628C279.458 187.683 281.746 180.789 287.121 174.725C291.099 170.236 295.345 167.784 295.525 167.681C296.41 167.174 297.534 167.481 298.037 168.366C298.543 169.247 298.236 170.376 297.351 170.878C297.167 170.982 282.009 179.888 284.142 194.101C284.713 198.244 289.648 234.536 288.851 240.118C288.719 241.035 287.93 241.7 287.029 241.7L287.033 241.704Z" fill="#2B5174"/>
<path d="M176.454 206.417C175.593 206.417 174.823 205.811 174.648 204.938C171.674 190.055 157.333 177.061 157.19 176.934C156.432 176.256 156.368 175.092 157.046 174.334C157.724 173.577 158.888 173.513 159.645 174.191C160.271 174.753 175.039 188.117 178.26 204.22C178.459 205.217 177.814 206.189 176.817 206.389C176.693 206.413 176.574 206.425 176.454 206.425V206.417Z" fill="#2B5174"/>
<path d="M213.053 256.591L204.166 253.976C204.166 253.976 196.061 276.717 191.357 281.421L213.053 278.024C213.053 278.024 215.668 264.955 213.053 256.591Z" fill="white"/>
<path d="M191.357 283.266C190.671 283.266 190.033 282.884 189.714 282.258C189.351 281.548 189.491 280.683 190.053 280.121C193.669 276.505 200.215 259.577 202.428 253.357C202.755 252.436 203.744 251.934 204.685 252.209L213.571 254.824C214.161 255 214.628 255.454 214.811 256.04C217.534 264.756 214.971 277.832 214.859 278.387C214.708 279.144 214.102 279.726 213.336 279.846L191.64 283.243C191.544 283.258 191.448 283.266 191.353 283.266H191.357ZM205.307 256.236C203.656 260.733 199.259 272.323 195.379 278.933L211.466 276.413C211.993 273.18 213.161 264.393 211.558 258.074L205.311 256.236H205.307Z" fill="#2B5174"/>
<path d="M211.307 134.697L194.726 126.081L191.09 119.403C191.09 119.403 188.498 95.3947 183.267 106.159L182.984 121.62C182.984 121.62 183.231 131.268 185.978 133.565C185.978 133.565 183.247 136.974 185.344 141.682C185.344 141.682 183.933 145.964 188.219 150.226L206.455 161.357C206.455 161.357 208.177 165.539 205.39 172.859L200.861 186.45L226.305 182.966L230.507 159.994C230.507 159.994 233.063 146.259 211.315 134.697H211.307Z" fill="white"/>
<path d="M200.853 188.292C200.662 188.292 200.463 188.26 200.271 188.197C199.306 187.874 198.784 186.833 199.107 185.868L203.64 172.277C203.648 172.253 203.656 172.229 203.668 172.205C205.59 167.158 205.163 163.793 204.888 162.561L187.262 151.801C187.139 151.725 187.027 151.637 186.923 151.534C182.936 147.571 183.132 143.488 183.423 141.85C182.047 138.265 182.948 135.339 183.738 133.736C181.485 130.22 181.182 123.207 181.146 121.668C181.118 120.651 181.924 119.806 182.94 119.778C182.956 119.778 182.972 119.778 182.988 119.778C183.985 119.778 184.802 120.572 184.83 121.572C184.942 125.814 185.867 131.065 187.166 132.15C187.936 132.791 188.052 133.932 187.422 134.717C187.35 134.809 185.444 137.364 187.031 140.933C187.218 141.351 187.242 141.826 187.099 142.26C187.067 142.368 186.186 145.478 189.375 148.771L207.42 159.786C207.755 159.99 208.014 160.297 208.161 160.655C208.245 160.855 210.123 165.587 207.129 173.477L202.612 187.032C202.352 187.806 201.635 188.292 200.865 188.292H200.853Z" fill="#2B5174"/>
<path d="M226.301 184.808C226.19 184.808 226.082 184.8 225.966 184.776C224.966 184.593 224.304 183.632 224.487 182.632L228.689 159.659C228.773 159.157 230.571 147.021 210.445 136.32L193.876 127.713C193.549 127.545 193.282 127.282 193.107 126.959L189.471 120.281C189.355 120.07 189.283 119.839 189.255 119.599C188.566 113.224 187.039 106.957 185.855 105.426C185.679 105.634 185.42 105.992 185.097 106.61L184.954 114.353C184.934 115.369 184.096 116.191 183.076 116.163C182.059 116.143 181.25 115.306 181.266 114.285L181.417 106.124C181.421 105.857 181.485 105.594 181.601 105.35C182.111 104.302 183.666 101.108 186.377 101.583C188.705 101.99 190.276 104.876 191.632 111.235C192.337 114.548 192.744 117.766 192.871 118.834L196.069 124.703L212.152 133.059C234.845 145.123 232.421 159.711 232.305 160.325L228.103 183.293C227.94 184.182 227.166 184.804 226.293 184.804L226.301 184.808Z" fill="#2B5174"/>
<path d="M203.122 172.421C199.984 187.32 158.421 243 158.421 243L222.725 206.142L229.782 181.83L203.118 172.421H203.122Z" fill="#919DDA"/>
<path d="M158.417 244.842C158.035 244.842 157.648 244.722 157.317 244.475C156.504 243.865 156.332 242.713 156.942 241.895C157.357 241.341 198.298 186.375 201.316 172.038C201.423 171.52 201.754 171.073 202.217 170.81C202.679 170.551 203.233 170.503 203.732 170.678L230.396 180.087C231.317 180.414 231.823 181.399 231.552 182.34L224.495 206.652C224.212 207.628 223.188 208.191 222.211 207.908C221.234 207.624 220.672 206.6 220.955 205.623L227.529 182.986L204.362 174.809C198.561 192.183 161.535 241.903 159.896 244.096C159.534 244.583 158.979 244.838 158.417 244.838V244.842Z" fill="#2B5174"/>
<path d="M223.51 201.712C223.319 201.712 223.12 201.68 222.928 201.616L204.106 195.341C203.142 195.018 202.619 193.977 202.942 193.013C203.265 192.048 204.31 191.526 205.271 191.848L224.092 198.124C225.057 198.447 225.58 199.487 225.257 200.452C224.997 201.226 224.28 201.712 223.51 201.712Z" fill="#2B5174"/>
<path d="M45.9562 140.375C46.9369 137.923 51.8447 137.432 51.8447 137.432C53.3159 134.98 62.1507 140.869 62.1507 140.869C71.9664 141.359 71.476 147.248 71.476 147.248L70.9856 156.573L79.3261 159.515C94.0495 163.933 90.1225 181.599 90.1225 181.599L88.1609 205.153L68.5337 201.716L72.9511 182.579C73.9319 176.2 59.7028 170.802 59.7028 170.802C51.3623 168.841 44.8159 160.823 44.8159 160.823C44.8159 160.823 30.7503 140.869 45.9601 140.379L45.9562 140.375Z" fill="white"/>
<path d="M88.1571 206.991C88.0495 206.991 87.9459 206.983 87.8382 206.963L68.211 203.527C67.7126 203.439 67.274 203.152 66.991 202.729C66.7119 202.307 66.6162 201.788 66.7318 201.298L71.1293 182.237C71.5998 178.581 63.347 174.179 59.1449 172.561C50.3539 170.432 43.6599 162.33 43.3769 161.984C43.349 161.952 43.3251 161.916 43.2971 161.88C42.3961 160.6 34.5819 149.194 37.8312 142.667C39.0272 140.267 41.4074 138.9 44.9118 138.589C45.7491 137.56 47.4953 136.169 50.9639 135.678C51.3227 135.395 51.7532 135.196 52.2436 135.084C55.1899 134.423 60.5921 137.656 62.745 139.051C66.7677 139.334 69.722 140.526 71.536 142.6C73.3819 144.709 73.334 146.941 73.3061 147.352L72.8875 155.286L79.8884 157.758C86.5983 159.787 90.8004 164.671 92.0483 171.891C92.8856 176.731 92.1041 181.037 91.9367 181.858L89.9831 205.301C89.9393 205.815 89.6841 206.289 89.2735 206.604C88.9505 206.856 88.5518 206.987 88.1492 206.987L88.1571 206.991ZM70.7625 200.233L86.4907 202.984L88.2847 181.439C88.2927 181.356 88.3047 181.272 88.3206 181.192C88.4641 180.542 91.6775 165.137 78.792 161.274C78.7641 161.266 78.7362 161.258 78.7083 161.246L70.3678 158.3C69.5984 158.029 69.1 157.283 69.1399 156.466L69.6303 147.141C69.6303 147.097 69.6303 147.129 69.6303 147.085C69.6422 146.71 69.5665 143.074 62.0513 142.699C61.7204 142.683 61.3974 142.576 61.1223 142.392C58.0246 140.331 54.3806 138.621 53.2045 138.661C52.9015 138.995 52.4789 139.215 52.0204 139.259C50.2263 139.446 47.9897 140.227 47.6588 141.053C47.3876 141.73 46.7378 142.185 46.0082 142.209C43.4247 142.293 41.7861 142.998 41.1323 144.306C39.4219 147.739 43.3569 155.537 46.2673 159.691C46.7936 160.313 52.8018 167.278 60.1097 168.996C60.1894 169.016 60.2652 169.04 60.3409 169.068C60.4924 169.124 64.1085 170.507 67.6568 172.724C72.8995 176.001 75.2876 179.406 74.7574 182.847C74.7494 182.891 74.7414 182.938 74.7334 182.982L70.7546 200.225L70.7625 200.233Z" fill="#2B5174"/>
<path d="M57.7372 153.504C57.6535 153.504 57.5737 153.5 57.49 153.488C56.4813 153.352 55.7757 152.427 55.9112 151.419C56.3099 148.456 58.0003 138.796 63.0517 139.028C64.0683 139.071 64.8577 139.933 64.8138 140.949C64.77 141.966 63.9128 142.759 62.8922 142.711C62.7327 142.711 61.748 143.389 60.7193 146.714C59.9299 149.258 59.5711 151.885 59.5671 151.913C59.4436 152.838 58.6502 153.508 57.7452 153.508L57.7372 153.504Z" fill="#2B5174"/>
<path d="M50.7046 152.849C50.6527 152.849 50.6009 152.849 50.5531 152.841C49.5404 152.757 48.7869 151.868 48.8666 150.856C49.1218 147.746 50.3298 137.504 55.1619 136.296C56.1506 136.049 57.1473 136.651 57.3945 137.635C57.6417 138.624 57.0397 139.621 56.0549 139.868C54.6755 140.215 52.997 145.593 52.5385 151.155C52.4588 152.116 51.6534 152.845 50.7046 152.845V152.849Z" fill="#2B5174"/>
<path d="M44.4852 153.177C44.4852 153.177 44.4653 153.177 44.4573 153.177C43.4407 153.161 42.6273 152.327 42.6433 151.311C42.6632 149.951 43.0181 137.955 49.692 135.993C50.6688 135.706 51.6934 136.264 51.9805 137.241C52.2676 138.218 51.7094 139.243 50.7326 139.53C49.1658 139.992 47.8661 142.121 47.0727 145.526C46.383 148.492 46.3311 151.339 46.3311 151.367C46.3152 152.375 45.4939 153.181 44.4892 153.181L44.4852 153.177Z" fill="#2B5174"/>
<path d="M70.9815 158.411C70.7542 158.411 70.523 158.367 70.2997 158.28L64.5746 155.991C63.8052 155.684 63.3347 154.899 63.4264 154.078L63.9168 149.66C64.0284 148.648 64.9374 147.918 65.9501 148.034C66.9627 148.145 67.6883 149.058 67.5767 150.067L67.2418 153.089L71.6632 154.859C72.6081 155.238 73.0666 156.31 72.6879 157.255C72.4008 157.977 71.7071 158.415 70.9775 158.415L70.9815 158.411Z" fill="#2B5174"/>
<path d="M135.258 140.375C134.277 137.923 129.369 137.432 129.369 137.432C127.898 134.98 119.063 140.869 119.063 140.869C109.247 141.359 109.738 147.248 109.738 147.248L110.228 156.573L101.888 159.515C87.1643 163.933 91.0913 181.599 91.0913 181.599L93.0529 205.153L112.68 201.716L108.263 182.579C107.282 176.2 121.511 170.802 121.511 170.802C129.851 168.841 136.398 160.823 136.398 160.823C136.398 160.823 150.463 140.869 135.254 140.379L135.258 140.375Z" fill="white"/>
<path d="M93.057 206.991C92.6543 206.991 92.2557 206.859 91.9327 206.608C91.5221 206.293 91.2669 205.819 91.2231 205.305L89.2695 181.862C89.1021 181.045 88.3206 176.735 89.1579 171.895C90.4058 164.675 94.6119 159.787 101.318 157.761L108.319 155.29L107.9 147.356C107.872 146.945 107.828 144.708 109.67 142.603C111.484 140.53 114.438 139.338 118.461 139.055C120.614 137.66 126.016 134.422 128.963 135.088C129.449 135.196 129.88 135.399 130.242 135.682C133.711 136.173 135.453 137.564 136.294 138.593C139.799 138.904 142.179 140.275 143.375 142.671C146.628 149.198 138.814 160.604 137.909 161.884C137.885 161.92 137.857 161.956 137.829 161.987C137.546 162.334 130.852 170.436 122.061 172.565C117.859 174.183 109.61 178.585 110.081 182.241L114.478 201.302C114.594 201.796 114.498 202.314 114.219 202.733C113.94 203.156 113.498 203.443 112.999 203.53L93.372 206.967C93.2683 206.987 93.1607 206.995 93.053 206.995L93.057 206.991ZM127.966 138.664C126.75 138.664 123.15 140.355 120.088 142.4C119.813 142.583 119.49 142.691 119.159 142.707C111.644 143.082 111.564 146.718 111.58 147.132L112.07 156.474C112.114 157.291 111.616 158.036 110.842 158.308L102.502 161.254C102.474 161.262 102.446 161.274 102.418 161.282C89.5366 165.145 92.75 180.55 92.8935 181.204C92.9095 181.284 92.9254 181.367 92.9294 181.447L94.7235 202.992L110.452 200.241L106.473 182.998C106.461 182.954 106.453 182.91 106.449 182.863C105.919 179.422 108.307 176.017 113.549 172.74C117.098 170.523 120.714 169.14 120.865 169.084C120.941 169.056 121.017 169.032 121.097 169.012C128.428 167.286 134.409 160.337 134.939 159.707C137.849 155.549 141.788 147.75 140.074 144.318C139.42 143.01 137.781 142.304 135.198 142.221C134.468 142.197 133.819 141.742 133.547 141.064C133.197 140.187 130.773 139.426 129.186 139.27C128.727 139.223 128.305 139.007 128.002 138.672C127.99 138.672 127.978 138.672 127.966 138.672V138.664Z" fill="#2B5174"/>
<path d="M123.477 153.503C122.568 153.503 121.778 152.833 121.655 151.908C121.655 151.88 121.292 149.253 120.502 146.709C119.466 143.368 118.485 142.718 118.326 142.706C117.305 142.75 116.448 141.961 116.404 140.944C116.36 139.928 117.149 139.066 118.166 139.022C123.209 138.795 124.908 148.451 125.306 151.414C125.442 152.422 124.736 153.347 123.728 153.483C123.644 153.495 123.56 153.499 123.48 153.499L123.477 153.503Z" fill="#2B5174"/>
<path d="M130.513 152.849C129.564 152.849 128.759 152.12 128.679 151.159C128.217 145.597 126.542 140.219 125.163 139.872C124.174 139.625 123.576 138.624 123.823 137.639C124.071 136.651 125.071 136.053 126.056 136.3C130.888 137.508 132.096 147.75 132.351 150.86C132.435 151.872 131.681 152.762 130.665 152.845C130.613 152.849 130.561 152.853 130.513 152.853V152.849Z" fill="#2B5174"/>
<path d="M136.729 153.177C135.724 153.177 134.903 152.367 134.887 151.363C134.887 151.335 134.835 148.488 134.145 145.522C133.352 142.117 132.052 139.988 130.485 139.526C129.508 139.239 128.95 138.214 129.237 137.237C129.524 136.261 130.549 135.702 131.526 135.989C138.2 137.951 138.554 149.947 138.574 151.307C138.59 152.324 137.773 153.161 136.756 153.173C136.748 153.173 136.74 153.173 136.732 153.173L136.729 153.177Z" fill="#2B5174"/>
<path d="M110.232 158.411C109.503 158.411 108.809 157.973 108.522 157.251C108.143 156.306 108.602 155.234 109.547 154.855L113.968 153.085L113.633 150.063C113.521 149.05 114.251 148.141 115.26 148.03C116.272 147.914 117.181 148.648 117.293 149.656L117.783 154.074C117.875 154.895 117.405 155.68 116.635 155.987L110.91 158.276C110.687 158.367 110.456 158.407 110.228 158.407L110.232 158.411Z" fill="#2B5174"/>
<path d="M79.358 269.625C79.2703 269.625 79.1865 269.617 79.0988 269.605C78.0862 269.461 77.3805 268.525 77.524 267.512L86.327 204.89C86.4705 203.878 87.4074 203.176 88.4201 203.312C89.4327 203.455 90.1384 204.392 89.9949 205.405L81.1919 268.026C81.0604 268.951 80.267 269.621 79.358 269.621V269.625Z" fill="white"/>
<path d="M50.8043 216.647C49.9949 216.647 49.2494 216.112 49.0221 215.291C43.6718 196.106 27.1702 187.961 27.0028 187.881C26.0818 187.439 25.6951 186.331 26.1376 185.41C26.5802 184.489 27.6885 184.102 28.6095 184.544C29.347 184.899 46.7895 193.511 52.5864 214.294C52.8615 215.279 52.2874 216.304 51.2986 216.575C51.1312 216.623 50.9637 216.643 50.8003 216.643L50.8043 216.647Z" fill="white"/>
<path d="M39.7008 264.134C39.4815 264.134 39.2583 264.094 39.043 264.015C38.0861 263.652 37.6077 262.579 37.9705 261.623L61.76 199.149C62.087 198.292 62.988 197.805 63.885 197.997L88.5516 203.339C89.5523 203.554 90.1863 204.543 89.971 205.54C89.7557 206.54 88.7709 207.178 87.7662 206.959L64.6585 201.951L41.4351 262.938C41.152 263.676 40.4503 264.13 39.7048 264.13L39.7008 264.134Z" fill="white"/>
<path d="M101.437 269.624C100.528 269.624 99.7349 268.954 99.6034 268.029L90.8004 205.408C90.6569 204.395 91.3625 203.458 92.3752 203.315C93.3879 203.175 94.3248 203.877 94.4683 204.893L103.271 267.515C103.415 268.527 102.709 269.464 101.696 269.608C101.609 269.62 101.521 269.628 101.437 269.628V269.624Z" fill="white"/>
<path d="M141.09 264.135C140.345 264.135 139.639 263.68 139.36 262.942L116.137 201.956L93.0289 206.963C92.0282 207.178 91.0435 206.545 90.8242 205.544C90.6089 204.543 91.2428 203.558 92.2435 203.343L116.91 198.001C117.803 197.805 118.708 198.296 119.035 199.153L142.825 261.627C143.187 262.584 142.709 263.652 141.752 264.019C141.537 264.103 141.314 264.139 141.094 264.139L141.09 264.135Z" fill="white"/>
</svg>
