<svg width="302" height="272" viewBox="0 0 302 272" fill="none" xmlns="http://www.w3.org/2000/svg">
<circle cx="182.202" cy="152.196" r="119.196" fill="#FAEFBF"/>
<mask id="mask0_11_68" style="mask-type:alpha" maskUnits="userSpaceOnUse" x="0" y="0" width="287" height="266">
<path d="M56.2921 181.615L55.7792 179.984L54.1093 179.618C27.904 173.875 13.9829 166.921 7.58884 158.028C1.36012 149.364 1.70629 137.979 6.82599 121.369L4.0065 120.5L6.82599 121.369C28.9145 49.7047 102.561 2.95039 167.202 2.95039C198.863 2.95039 227.887 22.4236 249.135 50.4443C270.367 78.4431 283.447 114.503 283.447 146.696C283.447 210.896 231.403 262.941 167.202 262.941C115.173 262.941 71.1195 228.756 56.2921 181.615Z" fill="#D7AC21" stroke="#2B5174" stroke-width="5.90077"/>
</mask>
<g mask="url(#mask0_11_68)">
<path d="M209.893 123.547L131.427 126.557L153.88 109.491L154.008 91.5586H190.135L189.998 109.491L209.893 123.547Z" fill="white"/>
<path d="M239.812 201.639L267.475 236.638L301.212 219.256L280.459 182.445L239.812 201.639Z" fill="white"/>
<path d="M154.056 109.5C153.128 109.5 152.374 108.746 152.374 107.818V100.991C152.374 100.063 153.128 99.3091 154.056 99.3091C154.984 99.3091 155.737 100.063 155.737 100.991V107.818C155.737 108.746 154.986 109.5 154.056 109.5Z" fill="#2B5174"/>
<path d="M189.774 109.5C188.846 109.5 188.093 108.746 188.093 107.818V100.991C188.093 100.063 188.846 99.3091 189.774 99.3091C190.702 99.3091 191.456 100.063 191.456 100.991V107.818C191.456 108.746 190.702 109.5 189.774 109.5Z" fill="#2B5174"/>
<path d="M253.917 140.464L253.894 140.434C253.259 139.595 241.557 124.717 204.024 115.471L203.893 115.438L203.77 115.383L193.92 110.97C193.92 110.97 193.92 110.97 193.919 110.97C193.882 110.954 193.838 110.954 193.795 110.978C171.369 123.865 152.296 111.058 151.428 110.458L151.427 110.457C151.389 110.431 151.339 110.425 151.294 110.446C151.294 110.446 151.293 110.446 151.293 110.447L147.137 112.402L146.86 112.532L146.554 112.543C145.047 112.599 140.425 112.788 135.657 113.153C133.272 113.336 130.867 113.561 128.803 113.834C126.7 114.112 125.078 114.424 124.186 114.746L124.134 114.765L124.08 114.78L66.078 130.967L66.0755 130.968C66.0592 130.972 66.0372 130.983 66.0142 131.005C65.8216 131.199 61.5597 135.552 58.9823 143.035M253.917 140.464L290.757 187.395M253.917 140.464L253.941 140.493C259.325 146.9 268.303 158.193 276.071 168.135C279.953 173.104 283.528 177.728 286.195 181.229C287.529 182.979 288.632 184.445 289.433 185.529C289.833 186.072 290.154 186.515 290.388 186.847C290.505 187.013 290.596 187.147 290.663 187.248C290.685 187.281 290.703 187.308 290.716 187.329C290.743 187.37 290.755 187.391 290.757 187.395M253.917 140.464L290.757 187.395M58.9823 143.035L57.5641 142.546M58.9823 143.035L57.5641 142.546M58.9823 143.035C56.6021 149.946 55.245 161.022 62.6217 174.367C62.6327 174.387 62.6511 174.406 62.6772 174.419C62.7035 174.433 62.7282 174.436 62.747 174.434L62.7507 174.434L100.532 170.314L102.063 170.147L102.19 171.682C102.9 180.312 106.266 219.731 109.823 238.887L109.86 239.085L109.843 239.286L104.368 304.685L104.365 304.724L104.36 304.763C104.355 304.797 104.363 304.828 104.384 304.855C104.407 304.885 104.439 304.904 104.478 304.91C104.893 304.965 125.16 307.622 149.555 308.858C158.043 309.287 165.957 309.5 173.293 309.5C194.555 309.5 210.86 307.702 222.017 304.188L222.019 304.188C222.081 304.168 222.119 304.105 222.108 304.042L213.298 251.713L213.241 251.377L213.335 251.05L228.006 199.934L228.852 196.988L230.659 199.463L245.664 220.013L245.676 220.029L245.687 220.045C245.725 220.099 245.8 220.117 245.858 220.086M57.5641 142.546C60.2721 134.684 64.7685 130.129 64.9584 129.939L61.3093 175.093C53.6932 161.315 55.0699 149.788 57.5641 142.546ZM245.858 220.086C245.857 220.086 245.858 220.086 245.86 220.085C245.87 220.079 245.911 220.054 246 219.997C246.097 219.936 246.226 219.852 246.389 219.745C246.713 219.533 247.156 219.238 247.704 218.871C248.799 218.136 250.305 217.115 252.105 215.883C255.706 213.419 260.477 210.116 265.483 206.583C275.536 199.485 286.408 191.543 290.731 187.553L290.732 187.552C290.773 187.514 290.786 187.449 290.757 187.395M245.858 220.086C245.858 220.086 245.858 220.086 245.858 220.086L246.586 221.397M245.858 220.086L246.586 221.397M290.757 187.395C290.757 187.395 290.757 187.395 290.757 187.395M290.757 187.395L292.08 186.687C292.43 187.342 292.294 188.152 291.748 188.655C282.927 196.798 247.891 220.673 246.586 221.397M290.757 187.395L223.588 303.796L214.777 251.464L228.924 202.174L228.236 201.232L229.448 200.348L230.889 200.762L230.568 201.882L244.453 220.897C244.929 221.587 245.854 221.804 246.586 221.397M152.281 109.224C153.051 109.756 171.427 122.104 193.051 109.676L152.281 109.224ZM152.281 109.224C151.802 108.892 151.185 108.842 150.658 109.088L152.281 109.224Z" fill="#919DDA" stroke="#2B5174" stroke-width="3"/>
<circle cx="167.202" cy="147.196" r="116.245" stroke="#2B5174" stroke-width="5.90077"/>
<path d="M217.806 174.77C216.924 174.77 216.199 174.067 216.175 173.179C215.953 164.264 219.522 154.881 226.502 146.048C231.723 139.437 236.949 135.489 237.168 135.323C237.89 134.783 238.911 134.93 239.451 135.649C239.991 136.368 239.847 137.392 239.128 137.932C238.925 138.084 218.945 153.338 219.439 173.096C219.461 173.997 218.749 174.746 217.849 174.767C217.835 174.767 217.822 174.767 217.806 174.767V174.77Z" fill="#2B5174"/>
<path d="M102.36 166.59C101.459 166.59 100.729 165.86 100.729 164.959C100.729 145.535 107.37 130.498 107.653 129.867C108.022 129.046 108.984 128.677 109.808 129.046C110.628 129.415 110.997 130.377 110.631 131.201C110.564 131.351 103.993 146.262 103.993 164.959C103.993 165.86 103.264 166.59 102.363 166.59H102.36Z" fill="#2B5174"/>
<path d="M302.431 221.862L299.822 216.473L261.458 225.036L259.172 232.809C253.783 248.63 232.234 267.188 232.234 267.188L225.28 267.535L222.845 265.276L216.354 260.871L217.282 266.667L203.373 261.566C203.373 261.566 201.75 260.406 196.65 263.651L186.219 270.374C186.219 270.374 183.436 272.46 187.146 274.082C187.146 274.082 190.854 274.545 200.823 269.677L205.089 271.708L207.025 273.965C207.025 273.965 201.288 275.702 198.737 277.79L187.379 291.234C187.379 291.234 185.523 296.102 191.319 294.942C191.319 294.942 194.564 294.247 196.187 292.159C196.187 292.159 192.247 297.259 195.725 298.65C195.725 298.65 199.665 300.967 208.011 289.376L216.124 286.363L210.794 294.014C210.794 294.014 204.766 301.432 208.939 302.823C208.939 302.823 211.722 304.908 216.59 298.187L223.08 291.234C223.08 291.234 244.638 291.929 248.811 279.413L275.431 261.475C307.045 230.992 302.431 221.86 302.431 221.86V221.862Z" fill="white"/>
<path d="M187.437 275.726C187.175 275.726 187.012 275.71 186.945 275.702C186.79 275.683 186.637 275.64 186.493 275.579C184.731 274.809 183.761 273.745 183.606 272.419C183.387 270.521 185.05 269.211 185.239 269.07C185.271 269.045 185.301 269.024 185.336 269.003L195.767 262.279C200.688 259.146 203.081 259.566 204.057 260.077L218.516 265.126C219.366 265.423 219.815 266.353 219.519 267.204C219.222 268.054 218.289 268.503 217.442 268.206L202.838 263.105C202.765 263.079 202.693 263.049 202.624 263.012C202.41 262.972 200.98 262.833 197.528 265.028L187.175 271.7C187.071 271.788 186.95 271.93 186.889 272.034C186.972 272.12 187.156 272.272 187.538 272.465C188.378 272.443 192.136 272.106 200.111 268.214C200.557 267.995 201.078 267.992 201.528 268.206L206.396 270.524C207.208 270.911 207.553 271.885 207.168 272.697C206.781 273.51 205.808 273.857 204.995 273.467L200.833 271.486C192.807 275.317 188.787 275.723 187.442 275.723L187.437 275.726ZM202.423 262.892C202.423 262.892 202.423 262.892 202.426 262.892C202.426 262.892 202.426 262.892 202.423 262.892Z" fill="#2B5174"/>
<path d="M252.053 276.873C251.668 276.873 251.283 276.737 250.973 276.461C250.299 275.865 250.238 274.833 250.834 274.16C250.994 273.978 276.768 265.153 299.362 231.612C299.707 230.984 303.043 224.533 298.913 218.042C298.429 217.283 298.654 216.275 299.413 215.791C300.172 215.308 301.18 215.532 301.664 216.291C307.002 224.677 302.364 232.932 302.164 233.28C302.145 233.312 302.124 233.347 302.102 233.376C279.355 267.15 253.438 276.138 253.275 276.32C252.954 276.683 252.505 276.868 252.053 276.868V276.873Z" fill="#2B5174"/>
<path d="M227.015 269.687C226.694 269.687 226.368 269.593 226.085 269.396L220.754 265.688C220.014 265.174 219.832 264.156 220.348 263.418C220.861 262.678 221.88 262.496 222.618 263.012L227.948 266.72C228.689 267.233 228.871 268.251 228.355 268.989C228.039 269.444 227.531 269.69 227.015 269.69V269.687Z" fill="#2B5174"/>
<path d="M70.7783 44.049C70.7783 44.049 61.0423 47.9894 57.5643 63.2886L50.6112 81.6005C50.6112 81.6005 24.5601 132.82 26.8805 161.566C26.8805 161.566 36.007 171.161 63.1301 170.466C63.1301 170.466 75.879 158.412 63.8252 143.342C63.8252 143.342 65.4478 131.521 64.2876 117.612C63.1274 103.703 63.1836 120.048 63.1836 120.048C63.1836 120.048 65.2153 79.2828 74.0237 78.3551C74.0237 78.3551 103.232 68.1566 92.1057 55.4051C92.1057 55.4051 95.8136 45.4364 84.6874 45.669L70.7783 44.0463V44.049Z" fill="white"/>
<path d="M72.6312 80.2191C71.9709 80.2191 71.348 79.8128 71.1021 79.1578C70.7866 78.3131 71.217 77.3747 72.0618 77.0593C77.6516 74.9795 87.1952 70.6648 89.005 67.9461C89.0424 67.8899 89.0825 67.8365 89.128 67.7857L91.9857 64.4708C93.333 62.9096 93.7634 60.7229 93.1111 58.7687C92.8278 57.9133 93.2876 56.991 94.143 56.705C95.0011 56.4216 95.9208 56.8814 96.2068 57.7368C97.22 60.779 96.549 64.1741 94.4558 66.6014L91.6569 69.8468C88.5425 74.3112 74.7671 79.5321 73.1979 80.1148C73.0108 80.1843 72.8183 80.2164 72.6285 80.2164L72.6312 80.2191Z" fill="#2B5174"/>
<path d="M90.0175 59.7038C89.8224 59.7038 89.6272 59.669 89.4347 59.5942C88.5927 59.2707 88.1729 58.327 88.4964 57.4876C88.9669 56.2579 89.4748 55.4319 89.8812 54.7689C90.6003 53.5953 91.036 52.8869 90.9959 50.2725C90.9852 49.5266 89.932 48.0322 89.416 47.8612L71.7483 45.7814C71.5559 45.76 71.3714 45.7038 71.2003 45.6156C70.2406 45.645 67.3749 48.2568 65.2389 51.0611C64.6909 51.7775 63.667 51.9165 62.9533 51.3712C62.2368 50.8258 62.0978 49.802 62.6432 49.0855C67.7919 42.3275 70.8608 41.9773 72.3846 42.5734L89.8625 44.6292C89.8838 44.6318 89.9052 44.6345 89.9239 44.6372C92.2764 45.0061 94.2279 48.2809 94.2573 50.2217C94.3108 53.7825 93.5088 55.0897 92.6614 56.4718C92.2898 57.0786 91.9048 57.7042 91.5413 58.6532C91.2927 59.3028 90.6751 59.7011 90.0175 59.7011V59.7038Z" fill="#2B5174"/>
<path d="M71.2408 67.3549C70.912 67.3549 70.5805 67.2559 70.2945 67.0501C69.4872 66.4754 68.9873 65.6413 68.8429 64.6442C68.5916 62.8825 69.5326 60.8962 70.3506 59.5569L68.597 58.3887C67.8484 57.8888 67.6453 56.8756 68.1452 56.1271C68.6451 55.3786 69.6582 55.1754 70.4068 55.6753L73.5372 57.7605C73.9168 58.0118 74.1707 58.4101 74.2429 58.8592C74.3151 59.3083 74.1948 59.7654 73.9141 60.1236C73.0881 61.1823 71.9305 63.2033 72.0695 64.1817C72.0909 64.3207 72.1257 64.3528 72.1872 64.3955C72.9196 64.9195 73.0907 65.938 72.5668 66.6705C72.2486 67.1169 71.7461 67.3549 71.2382 67.3549H71.2408Z" fill="#2B5174"/>
<path d="M75.4138 68.0498C75.1464 68.0498 74.8764 67.9857 74.6278 67.8467C73.8392 67.4109 73.5532 66.4191 73.9889 65.6305C74.0985 65.4327 76.5873 60.9229 77.7101 59.0222C77.7609 58.5945 77.7636 56.8729 74.9085 55.1165L71.9813 53.3949C71.2033 52.9378 70.944 51.938 71.4012 51.1628C71.8583 50.3875 72.8581 50.1255 73.6334 50.5827L76.59 52.3203C82.1745 55.7581 80.8459 59.9765 80.787 60.153C80.7496 60.2653 80.6988 60.3749 80.6373 60.4765C79.6215 62.1686 76.8707 67.1543 76.8413 67.2051C76.5446 67.7451 75.9858 68.0498 75.4111 68.0498H75.4138Z" fill="#2B5174"/>
<path d="M80.7467 65.7773C79.9126 65.7773 78.9021 65.4753 77.8087 64.5102C77.1351 63.9141 77.0709 62.8822 77.667 62.2085C78.2659 61.5322 79.2951 61.4707 79.9687 62.0668C80.1077 62.1898 80.5809 62.5881 80.8375 62.4972C81.848 62.1417 83.0564 59.038 83.6124 56.2605C81.9389 53.4642 78.0974 51.1545 78.0573 51.1305C77.2848 50.6707 77.0281 49.6709 77.4879 48.8956C77.9477 48.1204 78.9475 47.8664 79.7228 48.3235C79.9313 48.4465 84.8528 51.3951 86.7829 55.2553C86.938 55.5654 86.9914 55.9156 86.9326 56.2578C85.6735 63.7056 82.7837 65.2721 81.9282 65.5742C81.5968 65.6918 81.1984 65.7773 80.7493 65.7773H80.7467Z" fill="#2B5174"/>
<path d="M85.3507 64.9357C84.6396 64.9357 83.9151 64.7565 83.204 64.401C82.3967 63.9973 82.0705 63.0189 82.4742 62.2116C82.8779 61.4043 83.859 61.0808 84.661 61.4818C85.225 61.7651 85.5565 61.6823 85.8078 61.562C87.0749 60.9685 88.2512 58.3407 88.8045 56.3625C87.1819 53.4192 84.5781 50.9384 84.5513 50.9116C83.8964 50.2914 83.8697 49.2596 84.4872 48.6073C85.1047 47.9523 86.1366 47.9229 86.7916 48.5431C86.9279 48.6714 90.1519 51.7377 91.9991 55.4322C92.1675 55.7717 92.2156 56.1593 92.1301 56.5282C91.9804 57.1778 90.5662 62.9307 87.2006 64.5159C86.6044 64.7966 85.9842 64.9357 85.3533 64.9383L85.3507 64.9357Z" fill="#2B5174"/>
<path d="M63.1273 172.327C63.1273 172.327 63.122 172.327 63.1166 172.327C33.1118 172.145 25.4582 162.834 25.4101 162.248C25.4074 162.214 24.9583 160.65 24.9583 160.612C24.2819 126.969 48.4163 82.8066 49.5498 80.4247C51.683 73.5544 59.3179 54.6169 59.644 53.8096C59.9809 52.9729 60.9299 52.5692 61.7666 52.906C62.6007 53.2429 63.007 54.1946 62.6675 55.0286C62.5873 55.2264 54.6718 74.8617 52.6294 81.4994C52.6053 81.5796 52.5732 81.6571 52.5385 81.732C52.354 82.1116 27.5674 126.691 28.217 160.465C28.3159 161.072 37.0174 168.704 62.4055 169.055C64.2421 166.911 70.666 158.41 65.8514 149.195C65.4344 148.395 65.7445 147.412 66.5411 146.995C67.3377 146.578 68.3242 146.888 68.7412 147.684C75.2961 160.23 64.4078 171.712 64.2955 171.827C63.9881 172.145 63.5657 172.324 63.122 172.324L63.1273 172.327Z" fill="#2B5174"/>
<path d="M60.1118 153.725C59.8846 153.725 59.652 153.677 59.4301 153.576C58.6121 153.199 58.2539 152.228 58.6335 151.41C65.6455 136.215 63.2235 120.347 63.1994 120.186C63.1914 120.141 63.1861 120.093 63.1834 120.047C62.1301 105.489 67.5355 83.2498 67.7681 82.4719C68.0247 81.6084 68.9309 81.1165 69.7944 81.3705C70.6579 81.6271 71.1498 82.5334 70.8958 83.3968C70.8423 83.5813 65.4477 105.794 66.4341 119.745C66.6426 121.122 68.8481 137.066 61.5981 152.776C61.3228 153.373 60.732 153.725 60.1172 153.725H60.1118Z" fill="#2B5174"/>
<path d="M162.669 30.9961C177.284 24.2193 188.857 32.2552 196.243 43.7583C196.243 43.7583 199.707 50.65 198.368 51.2033C198.782 52.1497 199.804 55.6009 200.606 58.7046C201.14 60.7683 201.579 62.677 201.678 63.5886C202.367 63.3053 203.081 63.1983 203.795 63.3106C206.861 63.8025 208.687 68.0958 207.872 72.897C207.054 77.7009 203.918 84.0873 200.849 83.5981C200.365 83.5179 199.919 83.3388 199.499 83.0848C198.44 87.4289 194.642 98.638 182.582 105.776C171.486 112.01 161.573 105.85 161.573 105.85C149.463 98.801 145.584 87.6187 144.496 83.2827C144.082 83.5393 143.633 83.7238 143.149 83.8066C140.085 84.3172 136.901 77.9521 136.049 73.1563C135.199 68.3604 136.992 64.0538 140.056 63.5405C140.767 63.4229 141.483 63.5271 142.176 63.8025L143.133 56.2585C145.245 44.1192 145.124 41.3069 153.922 36.5805C153.922 36.5805 158.9 34.3751 162.664 30.9987L162.669 30.9961Z" fill="white"/>
<mask id="path-25-inside-1_11_68" fill="white">
<path fill-rule="evenodd" clip-rule="evenodd" d="M192.789 17.8832C192.824 18.2949 193.043 18.6505 193.391 18.8617L193.396 18.8697C198.636 22.0482 210.77 31.2977 210.246 48.4923L210.24 48.5992C210.214 48.9547 208.743 58.0038 206.976 65.8391C206.228 64.4597 205.129 63.5268 203.798 63.3129C203.084 63.2006 202.37 63.3076 201.68 63.5909C201.581 62.6793 201.143 60.7706 200.608 58.7068C199.806 55.6032 198.785 52.152 198.371 51.2056C199.71 50.6496 195.307 45.7709 195.307 45.7709C195.148 45.523 194.987 45.2758 194.825 45.0295C180.303 42.1687 173.745 33.626 173.745 33.626C173.424 38.5635 174.804 43.8326 174.804 43.8326C166.476 42.1405 161.847 37.3702 159.389 33.5171C156.528 35.4291 153.93 36.5801 153.93 36.5801C145.746 40.9769 145.279 43.7173 143.554 53.8509C143.425 54.6105 143.288 55.4116 143.141 56.2581L142.184 63.8021C141.492 63.5268 140.775 63.4225 140.064 63.5401C138.901 63.7353 137.923 64.4784 137.201 65.5852C137.046 65.4382 136.92 65.4087 136.829 65.5344C132.616 51.0479 132.924 39.4726 137.754 31.0972C142.959 22.0696 152.187 19.0595 157.224 18.0704C157.475 18.0196 157.702 17.8966 157.881 17.7095C161.643 13.7905 169.906 7.69539 182.962 10.898C183.026 10.9113 183.085 10.9301 183.149 10.9514C183.687 11.1332 188.515 12.7559 192.177 13.189C192.987 13.2852 193.642 13.8386 193.882 14.6299C194.118 15.4131 193.888 16.2338 193.281 16.7738L193.214 16.8326C192.909 17.0946 192.757 17.4769 192.789 17.8832Z"/>
</mask>
<path fill-rule="evenodd" clip-rule="evenodd" d="M192.789 17.8832C192.824 18.2949 193.043 18.6505 193.391 18.8617L193.396 18.8697C198.636 22.0482 210.77 31.2977 210.246 48.4923L210.24 48.5992C210.214 48.9547 208.743 58.0038 206.976 65.8391C206.228 64.4597 205.129 63.5268 203.798 63.3129C203.084 63.2006 202.37 63.3076 201.68 63.5909C201.581 62.6793 201.143 60.7706 200.608 58.7068C199.806 55.6032 198.785 52.152 198.371 51.2056C199.71 50.6496 195.307 45.7709 195.307 45.7709C195.148 45.523 194.987 45.2758 194.825 45.0295C180.303 42.1687 173.745 33.626 173.745 33.626C173.424 38.5635 174.804 43.8326 174.804 43.8326C166.476 42.1405 161.847 37.3702 159.389 33.5171C156.528 35.4291 153.93 36.5801 153.93 36.5801C145.746 40.9769 145.279 43.7173 143.554 53.8509C143.425 54.6105 143.288 55.4116 143.141 56.2581L142.184 63.8021C141.492 63.5268 140.775 63.4225 140.064 63.5401C138.901 63.7353 137.923 64.4784 137.201 65.5852C137.046 65.4382 136.92 65.4087 136.829 65.5344C132.616 51.0479 132.924 39.4726 137.754 31.0972C142.959 22.0696 152.187 19.0595 157.224 18.0704C157.475 18.0196 157.702 17.8966 157.881 17.7095C161.643 13.7905 169.906 7.69539 182.962 10.898C183.026 10.9113 183.085 10.9301 183.149 10.9514C183.687 11.1332 188.515 12.7559 192.177 13.189C192.987 13.2852 193.642 13.8386 193.882 14.6299C194.118 15.4131 193.888 16.2338 193.281 16.7738L193.214 16.8326C192.909 17.0946 192.757 17.4769 192.789 17.8832Z" fill="#919DDA"/>
<path d="M193.391 18.8617L195.886 17.1963L195.517 16.6433L194.949 16.2979L193.391 18.8617ZM192.789 17.8832L189.798 18.1193L189.799 18.1275L189.8 18.1356L192.789 17.8832ZM193.396 18.8697L190.901 20.535L191.27 21.0891L191.84 21.4346L193.396 18.8697ZM210.246 48.4923L213.242 48.6419L213.243 48.6128L213.244 48.5836L210.246 48.4923ZM210.24 48.5992L213.232 48.8241L213.235 48.7865L213.236 48.7488L210.24 48.5992ZM206.976 65.8391L204.339 67.27L208.147 74.2861L209.903 66.4991L206.976 65.8391ZM203.798 63.3129L204.273 60.3509L204.264 60.3493L203.798 63.3129ZM201.68 63.5909L198.698 63.9145L199.128 67.8827L202.82 66.3658L201.68 63.5909ZM200.608 58.7068L197.704 59.4574L197.704 59.4592L200.608 58.7068ZM198.371 51.2056L197.221 48.4349L194.396 49.6075L195.623 52.4089L198.371 51.2056ZM195.307 45.7709L192.783 47.3921L192.916 47.5986L193.08 47.7808L195.307 45.7709ZM194.825 45.0295L197.331 43.3796L196.639 42.3291L195.405 42.086L194.825 45.0295ZM173.745 33.626L176.125 31.7992L171.268 25.4733L170.751 33.4315L173.745 33.626ZM174.804 43.8326L174.206 46.7725L178.926 47.7313L177.706 43.0728L174.804 43.8326ZM159.389 33.5171L161.919 31.9041L160.271 29.32L157.723 31.0228L159.389 33.5171ZM153.93 36.5801L152.715 33.8373L152.611 33.8835L152.511 33.9374L153.93 36.5801ZM143.554 53.8509L140.597 53.3473L140.597 53.3473L143.554 53.8509ZM143.141 56.2581L140.185 55.7439L140.174 55.812L140.165 55.8806L143.141 56.2581ZM142.184 63.8021L141.075 66.5898L144.673 68.0204L145.16 64.1797L142.184 63.8021ZM140.064 63.5401L139.574 60.5803L139.568 60.5815L140.064 63.5401ZM137.201 65.5852L135.137 67.7621L137.748 70.2383L139.714 67.224L137.201 65.5852ZM136.829 65.5344L133.949 66.3722L135.663 72.2656L139.26 67.2927L136.829 65.5344ZM137.754 31.0972L140.353 32.5961L140.353 32.5957L137.754 31.0972ZM157.224 18.0704L157.802 21.0141L157.81 21.0125L157.818 21.0109L157.224 18.0704ZM157.881 17.7095L155.717 15.6322L155.714 15.6351L157.881 17.7095ZM182.962 10.898L182.247 13.8116L182.299 13.8242L182.35 13.8349L182.962 10.898ZM183.149 10.9514L184.111 8.10963L184.098 8.10539L183.149 10.9514ZM192.177 13.189L192.531 10.2099L192.529 10.2097L192.177 13.189ZM193.882 14.6299L196.756 13.7669L196.753 13.7572L193.882 14.6299ZM193.281 16.7738L195.263 19.0259L195.269 19.0205L195.275 19.015L193.281 16.7738ZM193.214 16.8326L195.17 19.1076L195.183 19.0963L195.196 19.0848L193.214 16.8326ZM194.949 16.2979C195.431 16.5912 195.734 17.1009 195.778 17.6309L189.8 18.1356C189.914 19.489 190.655 20.7098 191.833 21.4254L194.949 16.2979ZM195.891 17.2044L195.886 17.1963L190.895 20.527L190.901 20.535L195.891 17.2044ZM213.244 48.5836C213.819 29.7292 200.482 19.6593 194.952 16.3047L191.84 21.4346C196.789 24.4372 207.72 32.8663 207.247 48.4009L213.244 48.5836ZM213.236 48.7488L213.242 48.6419L207.249 48.3426L207.244 48.4495L213.236 48.7488ZM209.903 66.4991C210.8 62.5223 211.618 58.2542 212.213 54.9459C212.512 53.2893 212.756 51.8663 212.927 50.8317C213.079 49.9141 213.212 49.0868 213.232 48.8241L207.249 48.3743C207.255 48.2894 207.194 48.7265 207.008 49.8505C206.841 50.8575 206.602 52.2531 206.308 53.8825C205.72 57.1465 204.92 61.3206 204.05 65.1792L209.903 66.4991ZM203.322 66.2749C203.473 66.2991 203.891 66.4434 204.339 67.27L209.613 64.4083C208.564 62.4761 206.785 60.7544 204.273 60.3509L203.322 66.2749ZM202.82 66.3658C203.075 66.2615 203.233 66.2609 203.331 66.2765L204.264 60.3493C202.935 60.1403 201.666 60.3536 200.54 60.816L202.82 66.3658ZM197.704 59.4592C198.251 61.5682 198.627 63.2595 198.698 63.9145L204.663 63.2673C204.536 62.0991 204.035 59.9731 203.513 57.9545L197.704 59.4592ZM195.623 52.4089C195.922 53.0922 196.886 56.2932 197.704 59.4574L203.513 57.9563C202.727 54.9132 201.649 51.2118 201.119 50.0024L195.623 52.4089ZM195.307 45.7709C193.08 47.7808 193.08 47.7806 193.08 47.7804C193.08 47.7804 193.08 47.7802 193.08 47.7801C193.079 47.7799 193.079 47.7799 193.079 47.7799C193.079 47.7798 193.08 47.7801 193.08 47.7806C193.081 47.7817 193.083 47.784 193.086 47.7873C193.092 47.794 193.102 47.805 193.115 47.8202C193.142 47.8505 193.184 47.8972 193.237 47.958C193.344 48.0799 193.497 48.2572 193.678 48.4724C194.045 48.9087 194.503 49.4751 194.911 50.039C195.353 50.6496 195.606 51.0803 195.69 51.2813C195.749 51.4212 195.606 51.1659 195.626 50.6874C195.638 50.405 195.712 49.9466 196.011 49.4657C196.33 48.9548 196.781 48.6176 197.221 48.4349L199.521 53.9763C200.129 53.7242 200.702 53.2837 201.103 52.6402C201.485 52.0267 201.602 51.4065 201.621 50.9375C201.657 50.0857 201.39 49.3581 201.224 48.9624C200.859 48.0923 200.263 47.1991 199.771 46.5205C199.246 45.7951 198.687 45.1071 198.271 44.6113C198.06 44.3604 197.88 44.1523 197.751 44.0051C197.686 43.9315 197.634 43.8728 197.598 43.8314C197.579 43.8107 197.564 43.7943 197.554 43.7824C197.548 43.7765 197.544 43.7718 197.541 43.7682C197.539 43.7664 197.538 43.7649 197.537 43.7637C197.536 43.763 197.536 43.7625 197.535 43.7621C197.535 43.7618 197.535 43.7616 197.535 43.7614C197.535 43.7612 197.534 43.7609 195.307 45.7709ZM192.32 46.6793C192.475 46.9159 192.63 47.1535 192.783 47.3921L197.832 44.1497C197.666 43.8925 197.499 43.6357 197.331 43.3796L192.32 46.6793ZM173.745 33.626C171.365 35.4528 171.366 35.4539 171.367 35.455C171.367 35.4554 171.368 35.4566 171.369 35.4574C171.37 35.4591 171.372 35.4609 171.373 35.4628C171.376 35.4667 171.38 35.4711 171.383 35.476C171.391 35.4858 171.4 35.4976 171.411 35.5115C171.433 35.5392 171.462 35.5749 171.497 35.6183C171.568 35.7049 171.665 35.8218 171.79 35.9656C172.04 36.253 172.399 36.6481 172.871 37.122C173.814 38.0693 175.21 39.3353 177.084 40.6876C180.836 43.3957 186.501 46.4472 194.245 47.9729L195.405 42.086C188.628 40.751 183.752 38.1008 180.595 35.8223C179.014 34.6814 177.863 33.6328 177.123 32.889C176.753 32.5173 176.486 32.2226 176.32 32.0317C176.238 31.9363 176.18 31.8669 176.148 31.827C176.131 31.807 176.121 31.7945 176.117 31.7897C176.116 31.7873 176.115 31.7868 176.116 31.7884C176.117 31.7892 176.118 31.7905 176.119 31.7923C176.12 31.7932 176.121 31.7942 176.122 31.7953C176.122 31.7959 176.123 31.7969 176.123 31.7971C176.124 31.7981 176.125 31.7992 173.745 33.626ZM174.804 43.8326C177.706 43.0728 177.706 43.0732 177.706 43.0735C177.706 43.0736 177.706 43.074 177.706 43.0742C177.706 43.0745 177.706 43.0748 177.707 43.0751C177.707 43.0755 177.707 43.0757 177.707 43.0755C177.707 43.0751 177.706 43.0736 177.705 43.0707C177.704 43.0651 177.701 43.0546 177.697 43.0394C177.69 43.0089 177.678 42.9596 177.661 42.8928C177.629 42.7592 177.582 42.556 177.525 42.2941C177.41 41.7692 177.259 41.0142 177.118 40.114C176.83 38.2874 176.599 35.9791 176.739 33.8205L170.751 33.4315C170.571 36.2104 170.869 39.0054 171.191 41.0477C171.354 42.082 171.527 42.9528 171.662 43.5702C171.729 43.8794 171.787 44.1264 171.829 44.3002C171.85 44.3871 171.867 44.4559 171.879 44.505C171.885 44.5295 171.89 44.5492 171.894 44.5638C171.896 44.5711 171.898 44.5772 171.899 44.5819C171.899 44.5843 171.9 44.5864 171.9 44.5881C171.901 44.589 171.901 44.5898 171.901 44.5905C171.901 44.5908 171.901 44.5913 171.901 44.5915C171.901 44.5919 171.902 44.5923 174.804 43.8326ZM156.86 35.1302C159.648 39.5021 164.906 44.8828 174.206 46.7725L175.401 40.8926C168.046 39.3982 164.045 35.2383 161.919 31.9041L156.86 35.1302ZM153.93 36.5801C155.146 39.323 155.146 39.3228 155.146 39.3227C155.146 39.3227 155.147 39.3225 155.147 39.3224C155.147 39.3222 155.148 39.322 155.148 39.3218C155.149 39.3213 155.151 39.3208 155.152 39.3201C155.155 39.3189 155.158 39.3174 155.162 39.3156C155.17 39.312 155.181 39.3073 155.194 39.3014C155.22 39.2897 155.255 39.2735 155.3 39.2529C155.39 39.2118 155.516 39.1529 155.675 39.0771C155.992 38.9257 156.438 38.7059 156.977 38.424C158.051 37.8623 159.513 37.0424 161.056 36.0115L157.723 31.0228C156.404 31.9038 155.137 32.6155 154.197 33.1073C153.729 33.3521 153.347 33.5396 153.087 33.6637C152.957 33.7257 152.859 33.7717 152.795 33.801C152.763 33.8156 152.74 33.826 152.727 33.8321C152.72 33.8351 152.716 33.8371 152.714 33.8379C152.713 33.8384 152.712 33.8386 152.713 33.8385C152.713 33.8384 152.713 33.8383 152.713 33.8381C152.714 33.838 152.714 33.8379 152.714 33.8377C152.714 33.8377 152.714 33.8376 152.715 33.8375C152.715 33.8374 152.715 33.8373 153.93 36.5801ZM146.511 54.3544C147.408 49.0903 147.894 46.4573 148.958 44.4934C149.895 42.7646 151.434 41.3268 155.35 39.2229L152.511 33.9374C148.243 36.2302 145.456 38.361 143.682 41.635C142.036 44.6739 141.426 48.4778 140.597 53.3473L146.511 54.3544ZM146.097 56.7723C146.245 55.9197 146.382 55.1134 146.511 54.3544L140.597 53.3473C140.467 54.1075 140.332 54.9035 140.185 55.7439L146.097 56.7723ZM145.16 64.1797L146.117 56.6357L140.165 55.8806L139.208 63.4246L145.16 64.1797ZM140.554 66.4999C140.643 66.4851 140.806 66.4825 141.075 66.5898L143.293 61.0145C142.178 60.5711 140.907 60.3599 139.574 60.5803L140.554 66.4999ZM139.714 67.224C140.099 66.6334 140.421 66.5222 140.561 66.4988L139.568 60.5815C137.381 60.9484 135.747 62.3234 134.688 63.9464L139.714 67.224ZM139.26 67.2927C139.061 67.5675 138.716 67.9332 138.175 68.1863C137.606 68.452 137.019 68.5008 136.513 68.4193C135.66 68.2817 135.181 67.8041 135.137 67.7621L139.265 63.4083C139.066 63.2192 138.446 62.6535 137.469 62.4958C136.901 62.4042 136.256 62.4601 135.633 62.751C135.038 63.0293 134.643 63.4385 134.399 63.776L139.26 67.2927ZM135.156 29.5984C129.736 38.9942 129.633 51.5325 133.949 66.3722L139.71 64.6966C135.6 50.5633 136.111 39.951 140.353 32.5961L135.156 29.5984ZM156.646 15.1266C151.296 16.1773 141.007 19.449 135.155 29.5988L140.353 32.5957C144.911 24.6902 153.079 21.9417 157.802 21.0141L156.646 15.1266ZM155.714 15.6351C155.967 15.3708 156.293 15.1979 156.629 15.1298L157.818 21.0109C158.658 20.8412 159.437 20.4224 160.049 19.7839L155.714 15.6351ZM183.677 7.98435C169.221 4.43859 159.923 11.2503 155.717 15.6322L160.046 19.7868C163.363 16.3306 170.59 10.9522 182.247 13.8116L183.677 7.98435ZM184.098 8.10539C184.022 8.08013 183.822 8.01266 183.574 7.96103L182.35 13.8349C182.287 13.8217 182.238 13.8083 182.211 13.8003C182.188 13.7935 182.176 13.7894 182.201 13.7975L184.098 8.10539ZM192.529 10.2097C189.225 9.81907 184.685 8.3039 184.111 8.10966L182.188 13.7932C182.688 13.9626 187.804 15.6927 191.825 16.1682L192.529 10.2097ZM196.753 13.7572C196.172 11.8475 194.545 10.4492 192.531 10.2099L191.823 16.168C191.645 16.1469 191.461 16.0706 191.307 15.9404C191.154 15.8108 191.057 15.6513 191.012 15.5026L196.753 13.7572ZM195.275 19.015C196.763 17.6914 197.323 15.6563 196.756 13.7669L191.009 15.4928C190.912 15.1699 191.013 14.7763 191.287 14.5327L195.275 19.015ZM195.196 19.0848L195.263 19.0259L191.299 14.5217L191.232 14.5805L195.196 19.0848ZM195.78 17.6471C195.82 18.1595 195.618 18.7227 195.17 19.1076L191.258 14.5577C190.201 15.4665 189.694 16.7944 189.798 18.1193L195.78 17.6471Z" fill="#2B5174" mask="url(#path-25-inside-1_11_68)"/>
<path d="M207.96 64.1895C206.947 62.7753 205.602 61.9012 204.07 61.6526C203.763 61.6044 203.45 61.575 203.14 61.5884C202.544 57.8672 201.357 53.7557 199.948 50.5424C199.577 49.695 198.566 49.2967 197.697 49.6576C197.267 49.8367 196.938 50.1655 196.767 50.5879C196.601 50.9996 196.609 51.4513 196.786 51.8604C198.307 55.3276 199.52 59.8428 199.951 63.5907L199.432 69.9825C199.397 70.4209 199.536 70.8486 199.825 71.1881C200.125 71.5383 200.547 71.7522 201.009 71.787C201.958 71.8672 202.787 71.1561 202.859 70.2471L203.29 64.9434C203.37 64.9434 203.442 64.9514 203.512 64.9621C204.092 65.0556 204.648 65.454 205.124 66.1196C206.196 67.614 206.597 70.1055 206.169 72.621C205.321 77.5987 202.375 82.1459 201.124 81.9427C200.886 81.9053 200.651 81.8117 200.403 81.6594C199.935 81.376 199.352 81.3252 198.841 81.531C198.328 81.7342 197.946 82.17 197.82 82.6966C196.786 86.9471 193.142 97.56 181.719 104.321C171.705 109.948 162.83 104.642 162.45 104.409C150.944 97.7097 147.226 87.1235 146.162 82.8811C146.031 82.3571 145.646 81.924 145.13 81.7235C144.619 81.523 144.037 81.5765 143.569 81.8652C143.323 82.0176 143.088 82.1111 142.852 82.1512C141.623 82.3544 138.623 77.8526 137.738 72.867C137.292 70.3541 137.677 67.8599 138.738 66.3575C139.209 65.6919 139.762 65.2882 140.339 65.192C140.412 65.1813 140.486 65.1733 140.567 65.1733L141.034 70.4744C141.112 71.3378 141.866 72.0088 142.751 72.0062C142.799 72.0062 142.847 72.0062 142.892 72.0008C143.358 71.9607 143.777 71.7469 144.077 71.394C144.363 71.0545 144.499 70.6241 144.459 70.1857L143.884 63.6976L143.614 58.5462C143.566 57.6266 142.756 56.8968 141.81 56.9583C141.342 56.9824 140.914 57.1828 140.607 57.525C140.31 57.8538 140.158 58.2789 140.179 58.72L140.342 61.8237C140.147 61.8343 139.949 61.8557 139.757 61.8878C138.228 62.1444 136.891 63.0293 135.888 64.4488C134.295 66.7051 133.734 69.9852 134.346 73.4417C135.153 77.989 138.604 86.1398 143.32 85.4741C145.01 90.9169 149.479 100.771 160.638 107.264C160.835 107.387 165.559 110.282 172.167 110.258C176.084 110.245 179.883 109.218 183.459 107.208C194.604 100.613 199.01 90.7271 200.665 85.2683C200.841 85.2923 201.012 85.295 201.194 85.303C205.907 85.2843 208.909 76.9651 209.553 73.1717C210.141 69.7098 209.553 66.4377 207.947 64.1922L207.96 64.1895Z" fill="#2B5174"/>
<path d="M172.673 45.7014C172.82 45.7388 172.964 45.7548 173.108 45.7548C173.886 45.7521 174.595 45.2255 174.793 44.4369C175.028 43.5012 174.464 42.5549 173.528 42.317C161.517 39.2828 158.78 25.5074 158.756 25.3684C158.579 24.4221 157.665 23.7965 156.721 23.973C155.775 24.1494 155.149 25.0583 155.323 26.0073C155.443 26.6623 158.467 42.1138 172.673 45.7014Z" fill="#2B5174"/>
<path d="M197.967 46.0033C197.991 46.0033 198.015 46.0033 198.037 46.0033C198.97 46.0006 199.74 45.2601 199.774 44.3218C199.809 43.3594 199.058 42.5494 198.093 42.5147C186.178 42.0816 176.835 33.217 176.744 33.1288C176.052 32.4605 174.945 32.4792 174.277 33.1716C173.606 33.8639 173.624 34.9707 174.319 35.639C174.736 36.0427 184.686 45.5194 197.964 46.0033H197.967Z" fill="#2B5174"/>
<path d="M162.215 89.1285C161.827 89.9545 162.183 90.9409 163.009 91.3286C163.249 91.4408 167.024 93.1705 172.082 93.1544C174.833 93.1437 177.963 92.6171 181.107 91.0292C181.922 90.6175 182.251 89.623 181.839 88.8077C181.428 87.9923 180.433 87.6635 179.618 88.0752C172.162 91.8365 164.49 88.3666 164.412 88.3318C163.586 87.9469 162.603 88.3024 162.215 89.1285Z" fill="#2B5174"/>
<path d="M182.433 62.7353C182.444 64.0372 183.51 65.0851 184.812 65.0744C186.114 65.0638 187.162 63.9998 187.151 62.6979C187.14 61.396 186.077 60.3481 184.775 60.3588C183.473 60.3695 182.422 61.4334 182.433 62.7353Z" fill="#2B5174"/>
<path d="M157.256 62.9309C157.267 64.2328 158.331 65.2808 159.633 65.2701C160.935 65.2594 161.983 64.1954 161.972 62.8935C161.961 61.5916 160.897 60.5437 159.595 60.5544C158.293 60.5651 157.245 61.6291 157.256 62.9309Z" fill="#2B5174"/>
<path d="M153.936 53.4834C153.353 53.3844 152.845 52.9728 152.647 52.3739C152.364 51.5105 152.834 50.5802 153.698 50.2941C158.435 48.7383 162.164 51.4142 162.319 51.5292C163.052 52.0665 163.212 53.0984 162.672 53.8309C162.135 54.5607 161.111 54.7211 160.378 54.1918C160.258 54.1062 157.807 52.4114 154.727 53.4245C154.462 53.5101 154.192 53.5288 153.936 53.4834Z" fill="#2B5174"/>
<path d="M173.523 83.836C174.317 83.8306 174.953 83.181 174.948 82.3897C174.943 81.5958 174.293 80.9595 173.502 80.9649L170.882 80.9863C170.088 80.9916 169.452 81.6412 169.457 82.4325C169.462 83.2265 170.112 83.8627 170.903 83.8574L173.523 83.836Z" fill="#2B5174"/>
<path d="M170.272 83.9371C170.077 83.8569 169.898 83.7392 169.743 83.5869C169.432 83.2794 169.259 82.8704 169.256 82.4347C169.253 81.9989 169.419 81.5846 169.727 81.2745C170.034 80.9617 170.443 80.788 170.879 80.7853L173.499 80.7639C173.937 80.7612 174.346 80.927 174.659 81.2344C174.969 81.5418 175.143 81.9508 175.145 82.3866C175.148 82.8223 174.982 83.2367 174.675 83.5468C174.367 83.8595 173.958 84.0306 173.523 84.036L170.9 84.0574C170.678 84.0574 170.464 84.0173 170.267 83.9371H170.272ZM173.98 81.2584C173.83 81.197 173.67 81.1649 173.501 81.1676L170.879 81.1889C170.55 81.1889 170.24 81.3226 170.01 81.5579C169.777 81.7931 169.652 82.1032 169.654 82.4347C169.654 82.7635 169.788 83.0736 170.023 83.3035C170.258 83.5361 170.569 83.6617 170.9 83.659L173.52 83.6377C173.849 83.6377 174.159 83.504 174.389 83.2687C174.621 83.0335 174.747 82.7234 174.744 82.3919C174.744 82.0631 174.611 81.753 174.375 81.5204C174.258 81.4055 174.124 81.3173 173.977 81.2558L173.98 81.2584Z" fill="#2B5174"/>
<path d="M232.233 268.818C231.822 268.818 231.413 268.663 231.094 268.356C230.45 267.727 230.437 266.695 231.065 266.048C238.502 258.416 257.014 233.779 257.635 232.261C261.92 218.445 277.059 217.125 277.703 217.077C278.585 217.01 279.384 217.678 279.454 218.579C279.523 219.477 278.852 220.261 277.954 220.33C277.398 220.376 264.326 221.557 260.73 233.29C260.717 233.336 260.701 233.381 260.682 233.427C260.198 234.619 241.456 260.06 233.399 268.329C233.078 268.658 232.656 268.821 232.231 268.821L232.233 268.818Z" fill="#2B5174"/>
<path d="M257.953 225.679C257.456 225.679 256.967 225.454 256.646 225.026L251.377 218.001C250.837 217.279 250.981 216.258 251.703 215.718C252.422 215.178 253.446 215.322 253.986 216.044L259.255 223.07C259.795 223.791 259.651 224.813 258.929 225.353C258.635 225.572 258.293 225.679 257.953 225.679Z" fill="#2B5174"/>
<path d="M227.632 197.356C227.117 197.356 226.606 197.11 226.29 196.653L216.129 181.977C215.616 181.236 215.801 180.22 216.544 179.707C217.282 179.197 218.3 179.378 218.813 180.121L228.974 194.798C229.488 195.538 229.303 196.554 228.56 197.067C228.277 197.263 227.953 197.356 227.632 197.356Z" fill="#2B5174"/>
</g>
</svg>
