<svg width="699" height="183" viewBox="0 0 699 183" fill="none" xmlns="http://www.w3.org/2000/svg">
<path d="M11.7908 44V20.448H25.7428V23.584H15.5348V30.112H24.1428V33.28H15.5348V40.864H26.0948V44H11.7908ZM32.5783 44V20.448H38.7223C45.9543 20.448 50.0503 24.448 50.0503 32.128C50.0503 39.808 45.9543 44 38.9143 44H32.5783ZM36.3223 40.96H38.4343C43.4903 40.96 46.2423 37.984 46.2423 32.128C46.2423 26.272 43.4903 23.456 38.4343 23.456H36.3223V40.96ZM67.2093 42.56H80.1373V45.344H67.2093V42.56ZM65.7693 33.6H81.6413V46.624H78.5693V36.416H68.7133V46.72H65.7693V33.6ZM63.0813 28C67.6573 27.84 74.8573 27.456 81.5453 27.104L81.5133 29.888C75.0493 30.336 68.1693 30.752 63.4653 31.04L63.0813 28ZM75.3373 23.072L77.9933 21.76C80.5853 24.608 83.3053 28.448 84.5533 31.04L81.7693 32.608C80.5853 29.984 77.8333 25.952 75.3373 23.072ZM70.3133 16.96L73.8013 17.76C72.2333 21.792 70.1213 26.624 68.3933 29.728L65.6733 28.896C67.3693 25.696 69.3213 20.64 70.3133 16.96ZM56.3933 19.424L58.0573 17.152C60.1693 17.952 62.8573 19.328 64.2013 20.448L62.4093 23.008C61.1613 21.856 58.5373 20.352 56.3933 19.424ZM54.5373 28.16L56.2013 25.824C58.3133 26.528 61.0653 27.808 62.4733 28.864L60.7133 31.456C59.4333 30.368 56.7133 28.96 54.5373 28.16ZM55.6253 44.256C57.3213 41.824 59.7533 37.696 61.6413 34.048L63.8813 36.032C62.2173 39.392 60.1053 43.232 58.2173 46.304L55.6253 44.256ZM96.8413 24.896H117.481V27.232H96.8413V24.896ZM96.7773 28.896L98.3773 27.552C99.5293 28.288 101.001 29.408 101.769 30.176L100.073 31.68C99.3693 30.912 97.9293 29.728 96.7773 28.896ZM110.313 41.184L112.585 40.032C114.313 41.472 116.393 43.552 117.385 44.96L114.953 46.304C114.057 44.896 112.041 42.72 110.313 41.184ZM102.089 35.84V37.536H111.497V35.84H102.089ZM102.089 32.448V34.08H111.497V32.448H102.089ZM99.5293 30.56H114.153V39.424H99.5293V30.56ZM99.7853 39.968L102.537 40.736C101.321 42.816 99.3053 44.928 97.4493 46.24C96.9693 45.728 95.8813 44.832 95.2093 44.448C97.0013 43.328 98.7613 41.664 99.7853 39.968ZM115.305 27.328L117.129 28.64C116.105 29.664 114.825 30.656 113.833 31.296L112.265 30.112C113.225 29.408 114.569 28.128 115.305 27.328ZM110.121 25.824C111.689 28.704 114.857 31.392 118.217 32.64C117.609 33.152 116.841 34.112 116.425 34.752C112.905 33.216 109.673 30.048 107.849 26.56L110.121 25.824ZM105.289 38.368H108.233V43.968C108.233 45.28 107.977 45.952 106.953 46.336C105.993 46.72 104.585 46.752 102.569 46.752C102.409 45.984 101.961 44.992 101.609 44.288C103.017 44.352 104.361 44.32 104.777 44.32C105.193 44.32 105.289 44.192 105.289 43.872V38.368ZM104.809 22.368L107.625 22.752C106.121 27.424 102.985 31.936 97.1613 34.912C96.7773 34.24 95.9453 33.344 95.3053 32.928C100.777 30.368 103.721 26.24 104.809 22.368ZM94.2173 19.808H117.833V22.368H94.2173V19.808ZM92.7453 19.808H95.5613V30.112C95.5613 35.136 94.8893 42.24 90.8893 46.72C90.4413 46.144 89.3533 45.088 88.7773 44.704C92.3933 40.608 92.7453 34.688 92.7453 30.112V19.808ZM103.049 16.992H106.217V21.28H103.049V16.992ZM88.2333 23.52L90.4413 22.624C91.4333 24.64 92.2973 27.232 92.4893 28.832L90.1533 29.92C89.9293 28.256 89.1293 25.568 88.2333 23.52ZM87.8493 35.008C89.3213 34.336 91.3373 33.28 93.5133 32.16L94.1853 34.464C92.3933 35.584 90.5373 36.704 88.7773 37.696L87.8493 35.008ZM122.473 19.04H150.985V21.632H122.473V19.04ZM129.609 16.992H132.585V23.936H129.609V16.992ZM140.681 16.992H143.689V23.936H140.681V16.992ZM133.417 30.848V33.024H139.945V30.848H133.417ZM133.417 26.752V28.896H139.945V26.752H133.417ZM130.729 24.704H142.761V35.072H130.729V24.704ZM135.337 22.272L138.313 22.752C137.705 24.032 137.129 25.216 136.681 26.08L134.185 25.568C134.601 24.608 135.081 23.232 135.337 22.272ZM147.689 23.52L150.281 24.8C148.905 26.432 147.081 28.096 145.673 29.184L143.369 28C144.777 26.848 146.633 24.896 147.689 23.52ZM122.473 36.768H150.889V39.36H122.473V36.768ZM135.113 34.56H138.121V46.688H135.113V34.56ZM134.121 37.728L136.425 38.752C133.513 42.144 128.361 45.056 123.593 46.432C123.209 45.696 122.377 44.64 121.769 44.064C126.409 42.944 131.529 40.512 134.121 37.728ZM139.049 37.888C141.577 40.672 146.665 42.944 151.561 43.872C150.953 44.448 150.153 45.536 149.769 46.272C144.777 45.024 139.721 42.272 136.841 38.784L139.049 37.888ZM123.177 25.216L125.353 23.68C126.953 24.864 128.809 26.624 129.609 27.936L127.273 29.632C126.537 28.32 124.745 26.464 123.177 25.216ZM142.633 31.648L144.361 29.76C146.505 30.816 149.481 32.512 150.921 33.696L149.129 35.808C147.721 34.592 144.841 32.8 142.633 31.648ZM122.281 33.216C124.201 32.512 126.921 31.296 129.673 30.144L130.313 32.544C128.009 33.664 125.545 34.816 123.529 35.776L122.281 33.216ZM166.921 24.768C168.745 24.96 170.505 25.056 172.425 25.056C176.297 25.056 180.265 24.736 183.529 24.064V27.2C180.137 27.744 176.201 28 172.393 28C170.537 28 168.809 27.936 166.921 27.808V24.768ZM178.537 19.2C178.441 19.808 178.377 20.512 178.345 21.184C178.281 22.304 178.249 24.544 178.249 26.624C178.249 31.968 178.729 36.576 178.729 39.776C178.729 42.72 177.321 45.216 172.873 45.216C168.521 45.216 165.993 43.456 165.993 40.352C165.993 37.44 168.553 35.264 172.809 35.264C178.473 35.264 182.281 38.08 184.905 40.48L183.145 43.136C179.657 39.872 176.425 37.696 172.553 37.696C170.409 37.696 168.937 38.624 168.937 40.032C168.937 41.536 170.377 42.272 172.425 42.272C174.793 42.272 175.529 41.056 175.529 39.04C175.529 36.768 175.113 31.04 175.113 26.656C175.113 24.352 175.081 22.272 175.081 21.216C175.081 20.704 175.017 19.776 174.921 19.2H178.537ZM162.825 19.456C162.601 20.032 162.281 21.344 162.185 21.92C161.609 24.544 160.617 31.168 160.617 34.592C160.617 35.744 160.681 36.864 160.841 38.016C161.321 36.704 161.993 35.136 162.505 33.92L164.105 35.2C163.273 37.6 162.153 40.864 161.801 42.496C161.705 42.944 161.641 43.616 161.673 43.968C161.673 44.288 161.705 44.8 161.737 45.184L158.889 45.408C158.249 43.136 157.641 39.552 157.641 35.232C157.641 30.464 158.665 24.384 159.049 21.824C159.177 20.992 159.273 20 159.305 19.168L162.825 19.456ZM196.361 45.984C194.345 43.52 191.593 40.768 189.353 38.88L191.977 36.608C194.281 38.464 197.257 41.472 199.081 43.648L196.361 45.984ZM237.353 19.904C234.729 23.744 229.673 28.32 224.329 31.36C223.945 30.656 223.081 29.568 222.409 28.96C227.945 26.016 233.225 20.992 235.625 16.928H238.761C242.121 21.728 247.561 26.208 252.617 28.576C251.849 29.344 251.145 30.336 250.601 31.264C245.673 28.448 240.169 23.84 237.353 19.904ZM226.505 35.84H248.361V38.496H226.505V35.84ZM228.041 28.704H247.017V31.392H228.041V28.704ZM223.913 43.168H251.209V45.888H223.913V43.168ZM235.785 29.856H238.953V44.672H235.785V29.856ZM278.025 20.64C277.193 21.28 276.169 22.112 275.561 22.624C273.417 24.448 268.969 27.904 266.697 29.824C264.873 31.392 264.873 31.84 266.793 33.472C269.481 35.68 275.337 40.352 278.665 43.648L275.753 46.336C274.985 45.44 274.153 44.576 273.289 43.712C271.177 41.536 266.377 37.44 263.433 34.976C260.329 32.352 260.649 30.848 263.657 28.288C266.121 26.272 270.793 22.56 272.937 20.416C273.705 19.648 274.601 18.688 275.049 18.016L278.025 20.64ZM292.681 30.08H301.961V32.384H292.681V30.08ZM290.281 20.032H305.929V22.56H290.281V20.032ZM296.713 17.184H299.593V27.04H296.713V17.184ZM290.473 25.344H305.833V30.464H303.177V27.84H293.033V30.464H290.473V25.344ZM296.617 34.24H299.465V43.552C299.465 44.96 299.177 45.728 298.153 46.176C297.129 46.624 295.689 46.656 293.609 46.656C293.449 45.856 293.033 44.704 292.585 43.936C294.153 43.968 295.625 43.968 296.073 43.968C296.521 43.936 296.617 43.84 296.617 43.488V34.24ZM290.089 36.96C294.089 36.64 300.297 35.968 306.121 35.36V37.952C300.521 38.592 294.537 39.232 290.377 39.68L290.089 36.96ZM301.353 30.08H302.057L302.633 29.92L304.425 31.296C302.921 33.088 300.777 35.072 298.921 36.352C298.569 35.84 297.833 35.104 297.385 34.72C298.793 33.664 300.521 31.84 301.353 30.592V30.08ZM306.025 24.32H317.321V27.104H306.025V24.32ZM315.881 24.32H318.697C318.697 24.32 318.697 25.344 318.665 25.696C318.377 39.136 318.089 43.744 317.065 45.152C316.425 46.08 315.753 46.368 314.761 46.496C313.801 46.624 312.265 46.624 310.729 46.56C310.665 45.728 310.345 44.512 309.865 43.744C311.401 43.872 312.809 43.872 313.417 43.872C313.929 43.904 314.249 43.808 314.537 43.36C315.305 42.4 315.625 37.824 315.881 24.96V24.32ZM309.449 17.44H312.265C312.233 30.72 312.201 41.056 305.193 46.72C304.777 46.016 303.817 44.992 303.113 44.544C309.609 39.456 309.417 29.984 309.449 17.44ZM336.873 18.688C336.649 19.456 336.393 20.768 336.265 21.44C335.785 23.68 335.049 27.424 334.185 30.656C333.033 35.168 330.889 41.728 329.161 45.376L325.641 44.192C327.561 40.928 329.897 34.336 331.081 29.824C331.881 26.848 332.681 23.04 332.905 21.28C333.033 20.256 333.097 19.072 333.001 18.368L336.873 18.688ZM329.321 23.776C333.001 23.776 337.609 23.2 341.673 22.208V25.376C337.705 26.272 332.777 26.816 329.257 26.816C327.785 26.816 326.633 26.752 325.481 26.688L325.385 23.52C326.953 23.712 328.073 23.776 329.321 23.776ZM339.401 28.384C341.129 28.224 343.337 28.096 345.385 28.096C347.241 28.096 349.161 28.192 350.953 28.384L350.889 31.424C349.257 31.232 347.337 31.04 345.449 31.04C343.369 31.04 341.385 31.136 339.401 31.36V28.384ZM340.521 36.288C340.265 37.28 340.073 38.304 340.073 39.072C340.073 40.544 340.969 41.824 345.033 41.824C347.145 41.824 349.353 41.6 351.465 41.184L351.337 44.416C349.577 44.672 347.433 44.864 345.001 44.864C339.817 44.864 337.001 43.2 337.001 40C337.001 38.656 337.257 37.312 337.513 36L340.521 36.288ZM358.761 23.488C360.041 23.648 361.545 23.712 362.825 23.712C366.505 23.712 370.665 23.168 374.089 22.048L374.185 25.024C371.209 25.824 366.825 26.592 362.857 26.56C361.609 26.56 360.265 26.528 358.985 26.464L358.761 23.488ZM370.601 18.464C370.185 20.064 369.449 23.136 368.649 25.6C367.145 30.208 364.233 36.096 361.545 39.776L358.473 38.176C361.321 34.752 364.265 29.12 365.545 25.472C366.281 23.328 366.985 20.448 367.081 18.112L370.601 18.464ZM378.121 28.384C378.025 29.696 378.057 30.848 378.089 32.096C378.153 34.112 378.441 38.912 378.441 40.896C378.441 43.648 376.809 45.824 372.585 45.824C368.873 45.824 365.897 44.256 365.897 40.928C365.897 37.888 368.617 35.808 372.585 35.808C378.057 35.808 382.281 38.528 384.937 40.864L383.241 43.584C380.841 41.408 377.193 38.336 372.425 38.336C370.281 38.336 368.873 39.328 368.873 40.64C368.873 41.984 369.993 42.912 372.169 42.912C374.633 42.912 375.433 41.6 375.433 39.84C375.433 37.632 375.081 31.84 374.953 28.384H378.121ZM384.137 29.6C382.345 28.128 378.793 26.112 376.649 25.12L378.281 22.656C380.585 23.648 384.361 25.76 385.929 26.944L384.137 29.6ZM397.129 21.44C396.937 22.368 396.809 24.032 396.809 24.896C396.777 26.944 396.809 29.632 397.001 32.128C397.513 37.152 398.793 40.544 400.969 40.544C402.537 40.544 403.945 37.024 404.681 34.112L407.209 37.088C405.193 42.592 403.241 44.48 400.905 44.48C397.641 44.48 394.697 41.408 393.801 32.992C393.513 30.144 393.449 26.304 393.449 24.416C393.449 23.616 393.417 22.24 393.225 21.376L397.129 21.44ZM413.481 22.272C416.425 25.952 418.793 33.28 419.209 38.464L415.945 39.776C415.401 34.272 413.577 27.168 410.313 23.328L413.481 22.272ZM436.969 17.888H440.393C440.105 23.072 439.657 38.88 426.473 46.432C425.961 45.664 424.969 44.736 423.977 44.032C436.937 37.184 436.745 22.112 436.969 17.888ZM440.265 18.624C440.361 21.248 441.193 37.792 454.345 43.872C453.417 44.576 452.489 45.6 452.009 46.432C438.377 39.776 437.577 21.984 437.353 18.912L440.265 18.624ZM475.081 22.144C474.665 25.44 474.025 29.184 472.969 32.736C471.017 39.264 468.393 42.912 465.193 42.912C462.025 42.912 459.145 39.36 459.145 34.016C459.145 26.88 465.417 20.704 473.449 20.704C481.129 20.704 485.993 26.08 485.993 32.8C485.993 39.52 481.705 44.128 473.897 45.216L472.009 42.24C473.129 42.112 474.057 41.952 474.857 41.792C478.953 40.832 482.633 37.824 482.633 32.672C482.633 27.584 479.273 23.648 473.385 23.648C466.441 23.648 462.345 29.312 462.345 33.728C462.345 37.408 463.945 39.104 465.289 39.104C466.729 39.104 468.233 36.992 469.737 32.064C470.665 29.024 471.369 25.376 471.689 22.048L475.081 22.144ZM496.809 33.984H518.569V36.608H496.809V33.984ZM492.585 22.368H513.641V25.12H492.585V22.368ZM501.801 28.192H516.393V30.816H501.801V28.192ZM517.353 33.984H520.361C520.361 33.984 520.329 34.816 520.265 35.2C519.689 41.856 519.113 44.576 518.089 45.632C517.417 46.336 516.745 46.592 515.721 46.688C514.889 46.752 513.321 46.752 511.657 46.688C511.625 45.856 511.273 44.672 510.793 43.904C512.329 44.064 513.769 44.096 514.409 44.064C514.953 44.064 515.273 44.032 515.593 43.744C516.297 43.04 516.873 40.576 517.353 34.432V33.984ZM510.377 38.08L512.457 37.312C513.417 38.624 514.377 40.416 514.729 41.568L512.521 42.432C512.169 41.28 511.241 39.424 510.377 38.08ZM496.393 18.112L499.081 17.056C500.265 18.304 501.641 20.096 502.281 21.312L499.433 22.528C498.889 21.312 497.577 19.456 496.393 18.112ZM500.809 38.88L503.273 38.592C503.881 40.64 504.201 43.296 504.201 45.056L501.577 45.408C501.673 43.68 501.353 40.992 500.809 38.88ZM505.577 38.624L507.913 38.08C508.713 39.84 509.481 42.144 509.737 43.68L507.241 44.32C507.049 42.784 506.313 40.416 505.577 38.624ZM496.617 38.016L499.177 38.848C498.473 41.568 497.417 44.576 495.497 46.56L493.161 44.896C494.857 43.232 496.041 40.512 496.617 38.016ZM506.153 16.96L509.257 17.728C506.377 26.784 501.385 35.296 492.649 40.256C492.297 39.52 491.529 38.336 491.017 37.664C499.049 33.344 503.849 25.184 506.153 16.96ZM513.001 22.368H515.817C515.369 24.672 514.793 27.392 514.281 29.184L511.625 28.768C512.105 27.072 512.649 24.448 513.001 22.368ZM515.273 28.192H518.089C517.641 30.464 517.097 33.184 516.585 34.944L513.897 34.624C514.409 32.864 514.953 30.272 515.273 28.192ZM537.513 19.104C537.289 19.872 537.001 21.184 536.873 21.856C536.425 24.096 535.689 27.84 534.825 31.072C533.673 35.584 531.529 42.176 529.801 45.792L526.281 44.608C528.201 41.344 530.537 34.752 531.721 30.24C532.521 27.264 533.321 23.488 533.545 21.696C533.673 20.672 533.737 19.488 533.641 18.784L537.513 19.104ZM529.961 24.192C533.641 24.192 538.249 23.616 542.313 22.624V25.792C538.345 26.688 533.417 27.232 529.897 27.232C528.425 27.232 527.273 27.168 526.121 27.104L526.025 23.968C527.593 24.16 528.713 24.192 529.961 24.192ZM540.041 28.832C541.769 28.64 543.945 28.512 546.025 28.512C547.881 28.512 549.801 28.608 551.593 28.8L551.529 31.84C549.897 31.648 547.977 31.456 546.089 31.456C543.977 31.456 542.025 31.552 540.041 31.808V28.832ZM541.161 36.704C540.905 37.696 540.713 38.72 540.713 39.488C540.713 40.96 541.609 42.24 545.673 42.24C547.785 42.24 549.993 42.016 552.105 41.6L551.977 44.832C550.217 45.088 548.073 45.312 545.641 45.312C540.457 45.312 537.641 43.616 537.641 40.416C537.641 39.072 537.865 37.728 538.153 36.416L541.161 36.704ZM548.137 20.064C548.969 21.216 550.121 23.2 550.729 24.448L548.649 25.376C548.009 24.064 546.953 22.144 546.089 20.928L548.137 20.064ZM551.785 18.688C552.649 19.872 553.865 21.888 554.441 23.072L552.361 23.968C551.689 22.592 550.633 20.768 549.737 19.552L551.785 18.688ZM582.057 18.848C581.961 19.456 581.929 20.16 581.929 20.864C581.897 22.176 581.993 27.872 581.993 29.696C581.993 37.12 581.737 42.112 575.113 46.112L572.201 43.84C573.289 43.36 574.729 42.464 575.561 41.6C578.569 38.784 578.889 35.488 578.889 29.664C578.889 27.456 578.793 22.4 578.665 20.896C578.601 20.128 578.473 19.36 578.345 18.848H582.057ZM569.961 25.312C571.433 25.536 573.257 25.664 574.985 25.664C579.017 25.664 583.817 25.376 586.985 24.704V28C583.913 28.416 579.241 28.704 575.049 28.704C573.577 28.704 571.433 28.608 569.961 28.512V25.312ZM565.993 19.36C565.769 20.032 565.513 21.024 565.353 21.664C564.425 25.824 563.305 32.704 564.393 37.408C564.809 36.192 565.449 34.432 566.025 33.024L567.657 34.048C566.825 36.512 565.897 39.744 565.545 41.44C565.417 41.92 565.353 42.56 565.385 42.944C565.385 43.264 565.417 43.744 565.449 44.128L562.665 44.416C561.993 42.464 560.937 38.176 560.937 34.176C560.937 28.96 561.673 24.032 562.057 21.408C562.185 20.608 562.217 19.648 562.249 18.976L565.993 19.36ZM593.449 22.56C594.697 22.528 595.817 22.464 596.425 22.4C598.761 22.176 604.489 21.632 610.345 21.152C613.769 20.864 616.969 20.672 619.177 20.576L619.209 23.808C617.417 23.808 614.633 23.84 612.969 24.288C608.713 25.568 605.865 30.112 605.865 33.92C605.865 39.744 611.305 41.696 616.617 41.92L615.433 45.312C609.161 44.992 602.601 41.664 602.601 34.592C602.601 29.792 605.449 25.888 608.041 24.192C604.809 24.544 597.353 25.28 593.801 26.048L593.449 22.56ZM614.601 27.392C615.369 28.48 616.553 30.464 617.193 31.808L615.209 32.704C614.441 31.072 613.641 29.6 612.649 28.224L614.601 27.392ZM618.121 25.984C618.921 27.072 620.169 28.992 620.873 30.336L618.889 31.296C618.089 29.664 617.225 28.256 616.233 26.88L618.121 25.984ZM627.561 23.488C628.841 23.648 630.345 23.712 631.625 23.712C635.305 23.712 639.465 23.168 642.889 22.048L642.985 25.024C640.009 25.824 635.625 26.592 631.657 26.56C630.409 26.56 629.065 26.528 627.785 26.464L627.561 23.488ZM639.401 18.464C638.985 20.064 638.249 23.136 637.449 25.6C635.945 30.208 633.033 36.096 630.345 39.776L627.273 38.176C630.121 34.752 633.065 29.12 634.345 25.472C635.081 23.328 635.785 20.448 635.881 18.112L639.401 18.464ZM646.921 28.384C646.825 29.696 646.857 30.848 646.889 32.096C646.953 34.112 647.241 38.912 647.241 40.896C647.241 43.648 645.609 45.824 641.385 45.824C637.673 45.824 634.697 44.256 634.697 40.928C634.697 37.888 637.417 35.808 641.385 35.808C646.857 35.808 651.081 38.528 653.737 40.864L652.041 43.584C649.641 41.408 645.993 38.336 641.225 38.336C639.081 38.336 637.673 39.328 637.673 40.64C637.673 41.984 638.793 42.912 640.969 42.912C643.433 42.912 644.233 41.6 644.233 39.84C644.233 37.632 643.881 31.84 643.753 28.384H646.921ZM652.937 29.6C651.145 28.128 647.593 26.112 645.449 25.12L647.081 22.656C649.385 23.648 653.161 25.76 654.729 26.944L652.937 29.6ZM681.225 20.64C680.393 21.28 679.369 22.112 678.761 22.624C676.617 24.448 672.169 27.904 669.897 29.824C668.073 31.392 668.073 31.84 669.993 33.472C672.681 35.68 678.537 40.352 681.865 43.648L678.953 46.336C678.185 45.44 677.353 44.576 676.489 43.712C674.377 41.536 669.577 37.44 666.633 34.976C663.529 32.352 663.849 30.848 666.857 28.288C669.321 26.272 673.993 22.56 676.137 20.416C676.905 19.648 677.801 18.688 678.249 18.016L681.225 20.64ZM27.388 81.928H43.676V84.68H27.388V81.928ZM26.172 94.088H44.924V96.84H26.172V94.088ZM25.852 88.2H45.148V90.952H25.852V88.2ZM34.076 78.152H36.956V89.64H34.076V78.152ZM38.268 90.44H41.148V104.328C41.148 105.96 40.828 106.76 39.74 107.208C38.716 107.656 37.084 107.688 34.716 107.688C34.62 106.856 34.204 105.64 33.852 104.808C35.484 104.872 37.18 104.872 37.628 104.84C38.14 104.84 38.268 104.712 38.268 104.264V90.44ZM28.284 98.76L30.652 97.416C32.028 99.08 33.628 101.352 34.3 102.888L31.74 104.424C31.164 102.888 29.66 100.488 28.284 98.76ZM15.068 94.664C17.628 94.024 21.468 92.936 25.148 91.816L25.532 94.568C22.172 95.656 18.588 96.744 15.804 97.608L15.068 94.664ZM15.548 84.296H25.372V87.08H15.548V84.296ZM19.452 78.024H22.268V104.232C22.268 105.736 21.948 106.536 21.084 107.016C20.22 107.464 18.908 107.592 16.892 107.56C16.796 106.824 16.444 105.576 16.06 104.744C17.34 104.808 18.524 104.808 18.908 104.776C19.292 104.776 19.452 104.648 19.452 104.2V78.024ZM68.156 77.96H71.132V86.984H68.156V77.96ZM61.116 80.776H78.332V83.272H61.116V80.776ZM62.236 85.736H77.308V88.264H62.236V85.736ZM61.148 90.12H78.492V96.136H75.836V92.52H63.708V96.136H61.148V90.12ZM70.972 94.536H73.692V103.912C73.692 104.744 73.788 104.872 74.364 104.872C74.588 104.872 75.644 104.872 75.964 104.872C76.508 104.872 76.668 104.36 76.732 100.936C77.276 101.416 78.428 101.832 79.196 102.056C78.94 106.344 78.236 107.464 76.252 107.464C75.804 107.464 74.364 107.464 73.916 107.464C71.516 107.464 70.972 106.632 70.972 103.912V94.536ZM65.116 94.568H67.868V96.84C67.868 100.072 67.1 104.712 61.02 107.752C60.572 107.144 59.612 106.248 58.94 105.704C64.476 103.048 65.116 99.208 65.116 96.744V94.568ZM53.916 78.024L56.572 78.984C55.324 81.384 53.82 84.264 52.604 86.056L50.556 85.192C51.708 83.304 53.148 80.2 53.916 78.024ZM57.532 81.736L60.028 82.888C57.756 86.44 54.652 90.952 52.22 93.704L50.428 92.712C52.828 89.864 55.804 85.128 57.532 81.736ZM48.892 85.032L50.428 83.048C52.124 84.584 54.076 86.696 54.876 88.2L53.212 90.472C52.444 88.936 50.556 86.664 48.892 85.032ZM56.348 89.192L58.492 88.328C59.804 90.44 61.084 93.224 61.5 95.016L59.164 96.072C58.78 94.248 57.596 91.368 56.348 89.192ZM48.7 92.104C51.516 91.976 55.58 91.752 59.58 91.528L59.612 94.024C55.836 94.312 51.964 94.568 49.02 94.76L48.7 92.104ZM57.212 97.064L59.356 96.424C60.188 98.248 60.828 100.616 61.052 102.152L58.748 102.888C58.588 101.32 57.948 98.92 57.212 97.064ZM50.396 96.52L52.86 96.936C52.476 100.008 51.772 103.112 50.812 105.16C50.3 104.84 49.148 104.328 48.54 104.072C49.532 102.152 50.076 99.272 50.396 96.52ZM53.82 93.384H56.476V107.688H53.82V93.384ZM92.796 79.88C92.636 81.064 92.508 82.408 92.444 83.56C92.316 87.112 92.06 94.504 92.06 98.92C92.06 102.312 94.14 103.464 96.956 103.464C102.556 103.464 105.884 100.296 108.188 96.904L110.492 99.656C108.348 102.728 104.028 106.856 96.892 106.856C91.996 106.856 88.732 104.776 88.732 99.432C88.732 94.888 89.052 86.664 89.052 83.56C89.052 82.248 88.956 80.936 88.732 79.848L92.796 79.88ZM117.98 84.488C119.26 84.648 120.764 84.712 122.044 84.712C125.724 84.712 129.884 84.168 133.308 83.048L133.404 86.024C130.428 86.824 126.044 87.592 122.076 87.56C120.828 87.56 119.484 87.528 118.204 87.464L117.98 84.488ZM129.82 79.464C129.404 81.064 128.668 84.136 127.868 86.6C126.364 91.208 123.452 97.096 120.764 100.776L117.692 99.176C120.54 95.752 123.484 90.12 124.764 86.472C125.5 84.328 126.204 81.448 126.3 79.112L129.82 79.464ZM137.34 89.384C137.244 90.696 137.276 91.848 137.308 93.096C137.372 95.112 137.66 99.912 137.66 101.896C137.66 104.648 136.028 106.824 131.804 106.824C128.092 106.824 125.116 105.256 125.116 101.928C125.116 98.888 127.836 96.808 131.804 96.808C137.276 96.808 141.5 99.528 144.156 101.864L142.46 104.584C140.06 102.408 136.412 99.336 131.644 99.336C129.5 99.336 128.092 100.328 128.092 101.64C128.092 102.984 129.212 103.912 131.388 103.912C133.852 103.912 134.652 102.6 134.652 100.84C134.652 98.632 134.3 92.84 134.172 89.384H137.34ZM143.356 90.6C141.564 89.128 138.012 87.112 135.868 86.12L137.5 83.656C139.804 84.648 143.58 86.76 145.148 87.944L143.356 90.6ZM156.348 82.44C156.156 83.368 156.028 85.032 156.028 85.896C155.996 87.944 156.028 90.632 156.22 93.128C156.732 98.152 158.012 101.544 160.188 101.544C161.756 101.544 163.164 98.024 163.9 95.112L166.428 98.088C164.412 103.592 162.46 105.48 160.124 105.48C156.86 105.48 153.916 102.408 153.02 93.992C152.732 91.144 152.668 87.304 152.668 85.416C152.668 84.616 152.636 83.24 152.444 82.376L156.348 82.44ZM172.7 83.272C175.644 86.952 178.012 94.28 178.428 99.464L175.164 100.776C174.62 95.272 172.796 88.168 169.532 84.328L172.7 83.272ZM190.78 106.984C188.764 104.52 186.012 101.768 183.772 99.88L186.396 97.608C188.7 99.464 191.676 102.472 193.5 104.648L190.78 106.984ZM229.116 79.368H246.46V82.088H229.116V79.368ZM232.124 97.736C234.332 102.248 239.388 104.52 246.972 105.128C246.364 105.768 245.596 106.984 245.244 107.752C237.244 106.824 232.22 104.008 229.532 98.344L232.124 97.736ZM236.124 80.68H239.004V93.672C239.004 99.336 237.628 104.968 229.308 107.752C228.956 107.112 228.092 105.96 227.484 105.384C235.58 103.304 236.124 98.408 236.124 93.64V80.68ZM232.348 91.912V94.632H243.004V91.912H232.348ZM232.348 87.048V89.704H243.004V87.048H232.348ZM229.66 84.744H245.788V96.936H229.66V84.744ZM217.276 79.592H228.412V82.344H217.276V79.592ZM220.988 89.48H228.284V103.72H220.988V101.064H225.724V92.168H220.988V89.48ZM221.404 80.968L224.188 81.576C223.068 87.688 221.084 93.704 217.98 97.608C217.82 96.808 217.212 94.92 216.764 94.088C219.132 90.92 220.572 86.088 221.404 80.968ZM219.452 89.48H222.044V106.216H219.452V89.48ZM266.012 82.312C265.788 81.608 265.468 80.552 265.116 79.624L268.54 79.208C268.924 81.32 269.724 83.976 270.492 86.056C271.484 88.776 273.052 91.656 274.268 93.352C274.748 94.056 275.292 94.664 275.804 95.24L274.204 97.512C272.572 97.16 268.604 96.776 266.14 96.584L266.396 93.896C268.092 94.056 270.332 94.248 271.42 94.344C270.14 92.392 268.54 89.416 267.516 86.632C266.812 84.808 266.364 83.368 266.012 82.312ZM254.332 84.392C259.932 85.032 264.892 85.032 268.636 84.648C271.324 84.328 274.332 83.752 276.828 82.952L277.212 86.12C275.004 86.76 272.092 87.24 269.66 87.528C265.5 88.008 260.444 88.104 254.396 87.592L254.332 84.392ZM259.9 94.888C258.908 96.424 258.364 97.8 258.364 99.272C258.364 102.184 260.988 103.432 265.564 103.464C268.924 103.464 271.708 103.144 273.948 102.664L273.788 105.864C271.868 106.216 269.084 106.6 265.372 106.6C259.1 106.568 255.132 104.232 255.132 99.752C255.132 97.896 255.772 96.168 256.764 94.152L259.9 94.888ZM297.084 80.072C296.924 80.776 296.764 81.608 296.636 82.312C296.38 83.592 295.964 85.928 295.548 87.752C294.492 92.264 292.092 100.744 288.572 106.376L285.276 105.064C288.988 100.104 291.484 91.592 292.38 87.624C292.956 84.936 293.372 82.12 293.34 79.688L297.084 80.072ZM308.092 83.56C310.076 86.248 312.828 92.104 313.852 95.112L310.684 96.584C309.788 93.192 307.388 87.592 305.116 84.872L308.092 83.56ZM284.924 86.888C286.012 86.952 286.94 86.92 288.028 86.888C290.492 86.824 296.828 86.12 299.068 86.12C302.172 86.12 304.54 87.4 304.54 91.848C304.54 95.656 304.028 100.776 302.684 103.496C301.66 105.672 299.996 106.28 297.756 106.28C296.54 106.28 295.004 106.056 293.98 105.832L293.436 102.472C294.716 102.856 296.476 103.144 297.34 103.144C298.492 103.144 299.388 102.856 299.964 101.608C300.924 99.592 301.404 95.56 301.404 92.232C301.404 89.448 300.156 89 298.14 89C296.092 89 290.3 89.704 288.444 89.896C287.612 90.024 286.14 90.216 285.244 90.344L284.924 86.888ZM308.06 79.016C308.86 80.168 310.012 82.152 310.652 83.4L308.54 84.328C307.9 83.016 306.844 81.096 305.98 79.88L308.06 79.016ZM311.708 77.64C312.54 78.856 313.756 80.872 314.332 82.024L312.252 82.92C311.58 81.576 310.524 79.72 309.628 78.504L311.708 77.64ZM332.7 95.24H345.116V98.088H332.7V95.24ZM325.788 96.808C328.092 103.208 333.308 104.424 339.772 104.424C340.956 104.456 346.108 104.424 347.676 104.392C347.228 105.096 346.748 106.504 346.588 107.336H339.612C331.804 107.336 326.332 105.672 323.292 97.768L325.788 96.808ZM331.324 89.928H334.46V105.8L331.324 104.808V89.928ZM324.924 82.376V87.848H340.988V82.376H324.924ZM321.916 79.496H344.156V90.728H321.916V79.496ZM323.58 92.904L326.748 93.288C325.948 98.568 324.156 104.488 320.092 107.656C319.612 107.08 318.588 106.088 317.948 105.608C321.596 102.792 323.1 97.448 323.58 92.904ZM361.436 79.56C360.86 81.576 360.22 85.448 360.028 87.496C361.436 84.552 364.54 81.128 368.412 81.128C372.732 81.128 375.964 85.448 375.964 92.296C375.964 101.256 370.396 105.352 362.236 106.824L360.316 103.912C367.356 102.856 372.604 100.232 372.604 92.328C372.604 87.336 370.908 84.072 367.836 84.072C363.932 84.072 360.412 89.832 360.124 94.024C359.996 95.112 360.028 96.168 360.22 97.736L357.116 97.96C356.924 96.712 356.732 94.856 356.732 92.744C356.732 89.736 357.276 85.352 357.692 82.44C357.82 81.384 357.916 80.296 357.948 79.432L361.436 79.56ZM386.78 84.488C388.06 84.648 389.564 84.712 390.844 84.712C394.524 84.712 398.684 84.168 402.108 83.048L402.204 86.024C399.228 86.824 394.844 87.592 390.876 87.56C389.628 87.56 388.284 87.528 387.004 87.464L386.78 84.488ZM398.62 79.464C398.204 81.064 397.468 84.136 396.668 86.6C395.164 91.208 392.252 97.096 389.564 100.776L386.492 99.176C389.34 95.752 392.284 90.12 393.564 86.472C394.3 84.328 395.004 81.448 395.1 79.112L398.62 79.464ZM406.14 89.384C406.044 90.696 406.076 91.848 406.108 93.096C406.172 95.112 406.46 99.912 406.46 101.896C406.46 104.648 404.828 106.824 400.604 106.824C396.892 106.824 393.916 105.256 393.916 101.928C393.916 98.888 396.636 96.808 400.604 96.808C406.076 96.808 410.3 99.528 412.956 101.864L411.26 104.584C408.86 102.408 405.212 99.336 400.444 99.336C398.3 99.336 396.892 100.328 396.892 101.64C396.892 102.984 398.012 103.912 400.188 103.912C402.652 103.912 403.452 102.6 403.452 100.84C403.452 98.632 403.1 92.84 402.972 89.384H406.14ZM412.156 90.6C410.364 89.128 406.812 87.112 404.668 86.12L406.3 83.656C408.604 84.648 412.38 86.76 413.948 87.944L412.156 90.6ZM425.148 82.44C424.956 83.368 424.828 85.032 424.828 85.896C424.796 87.944 424.828 90.632 425.02 93.128C425.532 98.152 426.812 101.544 428.988 101.544C430.556 101.544 431.964 98.024 432.7 95.112L435.228 98.088C433.212 103.592 431.26 105.48 428.924 105.48C425.66 105.48 422.716 102.408 421.82 93.992C421.532 91.144 421.468 87.304 421.468 85.416C421.468 84.616 421.436 83.24 421.244 82.376L425.148 82.44ZM441.5 83.272C444.444 86.952 446.812 94.28 447.228 99.464L443.964 100.776C443.42 95.272 441.596 88.168 438.332 84.328L441.5 83.272ZM477.404 86.12C476.572 86.6 475.676 87.08 474.62 87.624C472.54 88.68 468.284 90.696 465.244 92.68C462.396 94.536 460.604 96.52 460.604 98.856C460.604 101.352 463.004 102.824 467.804 102.824C471.196 102.824 475.484 102.376 478.14 101.704L478.108 105.32C475.548 105.768 471.996 106.12 467.932 106.12C461.756 106.12 457.18 104.328 457.18 99.24C457.18 95.496 459.804 92.712 463.58 90.216C466.748 88.104 471.036 86.056 473.052 84.904C474.108 84.296 474.908 83.816 475.644 83.208L477.404 86.12ZM461.244 79.848C462.748 84.008 464.732 87.944 466.236 90.568L463.42 92.232C461.724 89.48 459.804 85.224 458.076 81.16L461.244 79.848ZM492.348 82.44C492.156 83.368 492.028 85.032 492.028 85.896C491.996 87.944 492.028 90.632 492.22 93.128C492.732 98.152 494.012 101.544 496.188 101.544C497.756 101.544 499.164 98.024 499.9 95.112L502.428 98.088C500.412 103.592 498.46 105.48 496.124 105.48C492.86 105.48 489.916 102.408 489.02 93.992C488.732 91.144 488.668 87.304 488.668 85.416C488.668 84.616 488.636 83.24 488.444 82.376L492.348 82.44ZM508.7 83.272C511.644 86.952 514.012 94.28 514.428 99.464L511.164 100.776C510.62 95.272 508.796 88.168 505.532 84.328L508.7 83.272ZM523.164 91.912C524.124 91.72 525.34 91.4 526.332 91.08C528.572 90.408 533.916 88.52 537.724 88.52C542.492 88.52 545.82 91.368 545.82 95.944C545.82 101.928 540.252 105.416 530.94 105.992L529.628 102.888C536.732 102.696 542.492 100.712 542.492 95.88C542.492 93.32 540.508 91.432 537.436 91.432C533.596 91.432 526.844 94.248 524.508 95.208L523.164 91.912ZM566.492 79.688C566.268 80.456 566.012 81.768 565.884 82.44C565.404 84.68 564.668 88.424 563.804 91.656C562.652 96.168 560.508 102.728 558.78 106.376L555.26 105.192C557.18 101.928 559.516 95.336 560.7 90.824C561.5 87.848 562.3 84.04 562.524 82.28C562.652 81.256 562.716 80.072 562.62 79.368L566.492 79.688ZM558.94 84.776C562.62 84.776 567.228 84.2 571.292 83.208V86.376C567.324 87.272 562.396 87.816 558.876 87.816C557.404 87.816 556.252 87.752 555.1 87.688L555.004 84.52C556.572 84.712 557.692 84.776 558.94 84.776ZM569.02 89.384C570.748 89.224 572.956 89.096 575.004 89.096C576.86 89.096 578.78 89.192 580.572 89.384L580.508 92.424C578.876 92.232 576.956 92.04 575.068 92.04C572.988 92.04 571.004 92.136 569.02 92.36V89.384ZM570.14 97.288C569.884 98.28 569.692 99.304 569.692 100.072C569.692 101.544 570.588 102.824 574.652 102.824C576.764 102.824 578.972 102.6 581.084 102.184L580.956 105.416C579.196 105.672 577.052 105.864 574.62 105.864C569.436 105.864 566.62 104.2 566.62 101C566.62 99.656 566.876 98.312 567.132 97L570.14 97.288ZM599.388 78.888H602.812C602.524 84.072 602.076 99.88 588.892 107.432C588.38 106.664 587.388 105.736 586.396 105.032C599.356 98.184 599.164 83.112 599.388 78.888ZM602.684 79.624C602.78 82.248 603.612 98.792 616.764 104.872C615.836 105.576 614.908 106.6 614.428 107.432C600.796 100.776 599.996 82.984 599.772 79.912L602.684 79.624ZM621.468 83.56C622.716 83.528 623.836 83.464 624.444 83.4C626.78 83.176 632.508 82.632 638.364 82.152C641.788 81.864 644.988 81.672 647.196 81.576L647.228 84.808C645.436 84.808 642.652 84.84 640.988 85.288C636.732 86.568 633.884 91.112 633.884 94.92C633.884 100.744 639.324 102.696 644.636 102.92L643.452 106.312C637.18 105.992 630.62 102.664 630.62 95.592C630.62 90.792 633.468 86.888 636.06 85.192C632.828 85.544 625.372 86.28 621.82 87.048L621.468 83.56ZM642.62 88.392C643.388 89.48 644.572 91.464 645.212 92.808L643.228 93.704C642.46 92.072 641.66 90.6 640.668 89.224L642.62 88.392ZM646.14 86.984C646.94 88.072 648.188 89.992 648.892 91.336L646.908 92.296C646.108 90.664 645.244 89.256 644.252 87.88L646.14 86.984ZM667.228 79.656C666.972 80.648 666.876 81.384 666.748 82.152C666.332 85.352 664.86 95.528 664.86 98.888C664.86 101.8 666.556 103.496 669.98 103.496C674.684 103.496 677.5 101.384 677.5 98.376C677.5 96.232 676.316 93.992 674.076 92.008L677.628 91.24C679.804 93.8 680.828 96.04 680.828 98.76C680.828 103.56 676.54 106.696 669.916 106.696C665.276 106.696 661.756 104.68 661.756 99.4C661.756 96.04 663.26 86.408 663.612 81.96C663.708 80.68 663.708 80.072 663.644 79.432L667.228 79.656ZM656.476 83.784C659.196 84.68 663.1 85.096 666.108 85.096C668.572 85.096 670.812 84.936 672.572 84.648L672.476 87.688C670.492 87.88 668.668 87.976 666.044 87.976C663.036 87.976 659.164 87.496 656.284 86.696L656.476 83.784ZM655.708 91.72C658.972 92.84 662.684 93.128 665.756 93.128C667.868 93.128 670.14 93.032 672.316 92.744L672.252 95.784C670.268 95.976 668.348 96.072 666.236 96.072C662.428 96.072 658.46 95.656 655.548 94.792L655.708 91.72ZM97.3845 166V142.448H111.337V145.584H101.129V152.112H109.737V155.28H101.129V162.864H111.689V166H97.3845ZM118.172 166V142.448H124.316C131.548 142.448 135.644 146.448 135.644 154.128C135.644 161.808 131.548 166 124.508 166H118.172ZM121.916 162.96H124.028C129.084 162.96 131.836 159.984 131.836 154.128C131.836 148.272 129.084 145.456 124.028 145.456H121.916V162.96ZM152.803 164.56H165.731V167.344H152.803V164.56ZM151.363 155.6H167.235V168.624H164.163V158.416H154.307V168.72H151.363V155.6ZM148.675 150C153.251 149.84 160.451 149.456 167.139 149.104L167.107 151.888C160.643 152.336 153.763 152.752 149.059 153.04L148.675 150ZM160.931 145.072L163.587 143.76C166.179 146.608 168.899 150.448 170.147 153.04L167.363 154.608C166.179 151.984 163.427 147.952 160.931 145.072ZM155.907 138.96L159.395 139.76C157.827 143.792 155.715 148.624 153.987 151.728L151.267 150.896C152.963 147.696 154.915 142.64 155.907 138.96ZM141.987 141.424L143.651 139.152C145.763 139.952 148.451 141.328 149.795 142.448L148.003 145.008C146.755 143.856 144.131 142.352 141.987 141.424ZM140.131 150.16L141.795 147.824C143.907 148.528 146.659 149.808 148.067 150.864L146.307 153.456C145.027 152.368 142.307 150.96 140.131 150.16ZM141.219 166.256C142.915 163.824 145.347 159.696 147.235 156.048L149.475 158.032C147.811 161.392 145.699 165.232 143.811 168.304L141.219 166.256ZM182.435 146.896H203.075V149.232H182.435V146.896ZM182.371 150.896L183.971 149.552C185.123 150.288 186.595 151.408 187.363 152.176L185.667 153.68C184.963 152.912 183.523 151.728 182.371 150.896ZM195.907 163.184L198.179 162.032C199.907 163.472 201.987 165.552 202.979 166.96L200.547 168.304C199.651 166.896 197.635 164.72 195.907 163.184ZM187.683 157.84V159.536H197.091V157.84H187.683ZM187.683 154.448V156.08H197.091V154.448H187.683ZM185.123 152.56H199.747V161.424H185.123V152.56ZM185.379 161.968L188.131 162.736C186.915 164.816 184.899 166.928 183.043 168.24C182.563 167.728 181.475 166.832 180.803 166.448C182.595 165.328 184.355 163.664 185.379 161.968ZM200.899 149.328L202.723 150.64C201.699 151.664 200.419 152.656 199.427 153.296L197.859 152.112C198.819 151.408 200.163 150.128 200.899 149.328ZM195.715 147.824C197.283 150.704 200.451 153.392 203.811 154.64C203.203 155.152 202.435 156.112 202.019 156.752C198.499 155.216 195.267 152.048 193.443 148.56L195.715 147.824ZM190.883 160.368H193.827V165.968C193.827 167.28 193.571 167.952 192.547 168.336C191.587 168.72 190.179 168.752 188.163 168.752C188.003 167.984 187.555 166.992 187.203 166.288C188.611 166.352 189.955 166.32 190.371 166.32C190.787 166.32 190.883 166.192 190.883 165.872V160.368ZM190.403 144.368L193.219 144.752C191.715 149.424 188.579 153.936 182.755 156.912C182.371 156.24 181.539 155.344 180.899 154.928C186.371 152.368 189.315 148.24 190.403 144.368ZM179.811 141.808H203.427V144.368H179.811V141.808ZM178.339 141.808H181.155V152.112C181.155 157.136 180.483 164.24 176.483 168.72C176.035 168.144 174.947 167.088 174.371 166.704C177.987 162.608 178.339 156.688 178.339 152.112V141.808ZM188.643 138.992H191.811V143.28H188.643V138.992ZM173.827 145.52L176.035 144.624C177.027 146.64 177.891 149.232 178.083 150.832L175.747 151.92C175.523 150.256 174.723 147.568 173.827 145.52ZM173.443 157.008C174.915 156.336 176.931 155.28 179.107 154.16L179.779 156.464C177.987 157.584 176.131 158.704 174.371 159.696L173.443 157.008ZM208.067 141.04H236.579V143.632H208.067V141.04ZM215.203 138.992H218.179V145.936H215.203V138.992ZM226.275 138.992H229.283V145.936H226.275V138.992ZM219.011 152.848V155.024H225.539V152.848H219.011ZM219.011 148.752V150.896H225.539V148.752H219.011ZM216.323 146.704H228.355V157.072H216.323V146.704ZM220.931 144.272L223.907 144.752C223.299 146.032 222.723 147.216 222.275 148.08L219.779 147.568C220.195 146.608 220.675 145.232 220.931 144.272ZM233.283 145.52L235.875 146.8C234.499 148.432 232.675 150.096 231.267 151.184L228.963 150C230.371 148.848 232.227 146.896 233.283 145.52ZM208.067 158.768H236.483V161.36H208.067V158.768ZM220.707 156.56H223.715V168.688H220.707V156.56ZM219.715 159.728L222.019 160.752C219.107 164.144 213.955 167.056 209.187 168.432C208.803 167.696 207.971 166.64 207.363 166.064C212.003 164.944 217.123 162.512 219.715 159.728ZM224.643 159.888C227.171 162.672 232.259 164.944 237.155 165.872C236.547 166.448 235.747 167.536 235.363 168.272C230.371 167.024 225.315 164.272 222.435 160.784L224.643 159.888ZM208.771 147.216L210.947 145.68C212.547 146.864 214.403 148.624 215.203 149.936L212.867 151.632C212.131 150.32 210.339 148.464 208.771 147.216ZM228.227 153.648L229.955 151.76C232.099 152.816 235.075 154.512 236.515 155.696L234.723 157.808C233.315 156.592 230.435 154.8 228.227 153.648ZM207.875 155.216C209.795 154.512 212.515 153.296 215.267 152.144L215.907 154.544C213.603 155.664 211.139 156.816 209.123 157.776L207.875 155.216ZM254.947 140.56C254.691 141.776 254.307 143.568 253.443 145.808C252.707 147.568 251.619 149.584 250.531 151.088C251.587 150.512 253.379 150.16 254.627 150.16C257.187 150.16 259.139 151.664 259.139 154.448C259.139 156.112 259.235 159.728 259.267 161.712H256.195C256.323 160.112 256.355 157.04 256.323 155.376C256.323 153.424 255.043 152.656 253.507 152.656C251.587 152.656 249.571 153.68 248.227 154.928C247.267 155.856 246.371 157.008 245.283 158.352L242.563 156.336C246.979 152.176 249.251 148.592 250.435 145.52C251.107 143.76 251.523 141.84 251.619 140.272L254.947 140.56ZM243.523 143.792C245.187 144.016 247.491 144.144 249.027 144.144C253.283 144.144 258.947 143.888 263.523 143.088L263.491 146.032C259.011 146.704 252.835 146.96 248.835 146.96C247.491 146.96 245.283 146.896 243.523 146.768V143.792ZM268.355 152.112C267.459 152.368 266.051 152.912 265.091 153.264C262.915 154.128 259.939 155.312 256.867 156.88C253.827 158.48 251.875 160.048 251.875 162.064C251.875 164.24 253.923 164.656 257.155 164.656C259.747 164.656 263.235 164.336 266.051 163.824L265.955 167.088C263.651 167.376 259.939 167.632 257.059 167.632C252.291 167.632 248.611 166.544 248.611 162.544C248.611 158.416 252.835 155.92 256.675 153.968C259.651 152.4 261.987 151.504 264.035 150.576C265.123 150.096 266.051 149.68 267.075 149.136L268.355 152.112ZM291.267 144.72H301.955V147.472H291.267V144.72ZM291.779 138.96L294.755 139.408C293.795 144.976 292.099 150.064 289.635 153.328C289.123 152.88 287.779 152.016 287.075 151.664C289.539 148.72 291.043 143.952 291.779 138.96ZM296.003 145.808H297.475V151.248C297.475 154.064 298.563 162.064 304.547 166.096C304.003 166.768 303.107 168.016 302.659 168.752C298.083 165.648 296.323 159.664 295.971 156.976C295.587 159.632 293.571 165.52 288.547 168.752C288.163 168.08 287.299 166.832 286.755 166.256C293.347 162.128 294.467 154.192 294.467 151.248V145.808H296.003ZM301.187 144.72H301.667L302.147 144.592L304.163 145.104C303.619 148.112 302.691 151.504 301.731 153.648L299.299 152.848C300.067 150.928 300.803 147.728 301.187 145.232V144.72ZM280.995 144.72H283.715V148.496H280.995V144.72ZM276.899 147.472H279.619V165.424H276.899V147.472ZM278.531 151.696H286.243V153.776H278.531V151.696ZM274.595 164.688C277.347 164.016 281.603 162.832 285.667 161.648L286.019 164.08C282.403 165.296 278.595 166.544 275.587 167.504L274.595 164.688ZM282.723 159.472L285.187 158.608C286.339 160.656 287.619 163.376 288.099 165.072L285.507 166.16C285.027 164.432 283.875 161.584 282.723 159.472ZM278.531 147.472H287.555V158.128H278.531V155.984H284.867V149.648H278.531V147.472ZM280.419 138.992H282.051V139.6H282.947V140.4C281.539 142.864 279.299 146.16 275.715 148.912C275.331 148.272 274.531 147.28 273.955 146.864C277.091 144.56 279.267 141.52 280.419 138.992ZM281.219 138.992H283.331C285.251 140.72 287.651 143.12 288.899 144.752L286.787 146.736C285.699 145.2 283.491 142.576 281.731 141.008H281.219V138.992ZM319.363 140.432C319.203 141.2 319.107 142.384 319.107 143.888C319.075 145.456 319.107 151.44 319.107 153.616L316.099 152.24C316.131 150.288 316.099 145.584 316.099 143.888C316.099 142.288 316.035 141.2 315.811 140.432H319.363ZM330.371 143.536C332.291 144.784 335.491 147.76 336.931 149.52L334.659 151.824C333.027 149.776 330.051 146.928 328.259 145.616L330.371 143.536ZM309.827 144.496C311.651 144.784 313.379 144.944 314.915 144.944C318.019 144.944 321.635 144.496 325.059 143.536V146.608C321.603 147.408 317.635 147.76 315.139 147.76C313.763 147.76 311.971 147.696 309.987 147.472L309.827 144.496ZM318.339 159.12C318.307 159.792 318.243 161.264 318.243 162.224C318.243 163.824 318.659 164.528 322.947 164.528C324.643 164.528 326.947 164.304 328.131 163.952C329.795 163.472 330.659 162.448 330.659 160.56C330.659 159.28 330.627 158.16 330.435 156.784L333.923 157.84C333.923 159.312 333.955 160.112 333.891 161.424C333.763 164.4 332.739 165.968 329.475 166.896C328.067 167.312 324.867 167.568 322.723 167.568C315.843 167.568 315.171 165.68 315.171 163.344C315.171 162.224 315.235 161.04 315.299 160.08L318.339 159.12ZM319.971 155.12C319.971 158.384 318.595 162.256 314.403 162.256C312.355 162.256 310.019 160.784 310.019 156.88C310.019 153.392 312.259 150.448 315.555 150.448C318.435 150.448 319.971 152.4 319.971 155.12ZM314.723 159.248C316.451 159.248 317.059 157.264 317.059 155.28C317.059 153.872 316.387 153.008 315.363 153.008C313.923 153.008 312.707 154.512 312.707 156.688C312.707 158.32 313.667 159.248 314.723 159.248ZM347.939 143.216C350.275 143.472 353.219 143.6 356.515 143.6C359.619 143.6 363.043 143.408 365.411 143.152V146.48C363.203 146.672 359.523 146.864 356.515 146.864C353.251 146.864 350.499 146.736 347.939 146.512V143.216ZM349.827 156.4C349.475 157.616 349.219 158.704 349.219 159.856C349.219 162.128 351.491 163.728 356.387 163.728C360.739 163.728 364.867 163.248 367.459 162.448L367.491 165.968C364.963 166.608 360.995 167.056 356.483 167.056C349.635 167.056 345.891 164.784 345.891 160.592C345.891 158.864 346.275 157.328 346.531 156.08L349.827 156.4ZM400.579 147.12C399.747 147.6 398.851 148.08 397.795 148.624C395.715 149.68 391.459 151.696 388.419 153.68C385.571 155.536 383.779 157.52 383.779 159.856C383.779 162.352 386.179 163.824 390.979 163.824C394.371 163.824 398.659 163.376 401.315 162.704L401.283 166.32C398.723 166.768 395.171 167.12 391.107 167.12C384.931 167.12 380.355 165.328 380.355 160.24C380.355 156.496 382.979 153.712 386.755 151.216C389.923 149.104 394.211 147.056 396.227 145.904C397.283 145.296 398.083 144.816 398.819 144.208L400.579 147.12ZM384.419 140.848C385.923 145.008 387.907 148.944 389.411 151.568L386.595 153.232C384.899 150.48 382.979 146.224 381.251 142.16L384.419 140.848ZM421.859 141.072C421.699 141.776 421.539 142.608 421.411 143.312C421.155 144.592 420.739 146.928 420.323 148.752C419.267 153.264 416.867 161.744 413.347 167.376L410.051 166.064C413.763 161.104 416.259 152.592 417.155 148.624C417.731 145.936 418.147 143.12 418.115 140.688L421.859 141.072ZM432.867 144.56C434.851 147.248 437.603 153.104 438.627 156.112L435.459 157.584C434.563 154.192 432.163 148.592 429.891 145.872L432.867 144.56ZM409.699 147.888C410.787 147.952 411.715 147.92 412.803 147.888C415.267 147.824 421.603 147.12 423.843 147.12C426.947 147.12 429.315 148.4 429.315 152.848C429.315 156.656 428.803 161.776 427.459 164.496C426.435 166.672 424.771 167.28 422.531 167.28C421.315 167.28 419.779 167.056 418.755 166.832L418.211 163.472C419.491 163.856 421.251 164.144 422.115 164.144C423.267 164.144 424.163 163.856 424.739 162.608C425.699 160.592 426.179 156.56 426.179 153.232C426.179 150.448 424.931 150 422.915 150C420.867 150 415.075 150.704 413.219 150.896C412.387 151.024 410.915 151.216 410.019 151.344L409.699 147.888ZM432.835 140.016C433.635 141.168 434.787 143.152 435.427 144.4L433.315 145.328C432.675 144.016 431.619 142.096 430.755 140.88L432.835 140.016ZM436.483 138.64C437.315 139.856 438.531 141.872 439.107 143.024L437.027 143.92C436.355 142.576 435.299 140.72 434.403 139.504L436.483 138.64ZM443.843 144.56C445.091 144.528 446.211 144.464 446.819 144.4C449.155 144.176 454.883 143.632 460.739 143.152C464.163 142.864 467.363 142.672 469.571 142.576L469.603 145.808C467.811 145.808 465.027 145.84 463.363 146.288C459.107 147.568 456.259 152.112 456.259 155.92C456.259 161.744 461.699 163.696 467.011 163.92L465.827 167.312C459.555 166.992 452.995 163.664 452.995 156.592C452.995 151.792 455.843 147.888 458.435 146.192C455.203 146.544 447.747 147.28 444.195 148.048L443.843 144.56ZM464.995 149.392C465.763 150.48 466.947 152.464 467.587 153.808L465.603 154.704C464.835 153.072 464.035 151.6 463.043 150.224L464.995 149.392ZM468.515 147.984C469.315 149.072 470.563 150.992 471.267 152.336L469.283 153.296C468.483 151.664 467.619 150.256 466.627 148.88L468.515 147.984ZM480.579 143.632C485.123 144.176 489.187 144.24 492.515 143.952C495.267 143.728 497.891 143.216 500.355 142.416L500.771 145.328C498.595 145.936 495.843 146.48 493.187 146.704C489.923 146.992 485.475 146.992 480.771 146.544L480.579 143.632ZM479.971 150.256C485.571 150.832 490.915 150.736 494.691 150.32C497.923 150 500.419 149.36 502.179 148.848L502.691 151.824C500.867 152.304 498.467 152.784 495.843 153.072C491.843 153.552 485.795 153.648 480.163 153.264L479.971 150.256ZM490.819 143.792C490.531 142.736 490.211 141.68 489.827 140.624L493.219 140.208C493.571 143.056 494.467 146.096 495.267 148.464C496.099 150.832 497.571 154.032 499.171 156.4C499.555 156.944 499.971 157.392 500.483 157.872L498.883 160.272C497.091 159.856 493.891 159.504 491.619 159.248L491.875 156.816C493.443 156.976 495.363 157.168 496.355 157.296C494.595 154.48 493.315 151.536 492.451 149.04C491.651 146.832 491.235 145.36 490.819 143.792ZM485.283 157.392C484.515 158.48 483.907 159.568 483.907 160.976C483.907 163.504 486.211 164.656 490.883 164.656C493.891 164.656 496.387 164.432 498.691 163.984L498.531 167.184C496.291 167.568 493.603 167.76 490.915 167.76C484.611 167.76 480.899 165.904 480.835 161.584C480.803 159.664 481.411 158.224 482.147 156.752L485.283 157.392ZM527.331 140.4C527.235 141.008 527.171 141.712 527.139 142.608C527.075 144.048 527.075 148.432 527.075 151.12C527.075 155.056 527.555 160.752 527.555 163.056C527.555 165.488 525.827 167.696 521.635 167.696C516.803 167.696 514.211 165.936 514.211 162.704C514.211 159.664 517.091 157.552 521.827 157.552C528.707 157.552 533.955 161.136 536.515 163.248L534.691 166.096C531.715 163.344 527.043 160.176 521.443 160.176C518.723 160.176 517.251 161.232 517.251 162.544C517.251 163.92 518.467 164.848 521.219 164.848C522.979 164.848 524.355 164.336 524.355 162.256C524.355 160.048 524.035 154.096 524.035 151.12C524.035 148.176 524.067 144.496 524.067 142.448C524.067 141.872 524.003 140.912 523.907 140.4H527.331ZM514.627 143.664C516.803 144.048 520.643 144.368 522.691 144.368C526.883 144.368 531.139 144.112 535.523 143.408L535.491 146.32C532.035 146.736 527.235 147.152 522.723 147.152C520.579 147.152 516.739 146.864 514.691 146.608L514.627 143.664ZM514.467 150.512C516.675 150.896 520.451 151.12 522.371 151.12C527.555 151.12 531.779 150.768 535.843 150.192L535.811 153.2C531.427 153.744 527.715 153.936 522.339 153.936C520.291 153.936 516.707 153.776 514.499 153.52L514.467 150.512ZM562.691 140.464C562.627 140.912 562.531 142.352 562.499 142.8C562.435 144.88 562.499 151.216 562.531 153.776L559.395 152.496C559.395 150.832 559.395 144.56 559.267 142.832C559.203 141.776 559.075 140.784 559.011 140.464H562.691ZM545.219 144.72C549.731 144.688 557.923 144.432 562.467 144.432C566.083 144.432 570.435 144.4 572.067 144.432L572.035 147.408C570.147 147.312 567.107 147.248 562.403 147.248C556.771 147.248 550.115 147.472 545.283 147.792L545.219 144.72ZM562.243 154.096C562.243 158.8 560.291 161.136 557.027 161.136C554.435 161.136 551.651 159.216 551.651 155.536C551.651 152.176 554.403 149.808 557.635 149.808C561.571 149.808 563.587 152.72 563.587 156.528C563.587 160.784 561.347 165.808 553.731 168.016L551.043 165.36C556.707 164.08 560.483 161.52 560.483 156.112C560.483 153.584 559.203 152.464 557.603 152.464C556.099 152.464 554.691 153.584 554.691 155.504C554.691 157.264 556.035 158.32 557.603 158.32C559.395 158.32 560.675 156.816 559.939 153.232L562.243 154.096ZM578.864 158.16C581.648 158.16 583.888 160.4 583.888 163.152C583.888 165.936 581.648 168.176 578.864 168.176C576.144 168.176 573.872 165.936 573.872 163.152C573.872 160.4 576.144 158.16 578.864 158.16ZM578.864 166.256C580.592 166.256 581.968 164.88 581.968 163.152C581.968 161.456 580.592 160.08 578.864 160.08C577.2 160.08 575.792 161.456 575.792 163.152C575.792 164.88 577.2 166.256 578.864 166.256Z" fill="#5F5F5F"/>
<path d="M12 127C73.1594 117.907 165.804 114.467 201.463 115.066C256.921 115.998 68.4947 138.899 451 117.907" stroke="#FF783F" stroke-width="5"/>
</svg>
