<svg width="353" height="60" viewBox="0 0 353 60" fill="none" xmlns="http://www.w3.org/2000/svg">
<path d="M41.5668 18.7829L31.0006 18.7078C30.0119 13.5752 27.0379 10.3998 21.676 10.3617C15.2889 10.3163 11.8675 14.6291 11.7935 25.0376L11.7386 32.7652C11.667 42.8582 15.0246 47.5346 21.4116 47.58C26.9313 47.6192 29.6318 44.8784 30.8538 39.3671L41.3412 39.4416C39.4408 51.6508 32.5425 56.9641 21.3455 56.8845C9.1234 56.7977 0.581153 49.3246 0.699331 32.6867L0.754219 24.9592C0.873517 8.16368 9.51994 0.970325 21.742 1.05714C32.5448 1.13387 39.8377 6.86332 41.5668 18.7829ZM62.5046 56.4672L50.6768 56.3832L69.9878 2.10953L80.554 2.18458L99.0921 56.7271L87.3431 56.6436L84.1047 46.2904L65.8898 46.1611L62.5046 56.4672ZM75.16 17.7598L68.8734 36.8772L81.1744 36.9646L75.16 17.7598ZM143.044 2.62844L154.083 2.70686L153.854 35.0363C153.739 51.1221 144.86 57.7619 132.796 57.6762C120.731 57.5905 111.948 50.8253 112.061 34.8183L112.291 2.41001L123.331 2.48842L123.101 34.8967C123.034 44.2013 126.081 48.3234 132.862 48.3716C139.643 48.4198 142.748 44.3413 142.814 35.0367L143.044 2.62844ZM167.962 2.80544L208.966 3.09668L208.899 12.4801L193.917 12.3737L193.597 57.3983L182.558 57.3199L182.878 12.2953L167.896 12.1889L167.962 2.80544ZM234.682 3.27934L234.295 57.6874L223.256 57.609L223.643 3.20093L234.682 3.27934ZM293.908 34.7694C293.79 51.4072 285.142 58.7583 272.841 58.6709C260.619 58.5841 252.077 51.1109 252.195 34.4731L252.25 26.7456C252.369 9.95004 261.016 2.75669 273.238 2.8435C285.539 2.93087 294.082 10.2463 293.963 27.0419L293.908 34.7694ZM263.289 26.824L263.234 34.5515C263.16 44.96 266.52 49.321 272.907 49.3663C279.294 49.4117 282.795 45.0995 282.868 34.691L282.923 26.9635C282.997 16.555 279.559 12.1934 273.172 12.1481C266.785 12.1027 263.363 16.4155 263.289 26.824ZM341.522 4.03823L352.01 4.11272L351.623 58.5208L342.398 58.4553L321.425 24.6347L321.186 58.3046L310.699 58.2301L311.085 3.82204L320.232 3.887L341.28 38.1813L341.522 4.03823Z" fill="#5F5F5F" style="mix-blend-mode:multiply"/>
</svg>
