<svg width="421" height="241" viewBox="0 0 421 241" fill="none" xmlns="http://www.w3.org/2000/svg">
<path d="M371.529 211.167L421 122.302L333.782 1.12257L67.119 26.9743L-3.05176e-05 122.302L67.119 172.39L37.8979 200.665L88.6906 190.853L186.759 240.251L371.529 211.167Z" fill="#8A8A8A" style="mix-blend-mode:multiply"/>
<path d="M135 52.547C136.91 52.7535 139.312 52.8568 142.049 52.8568C144.579 52.8568 147.549 52.7019 149.511 52.4953V55.9296C147.704 56.0845 144.528 56.2394 142.049 56.2394C139.363 56.2394 137.117 56.1103 135 55.9554V52.547ZM137.169 63.4694C136.936 64.399 136.73 65.2253 136.73 66.1032C136.73 67.7299 138.331 68.9435 142.049 68.9435C145.509 68.9435 148.814 68.5562 151.112 67.9107L151.138 71.5515C148.866 72.0679 145.767 72.4036 142.152 72.4036C136.265 72.4036 133.27 70.4412 133.27 66.8778C133.27 65.406 133.605 64.1408 133.786 63.1595L137.169 63.4694ZM181.685 69.9506C180.471 71.0609 178.922 71.8872 176.804 71.8872C174.868 71.8872 173.577 70.4928 173.577 67.9881C173.577 65.1736 174.506 61.4037 174.506 59.0281C174.506 57.7629 173.861 57.1432 172.75 57.1432C170.349 57.1432 166.502 60.9389 164.436 63.5727L164.41 59.5962C165.985 57.9436 170.297 54.0704 173.706 54.0704C176.494 54.0704 177.76 55.723 177.76 57.892C177.76 60.5516 176.908 64.3473 176.908 67.0327C176.908 67.7041 177.269 68.1689 177.915 68.1689C178.87 68.1689 180.084 67.4975 181.246 66.3356L181.685 69.9506ZM163.842 57.6596C162.68 57.7887 160.227 58.0986 158.523 58.3568L158.187 55.0258C158.91 55.0516 159.504 55.0516 160.434 55C162.06 54.9225 165.365 54.4319 166.527 54.0446L167.56 55.3873C167.121 55.9812 166.321 57.2465 165.882 57.9178L164.384 62.7722C163.248 64.4248 160.95 67.8849 159.581 69.7698L157.567 66.9295C159.194 64.9154 162.293 60.8356 163.584 58.7957L163.635 58.1244L163.842 57.6596ZM163.532 52.6761C163.532 51.9531 163.558 51.1784 163.403 50.378L167.173 50.4813C166.734 52.547 165.882 59.3122 165.882 63.9342C165.882 66.0257 165.882 68.2205 166.037 70.6219C166.063 71.0867 166.166 72.0421 166.218 72.6102H162.68C162.732 72.0163 162.757 71.1125 162.757 70.6994C162.783 68.1947 162.809 66.4647 162.887 63.237C162.964 60.9389 163.532 53.7089 163.532 52.6761ZM184.621 53.6057C185.628 53.5798 186.661 53.5282 187.152 53.4765C189.295 53.27 193.555 52.9085 198.281 52.4953C200.966 52.2888 203.781 52.108 205.614 52.0305L205.64 55.3615C204.245 55.3615 202.025 55.3873 200.63 55.6972C197.532 56.5235 195.182 59.8802 195.182 62.953C195.182 67.1877 199.159 68.737 203.522 68.9435L202.309 72.481C196.912 72.1454 191.799 69.2276 191.799 63.6243C191.799 59.9319 193.891 56.9882 195.621 55.6714C193.22 55.9296 187.926 56.4976 184.957 57.1432L184.621 53.6057ZM201.947 57.892C202.567 58.7957 203.496 60.3708 203.987 61.4037L202.05 62.2558C201.379 60.8614 200.837 59.8286 200.036 58.6925L201.947 57.892ZM204.813 56.7042C205.485 57.608 206.466 59.1314 207.008 60.1384L205.072 61.068C204.374 59.6737 203.781 58.6925 202.954 57.5563L204.813 56.7042ZM216.743 61.6361H229.034V63.7793H216.743V61.6361ZM216.356 65.1478H229.318V67.3684H216.356V65.1478ZM221.236 62.6948H224.024V65.4576C224.024 67.9107 223.069 70.6736 217.698 72.4294C217.311 71.8355 216.51 70.9318 215.891 70.4412C220.59 69.1759 221.236 66.9553 221.236 65.406V62.6948ZM223.766 66.1548C224.644 68.1947 226.607 69.6665 229.447 70.2346C228.879 70.751 228.13 71.7581 227.794 72.4552C224.593 71.5515 222.578 69.5116 221.494 66.6196L223.766 66.1548ZM217.879 59.9577L220.255 59.2605C220.823 60.0352 221.339 61.068 221.546 61.791L219.015 62.5398C218.86 61.8168 218.395 60.7323 217.879 59.9577ZM225.083 59.2605L227.898 60.0093C227.2 61.0422 226.529 62.0492 226.039 62.7206L223.999 62.0234C224.386 61.2229 224.851 60.061 225.083 59.2605ZM213.515 53.7606H220.022V55.6714H213.515V53.7606ZM225.419 53.7606H231.952V55.6714H225.419V53.7606ZM230.815 50.3522H233.862V70.3637C233.862 71.7581 233.63 72.5585 232.778 73.0749C231.977 73.5655 230.815 73.6172 229.189 73.6172C229.111 72.8167 228.75 71.4998 228.388 70.7252C229.189 70.7768 230.118 70.7768 230.402 70.7768C230.712 70.7768 230.815 70.6477 230.815 70.3121V50.3522ZM213.799 50.3522H221.985V59.1314H213.799V57.0141H219.067V52.4953H213.799V50.3522ZM232.391 50.3522V52.4953H226.607V57.0657H232.391V59.2089H223.663V50.3522H232.391ZM211.966 50.3522H215.013V73.6172H211.966V50.3522ZM251.679 63.3919H254.726V73.6172H251.679V63.3919ZM244.733 62.4365C248.632 62.3333 254.726 62.1525 260.355 61.9201L260.278 64.6055C254.907 64.9154 249.174 65.1994 245.172 65.3544L244.733 62.4365ZM258.857 49.9132L260.897 52.3662C256.792 53.4765 251.189 54.1737 246.412 54.5352C246.308 53.8122 245.921 52.6761 245.611 52.0564C250.259 51.6174 255.552 50.8428 258.857 49.9132ZM256.198 54.6127L259.064 55.9038C256.637 58.9248 253.409 62.2816 250.904 64.4248L248.606 63.1854C251.137 60.9906 254.313 57.4014 256.198 54.6127ZM251.447 52.2888L254.339 53.7348C252.944 55.4906 251.421 57.4789 250.233 58.7441L248.116 57.5305C249.278 56.1361 250.672 53.9155 251.447 52.2888ZM255.991 67.3942L258.522 66.2065C259.787 67.6783 261.259 69.7182 261.879 71.1125L259.167 72.4552C258.651 71.0867 257.231 68.9435 255.991 67.3942ZM256.585 60.1126L259.141 59.0798C260.536 60.9389 262.033 63.4178 262.653 65.122L259.864 66.2839C259.348 64.6314 257.928 62.0492 256.585 60.1126ZM245.585 57.9178L247.367 55.9038C249.278 57.0141 251.782 58.6925 252.97 59.9577L251.034 62.23C249.949 60.9647 247.496 59.1314 245.585 57.9178ZM242.9 49.4484L245.766 50.3522C244.165 54.7676 241.583 59.4671 238.82 62.4365C238.562 61.6877 237.736 59.9577 237.245 59.2089C239.491 56.8333 241.635 53.1409 242.9 49.4484ZM240.731 56.6526L243.7 53.6573L243.726 53.7089V73.6172H240.731V56.6526ZM247.728 66.3097L250.569 67.1877C249.613 69.0985 248.219 71.2158 246.902 72.636C246.282 72.1195 245.25 71.4482 244.578 71.1125C245.792 69.8215 247.083 67.8332 247.728 66.3097ZM267.998 49.371H271.123V73.6172H267.998V49.371ZM265.829 54.3286L268.05 54.6385C267.921 56.885 267.482 59.9577 266.862 61.9201L264.564 61.1197C265.209 59.3638 265.648 56.4718 265.829 54.3286ZM270.503 54.5352L272.594 53.6315C273.317 54.9742 274.066 56.73 274.324 57.8145L272.104 58.8732C271.871 57.7371 271.174 55.9296 270.503 54.5352ZM275.409 50.5587L278.404 51.0235C277.888 54.8709 276.881 58.6925 275.538 61.1197C274.918 60.6807 273.524 60.0093 272.775 59.6995C274.144 57.5305 274.996 54.0188 275.409 50.5587ZM276.313 54.5869H288.242V57.5305H275.435L276.313 54.5869ZM279.85 49.5259H282.949V71.5515H279.85V49.5259ZM274.841 61.7652H287.7V64.6572H274.841V61.7652ZM272.904 69.8473H289.043V72.7909H272.904V69.8473ZM303.838 50.5846C303.632 51.5399 303.296 53.0634 302.573 54.9225C302.031 56.1878 301.282 57.6596 300.559 58.6925C301.256 58.3826 302.625 58.2018 303.503 58.2018C305.646 58.2018 307.272 59.4671 307.272 61.8685C307.272 63.2628 307.35 66.0774 307.376 67.7041H304.277C304.38 66.4905 304.432 64.2957 304.406 62.9013C304.406 61.2488 303.373 60.7065 302.289 60.7065C300.869 60.7065 299.242 61.5586 298.261 62.4882C297.486 63.2628 296.763 64.1924 295.885 65.3285L293.122 63.2628C296.427 60.2159 298.416 57.4272 299.5 54.5869C300.017 53.1925 300.352 51.6174 300.43 50.3005L303.838 50.5846ZM294.104 52.9859C295.42 53.1667 297.331 53.27 298.648 53.27C302.057 53.27 306.73 53.0892 310.474 52.4179L310.448 55.4131C306.808 55.9296 301.618 56.162 298.467 56.162C297.409 56.162 295.524 56.1103 294.104 55.9812V52.9859ZM314.554 60.3192C313.754 60.5516 312.359 61.068 311.481 61.4037C309.803 62.0492 307.479 62.9788 305.052 64.2182C302.702 65.4318 301.437 66.5421 301.437 67.9623C301.437 69.3825 302.676 69.7698 305.181 69.7698C307.376 69.7698 310.268 69.4858 312.54 69.021L312.437 72.3519C310.707 72.5843 307.556 72.8167 305.103 72.8167C301.075 72.8167 298.054 71.8097 298.054 68.4787C298.054 64.8896 301.747 62.7722 304.845 61.2229C307.221 59.9835 308.848 59.3638 310.397 58.6408C311.404 58.2018 312.308 57.7887 313.289 57.2981L314.554 60.3192ZM123.996 93.2043H140.212V95.6315H123.996V93.2043ZM130.555 91.3451H133.55V98.1878H130.555V91.3451ZM123.738 104.591H140.264V107.122H123.738V104.591ZM130.529 103.171H133.473V105.934H130.529V103.171ZM135.073 99.0915V101.209H136.829V99.0915H135.073ZM131.149 99.0915V101.209H132.853V99.0915H131.149ZM127.25 99.0915V101.209H128.928V99.0915H127.25ZM124.667 96.9225H139.541V103.352H124.667V96.9225ZM124.409 112.983C126.785 112.596 130.297 111.951 133.679 111.305L133.912 113.836C130.839 114.455 127.585 115.101 125.106 115.591L124.409 112.983ZM133.808 106.063C134.867 109.472 137.165 112.054 140.857 113.113C140.238 113.681 139.386 114.817 138.998 115.566C134.841 114.12 132.543 111.021 131.226 106.58L133.808 106.063ZM130.451 105.65L133.189 106.58C131.174 108.955 127.585 110.711 124.203 111.718C123.867 111.098 123.041 109.833 122.499 109.239C125.623 108.594 128.851 107.354 130.451 105.65ZM138.25 107.406L140.444 109.239C138.998 110.169 137.449 111.073 136.261 111.641L134.609 110.117C135.745 109.446 137.346 108.258 138.25 107.406ZM116.585 97.284H123.815V100.228H116.585V97.284ZM118.884 91.655H121.698V108.852H118.884V91.655ZM116.017 108.129C117.876 107.406 120.717 106.141 123.428 104.901L124.254 107.716C121.827 108.955 119.168 110.246 116.999 111.279L116.017 108.129ZM126.862 109.936L128.386 108.413L129.367 108.749V113.965H126.862V109.936ZM152.141 92.8169C151.986 93.9014 151.857 95.2442 151.806 96.277C151.677 99.0657 151.496 104.824 151.496 108.026C151.496 110.634 153.045 111.486 155.059 111.486C159.32 111.486 162.005 109.033 163.89 106.218L166.24 109.084C164.561 111.563 160.895 114.997 155.008 114.997C150.773 114.997 148.062 113.138 148.062 108.723C148.062 105.263 148.294 98.4976 148.294 96.277C148.294 95.0376 148.191 93.7982 147.984 92.7911L152.141 92.8169ZM181.888 92.6878C181.707 93.4108 181.474 94.5728 181.345 95.1409C180.984 96.8967 180.338 100.047 179.641 102.681C178.712 106.296 176.982 111.563 175.561 114.636L171.972 113.422C173.496 110.814 175.458 105.418 176.439 101.803C177.085 99.3756 177.679 96.5352 177.859 95.0118C177.989 94.0564 178.014 92.9977 177.937 92.378L181.888 92.6878ZM175.303 96.561C178.453 96.561 182.094 96.0704 185.451 95.27V98.4976C182.249 99.2465 178.195 99.6854 175.277 99.6854C174.012 99.6854 173.057 99.6338 172.153 99.5821L172.05 96.3545C173.392 96.5094 174.244 96.561 175.303 96.561ZM183.411 100.512C184.857 100.357 186.716 100.253 188.395 100.253C189.866 100.253 191.416 100.331 192.913 100.486L192.862 103.584C191.545 103.43 189.97 103.249 188.42 103.249C186.639 103.249 185.038 103.326 183.411 103.533V100.512ZM184.805 106.993C184.625 107.742 184.47 108.568 184.47 109.136C184.47 110.272 185.219 111.124 188.007 111.124C189.737 111.124 191.519 110.944 193.352 110.608L193.223 113.887C191.777 114.094 190.047 114.249 187.981 114.249C183.618 114.249 181.294 112.777 181.294 110.169C181.294 108.955 181.526 107.716 181.733 106.709L184.805 106.993ZM215.739 94.7019C214.913 95.2958 214.061 95.9672 213.467 96.4578C211.789 97.8005 208.38 100.434 206.65 101.932C205.282 103.094 205.308 103.404 206.702 104.617C208.638 106.244 213.545 110.091 216.178 112.648L213.183 115.436C212.46 114.61 211.685 113.81 210.911 113.035C209.361 111.408 205.566 108.155 203.19 106.167C200.634 103.972 200.84 102.577 203.423 100.434C205.437 98.7817 209 95.9155 210.73 94.2113C211.479 93.4883 212.305 92.6362 212.718 92.0165L215.739 94.7019ZM226.016 96.3803C227.127 96.5094 228.521 96.561 229.45 96.561C232.652 96.561 236.138 96.0188 238.643 95.2183L238.72 98.2136C236.5 98.8333 232.781 99.5047 229.476 99.4789C228.443 99.4789 227.359 99.453 226.249 99.4014L226.016 96.3803ZM236.061 92.5071C235.725 93.8756 235.105 96.4061 234.408 98.6009C233.22 102.319 230.896 107.122 228.702 110.169L225.577 108.568C227.901 105.728 230.225 101.209 231.232 98.4202C231.852 96.561 232.42 94.1597 232.497 92.1714L236.061 92.5071ZM242.129 100.563C242.051 101.648 242.077 102.732 242.103 103.868C242.155 105.392 242.387 109.239 242.387 110.685C242.387 113.087 241.096 114.972 237.403 114.972C234.202 114.972 231.671 113.526 231.671 110.685C231.671 108.181 233.788 106.218 237.378 106.218C241.896 106.218 245.46 108.49 247.603 110.427L245.899 113.216C244.04 111.486 241.096 108.826 237.197 108.826C235.699 108.826 234.718 109.472 234.718 110.375C234.718 111.331 235.544 112.002 236.964 112.002C238.72 112.002 239.288 111.021 239.288 109.575C239.288 108.026 239.004 103.275 238.875 100.563H242.129ZM246.57 101.932C245.072 100.718 242.129 99.0399 240.347 98.2394L242.025 95.7089C243.885 96.5094 247.061 98.2394 248.403 99.1948L246.57 101.932ZM257.699 94.8568C257.518 95.7606 257.389 97.284 257.389 98.007C257.389 99.6854 257.389 101.596 257.544 103.481C257.906 107.199 258.68 109.756 260.307 109.756C261.546 109.756 262.553 106.709 263.044 104.669L265.652 107.793C263.922 112.312 262.321 113.861 260.255 113.861C257.389 113.861 254.936 111.331 254.213 104.411C253.955 102.035 253.929 98.9882 253.929 97.4131C253.929 96.716 253.903 95.6057 253.723 94.8052L257.699 94.8568ZM270.61 95.4249C273.063 98.3944 275.051 104.85 275.335 108.8L271.927 110.143C271.539 105.96 270.145 99.7112 267.33 96.5094L270.61 95.4249ZM290.027 92.9202C289.872 93.5916 289.717 94.4179 289.563 95.0634C289.33 96.2254 288.994 97.8263 288.736 99.1432C287.884 102.784 285.793 110.143 283.107 114.507L279.725 113.164C282.797 109.033 284.734 102.216 285.457 98.9624C285.948 96.6385 286.232 94.4437 286.206 92.5071L290.027 92.9202ZM298.936 95.3216C300.511 97.5681 302.68 102.474 303.48 104.953L300.201 106.476C299.53 103.584 297.696 98.9366 295.837 96.6385L298.936 95.3216ZM279.57 98.2136C280.499 98.2652 281.377 98.2394 282.333 98.2136C284.398 98.162 289.278 97.5939 291.215 97.5939C293.926 97.5939 295.863 98.8075 295.863 102.552C295.863 105.599 295.501 109.782 294.417 112.002C293.539 113.81 292.119 114.378 290.182 114.378C289.175 114.378 287.962 114.223 287.058 114.016L286.516 110.608C287.523 110.892 288.994 111.15 289.666 111.15C290.544 111.15 291.189 110.892 291.602 110.04C292.325 108.594 292.661 105.444 292.661 102.913C292.661 100.847 291.757 100.538 290.156 100.538C288.607 100.538 284.166 101.106 282.746 101.286C281.997 101.39 280.654 101.57 279.88 101.699L279.57 98.2136ZM313.835 92.5071C316.288 93.2817 321.917 94.2888 324.189 94.5212L323.414 97.6972C320.781 97.3357 315.048 96.1479 313.034 95.6315L313.835 92.5071ZM314.015 97.6972C313.654 99.1432 313.215 102.268 313.034 103.765C315.358 102.061 317.94 101.286 320.651 101.286C325.17 101.286 327.804 104.075 327.804 107.199C327.804 111.925 324.06 115.54 313.344 114.61L312.337 111.228C320.109 112.312 324.189 110.427 324.189 107.122C324.189 105.444 322.614 104.23 320.342 104.23C317.424 104.23 314.816 105.314 313.189 107.277C312.724 107.819 312.44 108.232 312.234 108.749L309.238 108.026C309.755 105.495 310.375 100.434 310.529 97.2324L314.015 97.6972Z" fill="white"/>
<path d="M113.238 169.73H131.069V173.247H113.238V169.73ZM111.462 157.938H132.667V161.313H111.462V157.938ZM111.462 152.966H132.667V156.34H111.462V152.966ZM105.886 147.78H138.243V151.403H105.886V147.78ZM112.137 142.843H132.028V146.182H112.137V142.843ZM110.894 162.946H133.235V174.348H128.831V166.498H115.085V174.454H110.894V162.946ZM150.746 145.933C150.497 147.176 150.32 149.272 150.32 150.266C150.32 152.575 150.32 155.203 150.533 157.796C151.03 162.911 152.096 166.427 154.333 166.427C156.038 166.427 157.423 162.236 158.098 159.43L161.686 163.728C159.306 169.944 157.104 172.075 154.262 172.075C150.32 172.075 146.945 168.594 145.951 159.075C145.596 155.807 145.56 151.616 145.56 149.449C145.56 148.49 145.525 146.963 145.276 145.862L150.746 145.933ZM168.505 146.714C171.88 150.799 174.614 159.679 175.005 165.113L170.317 166.96C169.784 161.206 167.866 152.61 163.994 148.206L168.505 146.714ZM180.084 152.397C181.399 152.149 183.174 151.651 184.489 151.296C187.224 150.444 194.434 147.886 199.655 147.886C206.084 147.886 211.128 151.58 211.128 158.151C211.128 166.214 203.456 171.364 190.918 172.004L188.893 167.28C198.447 167.067 206.013 164.296 206.013 158.08C206.013 154.742 203.74 152.184 199.478 152.184C194.221 152.184 185.838 155.736 182.109 157.334L180.084 152.397ZM206.155 142.736C207.043 144.05 208.322 146.324 208.997 147.638L206.12 148.846C205.409 147.389 204.308 145.294 203.349 143.908L206.155 142.736ZM210.346 141.138C211.305 142.488 212.619 144.725 213.223 146.004L210.417 147.212C209.671 145.72 208.535 143.66 207.54 142.31L210.346 141.138ZM227.963 142.701C231.338 143.766 239.081 145.152 242.206 145.471L241.141 149.84C237.518 149.343 229.633 147.709 226.862 146.999L227.963 142.701ZM228.212 149.84C227.715 151.829 227.111 156.127 226.862 158.187C230.059 155.843 233.611 154.777 237.34 154.777C243.556 154.777 247.179 158.613 247.179 162.911C247.179 169.411 242.029 174.383 227.289 173.105L225.903 168.452C236.594 169.944 242.206 167.351 242.206 162.804C242.206 160.496 240.04 158.826 236.914 158.826C232.901 158.826 229.313 160.318 227.075 163.017C226.436 163.763 226.045 164.332 225.761 165.042L221.641 164.047C222.352 160.567 223.204 153.605 223.417 149.201L228.212 149.84ZM262.63 145.933C262.381 147.176 262.203 149.272 262.203 150.266C262.203 152.575 262.203 155.203 262.416 157.796C262.914 162.911 263.979 166.427 266.217 166.427C267.922 166.427 269.307 162.236 269.982 159.43L273.569 163.728C271.19 169.944 268.987 172.075 266.146 172.075C262.203 172.075 258.829 168.594 257.835 159.075C257.479 155.807 257.444 151.616 257.444 149.449C257.444 148.49 257.408 146.963 257.16 145.862L262.63 145.933ZM280.389 146.714C283.763 150.799 286.498 159.679 286.889 165.113L282.2 166.96C281.668 161.206 279.75 152.61 275.878 148.206L280.389 146.714ZM296.479 171.791C294.596 171.791 293.247 170.334 293.247 168.381C293.247 166.427 294.596 165.006 296.479 165.006C298.326 165.006 299.747 166.427 299.747 168.381C299.747 170.334 298.326 171.791 296.479 171.791ZM309.805 171.791C307.923 171.791 306.573 170.334 306.573 168.381C306.573 166.427 307.923 165.006 309.805 165.006C311.652 165.006 313.073 166.427 313.073 168.381C313.073 170.334 311.652 171.791 309.805 171.791ZM323.132 171.791C321.249 171.791 319.899 170.334 319.899 168.381C319.899 166.427 321.249 165.006 323.132 165.006C324.979 165.006 326.399 166.427 326.399 168.381C326.399 170.334 324.979 171.791 323.132 171.791ZM336.458 171.791C334.576 171.791 333.226 170.334 333.226 168.381C333.226 166.427 334.576 165.006 336.458 165.006C338.305 165.006 339.726 166.427 339.726 168.381C339.726 170.334 338.305 171.791 336.458 171.791Z" fill="#FFEAA4"/>
</svg>
