<svg width="406" height="200" viewBox="0 0 406 200" fill="none" xmlns="http://www.w3.org/2000/svg">
<rect width="371" height="157" fill="#2B5174"/>
<path d="M27.5522 50.6745H34.9378V115.005H27.5522V50.6745ZM18.7862 73.3835H41.5642V81.1142H18.7862V73.3835ZM27.4832 77.5249L32.1078 79.8027C29.9681 88.983 25.9647 101.062 21.4781 107.689C20.7879 105.135 18.9242 101.407 17.6818 99.0605C21.6852 93.9527 25.7576 84.3583 27.4832 77.5249ZM35.0759 81.6664C36.8705 83.53 42.8756 91.7439 44.1871 93.8147L38.9412 100.165C37.4227 96.0925 33.4193 88.3617 31.2795 84.8415L35.0759 81.6664ZM18.7171 56.0584L24.101 54.6779C25.9647 59.6476 27.2761 66.0669 27.6213 70.3464L21.8922 71.7269C21.6852 67.5164 20.3737 60.9591 18.7171 56.0584ZM37.9059 54.3328L44.4632 55.7133C42.8066 61.0972 40.8739 67.5854 39.2864 71.5888L34.3856 70.2084C35.6971 65.9289 37.2156 59.1645 37.9059 54.3328ZM45.2915 55.4372H81.2531V61.3733H45.2915V55.4372ZM46.9481 64.0652H79.8036V69.6562H46.9481V64.0652ZM43.3588 72.6242H83.0478V78.6293H43.3588V72.6242ZM58.6822 50.4674H66.551V76.0064H58.6822V50.4674ZM46.9481 81.4593H73.1773V87.3264H54.6788V115.281H46.9481V81.4593ZM71.3136 81.4593H79.0443V107.758C79.0443 111.209 78.4231 113.003 76.0073 114.108C73.6605 115.143 70.4163 115.212 65.9988 115.212C65.6536 113.21 64.7563 110.45 63.859 108.586C66.4129 108.724 69.3119 108.724 70.1402 108.724C71.0375 108.724 71.3136 108.448 71.3136 107.689V81.4593ZM51.2966 90.6395H74.0056V96.0234H51.2966V90.6395ZM51.2966 99.3366H74.0056V104.72H51.2966V99.3366ZM90.6404 64.7554H143.513V73.2454H90.6404V64.7554ZM140.131 64.7554H148.759C148.759 64.7554 148.69 67.5854 148.552 68.7589C147.171 96.3686 145.791 106.86 142.685 110.519C140.683 113.141 138.681 113.901 135.644 114.315C133.021 114.729 128.742 114.66 124.531 114.453C124.393 112.037 123.22 108.31 121.632 105.894C126.05 106.239 130.122 106.308 131.986 106.308C133.366 106.308 134.195 106.032 135.161 105.135C137.577 102.788 138.957 91.882 140.131 66.412V64.7554ZM111.831 50.5364H120.597V64.7554C120.597 80.424 118.388 102.305 94.9199 115.557C93.6085 113.556 90.5024 110.311 88.4316 108.862C109.898 97.1968 111.831 78.0771 111.831 64.7554V50.5364ZM206.118 78.5603C206.118 95.6093 201.977 106.032 185.273 113.418L177.887 106.446C191.278 101.821 197.076 95.8164 197.076 78.8364V60.4759C197.076 57.715 196.938 55.4372 196.662 54.1257H206.532C206.394 55.5062 206.118 57.715 206.118 60.4759V78.5603ZM181.131 54.6779C180.993 55.9894 180.717 58.1981 180.717 60.9591V85.6008C180.717 88.7069 180.924 91.5369 181.062 92.8483H171.399C171.537 91.5369 171.744 88.7069 171.744 85.6008V60.8901C171.744 58.9574 171.606 56.8176 171.33 54.6779H181.131ZM158.422 67.1023C159.665 67.3093 162.495 67.7925 165.877 67.7925H211.157C214.815 67.7925 216.886 67.5854 218.818 67.3093V76.4896C217.3 76.2825 214.815 76.2825 211.226 76.2825H165.877C162.426 76.2825 160.01 76.4205 158.422 76.4896V67.1023ZM278.939 58.4052C278.939 60.614 280.733 62.4086 282.942 62.4086C285.151 62.4086 286.945 60.614 286.945 58.4052C286.945 56.1964 285.151 54.4018 282.942 54.4018C280.733 54.4018 278.939 56.1964 278.939 58.4052ZM274.659 58.4052C274.659 53.8496 278.386 50.1223 282.942 50.1223C287.498 50.1223 291.225 53.8496 291.225 58.4052C291.225 62.9608 287.498 66.6881 282.942 66.6881C278.386 66.6881 274.659 62.9608 274.659 58.4052ZM283.08 63.8581C282.39 65.1696 281.907 67.1713 281.562 68.6208C279.974 75.3852 276.937 86.153 271.139 93.8147C264.927 102.098 255.746 108.931 243.391 112.865L235.867 104.582C249.603 101.407 257.403 95.4022 262.925 88.4308C267.55 82.7018 270.173 74.833 271.07 68.8969C266.859 68.8969 244.081 68.8969 238.905 68.8969C235.729 68.8969 232.485 69.104 230.691 69.242V59.4406C232.761 59.7167 236.627 60.0618 238.905 60.0618C244.081 60.0618 266.997 60.0618 270.863 60.0618C272.243 60.0618 274.452 59.9928 276.247 59.5096L283.08 63.8581ZM347.894 55.4372C347.756 57.3698 347.687 59.5786 347.687 62.4086C347.687 65.9289 347.687 72.6242 347.687 76.0064C347.687 90.9156 344.788 97.2659 339.611 102.926C335.055 107.965 327.946 111.278 322.907 112.934L315.66 105.273C322.562 103.685 328.084 101.062 332.294 96.5756C336.988 91.3988 337.954 86.222 337.954 75.4542C337.954 72.003 337.954 65.3767 337.954 62.4086C337.954 59.5786 337.747 57.3698 337.471 55.4372H347.894ZM315.936 56.0584C315.798 57.6459 315.66 59.1645 315.66 61.3042C315.66 64.3413 315.66 80.7691 315.66 84.6344C315.66 86.36 315.798 89.052 315.936 90.6395H305.858C305.996 89.3971 306.203 86.7052 306.203 84.5654C306.203 80.631 306.203 64.3413 306.203 61.3042C306.203 60.0618 306.134 57.6459 305.927 56.0584H315.936Z" fill="white"/>
<path d="M343.851 137.117L324.779 157.658C317.166 165.857 317.54 178.57 325.614 186.067C333.688 193.563 346.394 192.995 354.007 184.796L373.079 164.255" fill="white"/>
<path d="M392.207 143.478C399.605 135.51 399.137 123.058 391.16 115.652C383.183 108.245 370.73 108.7 363.332 116.668L344.117 137.363L372.992 164.173L392.207 143.478Z" fill="#E9D25D" stroke="#2B5174" stroke-width="6" stroke-linecap="round" stroke-linejoin="round"/>
<path d="M338.796 143.097L324.87 158.096C317.472 166.064 317.94 178.516 325.917 185.922C333.893 193.329 346.346 192.874 353.745 184.906L367.671 169.907" stroke="#2B5174" stroke-width="6" stroke-linecap="round" stroke-linejoin="round"/>
</svg>
