<svg width="383" height="214" viewBox="0 0 383 214" fill="none" xmlns="http://www.w3.org/2000/svg">
<rect x="12" y="57" width="371" height="157" fill="#2B5174"/>
<path d="M50.3747 163V111.922H81.7117V120.412H60.5903V132.215H78.4675V140.843H60.5903V154.441H82.471V163H50.3747ZM92.8408 163V111.922H106.853C122.452 111.922 132.047 119.998 132.047 137.254C132.047 154.441 122.452 163 107.405 163H92.8408ZM103.056 154.786H106.162C115.757 154.786 121.624 149.678 121.624 137.254C121.624 124.83 115.757 120.067 106.162 120.067H103.056V154.786ZM166.066 158.79H192.917V166.382H166.066V158.79ZM162.201 140.291H196.989V168.936H188.568V147.953H170.208V169.212H162.201V140.291ZM156.472 127.383C166.481 126.969 181.942 126.072 196.092 125.244L196.023 132.905C182.356 134.01 167.723 134.976 157.507 135.666L156.472 127.383ZM182.287 117.858L189.604 114.269C195.057 120.481 200.717 128.833 203.339 134.562L195.609 138.842C193.262 133.043 187.533 124.208 182.287 117.858ZM171.381 104.26L180.976 106.4C177.524 115.373 172.969 125.52 169.241 132.077L161.856 129.937C165.445 122.966 169.38 112.336 171.381 104.26ZM141.908 110.818L146.463 104.536C150.95 106.193 156.817 109.161 159.716 111.577L154.815 118.479C152.192 115.994 146.463 112.75 141.908 110.818ZM137.697 129.592L142.253 123.242C146.74 124.761 152.676 127.591 155.713 129.868L150.881 136.909C148.189 134.562 142.322 131.387 137.697 129.592ZM140.113 162.793C143.702 157.616 148.879 148.988 152.952 141.05L159.164 146.503C155.575 153.751 151.295 161.62 147.223 168.384L140.113 162.793ZM226.532 121.24H270.707V127.452H226.532V121.24ZM225.841 131.456L230.052 127.798C232.537 129.316 235.781 131.663 237.437 133.251L232.951 137.323C231.432 135.666 228.326 133.182 225.841 131.456ZM254.694 157.34L260.975 154.234C264.495 157.34 268.774 161.758 270.845 164.864L264.081 168.384C262.355 165.347 258.214 160.653 254.694 157.34ZM238.818 145.675V148.367H256.626V145.675H238.818ZM238.818 138.496V141.119H256.626V138.496H238.818ZM231.916 133.665H263.874V153.199H231.916V133.665ZM231.501 154.027L238.956 156.098C236.471 160.722 232.33 165.416 228.395 168.315C227.084 166.934 224.116 164.588 222.321 163.552C225.979 161.205 229.5 157.616 231.501 154.027ZM265.806 127.314L270.569 130.766C268.36 132.974 265.599 134.976 263.529 136.288L259.387 133.112C261.389 131.663 264.219 128.971 265.806 127.314ZM255.591 123.863C258.835 129.868 265.254 135.459 272.364 138.082C270.776 139.463 268.636 142.086 267.601 143.88C259.939 140.36 253.313 133.527 249.448 125.796L255.591 123.863ZM243.719 150.714H251.725V162.103C251.725 165.485 251.104 167.21 248.55 168.246C246.135 169.281 243.028 169.35 238.818 169.35C238.404 167.28 237.23 164.519 236.264 162.655C238.818 162.793 241.717 162.724 242.614 162.724C243.443 162.724 243.719 162.517 243.719 161.827V150.714ZM242.476 116.547L250.138 117.513C246.756 128.074 240.267 137.668 227.774 144.225C226.739 142.431 224.461 139.946 222.804 138.842C234.331 133.389 240.267 124.899 242.476 116.547ZM220.526 109.92H271.328V116.892H220.526V109.92ZM216.592 109.92H224.185V132.215C224.185 143.328 222.666 159.48 213.9 169.212C212.727 167.625 209.69 164.726 208.102 163.69C215.902 154.993 216.592 142.086 216.592 132.215V109.92ZM238.266 104.398H247.032V114.131H238.266V104.398ZM206.722 118.686L212.589 116.271C214.59 120.619 216.385 126.279 216.799 129.799L210.449 132.698C210.104 129.04 208.516 123.173 206.722 118.686ZM206.031 142.638C209.276 141.257 213.762 138.98 218.525 136.564L220.388 142.845C216.454 145.33 212.313 147.815 208.378 150.092L206.031 142.638ZM277.61 108.333H339.455V115.304H277.61V108.333ZM292.174 104.398H300.388V119.791H292.174V104.398ZM316.263 104.398H324.546V119.791H316.263V104.398ZM302.458 135.252V138.772H314.261V135.252H302.458ZM302.458 126.693V130.213H314.261V126.693H302.458ZM295.142 121.378H321.923V144.156H295.142V121.378ZM304.667 116.34L312.812 117.513C311.362 120.412 310.051 122.966 309.085 124.899L302.182 123.587C303.08 121.447 304.115 118.479 304.667 116.34ZM330.965 118.824L338.075 122.207C335.314 125.796 331.863 129.316 329.171 131.663L322.751 128.557C325.443 126.003 328.964 121.862 330.965 118.824ZM277.61 147.193H339.179V154.165H277.61V147.193ZM304.184 143.052H312.398V169.143H304.184V143.052ZM301.906 149.885L308.187 152.646C301.975 159.894 291.414 165.899 280.923 168.798C279.887 166.796 277.61 163.897 275.953 162.31C286.031 160.17 296.522 155.476 301.906 149.885ZM314.4 150.369C319.645 155.89 330.206 160.17 340.767 161.965C339.11 163.483 336.97 166.52 335.935 168.453C325.029 165.899 314.607 160.239 308.394 152.715L314.4 150.369ZM278.645 123.173L284.65 119.032C287.825 121.585 291.552 125.382 293.14 128.143L286.721 132.698C285.34 129.937 281.751 125.934 278.645 123.173ZM320.888 136.978L325.581 131.87C329.861 134.217 336.142 137.806 339.179 140.222L334.279 145.882C331.379 143.397 325.305 139.532 320.888 136.978ZM277.264 138.842C281.337 137.392 287.204 134.838 293.14 132.422L294.866 138.911C290.034 141.326 284.857 143.742 280.578 145.813L277.264 138.842Z" fill="white"/>
<path d="M76.4084 49.4863C89.101 48.9598 98.964 38.2548 98.438 25.5762C97.9121 12.8975 87.1963 3.04622 74.5038 3.57275C61.8112 4.09928 51.9482 14.8042 52.4742 27.4829C53.0001 40.1616 63.7159 50.0128 76.4084 49.4863Z" fill="white" stroke="#2B5174" stroke-width="6" stroke-linecap="round" stroke-linejoin="round"/>
<path d="M27.6672 97.4287C40.3598 96.9022 50.2228 86.1972 49.6968 73.5185C49.1708 60.8399 38.4551 50.9886 25.7626 51.5151C13.07 52.0417 3.20701 62.7466 3.73297 75.4253C4.25893 88.104 14.9747 97.9552 27.6672 97.4287Z" fill="white" stroke="#2B5174" stroke-width="6" stroke-linecap="round" stroke-linejoin="round"/>
<path d="M17.7758 71.325L35.6531 77.5643" stroke="#2B5174" stroke-width="6" stroke-linecap="round" stroke-linejoin="round"/>
<path d="M66.1664 24.8621L84.8041 28.1954" stroke="#2B5174" stroke-width="6" stroke-linecap="round" stroke-linejoin="round"/>
</svg>
