<svg width="304" height="168" viewBox="0 0 304 168" fill="none" xmlns="http://www.w3.org/2000/svg">
<path d="M66.2081 36.3949C66.362 33.9977 66.9821 31.4311 68.0684 28.695C69.1939 25.9104 70.6889 22.549 72.5536 18.6109C72.7013 18.3287 72.8477 18.1177 72.9927 17.9779C73.165 17.8441 73.4725 17.8114 73.9151 17.8799C74.7191 18.2564 75.1614 18.7824 75.242 19.4579C75.2648 20.0063 75.1541 20.5111 74.9099 20.9723C73.7404 23.1753 72.7488 25.0885 71.9352 26.7118C71.7815 27.0213 71.6339 27.3035 71.4922 27.5584C70.9679 28.6446 70.7032 29.3301 70.6979 29.6149C72.1073 28.6657 73.314 27.8578 74.3181 27.1915C74.7506 26.9146 75.2194 26.6027 75.7245 26.2559C76.4079 25.748 77.1744 25.1868 78.0241 24.5724C79.4634 23.4867 80.4718 22.7355 81.0494 22.3188C81.3089 21.9181 81.5947 21.7234 81.9068 21.7346C82.2249 21.7186 82.545 21.8889 82.8672 22.2455C83.1953 22.5749 83.4283 23.0121 83.5662 23.5571C83.6708 24.1234 83.6113 24.5251 83.3878 24.762C82.9825 25.0449 81.9405 25.6887 80.2616 26.6932C78.5887 27.6705 75.9846 29.373 72.4493 31.8008C71.4452 32.4671 70.5102 32.9484 69.6445 33.2448C69.3651 34.1273 69.1194 35.1172 68.9073 36.2147C68.8915 37.0692 69.1 37.9443 69.5327 38.84C69.9655 39.7356 70.6294 40.4246 71.5246 40.9069C72.4198 41.3893 73.5146 41.7438 74.8091 41.9705C76.0549 42.1579 77.5329 41.9387 79.2432 41.3128C80.9866 40.6656 82.3754 39.9406 83.4094 39.1378C84.4767 38.3137 85.1934 37.7845 85.5594 37.5502C85.8696 37.9614 85.8517 38.6296 85.5058 39.5547C85.1659 40.4525 84.2461 41.4519 82.7462 42.5529C81.2737 43.6599 79.7848 44.3201 78.2795 44.5333C76.8074 44.7252 75.4485 44.7275 74.2026 44.5401C72.9568 44.3526 71.7724 43.9499 70.6496 43.3319C69.5541 42.7198 68.6569 42.0512 67.958 41.3259C67.259 40.6006 66.8054 39.8005 66.5969 38.9254C66.4157 38.0563 66.2861 37.2128 66.2081 36.3949ZM54.1274 31.4289C53.9624 32.0505 53.8005 32.6584 53.6416 33.2528C53.3809 34.311 53.1671 35.3508 53.0003 36.3724C53.6824 36.522 54.3928 36.4776 55.1315 36.2392C55.8761 35.9736 56.6843 35.6789 57.5561 35.3553C58.4278 35.0317 59.8396 34.3976 61.7913 33.4529C62.6784 33.1898 63.237 33.055 63.4673 33.0483C63.6975 33.0416 63.8872 33.1547 64.0363 33.3876C64.2187 33.5992 64.2331 33.8597 64.0794 34.1692C63.9317 34.4514 63.7448 34.7822 63.5186 35.1615C62.1272 36.029 60.6902 36.8435 59.2076 37.6051C57.731 38.3394 56.4507 38.8308 55.3666 39.0792C54.2886 39.3004 53.5239 39.4616 53.0727 39.5628C52.573 39.6248 52.0941 39.5913 51.6362 39.4622C51.1724 39.3605 50.8003 39.0358 50.52 38.4882C50.2457 37.9132 50.1761 37.3832 50.3111 36.898C50.46 35.9583 50.6195 35.0352 50.7897 34.1288C51.1787 32.3551 51.6133 30.6344 52.0935 28.9666C52.8743 26.4495 53.6388 24.0719 54.3871 21.8337C55.1413 19.5682 55.862 17.1952 56.5489 14.7147C56.7931 14.2535 57.1198 14.0678 57.5291 14.1575L57.6519 14.1845C58.1311 14.3468 58.5501 14.6531 58.9089 15.1036C59.3009 15.5328 59.4098 16.0143 59.2356 16.548C58.8717 17.555 58.2641 19.152 57.4127 21.339C56.5613 23.5259 55.8479 25.8004 55.2727 28.1624C58.8145 24.7923 61.1776 22.4936 62.362 21.2661C63.5463 20.0387 64.6369 18.848 65.6336 17.6938C65.8385 17.2811 66.1592 17.1227 66.5958 17.2184C67.3153 17.7194 67.7726 18.1772 67.9676 18.5918C68.1687 18.9791 68.212 19.3032 68.0976 19.564C67.9832 19.8249 67.8112 20.0875 67.5817 20.3518C65.2362 22.4399 63.1884 24.2787 61.4385 25.8682C59.7218 27.4365 58.2287 28.7678 56.9591 29.8621C56.5359 30.2269 56.0808 30.5417 55.5937 30.8067C55.1066 31.0716 54.6178 31.279 54.1274 31.4289ZM106.006 33.7121C104.485 35.0373 103.081 36.2881 101.794 37.4643C100.512 38.6132 99.4457 39.6948 98.5941 40.7092C97.7484 41.6963 97.1822 42.3872 96.8955 42.7819C96.642 43.1553 96.4367 43.4391 96.2797 43.6335C96.1559 43.8065 95.973 43.9237 95.7307 43.985C95.5158 44.0522 95.3052 44.0346 95.0988 43.9322C94.2702 43.4073 93.8159 42.9358 93.736 42.5179C93.65 42.1273 93.9604 41.4947 94.667 40.6201C95.4008 39.7515 96.5942 38.4831 98.247 36.8151C99.933 35.1257 102.136 33.035 104.856 30.5428C105.086 30.2786 105.385 30.0869 105.754 29.9677C106.151 29.8545 106.55 29.9276 106.95 30.1871C107.378 30.4525 107.675 30.732 107.839 31.0254C108.647 32.6897 109.373 34.4648 110.017 36.3507C110.695 38.2153 111.277 39.9301 111.763 41.4953C112.283 43.0392 112.716 44.1924 113.063 44.955C113.417 45.6903 113.91 46.5707 114.543 47.5961C114.665 47.823 114.757 48.0576 114.818 48.2998C114.913 48.5207 114.848 48.7497 114.625 48.9866C114.428 49.2296 114.171 49.359 113.853 49.3751C113.535 49.3911 113.248 49.3283 112.993 49.1866C112.323 48.7248 111.794 48.137 111.407 47.423C111.047 46.7149 110.653 45.8419 110.222 44.8038C109.798 43.7384 109.325 42.3762 108.802 40.7172C108.279 39.0582 107.748 37.569 107.208 36.2494C106.695 34.9358 106.295 34.09 106.006 33.7121ZM114.053 34.576C113.902 33.828 113.921 33.0886 114.11 32.3579C114.305 31.5999 114.579 30.8734 114.931 30.1786C115.311 29.4897 115.715 28.8205 116.144 28.1709C116.268 27.9978 116.399 27.855 116.538 27.7425C116.704 27.636 116.903 27.5794 117.133 27.5727C117.433 27.6385 117.685 27.7939 117.889 28.0388C118.093 28.2836 118.246 28.5604 118.35 28.8692C118.46 29.1507 118.523 29.4505 118.539 29.7686C118.582 30.0927 118.533 30.3822 118.391 30.6371C118.05 31.0198 117.686 31.4405 117.3 31.8991C116.919 32.3304 116.596 32.8888 116.332 33.5743C116.1 34.2385 116.079 34.9204 116.269 35.6198C116.282 35.8227 116.178 35.9715 115.957 36.066C115.736 36.1606 115.462 36.1719 115.134 36.1001C114.813 36.001 114.553 35.8154 114.355 35.5433C114.164 35.2438 114.063 34.9214 114.053 34.576ZM124.495 32.1473C124.061 33.0817 123.688 33.8721 123.374 34.5183C123.067 35.1373 122.8 35.6365 122.574 36.0159C121.807 35.9907 121.383 35.8404 121.3 35.5649C121.224 35.2621 121.183 34.9244 121.179 34.5517C121.203 34.185 121.263 33.7122 121.362 33.1332C121.782 31.7382 122.243 30.3522 122.745 28.9752C122.999 28.6018 123.221 28.4361 123.412 28.4779L123.453 28.4869C123.665 28.5621 123.928 28.7341 124.241 29.0029C124.56 29.2444 124.776 29.5634 124.889 29.9601C125.035 30.3354 125.039 30.7081 124.901 31.0781C124.79 31.4541 124.655 31.8105 124.495 32.1473ZM144.778 39.813C144.138 39.4724 143.41 39.2699 142.595 39.2055C141.779 39.1411 140.378 39.2056 138.391 39.3989C136.404 39.5923 135.011 39.8159 134.211 40.0696C133.412 40.3233 132.878 40.4778 132.608 40.533C132.339 40.5883 131.914 40.438 131.335 40.0821C130.836 39.4866 130.571 38.9995 130.54 38.6208C130.508 38.2421 130.568 37.9693 130.719 37.8022C130.903 37.6138 131.707 37.404 133.131 37.1728C134.582 36.9476 136.381 36.8275 138.529 36.8125C140.711 36.7761 142.758 36.8962 144.671 37.1727C145.735 37.4061 146.401 37.6951 146.668 38.0398C146.969 38.3631 147.229 38.8063 147.449 39.3693C147.702 39.9109 147.706 40.6124 147.459 41.4736C146.982 41.8264 146.527 42.1413 146.094 42.4182C145.662 42.6951 144.957 43.1698 143.98 43.8421C143.003 44.5144 141.662 45.4787 139.957 46.7348C138.278 47.9969 136.93 49.0596 135.911 49.9229C135.476 50.3423 135.177 50.6628 135.014 50.8844C134.851 51.1061 135.019 51.6434 135.519 52.4965C136.018 53.3496 136.553 54.0389 137.124 54.5646C137.722 55.0962 138.319 55.5702 138.914 55.9867C139.515 56.3759 139.983 56.7216 140.317 57.0237C140.558 57.6199 140.524 58.0987 140.216 58.4602C139.902 58.8489 139.45 59.0213 138.859 58.9775C138.352 58.8092 137.565 58.2933 136.496 57.4297C135.427 56.566 134.313 55.3208 133.154 53.6939C132.524 52.7836 132.167 51.9331 132.083 51.1425C132.005 50.3246 132.478 49.3416 133.502 48.1934C134.663 47.0752 136.029 45.9306 137.601 44.7597C139.174 43.5888 140.548 42.6032 141.725 41.8031C142.928 41.0089 143.946 40.3456 144.778 39.813ZM167.643 52.721C167.117 54.2072 166.674 55.7689 166.315 57.4061C165.956 59.0433 165.739 60.4255 165.663 61.5529C165.588 62.6803 165.649 63.5088 165.847 64.0385C166.106 64.5529 166.083 64.9196 165.778 65.1386C165.494 65.3909 165.103 65.4768 164.606 65.3964C164.103 65.3432 163.718 64.9443 163.453 64.1997C163.187 63.455 163.12 62.325 163.252 60.8097C163.391 59.267 163.591 57.8954 163.855 56.6948C164.124 55.4669 164.335 54.5694 164.488 54.0024C162.581 54.8712 161.045 55.7496 159.878 56.6376C158.738 57.5316 157.777 58.6508 156.996 59.9953C156.809 60.3261 156.575 60.5464 156.294 60.6563C156.045 60.7448 155.764 60.7259 155.448 60.5995C155.139 60.4458 154.82 60.2043 154.492 59.875C154.163 59.5456 154 59.1809 154.002 58.781C155.386 57.1682 156.439 55.7548 157.163 54.5408C157.893 53.2995 158.489 52.0147 158.952 50.6862C159.448 49.3365 159.615 48.3149 159.453 47.6215C158.752 47.5538 158.266 47.3612 157.992 47.0438C157.724 46.6991 157.523 46.3119 157.389 45.882C157.288 45.4308 157.341 45.0564 157.549 44.7589C157.785 44.4674 158.503 44.4533 159.704 44.7166C160.313 44.9361 160.835 45.2937 161.27 45.7894C161.738 46.2638 161.976 46.8737 161.984 47.6191C161.887 48.7132 161.732 49.6802 161.52 50.5201C161.334 51.3659 161.16 52.0285 160.998 52.5077C162.22 51.8892 163.176 51.4411 163.867 51.1635C164.557 50.8858 165.132 50.6115 165.591 50.3406C166.641 46.5956 167.67 43.4037 168.678 40.7648C169.713 38.1319 170.417 36.3559 170.79 35.4368C170.872 35.1972 171.001 34.9968 171.18 34.8357C171.319 34.7233 171.47 34.685 171.634 34.7209C171.688 34.7328 171.743 34.7448 171.798 34.7568C172.004 34.8592 172.364 35.1097 172.877 35.5082C173.39 35.9068 173.475 36.4974 173.132 37.2801C171.87 40.2924 170.902 42.7539 170.225 44.6647C169.582 46.5542 169.067 48.1857 168.68 49.5594C169.516 49.3995 170.636 49.2449 172.042 49.0956C173.42 48.9402 175.178 49.0111 177.315 49.3082C179.479 49.6112 181.231 50.5533 182.572 52.1342C183.94 53.7212 184.288 55.6564 183.615 57.9399C182.977 59.2869 182.153 60.4361 181.143 61.3873C180.134 62.3385 179.063 63.1762 177.932 63.9005C177.427 64.2473 177.058 64.4953 176.825 64.6444C176.62 64.7995 176.265 64.8504 175.762 64.7973C175.286 64.7501 174.83 64.5499 174.393 64.1966C173.988 63.822 174.018 63.428 174.48 63.0147C175.297 62.4216 176.149 61.7935 177.038 61.1305C177.933 60.4402 178.786 59.6834 179.595 58.86C180.405 58.0366 180.983 57.2912 181.33 56.6236C181.643 55.9773 181.767 55.3468 181.702 54.7318C181.643 54.0896 181.194 53.4622 180.356 52.8494C179.518 52.2366 178.032 51.8393 175.899 51.6573C173.798 51.4541 171.046 51.8087 167.643 52.721ZM197.963 66.0629C198.337 66.3164 198.815 66.5499 199.397 66.7634C201.364 65.8792 202.932 64.7932 204.101 63.5052C205.27 62.2172 206.099 61.112 206.587 60.1896C207.082 59.2398 207.387 58.5633 207.504 58.1599C207.649 57.7626 207.395 57.4209 206.742 57.1349C206.123 56.8275 205.467 56.6264 204.773 56.5313C204.085 56.409 203.109 56.4238 201.846 56.5758C201.088 57.5536 200.238 58.7543 199.297 60.178C198.356 61.6016 197.275 63.1378 196.056 64.7865C194.863 66.4411 194.076 67.5553 193.692 68.1291C193.227 68.6848 192.869 68.9494 192.617 68.9229C192.372 68.869 192.094 68.7652 191.785 68.6116C191.503 68.4639 191.275 68.1994 191.101 67.8181C190.954 67.4428 190.975 67.0897 191.162 66.7589C191.418 66.2431 192.024 65.3037 192.981 63.9405C193.971 62.5561 194.778 61.4176 195.403 60.5251C196.034 59.6052 196.841 58.4668 197.825 57.1096C197.298 57.1656 196.621 57.3175 195.795 57.5652C194.968 57.8129 194.14 58.1319 193.311 58.522C192.73 58.8236 192.234 58.8719 191.821 58.667C191.408 58.4621 191.057 58.1707 190.769 57.7928C190.48 57.4148 190.338 57.0834 190.343 56.7986C190.348 56.5137 190.672 56.2129 191.313 55.896C192.594 55.4046 193.847 55.036 195.073 54.7902C196.333 54.5231 197.932 54.2732 199.871 54.0406C200.903 52.4652 201.819 51.0931 202.618 49.9243C202.799 49.6208 202.976 49.4022 203.148 49.2684C203.348 49.1406 203.587 49.0929 203.866 49.1255L203.907 49.1345C204.152 49.1883 204.386 49.2968 204.608 49.4598C204.823 49.65 205.029 49.9525 205.224 50.367C205.425 50.7543 205.488 51.0541 205.413 51.2664C205.365 51.4847 205.243 51.7153 205.046 51.9583C204.591 52.6019 204.062 53.3154 203.462 54.0988C204.722 54.0893 205.924 54.2814 207.067 54.6751C208.211 55.0689 209.011 55.7878 209.469 56.8319C209.932 57.8487 210.035 58.815 209.777 59.7308C209.525 60.6192 208.993 61.6752 208.181 62.8985C207.369 64.1218 206.25 65.3778 204.824 66.6665C203.397 67.9552 201.977 68.8878 200.564 69.4644C199.665 69.782 198.981 69.7036 198.513 69.2292C198.045 68.7548 197.779 68.2101 197.713 67.5952C197.654 66.953 197.737 66.4423 197.963 66.0629ZM214.481 53.3411C215.012 53.4002 215.479 53.6171 215.883 53.9917C216.287 54.3663 216.574 54.8154 216.746 55.3391C217.51 56.9369 218.196 58.3742 218.803 59.6512C219.442 60.9069 220.03 62.0082 220.566 62.9551C221.135 63.8807 221.774 64.75 222.482 65.5631C222.711 65.9564 222.792 66.3031 222.726 66.6032C222.66 66.9034 222.443 67.1131 222.073 67.2323C221.731 67.3574 221.403 67.3568 221.087 67.2305C220.772 67.1041 220.521 66.8775 220.335 66.5508C219.481 65.6199 218.567 64.2468 217.592 62.4315C216.618 60.6162 215.513 58.415 214.279 55.8278C213.996 55.4225 213.837 54.973 213.803 54.4792C213.774 53.9581 214 53.5788 214.481 53.3411ZM238.337 66.0373C239.24 66.0924 240.281 66.3637 241.461 66.8513C242.669 67.3448 243.81 68.2673 244.887 69.6188C245.891 71.0401 246.147 72.7407 245.655 74.7207C245.332 75.9366 244.913 76.9316 244.4 77.7057C244.561 77.884 244.703 78.0866 244.825 78.3135C244.977 78.6615 244.913 79.0193 244.632 79.3867C244.212 79.8666 243.781 80.0723 243.339 80.0038C242.902 79.9081 242.543 79.7864 242.26 79.6387C241.431 80.0288 240.702 80.3551 240.072 80.6174C239.107 80.9776 237.93 81.1914 236.543 81.2589C235.149 81.3537 233.841 80.9952 232.617 80.1835C231.375 79.1962 231.211 77.9877 232.126 76.558C232.621 75.8658 233.289 75.4261 234.131 75.2389C234.979 75.0245 235.854 74.9448 236.757 74.9999C237.693 75.0336 238.606 75.1765 239.494 75.4286C240.389 75.6534 241.137 75.9603 241.738 76.3495C242.575 75.5322 243.112 74.6489 243.348 73.6999C243.618 72.7295 243.511 71.8481 243.027 71.0556C242.577 70.2418 241.922 69.6406 241.063 69.2521C239.613 68.5623 238.111 68.3044 236.557 68.4783C235.031 68.6583 233.929 68.9886 233.251 69.4692C232.843 69.637 232.482 69.7153 232.17 69.704C231.858 69.6928 231.608 69.595 231.419 69.4107C231.264 69.2051 231.123 69.0025 230.995 68.8028C230.867 68.6032 230.779 68.355 230.729 68.0582C230.713 67.7401 230.726 67.4855 230.768 67.2945C230.816 67.0762 230.953 66.9062 231.18 66.7843C231.435 66.6685 231.672 66.5633 231.893 66.4688C232.114 66.3742 232.311 66.26 232.483 66.1262C234.36 65.3938 236.442 64.0488 238.73 62.0911C240.012 60.9422 241.002 60.0154 241.699 59.3105C242.397 58.6056 242.79 58.1197 242.877 57.8528C242.789 57.6046 242.259 57.4742 241.29 57.4618C240.326 57.422 239.283 57.5507 238.159 57.8477C237.917 57.909 237.667 57.94 237.41 57.9407C237.158 57.9141 236.931 57.7784 236.727 57.5335C236.535 57.2341 236.358 56.8664 236.197 56.4306C236.041 55.9674 236.034 55.6084 236.175 55.3534C236.323 55.0712 236.576 54.8978 236.933 54.8332C238.865 54.3703 240.795 54.3074 242.723 54.6445C243.405 54.7941 244.007 55.1121 244.53 55.5984C245.08 56.0908 245.372 56.7127 245.408 57.464C245.476 58.194 245.309 58.9581 244.905 59.7561C244.447 60.5421 243.679 61.432 242.603 62.4258C241.555 63.4256 240.7 64.1961 240.037 64.7372C239.375 65.2784 238.808 65.7118 238.337 66.0373ZM234.267 78.5291C235.041 78.7845 235.883 78.8549 236.795 78.7403C237.74 78.6043 238.721 78.3047 239.737 77.8413C238.527 77.2326 237.587 76.9549 236.917 77.0083C236.248 77.0617 235.659 77.2042 235.15 77.4359C234.675 77.6463 234.381 78.0107 234.267 78.5291ZM272.267 60.1801C271.395 61.4188 270.021 64.292 268.146 68.7998C266.277 73.2803 265.282 76.8372 265.162 79.4706C265.133 79.8646 265.034 80.1861 264.865 80.435C264.702 80.6566 264.341 80.7349 263.784 80.6698C263.356 80.4043 263.101 80.1339 263.018 79.8584C262.969 79.5616 262.936 79.2541 262.92 78.936C262.982 77.0906 263.331 75.108 263.967 72.9882C264.637 70.8472 265.426 68.4892 266.334 65.9142C267.269 63.3452 268.228 60.7958 269.212 58.2661C269.555 57.4834 269.986 57.1489 270.505 57.2626C271.023 57.3763 271.465 57.6447 271.829 58.0679C272.194 58.4911 272.425 58.8707 272.523 59.2068C272.627 59.5156 272.542 59.84 272.267 60.1801ZM263.951 90.2729C263.579 90.277 263.261 90.293 262.997 90.321C262.733 90.349 262.48 90.2649 262.237 90.0686C262.022 89.8783 261.901 89.5802 261.876 89.1742C261.434 88.4483 261.369 87.247 261.679 85.5706C261.902 84.8185 262.375 84.5506 263.1 84.7667C263.964 85.1279 264.393 85.7797 264.387 86.7221C264.243 88.292 264.098 89.4756 263.951 90.2729ZM43.4723 54.9064C44.2991 54.8824 45.1678 54.9017 46.0783 54.9645C46.996 54.9946 47.8085 55.0358 48.5158 55.0883C48.9092 54.3872 49.1417 53.8734 49.2133 53.5468C49.3248 53.1947 49.492 52.6665 49.7149 51.9623C49.7937 51.603 49.9342 51.2744 50.1365 50.9765C50.3459 50.6458 50.7191 50.5052 51.256 50.5545C52.3083 50.751 52.923 51.3822 53.1 52.448C53.0762 53.0247 52.9871 53.5871 52.8327 54.1352C52.7109 54.6904 52.529 55.1297 52.2869 55.4532C53.7526 55.6377 55.5525 56.0153 57.6866 56.5861C59.8279 57.1242 61.2419 57.6225 61.9287 58.0812C63.2655 58.8537 63.5297 59.9899 62.7215 61.49C61.7715 62.8563 60.2336 64.7955 58.1081 67.3075C57.9671 67.4819 57.8226 67.6727 57.6744 67.8799C55.744 70.1266 54.0098 71.8686 52.4718 73.106C51.6244 73.5363 50.8911 73.2899 50.272 72.3668C50.2018 71.9064 50.2152 71.5328 50.3124 71.246C49.6591 71.1027 48.9135 70.9906 48.0755 70.9095C47.0742 70.7926 45.9315 70.696 44.6474 70.6198C42.2895 70.445 39.2256 70.6801 35.4555 71.3253C34.5235 71.3605 33.7887 71.1993 33.2509 70.8418C32.7458 70.4914 32.2414 69.7475 31.7378 68.6101C30.8188 65.4646 30.2846 61.1883 30.1355 55.7812C30.0349 54.8349 30.0312 54.1494 30.1243 53.7248C30.2174 53.3002 30.5504 53.0309 31.1231 52.9169C31.7253 52.9805 32.2483 53.2493 32.6921 53.7231C33.1359 54.197 33.4617 54.6622 33.6697 55.1186C34.4711 55.0547 35.45 54.9613 36.6066 54.8384C37.7959 54.7227 39.0397 54.6703 40.3381 54.6812C40.5657 53.0195 40.7108 51.7334 40.7735 50.8229C40.736 50.3697 40.7945 49.869 40.9489 49.3209C41.1033 48.7729 41.5052 48.5015 42.1544 48.507C42.2595 48.4958 42.3611 48.501 42.4591 48.5225C42.9163 48.6228 43.3142 48.9154 43.6529 49.4005C44.0353 49.9978 44.1948 50.5976 44.1312 51.1998C44.1208 51.403 44.0385 51.7786 43.884 52.3266C43.7296 52.8747 43.5924 53.7346 43.4723 54.9064ZM52.863 68.9813C54.9264 66.2845 56.3702 64.4616 57.1945 63.5128C58.0188 62.5639 58.7354 61.4032 59.3446 60.0305C58.4985 59.6738 57.7433 59.3713 57.0789 59.1229C56.4146 58.8745 54.3645 58.5447 50.9288 58.1335C50.5753 58.8091 50.1692 59.4902 49.7105 60.1769C49.2916 60.8382 48.9886 61.4392 48.8015 61.9802C50.2059 62.2882 51.1173 62.6592 51.5356 63.0932C52.0192 63.5416 52.2072 64.0108 52.0998 64.5007C51.9923 64.9906 51.7323 65.3957 51.3198 65.716C50.7797 65.8372 50.1883 65.7246 49.5454 65.3782C48.8698 65.0246 48.1477 64.8834 47.379 64.9544C46.6026 66.1534 46.0232 67.156 45.641 67.9622C47.7886 68.1594 50.1959 68.499 52.863 68.9813ZM33.6357 58.5514C33.5102 60.3724 33.4619 61.9193 33.4908 63.1922C33.5596 64.4397 33.8853 66.1542 34.468 68.3359C36.038 68.201 37.3089 68.1032 38.2807 68.0425C38.4263 66.9105 38.4942 65.8984 38.4845 65.0063C37.8863 65.0805 37.3697 65.1726 36.9348 65.2826C36.0467 65.4301 35.3169 65.1674 34.7457 64.4944C34.4348 63.5704 34.5884 62.7141 35.2064 61.9254C36.2292 61.9443 37.569 61.8445 39.2259 61.6259C39.4694 60.5154 39.64 59.2692 39.7377 57.8871C36.9776 57.8295 34.9436 58.0509 33.6357 58.5514ZM42.1198 61.5417C43.1538 61.6658 44.349 61.7568 45.7056 61.8147C46.3514 60.587 46.9605 59.2144 47.533 57.6968C46.4663 57.5656 45.6446 57.4881 45.0679 57.4643C44.5239 57.4477 43.7986 57.4769 42.8921 57.5519C42.534 59.185 42.2765 60.5149 42.1198 61.5417ZM44.473 64.6252C43.3196 64.5776 42.3529 64.5368 41.5731 64.5027C41.2674 65.4283 41.07 66.1724 40.9809 66.7348C40.8989 67.2645 40.8839 67.7233 40.9357 68.1113C41.8534 68.1414 42.4735 68.1233 42.7961 68.0571C43.5407 67.1593 44.0997 66.0153 44.473 64.6252ZM35.2788 78.2184C36.5477 78.0517 38.2774 77.9689 40.468 77.9701C42.6657 77.9386 44.8675 78.045 47.0732 78.2891C48.198 78.4673 49.1353 79.0323 49.8851 79.9841C49.8956 81.1845 49.7345 81.9194 49.4016 82.1887C49.0686 82.458 48.2929 83.2635 47.0744 84.6051C46.7719 85.3603 46.4996 85.8997 46.2575 86.2231C46.0552 86.5211 45.0344 86.571 43.1951 86.373C41.0228 86.4443 38.7331 86.6611 36.3259 87.0231C35.5023 86.8767 34.6507 86.4675 33.7711 85.7953C33.1239 83.9076 32.7739 81.9138 32.7209 79.8141C32.6777 78.6065 32.8062 77.8644 33.1064 77.588C33.4465 77.286 34.1706 77.4962 35.2788 78.2184ZM35.8498 84.0433C37.2422 83.9379 38.6075 83.8779 39.9458 83.8633C41.284 83.8487 42.4753 83.8018 43.5196 83.7228C44.8409 82.8487 45.7556 81.7998 46.2636 80.5762C45.0081 80.3693 43.4882 80.2756 41.7039 80.2951C39.9523 80.3217 38.3444 80.551 36.8804 80.983L35.2745 80.5795C35.3767 82.1423 35.5685 83.2969 35.8498 84.0433ZM39.4626 94.0268C41.6612 94.3036 43.8164 94.6222 45.9281 94.9827C48.0654 95.3829 49.6929 95.6885 50.8105 95.8994C51.921 96.1429 52.6216 96.3822 52.9124 96.6171C53.5785 97.4821 53.6858 98.2416 53.2342 98.8956C52.3836 99.4964 51.6639 99.5782 51.0752 99.141C49.2811 98.2683 47.3609 97.6589 45.3144 97.3128C43.3006 96.9738 41.3506 96.7344 39.4643 96.5946C37.5779 96.4547 35.835 96.3634 34.2355 96.3207C32.6615 96.3178 31.4376 96.3575 30.5637 96.4397C29.7154 96.5618 29.1009 96.6324 28.7201 96.6516C27.6606 96.4877 27.0715 95.8963 26.9526 94.8775C27.1675 93.8977 27.7628 93.4463 28.7386 93.5234C29.0939 93.4644 29.7104 93.4627 30.5883 93.5183C31.4589 93.6065 32.4925 93.5765 33.6889 93.4281C34.8782 93.3124 36.2478 92.8425 37.7978 92.0186C39.9714 91.1603 41.6541 90.4339 42.8456 89.8394C44.03 89.2776 45.048 88.8504 45.8994 88.5579C46.4037 88.6001 46.9072 89.0357 47.41 89.8648C47.587 90.9306 47.4438 91.5838 46.9802 91.8245C44.6719 92.5163 42.166 93.2504 39.4626 94.0268ZM59.5871 78.8256C59.1164 79.0989 58.5034 79.0843 57.7482 78.7818C56.3143 78.2961 54.8859 77.863 53.4632 77.4826C52.0731 77.1092 50.0211 76.7105 47.3071 76.2865C44.5931 75.8624 41.3466 75.681 37.5677 75.7423C35.7833 75.7617 34.0082 75.8174 32.2422 75.9094C30.3384 76.0053 28.4601 76.1411 26.6073 76.3167C25.9295 76.4419 25.2978 76.2006 24.7122 75.5929C24.5328 75.0059 24.4734 74.4965 24.5338 74.0648C24.8261 73.5127 25.2606 73.2485 25.8373 73.2723C29.0395 73.1873 31.8084 73.127 34.1439 73.0915C36.2763 73.0457 38.4924 73.0867 40.7921 73.2145L41.4015 73.2455C43.9043 73.3836 46.6633 73.6806 49.6784 74.1365C52.6936 74.5923 55.3769 75.0781 57.7285 75.5939C58.7991 75.8629 59.4174 76.4778 59.5832 77.4384C59.6678 77.8335 59.669 78.2959 59.5871 78.8256ZM34.0482 91.5557C32.8349 90.8446 31.6431 90.0355 30.4727 89.1284C30.0106 88.582 29.8293 87.9261 29.9287 87.1606C30.1109 86.1736 30.694 85.8564 31.6778 86.2091C31.9503 86.3716 32.261 86.5938 32.6099 86.8757C33.6003 88.291 34.9308 89.4044 36.6014 90.2158C37.1257 90.9469 37.0891 91.5037 36.4918 91.8862C35.8944 92.2687 35.0799 92.1585 34.0482 91.5557ZM81.11 91.1967C81.404 91.2612 81.7811 91.2583 82.2415 91.1881C84.2066 90.9687 87.0373 90.9391 90.7334 91.0993C94.4693 91.234 98.0428 91.6412 101.454 92.3208C102.597 92.5715 103.672 92.9783 104.678 93.5413C105.619 94.09 106.262 94.5905 106.608 95.0429C106.954 95.4953 106.965 96.3022 106.642 97.4637C105.953 98.8873 105.05 100.195 103.933 101.388C102.848 102.588 101.944 103.588 101.221 104.388C100.49 105.22 99.7526 105.931 99.0071 106.521C98.3014 107.085 97.6479 107.489 97.0466 107.734C96.4452 107.979 95.9573 107.94 95.5828 107.618C95.2012 107.329 94.8324 107.06 94.4762 106.811C92.0674 106.557 89.9616 106.403 88.1589 106.35C86.3563 106.297 84.5011 106.249 82.5933 106.207C81.5848 106.123 80.6802 105.565 79.8794 104.534C79.4196 103.509 78.9713 102.041 78.5344 100.131C78.1302 98.2282 77.9394 96.1325 77.9621 93.8439C77.9919 91.5227 78.0816 89.865 78.2312 88.8708C78.2916 88.4391 78.5031 88.1774 78.8655 88.0857C79.2351 87.9614 79.6995 88.029 80.2587 88.2886C80.818 88.5481 81.1347 88.977 81.2089 89.5753C81.2902 90.1408 81.2573 90.6813 81.11 91.1967ZM97.8842 101.807C96.7299 101.452 95.5251 101.17 94.2696 100.963C93.0397 100.796 91.9659 100.698 91.0482 100.668C90.67 101.612 90.2827 102.519 89.8862 103.391C92.0378 103.726 94.2726 103.994 96.5907 104.194C97.7742 103.324 99.0927 102.072 100.546 100.44C102.007 98.7749 102.989 97.4158 103.494 96.3626C103.083 95.8959 102.281 95.4974 101.086 95.167C99.9321 94.8112 97.1185 94.4509 92.6457 94.0861C93.0353 94.6508 93.1223 95.2689 92.9065 95.9404C92.6908 96.612 92.5057 97.2218 92.3513 97.7699C93.073 97.757 93.8911 97.8508 94.8056 98.0514C95.7272 98.2193 96.6672 98.4597 97.6256 98.7726C98.3155 99.0608 98.6593 99.4443 98.657 99.923C98.6618 100.369 98.4042 100.997 97.8842 101.807ZM87.7074 100.448C86.2855 100.376 85.0305 100.323 83.9423 100.29C82.8797 100.297 81.9987 100.412 81.2994 100.635C81.3727 100.925 81.6086 101.644 82.0071 102.793C83.1718 102.945 84.0588 103.037 84.6681 103.068C85.303 103.139 85.9032 103.134 86.4688 103.052C87.0215 102.249 87.4343 101.381 87.7074 100.448ZM86.5994 79.5123C88.3765 79.5255 90.4819 79.5251 92.9154 79.5111C95.3489 79.4971 98.2871 79.6794 101.73 80.0579C102.194 80.1255 102.595 80.2477 102.933 80.4245C103.59 80.7056 104.101 81.1085 104.465 81.6334C105.099 82.4912 105.324 83.2595 105.141 83.9382L101.234 87.7027C101.052 88.6897 100.646 89.2167 100.015 89.2837C99.4165 89.3579 98.7601 89.3851 98.0456 89.3654C93.2788 88.9361 90.2681 88.7722 89.0136 88.8736C87.7661 88.9423 86.8377 88.9612 86.2284 88.9303C85.0526 88.6724 84.3343 87.9672 84.0736 86.8146L84.0019 86.4394C83.7045 85.1419 83.5143 83.902 83.4312 82.7199C83.3768 81.4072 83.3371 80.1833 83.3122 79.0482C83.4452 78.5981 83.6964 78.3109 84.066 78.1865C84.4754 78.0367 84.9562 78.1079 85.5083 78.4001C86.0603 78.6924 86.424 79.0631 86.5994 79.5123ZM103.55 77.3763C102.873 77.8098 102.23 77.8569 101.62 77.5177L99.6599 77.0879C99.072 76.959 97.1025 76.8864 93.7513 76.8703C90.4328 76.8614 88.3203 76.8945 87.4138 76.9695C86.7176 77.0222 86.144 76.828 85.6931 76.3868C85.2748 75.9527 85.0955 75.3657 85.1551 74.6256C85.2871 73.8673 85.9534 73.4828 87.1538 73.4722C88.4196 73.476 90.5632 73.5353 93.5846 73.6502C96.606 73.7652 99.0798 73.8798 101.006 73.9942C102.014 74.0784 102.739 74.2886 103.178 74.6246C103.651 74.9679 103.775 75.8851 103.55 77.3763ZM113.878 74.3012C113.391 73.715 111.826 73.0466 109.183 72.2959C106.581 71.5197 103.38 70.9719 99.5822 70.6524C95.8168 70.3401 92.4727 70.2913 89.5502 70.5061C86.6674 70.6955 84.4036 71.1061 82.7588 71.7381C82.132 71.943 81.5731 71.8375 81.0824 71.4218C80.6314 70.9806 80.3111 70.568 80.1215 70.1841C79.9645 69.8074 79.978 69.4338 80.1619 69.0633C80.3785 68.7 80.6425 68.4327 80.9539 68.2614C83.0528 67.9002 85.977 67.6001 89.7264 67.3612C91.5577 67.2836 93.5217 67.3036 95.6183 67.4211C95.8332 66.4412 96.0439 64.6218 96.2505 61.9628C96.7029 61.617 97.1251 61.4871 97.517 61.5731C97.5823 61.5874 97.6604 61.6216 97.7512 61.6758C98.187 61.874 98.4722 62.0564 98.6068 62.2229C98.7741 62.3965 98.947 62.6227 99.1255 62.9014C99.3438 63.1547 99.4013 63.5952 99.2978 64.2229C99.1474 64.9088 98.999 65.6636 98.8526 66.4873L98.5947 67.6631C99.8645 67.8046 101.212 67.9804 102.638 68.1904C107.471 68.9423 111.365 69.9161 114.321 71.112C115.911 71.6661 116.945 72.6461 117.424 74.052C117.597 74.6717 117.493 75.2994 117.114 75.9351C116.966 76.1423 116.782 76.3586 116.561 76.5841C115.447 77.6063 114.184 78.5273 112.772 79.3473C111.399 80.1417 110.465 80.6557 109.969 80.8892C109.48 81.09 108.983 81.1694 108.479 81.1272C108.014 81.0596 107.551 80.7526 107.089 80.2063C107.762 79.635 108.511 79.0291 109.336 78.3885C109.796 78.01 110.275 77.6188 110.774 77.2148C112.186 76.0866 113.22 75.1154 113.878 74.3012ZM79.5539 63.6412C80.5394 64.6104 80.8937 65.4926 80.6166 66.2876C80.1413 67.5184 79.713 68.691 79.3316 69.8055C78.9503 70.92 78.7051 72.1157 78.5963 73.3926C78.4945 74.6369 78.6118 75.7409 78.9482 76.7047C78.9069 77.5172 78.7106 78.0218 78.3594 78.2187C78.0408 78.4226 77.709 78.4526 77.3641 78.3085C77.0518 78.1715 76.761 77.9366 76.4917 77.6037C75.8637 76.0967 75.6662 74.1877 75.8992 71.8768C76.1321 69.5659 76.7506 66.9801 77.7545 64.1195C78.0857 63.2336 78.6855 63.0742 79.5539 63.6412ZM80.8937 97.5677C82.8589 97.3483 85.5425 97.2864 88.9447 97.3822C89.4168 96.3219 89.8018 95.1911 90.0995 93.9898C89.1093 93.978 87.967 94.0356 86.6726 94.1625C85.3854 94.2567 84.0512 94.4091 82.6699 94.6197C82.2605 94.7695 81.6503 94.4303 80.8392 93.602C80.7917 94.7554 80.8098 96.0773 80.8937 97.5677ZM93.217 82.3501C90.5406 82.3792 88.2636 82.6159 86.3862 83.0599C86.2948 84.101 86.3642 84.955 86.5945 85.6216L86.7643 86.0183C88.32 85.9487 90.0808 85.9583 92.0468 86.0472C94.0525 86.1105 96.2196 86.1408 98.548 86.138C99.2067 85.632 99.7383 85.0811 100.143 84.4852C100.547 83.8893 100.925 83.3388 101.275 82.8337C99.7514 82.6021 98.2259 82.4559 96.6989 82.3948C95.5454 82.3472 94.3848 82.3323 93.217 82.3501ZM122.993 100.639C122.519 98.5838 122.811 96.6282 123.869 94.772C124.959 92.9229 125.985 91.3678 126.946 90.1067C127.907 88.8455 128.915 87.5262 129.97 86.1487C129.074 86.0207 128.26 85.9105 127.527 85.8182C126.827 85.7331 126.241 85.6731 125.769 85.6381C125.076 85.5204 124.606 85.2461 124.358 84.8152C124.117 84.3516 123.992 83.8279 123.984 83.244C123.982 82.6274 124.133 82.0957 124.436 81.6488C125.869 81.8261 126.936 81.9574 127.636 82.0425C128.336 82.1276 129.92 82.3208 132.387 82.6223C133.07 81.8479 133.737 81.0699 134.388 80.2883C135.039 79.5068 135.57 78.9558 135.983 78.6355C136.508 78.2714 136.884 78.1144 137.113 78.1646C137.334 78.2474 137.654 78.5058 138.073 78.9398C138.523 79.3811 138.751 79.8247 138.756 80.2708C138.794 80.724 138.625 81.1833 138.249 81.6485C137.75 82.3608 137.235 82.9153 136.703 83.3121C137.672 83.4218 138.428 83.485 138.972 83.5016C139.556 83.4928 140.015 83.5078 140.348 83.5468C140.715 83.5929 141.073 83.7569 141.421 84.0389C141.81 84.2953 142.02 84.6664 142.05 85.1523C142.12 85.6127 142.058 85.9756 141.863 86.2409C141.708 86.4807 141.394 86.5831 140.923 86.5482L134.443 86.3594C132.446 88.2835 130.895 90.0486 129.79 91.6547C128.684 93.2608 127.812 94.6613 127.174 95.8563C126.575 97.0258 126.126 98.057 125.828 98.95C125.536 99.8104 125.752 100.936 126.474 102.327C126.62 102.598 126.526 102.869 126.193 103.138C125.86 103.407 125.42 103.465 124.872 103.31C124.363 103.13 123.936 102.814 123.591 102.362C123.245 101.909 123.045 101.335 122.993 100.639ZM145.304 104.967C145.027 105.762 144.699 106.632 144.321 107.576C143.943 108.52 143.407 109.481 142.713 110.458C142.027 111.403 141.127 111.993 140.015 112.228C139.348 112.459 138.755 112.431 138.235 112.146C137.364 111.75 136.584 111.168 135.897 110.401C135.209 109.634 134.706 108.805 134.388 107.913C133.96 106.587 134.215 105.428 135.151 104.435C135.944 103.787 136.838 103.299 137.835 102.97C138.838 102.608 139.784 102.353 140.672 102.206C141.593 102.065 142.448 101.911 143.239 101.742C143.868 99.9627 144.356 98.4435 144.7 97.1841C145.078 95.9318 145.399 94.8556 145.665 93.9554C145.938 93.0225 146.204 92.2765 146.464 91.7173C146.892 91.6399 147.262 91.6697 147.574 91.8067C147.926 91.9181 148.255 92.2128 148.561 92.6907C148.874 93.1359 149.027 93.7683 149.018 94.588C148.824 95.1616 148.54 95.9893 148.165 97.0711C147.824 98.1601 147.264 99.6976 146.486 101.684C147.31 101.83 148.121 101.956 148.919 102.063C149.757 102.144 150.679 102.312 151.684 102.567C152.729 102.796 153.782 103.147 154.842 103.619C154.985 104.061 154.961 104.484 154.77 104.887C154.618 105.264 154.247 105.474 153.656 105.515C153.098 105.564 152.22 105.508 151.023 105.349C149.858 105.196 148.837 105.092 147.959 105.036C147.081 104.98 146.196 104.958 145.304 104.967ZM141.676 105.353C141.046 105.42 140.417 105.556 139.79 105.76C139.17 105.933 138.654 106.179 138.241 106.499C137.869 106.794 137.599 107.009 137.433 107.143C136.974 107.83 137.026 108.372 137.589 108.77C137.855 108.965 138.147 109.114 138.467 109.219C138.786 109.323 139.056 109.262 139.277 109.037C140.373 107.942 141.172 106.714 141.676 105.353ZM148.657 85.9337C151.362 87.1775 153.389 88.2381 154.737 89.1157C155.398 89.5346 155.771 90.0957 155.857 90.799C155.942 91.5024 155.864 92.0158 155.622 92.3392C155.387 92.63 155.119 92.7595 154.817 92.7277C153.074 91.9347 151.024 90.9031 148.667 89.633C148.14 89.3806 147.789 88.8756 147.613 88.1181C147.476 87.3351 147.471 86.7349 147.597 86.3175C147.763 85.8746 148.116 85.7466 148.657 85.9337ZM175.695 101.722C177.682 100.31 179.51 98.9988 181.178 97.7901C182.887 96.5559 184.264 95.5058 185.309 94.6397C186.388 93.7808 187.598 92.7112 188.94 91.4308C189.57 91.0555 190.13 90.9216 190.62 91.029C190.718 91.0505 190.816 91.072 190.914 91.0935C191.44 91.3459 191.801 91.733 191.994 92.2547C192.221 92.7836 192.313 93.4543 192.272 94.2668C190.626 95.6858 189.138 96.8487 187.81 97.7554C186.488 98.6295 184.905 99.6857 183.058 100.924C181.212 102.162 179.455 103.54 177.787 105.057C178.545 106.284 179.304 107.426 180.065 108.483C180.859 109.547 181.643 110.575 182.419 111.567C183.201 112.526 184.196 113.685 185.404 115.045C185.438 115.361 185.259 115.63 184.868 115.852C184.477 116.074 183.827 116.069 182.92 115.836C181.757 114.896 180.495 113.627 179.134 112.027C177.773 110.428 176.499 108.745 175.312 106.979C172.843 108.559 170.411 110.285 168.015 112.156C165.652 114.034 163.456 116.086 161.427 118.311C161.115 118.174 160.774 118.013 160.403 117.829C160.058 117.685 159.784 117.454 159.58 117.135C159.409 116.824 159.402 116.463 159.561 116.053C159.752 115.65 159.929 115.312 160.091 115.04C160.998 113.869 161.929 112.824 162.884 111.904C163.839 110.983 165.158 109.886 166.841 108.612C168.524 107.338 170.478 105.764 172.703 103.89C172.604 103.561 172.211 102.858 171.522 101.783C170.841 100.675 169.901 99.1851 168.703 97.3134C168.229 96.6618 167.879 95.9175 167.652 95.0804C167.432 94.2105 167.536 93.3435 167.966 92.4791C168.618 92.3141 169.168 92.3833 169.615 92.6867C170.069 92.9574 170.393 93.3537 170.586 93.8754C171.77 95.8124 172.787 97.4217 173.635 98.7032C174.491 99.9521 175.177 100.958 175.695 101.722ZM220.628 95.1456C220.799 95.1488 220.966 95.1683 221.129 95.2041C221.456 95.2757 221.748 95.4254 222.006 95.6532C222.341 96.0004 222.603 96.366 222.793 96.7499C223.295 97.5791 223.267 98.4115 222.707 99.2472C221.106 102.49 219.416 105.748 217.637 109.021C215.898 112.268 213.949 115.692 211.79 119.292C209.631 122.892 207.694 126.883 205.98 131.265C205.901 131.625 205.806 131.98 205.695 132.332C205.583 132.685 205.343 132.923 204.973 133.047C204.597 133.204 204.134 133.051 203.585 132.589C203.036 132.126 202.795 131.508 202.862 130.735C203.029 129.506 203.346 128.291 203.814 127.093C205.043 124.145 206.473 121.292 208.105 118.535C209.769 115.785 211.575 112.621 213.524 109.043C215.472 105.465 216.93 102.721 217.897 100.811C218.863 98.9006 219.384 97.6969 219.459 97.1998C219.566 96.7099 219.701 96.3287 219.864 96.0563C220.066 95.7583 220.321 95.4548 220.628 95.1456ZM204.739 95.7174C205.273 94.5336 205.945 94.3558 206.756 95.1841C207.261 95.5345 207.611 95.9706 207.804 96.4923C208.031 97.0211 208.09 97.5305 207.982 98.0205C207.875 98.5104 207.69 98.966 207.426 99.3875C206.435 101.875 205.676 104.087 205.149 106.025C204.621 107.964 204.541 109.264 204.909 109.927C205.12 110.213 205.234 110.631 205.25 111.182C205.306 111.708 205.057 112.064 204.502 112.251C203.98 112.444 203.554 112.436 203.224 112.227C202.893 112.018 202.422 111.435 201.81 110.479C201.225 108.776 201.322 106.538 202.101 103.765C202.913 100.999 203.793 98.3168 204.739 95.7174ZM253.505 119.198C253.69 119.444 253.822 119.781 253.899 120.209C253.984 120.604 253.912 120.93 253.684 121.188C253.456 121.447 253.227 121.79 252.996 122.219C251.798 123.154 250.496 124.255 249.088 125.521C247.721 126.761 246.124 128.345 244.298 130.272C242.512 132.174 241.094 133.643 240.045 134.68C239.022 135.756 238.063 136.693 237.17 137.489C236.609 138.017 236.149 138.241 235.79 138.162C235.463 138.091 235.194 137.912 234.983 137.626C234.765 137.373 234.631 136.967 234.583 136.409C235.11 135.566 235.661 134.848 236.236 134.255C236.843 133.67 238.348 132.117 240.749 129.597C243.15 127.077 245.119 125.044 246.657 123.498C248.194 121.953 249.669 120.376 251.083 118.769C251.419 118.33 251.766 118.149 252.126 118.228C252.158 118.235 252.191 118.242 252.224 118.249C252.641 118.375 253.068 118.691 253.505 119.198ZM231.951 117.5C231.982 119.39 232.097 120.819 232.295 121.786C232.526 122.761 232.822 123.442 233.182 123.829C233.549 124.184 233.989 124.52 234.501 124.838C234.619 125.24 234.585 125.626 234.401 125.997C234.25 126.374 233.962 126.516 233.538 126.423C232.986 126.439 232.422 126.281 231.844 125.949C231.299 125.624 230.89 125.227 230.617 124.756C229.654 122.593 229.133 120.596 229.055 118.765C229.01 116.941 229.001 115.655 229.028 114.908C229.194 114.465 229.451 114.231 229.799 114.204C230.147 114.178 230.561 114.32 231.04 114.631C231.527 114.909 231.808 115.347 231.882 115.945C231.996 116.518 232.019 117.036 231.951 117.5ZM238.43 125.186C238.193 124.552 238.064 123.736 238.043 122.739C238.054 121.749 238.122 120.582 238.245 119.24C238.291 118.874 238.506 118.596 238.89 118.406C239.281 118.184 239.68 118.237 240.087 118.566C240.614 118.818 240.978 119.189 241.179 119.678C241.387 120.135 241.408 120.584 241.242 121.027C241.185 121.288 241.119 121.668 241.044 122.165C240.976 122.629 241.019 123.683 241.172 125.325C240.891 125.982 240.548 126.301 240.141 126.28C239.735 126.259 239.367 126.144 239.036 125.935C238.745 125.7 238.543 125.45 238.43 125.186ZM275.796 108.631C275.303 110.098 274.724 111.648 274.057 113.282C273.424 114.923 272.806 116.568 272.205 118.216C271.611 119.831 271.159 121.033 270.85 121.821C271.336 122.099 271.984 122.344 272.794 122.555C274.695 122.938 276.49 123.263 278.177 123.531C279.864 123.798 281.439 124.109 282.902 124.464C283.791 124.933 284.206 125.383 284.146 125.815C284.125 126.221 283.994 126.74 283.753 127.372C282.513 127.408 280.931 127.284 279.008 126.999C277.085 126.714 275.525 126.492 274.328 126.332C273.17 126.147 272.356 126.036 271.884 126.002C271.412 125.967 270.723 125.678 269.814 125.137C269.24 126.038 268.723 127.225 268.263 128.699C267.843 130.147 267.399 131.779 266.933 133.593C266.506 135.383 266.14 137.288 265.833 139.309C265.56 141.337 265.419 143.069 265.413 144.505C264.081 144.487 263.23 144.232 262.859 143.74C262.52 143.255 262.375 142.59 262.424 141.744C262.465 140.932 262.664 139.401 263.02 137.151C263.417 134.876 264.285 131.541 265.626 127.145C267.006 122.724 268.292 118.966 269.484 115.873C270.676 112.78 271.472 110.712 271.871 109.67C272.271 108.628 272.641 107.409 272.982 106.011C273.183 105.405 273.496 105.149 273.921 105.242C274.313 105.328 274.787 105.74 275.344 106.478C275.908 107.184 276.059 107.901 275.796 108.631Z" fill="#5F5F5F"/>
<path d="M3.46094 61.9688L12.4512 104.714" stroke="#5F5F5F" stroke-width="3"/>
<path d="M261 162.914L301.146 142.644" stroke="#5F5F5F" stroke-width="3"/>
</svg>
