<svg width="383" height="53" viewBox="0 0 383 53" fill="none" xmlns="http://www.w3.org/2000/svg">
<path d="M43.3368 20.6434C42.4078 21.627 40.7684 21.9003 39.4022 20.698C37.9813 19.4411 34.9757 18.1296 32.1887 18.4575C28.8551 18.84 27.9808 13.9763 31.9154 13.6484C35.8501 13.3206 41.3149 14.6868 43.2822 16.7634C44.5937 18.1296 44.2658 19.6597 43.3368 20.6434ZM17.1605 31.6276C17.2698 34.5239 17.4884 37.3656 17.5977 39.7155C18.0349 47.5301 11.0399 47.4208 6.55879 45.2349C0.0556915 42.0654 1.85907 38.1853 4.75541 35.0158C6.4495 33.2124 9.23654 31.0811 12.4608 29.2231C12.4061 26.9279 12.3515 24.578 12.3515 22.3921C10.1109 22.8293 7.87034 22.8839 5.79372 22.6107C1.74978 22.1189 2.40555 16.6541 6.94133 17.5831C8.30753 17.8563 10.3295 17.6377 12.4608 17.0913C12.4608 14.5228 12.3515 12.7741 12.2422 10.6975C12.0236 6.65351 18.0349 6.76281 17.7616 10.6428C17.6523 11.8451 17.5977 13.5938 17.4884 15.2332C18.3081 14.8507 19.0185 14.4135 19.6743 13.9763C22.6253 12.009 25.9588 16.3262 22.1334 18.6214C20.494 19.6051 18.7453 20.4248 16.9965 21.0806C16.9419 22.7746 16.9419 24.7966 16.9965 26.8732C18.5267 26.1628 20.1115 25.6163 21.587 25.1791C26.2867 23.813 30.9318 24.2501 33.7188 25.2338C42.7357 28.3487 41.2602 35.7262 38.4732 39.7701C34.9211 44.907 27.2703 46.6558 20.9312 43.049C17.8163 41.2456 19.9475 36.7645 23.2811 38.4039C27.5436 40.4806 31.0411 40.5352 33.6642 37.0377C34.9757 35.289 36.5058 31.409 31.7515 29.6603C29.6202 28.8406 26.7239 28.6766 22.8985 29.551C20.9312 29.9882 19.0185 30.7532 17.1605 31.6276ZM12.5154 34.36C10.9306 35.5076 9.56443 36.7099 8.41682 37.9668C7.26922 39.2237 7.26922 40.6445 8.52612 41.2456C10.876 42.3932 12.4608 42.2293 12.5154 40.098C12.5701 38.6225 12.5701 36.6006 12.5154 34.36ZM71.2619 25.507C71.2073 33.0484 71.2073 40.9177 71.3166 45.3442C71.4258 49.7707 65.196 49.9346 65.4146 45.5628C65.7971 36.7099 65.9611 15.2879 65.7425 7.41858C65.6332 3.70252 71.5351 3.75717 71.4258 7.47323C71.3712 10.151 71.3166 14.9053 71.2619 20.2608C71.5351 20.2608 71.863 20.2608 72.1909 20.3155C75.2512 20.8073 82.3554 22.556 85.3064 25.0699C88.1481 27.4744 85.0332 32.2287 81.9182 29.9335C79.5684 28.1848 74.1582 26.0535 71.2619 25.507ZM127.549 10.9707L127.167 11.5172C129.517 11.3532 132.194 11.1346 134.38 11.0253C138.588 10.8067 142.25 13.7577 140.228 17.6377C133.561 30.3707 126.019 41.4642 110.663 47.5301C106.018 49.3335 103.777 43.978 108.313 42.3932C120.445 38.1853 129.462 27.2558 133.506 17.9656C133.943 16.9273 133.506 15.889 132.194 15.9437C129.899 15.9983 125.91 16.3808 123.451 16.6541C119.735 21.5724 114.926 27.3104 111.155 29.8789C107.493 32.338 104.269 27.6383 107.985 25.3431C113.231 22.1189 120.336 12.0637 122.85 7.74647C124.653 4.68619 130.118 7.30929 127.549 10.9707ZM180.628 43.6849C180.628 44.352 180.314 46.1962 176.39 46.1962C174.272 46.1962 172.113 45.3329 169.681 42.8609C169.602 42.7825 169.563 42.7825 169.524 42.7825C169.406 42.7825 169.328 42.8217 169.249 42.9002C168.582 43.4887 165.011 46.5886 160.146 46.5886C154.849 46.5886 151.239 42.6255 151.239 38.1916C151.239 34.4247 153.358 32.0311 157.242 29.3629C157.321 29.2844 157.399 29.206 157.399 29.1275C157.399 29.0882 157.399 29.049 157.321 28.9705C155.28 26.6555 154.378 24.6543 154.378 22.8101C154.378 19.828 156.889 16.3358 161.284 16.3358C165.168 16.3358 167.876 19.2394 167.876 22.6531C167.876 25.3998 166.502 27.1263 163.285 29.4806C163.206 29.5199 163.167 29.5983 163.167 29.6768C163.167 29.7161 163.206 29.7945 163.285 29.873C165.129 31.8349 167.248 34.15 169.21 36.3474C169.328 36.4651 169.367 36.5043 169.445 36.5043C169.602 36.5043 172.074 33.0906 173.448 28.2642C173.722 27.3225 174.507 26.9301 175.292 26.9301C176.43 26.9301 177.646 27.7149 177.646 29.0098C177.646 29.6768 176.077 34.7386 172.427 39.4472C172.388 39.5257 172.349 39.6041 172.349 39.6434C172.349 39.7219 172.388 39.8003 172.467 39.8788C173.958 41.2914 175.253 41.9584 176.469 41.9584C176.979 41.9584 177.45 41.8407 177.921 41.6445C178.195 41.5268 178.431 41.4876 178.666 41.4876C179.804 41.4876 180.628 42.5863 180.628 43.6849ZM160.774 26.8124C162.735 25.2821 163.795 24.3012 163.795 22.6531C163.795 20.0634 161.323 20.0634 161.166 20.0634C158.812 20.0634 158.459 22.6139 158.459 23.1632C158.459 24.5758 159.361 25.7137 160.381 26.8517C160.42 26.8909 160.46 26.9301 160.499 26.9301C160.617 26.9301 160.734 26.8517 160.774 26.8124ZM166.816 39.5649C166.816 39.5649 160.46 31.9134 159.871 31.9134C159.714 31.9134 155.359 34.6209 155.359 38.1131C155.359 40.5459 157.242 42.547 160.224 42.547C163.677 42.547 166.816 39.7219 166.816 39.5649ZM210.937 10.151C207.057 9.44055 203.122 7.80111 200.827 6.48957C197.712 4.74083 200.007 0.478296 203.833 2.22703C206.182 3.26534 209.297 4.13971 212.303 4.63154C216.784 5.39661 214.981 10.916 210.937 10.151ZM205.964 49.6614C202.357 52.3392 198.75 47.858 201.975 45.5628C211.757 38.6772 214.762 29.0045 212.522 22.6653C210.991 18.4028 206.893 18.1842 203.122 20.4248C202.029 21.0806 199.024 22.6107 197.821 22.9386C193.504 24.0315 192.138 18.6761 196.127 17.2552C197.548 16.7634 199.297 16.1622 200.827 15.5065C206.401 13.0473 214.434 13.2659 217.331 19.5504C221.539 28.6766 216.893 41.6282 205.964 49.6614ZM247.223 35.453C246.075 37.4203 245.092 39.4969 244.217 41.0817C241.758 45.3989 236.239 42.0654 239.244 38.5132C239.408 38.2946 239.572 38.1307 239.682 38.0214C242.086 34.7425 245.638 29.9882 247.824 25.8349C247.933 24.742 247.988 23.7037 248.097 22.6107C246.84 23.0479 245.31 23.7037 243.944 24.578C240.173 26.9825 238.479 21.627 241.43 20.2608C243.398 19.3318 246.021 18.2389 248.589 17.2552C248.972 13.1566 249.409 9.4952 249.682 7.09069C250.119 3.48393 255.256 4.63154 254.71 7.63717C254.327 9.6045 253.945 12.3369 253.562 15.5065C255.311 15.2879 256.841 16.9273 256.021 19.4958C256.677 18.8946 257.333 18.2935 257.934 17.8017C266.404 10.8614 274.328 11.3532 273.618 22.2282C273.399 25.507 272.525 31.2997 272.252 34.4146C271.705 40.6445 274.93 39.9887 278.591 36.1087C281.378 33.1577 284.821 37.147 282.526 39.7155C275.585 47.3115 265.803 46.4372 267.06 34.36C267.333 31.4637 268.317 25.5617 268.481 22.2828C268.645 18.4028 267.825 15.4518 260.175 21.791C257.551 23.9769 254.983 25.9442 252.36 28.8952C252.032 34.9611 252.087 40.9724 252.797 45.1256C253.453 48.8963 247.715 50.1532 247.278 45.5628C247.059 43.1583 247.059 39.5515 247.223 35.453ZM327.774 40.9724C317.118 49.6614 299.63 51.2462 299.139 36.4913C298.92 30.7532 299.521 26.1082 299.794 20.3155C299.958 16.7634 300.341 11.4079 300.231 8.01971C300.122 3.97576 306.297 4.30365 306.188 7.91041C306.079 11.3532 305.696 16.5448 305.423 20.2062C305.041 25.9989 304.221 30.9718 304.439 36.2727C304.767 44.2513 314.495 43.7048 324.003 36.218C327.555 33.431 330.889 38.4586 327.774 40.9724ZM382.365 29.2231C382.802 33.2124 377.392 34.3053 376.627 30.5346C375.753 26.1628 373.512 21.9549 370.561 19.933C367.938 18.1296 370.889 14.0856 374.168 16.5448C378.048 19.4411 381.819 24.578 382.365 29.2231ZM358.484 38.24C354.987 43.9234 350.123 43.4315 347.063 40.1527C343.128 35.8901 341.325 29.551 340.887 22.6653C340.669 19.5504 340.559 18.5668 340.614 16.5994C340.723 13.1566 346.024 12.4462 346.188 16.5448C346.298 18.6761 346.079 18.7853 346.188 21.2991C346.407 27.0372 347.445 32.4473 350.505 35.3983C351.926 36.7645 352.637 36.9284 353.839 35.289C354.495 34.36 355.26 32.9392 355.642 32.0648C357.118 28.8952 361.654 31.1904 360.615 34.0321C360.069 35.5623 359.085 37.2563 358.484 38.24Z" fill="#06C755"/>
</svg>
