<svg width="143" height="93" viewBox="0 0 143 93" fill="none" xmlns="http://www.w3.org/2000/svg">
<rect x="15.1812" y="2.36504" width="128" height="63" rx="5" transform="rotate(11.7375 15.1812 2.36504)" fill="white" stroke="#5F5F5F" stroke-width="4"/>
<path d="M47.898 7.12L6.50989 34.2681L8.8478 23.0159L36.6458 4.78209L47.898 7.12Z" fill="#45CDD6"/>
<path d="M94.9719 85.3316L136.36 58.1834L134.022 69.4357L106.224 87.6695L94.9719 85.3316Z" fill="#45CDD6"/>
<path d="M40.1856 45.9661C37.1551 45.3365 35.2746 42.7288 36.031 39.0882C36.7915 35.428 39.8503 33.8465 42.8414 34.468C44.2189 34.7542 45.1359 35.4785 45.7955 36.3545L44.0534 37.9222C43.6005 37.3354 43.1182 36.9889 42.5279 36.8662C40.8159 36.5105 39.4162 37.6156 38.9828 39.7015C38.5534 41.7678 39.4127 43.3627 40.987 43.6898C41.7938 43.8575 42.6233 43.6193 43.3356 43.254L44.0803 45.4C42.8493 46.0885 41.4056 46.2196 40.1856 45.9661ZM49.812 47.9663C47.0374 47.3898 44.9601 44.7411 45.7165 41.1006C46.477 37.4404 49.4374 35.8385 52.2121 36.415C54.9671 36.9874 57.0443 39.636 56.2838 43.2962C55.5274 46.9368 52.567 48.5387 49.812 47.9663ZM50.2986 45.6245C51.7941 45.9353 52.9028 44.7492 53.3321 42.6829C53.7655 40.597 53.217 39.0872 51.7214 38.7764C50.2062 38.4616 49.1017 39.628 48.6683 41.7139C48.239 43.7802 48.7833 45.3097 50.2986 45.6245ZM60.8118 50.2517C58.4307 49.757 57.7271 47.907 58.3036 45.1323L59.7306 38.2645L62.6233 38.8656L61.27 45.3791C60.9184 47.0715 61.268 47.76 62.3503 47.9849C63.2555 48.1729 63.9276 47.902 64.8799 47.0735L66.4213 39.6547L69.2943 40.2516L67.0088 51.2519L64.6474 50.7613L64.758 49.142L64.699 49.1297C63.5017 50.0511 62.3074 50.5625 60.8118 50.2517ZM69.2334 56.1276L72.398 40.8965L74.7397 41.383L74.7387 42.5734L74.7978 42.5857C75.8706 41.967 77.1387 41.5941 78.3194 41.8394C81.0351 42.4036 82.1908 44.9429 81.4834 48.3473C80.6984 52.1256 77.9856 53.82 75.5652 53.3171C74.6206 53.1208 73.7619 52.5113 73.0949 51.5721L72.8212 53.3833L72.1261 56.7287L69.2334 56.1276ZM75.4302 50.8051C76.7487 51.0791 78.0091 50.1503 78.5038 47.7692C78.9454 45.644 78.5372 44.348 77.0023 44.0291C76.2742 43.8778 75.5274 44.1127 74.6202 44.7248L73.6103 49.5854C74.1723 50.3385 74.8398 50.6825 75.4302 50.8051ZM87.3242 55.7603C84.5495 55.1838 82.4722 52.5352 83.2286 48.8946C83.9891 45.2344 86.9495 43.6325 89.7242 44.209C92.4792 44.7814 94.5565 47.43 93.796 51.0902C93.0396 54.7308 90.0792 56.3327 87.3242 55.7603ZM87.8107 53.4185C89.3063 53.7293 90.4149 52.5432 90.8442 50.4769C91.2776 48.391 90.7291 46.8812 89.2336 46.5704C87.7183 46.2556 86.6138 47.422 86.1804 49.5079C85.7511 51.5742 86.2955 53.1037 87.8107 53.4185ZM95.0949 57.0874L97.3805 46.0872L99.7222 46.5737L99.6558 48.079L99.7148 48.0913C100.856 47.3429 102.161 46.7929 103.656 47.1037C106.018 47.5943 106.717 49.464 106.145 52.219L104.718 59.0868L101.825 58.4858L103.174 51.9919C103.534 50.2602 103.161 49.5873 102.098 49.3665C101.193 49.1784 100.532 49.4928 99.5618 50.1123L97.9877 57.6885L95.0949 57.0874Z" fill="#5F5F5F"/>
</svg>
