<svg width="121" height="122" viewBox="0 0 121 122" fill="none" xmlns="http://www.w3.org/2000/svg">
<g clip-path="url(#clip0_289_4527)">
<path d="M93.7221 0.689453H27.2779C12.2127 0.689453 0 12.9022 0 27.9674V94.4115C0 109.477 12.2127 121.689 27.2779 121.689H93.7221C108.787 121.689 121 109.477 121 94.4115V27.9674C121 12.9022 108.787 0.689453 93.7221 0.689453Z" fill="#06C755"/>
<path d="M100.833 55.4871C100.833 37.4354 82.7357 22.749 60.4906 22.749C38.2455 22.749 20.1484 37.4354 20.1484 55.4871C20.1484 71.6708 34.5021 85.2228 53.8885 87.7865C55.2006 88.0701 56.9892 88.6524 57.4429 89.7755C57.8513 90.7964 57.7076 92.3921 57.5752 93.4244C57.5752 93.4244 57.1026 96.2717 57.0005 96.8767C56.8228 97.8976 56.1913 100.866 60.4944 99.0509C64.8012 97.2359 83.7264 85.3703 92.1888 75.6298C98.0346 69.2168 100.837 62.7131 100.837 55.4871H100.833Z" fill="white"/>
<path d="M87.4085 65.9119H76.0761C75.6488 65.9119 75.3047 65.5678 75.3047 65.1405V65.1292V47.554V47.535C75.3047 47.1078 75.6488 46.7637 76.0761 46.7637H87.4085C87.832 46.7637 88.1798 47.1115 88.1798 47.535V50.3975C88.1798 50.8247 87.8358 51.1688 87.4085 51.1688H79.7061V54.1409H87.4085C87.832 54.1409 88.1798 54.4888 88.1798 54.9123V57.7747C88.1798 58.202 87.8358 58.546 87.4085 58.546H79.7061V61.5181H87.4085C87.832 61.5181 88.1798 61.866 88.1798 62.2895V65.1519C88.1798 65.5792 87.8358 65.9233 87.4085 65.9233V65.9119Z" fill="#06C755"/>
<path d="M45.4865 65.9118C45.91 65.9118 46.2578 65.5677 46.2578 65.1404V62.278C46.2578 61.8545 45.91 61.5066 45.4865 61.5066H37.7841V47.5311C37.7841 47.1076 37.4362 46.7598 37.0127 46.7598H34.1503C33.723 46.7598 33.3789 47.1039 33.3789 47.5311V65.1253V65.1404C33.3789 65.5677 33.723 65.9118 34.1503 65.9118H45.4827H45.4865Z" fill="#06C755"/>
<path d="M52.3058 46.7637H49.4472C49.0211 46.7637 48.6758 47.109 48.6758 47.535V65.1405C48.6758 65.5666 49.0211 65.9119 49.4472 65.9119H52.3058C52.7318 65.9119 53.0772 65.5666 53.0772 65.1405V47.535C53.0772 47.109 52.7318 46.7637 52.3058 46.7637Z" fill="#06C755"/>
<path d="M71.7851 46.7637H68.9227C68.4954 46.7637 68.1513 47.1078 68.1513 47.535V57.9902L60.0973 47.1115C60.0784 47.0851 60.0557 47.0586 60.0368 47.0321C60.0368 47.0321 60.0368 47.0321 60.033 47.0284C60.0179 47.0132 60.0028 46.9943 59.9876 46.9792C59.9838 46.9754 59.9763 46.9716 59.9725 46.9679C59.9574 46.9565 59.946 46.9452 59.9309 46.9338C59.9233 46.93 59.9158 46.9225 59.9082 46.9187C59.8969 46.9074 59.8818 46.8998 59.8666 46.8922C59.8591 46.8885 59.8515 46.8809 59.8439 46.8771C59.8288 46.8695 59.8175 46.862 59.8023 46.8544C59.7948 46.8506 59.7872 46.8469 59.7797 46.8431C59.7645 46.8355 59.7494 46.828 59.7343 46.8242C59.7267 46.8242 59.7192 46.8166 59.7078 46.8166C59.6927 46.8128 59.6776 46.8053 59.6624 46.8015C59.6549 46.8015 59.6435 46.7977 59.636 46.7939C59.6208 46.7939 59.6057 46.7864 59.5906 46.7826C59.5793 46.7826 59.5679 46.7826 59.5566 46.7788C59.5414 46.7788 59.5301 46.775 59.515 46.775C59.4998 46.775 59.4885 46.775 59.4734 46.775C59.4658 46.775 59.4545 46.775 59.4469 46.775H56.6034C56.1799 46.775 55.832 47.1191 55.832 47.5464V65.1519C55.832 65.5754 56.1761 65.9233 56.6034 65.9233H59.4658C59.8931 65.9233 60.2372 65.5792 60.2372 65.1519V54.6967L68.3026 65.5905C68.3593 65.6699 68.4274 65.7342 68.503 65.7834C68.503 65.7834 68.5106 65.7871 68.5106 65.7909C68.5257 65.8023 68.5408 65.8098 68.5597 65.8212C68.5673 65.825 68.5748 65.8287 68.5824 65.8325C68.5938 65.8401 68.6089 65.8439 68.6202 65.8514C68.6316 65.859 68.6467 65.8628 68.658 65.8665C68.6656 65.8665 68.6732 65.8741 68.6807 65.8741C68.6996 65.8817 68.7148 65.8855 68.7337 65.8892C68.7337 65.8892 68.7412 65.8892 68.745 65.8892C68.8093 65.9044 68.8773 65.9157 68.9454 65.9157H71.7889C72.2124 65.9157 72.5603 65.5716 72.5603 65.1443V47.5388C72.5603 47.1153 72.2162 46.7675 71.7889 46.7675L71.7851 46.7637Z" fill="#06C755"/>
</g>
<defs>
<clipPath id="clip0_289_4527">
<rect width="121" height="121" fill="white" transform="translate(0 0.689453)"/>
</clipPath>
</defs>
</svg>
