<svg width="537" height="70" viewBox="0 0 537 70" fill="none" xmlns="http://www.w3.org/2000/svg">
<path d="M66.4342 30.7112H30.1541C27.9297 30.7112 26.7792 29.1005 26.7792 27.5665C26.7792 25.9557 27.9297 24.4217 30.1541 24.4217H43.6537V17.5185H33.6057C31.3046 17.5185 30.1541 15.9844 30.1541 14.3737C30.1541 12.8396 31.3046 11.3056 33.6057 11.3056H43.577V4.63249C43.577 2.40813 45.4178 1.3343 47.2587 1.3343C49.0995 1.3343 50.9404 2.40813 50.9404 4.63249V11.3056H62.2923C64.5167 11.3056 65.5905 12.8396 65.5905 14.3737C65.5905 15.9844 64.5167 17.5185 62.2923 17.5185H50.8637V24.4217H66.4342C68.5819 24.4217 69.6557 25.9557 69.6557 27.5665C69.6557 29.1005 68.5819 30.7112 66.4342 30.7112ZM66.8944 43.7506H58.8407L58.9174 48.4295L59.2242 59.1678C59.2242 59.2445 59.2242 59.3979 59.2242 59.4746C59.2242 63.6932 56.6931 69.0623 47.8723 69.0623C41.0458 69.0623 39.6652 67.3749 39.6652 64.9204C39.6652 63.0796 40.8924 61.3154 43.0401 61.3154C43.2702 61.3154 43.5003 61.3154 43.8071 61.3921C45.3411 61.6989 46.7218 61.929 47.949 61.929C50.2501 61.929 51.7841 61.0086 51.7841 57.7871L51.7074 43.7506H30.1541C27.9297 43.7506 26.7792 42.1399 26.7792 40.6058C26.7792 38.9951 27.9297 37.461 30.1541 37.461H51.7074L51.6307 34.6231C51.6307 32.5521 53.3949 31.4783 55.2357 31.4783C56.9999 31.4783 58.764 32.5521 58.764 34.6231L58.8407 37.461H66.8944C69.0421 37.461 70.1159 38.9951 70.1159 40.6058C70.1159 42.1399 69.0421 43.7506 66.8944 43.7506ZM43.1168 58.2473C42.1963 58.2473 41.2759 57.7871 40.5089 56.79C38.4379 54.1054 35.7533 52.2646 34.1426 51.4208C32.9921 50.8072 32.5319 49.9635 32.5319 49.0431C32.5319 47.4323 33.9892 45.8216 36.0602 45.8216C38.0544 45.8216 46.6451 50.2703 46.6451 54.2588C46.6451 56.4065 44.9576 58.2473 43.1168 58.2473ZM14.2 66.2244L14.2767 44.671C7.68034 47.509 6.2997 47.9692 5.14917 47.9692C2.84811 47.9692 1.46747 46.2051 1.46747 44.3642C1.46747 43.0603 2.23449 41.7564 3.92194 41.1427C7.68034 39.8388 11.1319 38.5349 14.3534 37.3076V24.0382L10.2115 24.1916C8.83088 31.0181 8.06386 34.6231 4.22875 34.6231C2.5413 34.6231 0.93055 33.6259 0.93055 31.9385C0.93055 31.555 1.08395 31.0181 1.31406 30.4811C4.15204 24.0382 4.84236 17.9787 5.14917 11.459C5.22587 9.38803 6.91332 8.3909 8.60077 8.3909C10.2882 8.3909 11.9757 9.46473 11.9757 11.459C11.9757 11.6124 11.9757 11.6891 11.9757 11.8425C11.8223 13.5299 11.5155 15.3708 11.2853 17.2884H14.4301V4.55579C14.4301 2.25472 16.271 1.10419 18.1118 1.10419C19.9527 1.10419 21.7936 2.25472 21.7936 4.55579L21.7168 17.2884H27.086C29.3104 17.2884 30.4609 18.9758 30.4609 20.6633C30.4609 22.3507 29.3104 24.0382 27.1627 24.0382H27.086H21.7168L21.6401 34.1628C26.5491 31.7084 26.8559 31.555 27.4695 31.555C29.0036 31.555 30.2308 33.0123 30.2308 34.6998C30.2308 36.9241 29.3871 37.3843 21.6401 41.2961L21.5634 66.2244C21.5634 68.4487 19.7226 69.5226 17.8817 69.5226C16.0409 69.5226 14.2 68.4487 14.2 66.2244ZM142.369 52.1879L113.069 51.9578L82.0048 52.1879C79.9338 52.1879 78.86 50.6538 78.86 49.0431C78.86 47.509 79.9338 45.975 82.0048 45.975H87.5273C87.4506 40.1456 87.4506 32.9356 87.4506 26.9528C87.4506 24.4217 87.4506 22.1973 87.4506 20.3564C87.604 12.8396 93.9703 12.8396 101.41 12.8396V5.62962C101.41 3.48196 103.175 2.40813 104.939 2.40813C106.626 2.40813 108.39 3.48196 108.39 5.62962V12.8396H115.524V5.62962C115.524 3.48196 117.288 2.40813 119.052 2.40813C120.816 2.40813 122.58 3.48196 122.58 5.62962V12.9163L128.64 12.993C133.779 13.0697 136.847 16.0611 136.924 20.3564C137 23.1177 137 26.646 137 30.4044C137 35.6202 137 41.2194 136.924 45.975H142.369C144.44 45.975 145.438 47.509 145.438 49.1198C145.438 50.6538 144.44 52.1879 142.369 52.1879ZM139.071 69.7527C136.233 69.7527 126.185 65.3806 119.742 60.0882C118.822 59.3212 118.362 58.324 118.362 57.4036C118.362 55.4861 120.049 53.7219 122.043 53.7219C122.734 53.7219 123.501 53.952 124.268 54.5656C128.87 58.4007 135.236 60.9319 140.529 62.0824C142.523 62.5427 143.367 63.9233 143.367 65.3806C143.367 67.4516 141.679 69.7527 139.071 69.7527ZM104.095 60.1649C97.3452 65.534 87.1438 69.676 84.536 69.676C82.2349 69.676 80.7775 67.7584 80.7775 65.9176C80.7775 64.4602 81.698 62.9262 83.7689 62.466C89.2148 61.162 95.1976 58.1706 99.8764 54.2588C100.567 53.7219 101.257 53.4151 101.947 53.4151C103.788 53.4151 105.476 55.4094 105.476 57.4036C105.476 58.4007 105.092 59.3979 104.095 60.1649ZM122.197 28.6403H130.174C130.097 25.7256 130.097 23.1177 129.944 21.3536C129.867 20.0496 129.1 19.0525 127.106 18.9758C125.572 18.9758 123.884 18.8224 122.197 18.8224V28.6403ZM115.677 28.6403V18.7457H108.314V28.6403H115.677ZM122.197 45.975H130.097C130.174 42.6001 130.174 38.5349 130.174 34.6231H122.197V45.975ZM101.717 28.6403V18.8224C100.03 18.8224 98.4191 18.8991 96.9617 18.9758C94.1237 19.1292 94.047 20.3564 94.047 28.6403H101.717ZM115.677 45.975V34.6231H108.314V45.975H115.677ZM101.717 45.975V34.6231H94.047C94.047 38.5349 94.047 42.6768 94.1237 45.975H101.717ZM209.309 22.8121C208.417 21.9208 205.171 20.011 203.834 19.5654C200.523 18.4832 202.561 14.4089 205.616 15.2365C207.335 15.6821 210.773 17.21 212.301 18.5468C214.974 20.9659 211.6 25.1038 209.309 22.8121ZM203.77 28.7324C202.879 27.7775 199.632 25.6767 198.359 25.2311C195.049 24.0216 197.34 20.0747 200.332 21.0296C202.051 21.5389 205.362 23.194 206.826 24.5945C209.436 27.0773 205.998 31.0878 203.77 28.7324ZM210.009 41.7827C211.6 45.9843 205.871 48.7853 204.152 44.8384C202.624 41.3371 199.76 36.4989 195.049 33.8889C191.929 32.1701 194.73 27.3956 198.677 29.6873C203.77 32.6793 208.29 37.1992 210.009 41.7827ZM178.624 30.7059L180.725 30.5149C186.073 30.0693 190.147 33.1886 190.402 40.3185C190.529 44.7747 189.892 50.5041 188.237 54.5147C185.627 60.817 179.388 63.9363 173.277 62.1539C168.248 60.6897 170.285 54.833 174.168 55.7879C177.797 56.6791 180.471 56.1062 182.253 52.3502C183.717 49.2309 184.29 44.7111 184.29 41.3371C184.29 37.4538 182.953 35.6077 180.025 35.8623C179.07 35.926 178.115 36.0533 177.097 36.1806C173.977 46.0479 169.712 54.7057 164.747 61.7719C161.691 66.1008 155.07 62.4085 159.208 57.7613C163.601 52.8595 167.548 45.6023 170.476 37.0719L169.712 37.1992C166.975 37.7085 164.492 38.0904 162.837 38.0904C158.508 38.0904 158.572 32.361 162.646 31.9791C164.619 31.7881 166.593 31.8518 168.885 31.6608L172.068 31.3425C172.831 28.5414 173.659 24.7855 174.041 21.2206C174.487 17.0827 180.98 17.4646 180.471 21.7298C180.216 23.8943 179.388 27.7139 178.624 30.7059ZM283.345 40.4524C283.959 46.0517 276.365 47.5857 275.291 42.2933C274.064 36.1571 270.919 30.251 266.777 27.413C263.096 24.8819 267.238 19.2059 271.84 22.6575C277.286 26.7227 282.578 33.9327 283.345 40.4524ZM249.826 53.1083C244.917 61.0853 238.091 60.395 233.795 55.7929C228.273 49.8101 225.742 40.9126 225.128 31.2482C224.821 26.8761 224.668 25.4955 224.745 22.7342C224.898 17.902 232.338 16.9048 232.568 22.6575C232.722 25.6489 232.415 25.8023 232.568 29.3306C232.875 37.3843 234.332 44.9779 238.628 49.1198C240.622 51.0373 241.619 51.2674 243.307 48.9664C244.227 47.6624 245.301 45.6682 245.838 44.4409C247.909 39.9922 254.275 43.2137 252.818 47.2022C252.051 49.3499 250.67 51.7276 249.826 53.1083ZM338.494 57.6337C333.892 61.4688 327.832 64.2301 319.472 65.6107C313.412 66.6079 312.799 59.2445 318.091 58.4774C325.071 57.4803 330.364 55.4094 334.199 52.0345C338.801 47.9692 339.031 43.7506 336.73 41.1427C333.432 37.3843 327.372 37.461 322.387 38.9184C316.864 40.6058 311.878 43.6739 306.663 46.0517C301.37 48.5062 298.379 41.3728 303.364 39.3019C308.273 37.3076 314.946 34.2395 321.006 32.7055C327.449 31.0948 336.27 31.0181 341.639 36.6173C348.082 43.2904 345.474 51.8043 338.494 57.6337ZM427.315 8.23749C427.315 12.4561 423.787 15.9077 419.568 15.9077C415.35 15.9077 411.898 12.4561 411.898 8.23749C411.898 4.01887 415.35 0.490572 419.568 0.490572C423.787 0.490572 427.315 4.01887 427.315 8.23749ZM409.98 57.8638C407.066 63.9233 397.708 69.0623 389.348 64.3068C382.674 60.4717 382.521 51.7276 390.498 48.1993C394.64 46.3585 399.319 46.2818 403.998 47.2789C403.998 46.0517 403.844 44.9012 403.768 43.4438C403.537 40.299 403.384 34.3929 403.154 28.3335C399.012 28.9471 394.947 29.2539 390.575 28.8704C385.282 28.4102 386.203 20.5866 392.109 21.5837C395.484 22.1973 399.165 21.9672 402.924 21.3536C402.847 17.0582 402.77 13.1464 402.847 10.7687C403.001 5.78302 410.517 6.47334 410.211 10.6153C410.057 12.7629 409.98 15.9844 409.98 19.7428C411.284 19.3593 412.665 19.0525 413.892 18.669C418.878 17.135 422.176 24.1149 415.58 25.7256C413.739 26.1858 411.898 26.646 410.057 27.0295C410.134 33.0123 410.364 38.9951 410.517 42.7535C410.594 44.671 410.901 47.2022 410.978 49.6567C414.199 51.1907 417.267 53.1083 419.645 55.2559C424.017 59.2445 418.571 65.9176 414.736 61.8523C413.355 60.4717 411.745 59.0911 409.98 57.8638ZM372.243 65.3039C370.249 67.1448 366.797 66.838 365.493 62.6961C363.039 54.9491 363.269 45.0546 364.266 35.7736C365.263 26.4926 366.951 17.902 367.334 12.9163C367.794 6.70345 375.848 8.23749 375.081 13.0697C374.544 16.5213 373.24 23.1944 372.243 29.7141C371.246 36.2338 370.479 42.6768 370.786 45.7449C370.939 47.1255 371.016 47.3556 371.783 45.8216C372.013 45.3614 372.55 43.9807 372.703 43.5972C374.467 39.9155 380.297 42.5234 377.535 48.276C376.538 50.347 375.771 52.418 375.158 54.3355C374.544 56.2531 374.084 57.9405 373.777 59.1678C373.163 61.3154 374.161 63.4631 372.243 65.3039ZM423.327 8.23749C423.327 6.16654 421.639 4.47909 419.568 4.47909C417.497 4.47909 415.963 6.16654 415.963 8.23749C415.963 10.3085 417.497 11.8425 419.568 11.8425C421.639 11.8425 423.327 10.3085 423.327 8.23749ZM403.384 54.2588H403.307C399.472 52.8015 395.637 52.418 392.722 53.7986C390.882 54.6423 390.421 57.2502 392.262 58.324C395.944 60.395 402.157 58.7842 403.384 54.2588ZM498.111 40.4524C498.725 46.0517 491.131 47.5857 490.058 42.2933C488.83 36.1571 485.686 30.251 481.544 27.413C477.862 24.8819 482.004 19.2059 486.606 22.6575C492.052 26.7227 497.344 33.9327 498.111 40.4524ZM464.592 53.1083C459.683 61.0853 452.857 60.395 448.562 55.7929C443.039 49.8101 440.508 40.9126 439.894 31.2482C439.587 26.8761 439.434 25.4955 439.511 22.7342C439.664 17.902 447.104 16.9048 447.334 22.6575C447.488 25.6489 447.181 25.8023 447.334 29.3306C447.641 37.3843 449.099 44.9779 453.394 49.1198C455.388 51.0373 456.385 51.2674 458.073 48.9664C458.993 47.6624 460.067 45.6682 460.604 44.4409C462.675 39.9922 469.041 43.2137 467.584 47.2022C466.817 49.3499 465.436 51.7276 464.592 53.1083ZM528.332 47.3556V47.2789C528.332 46.8187 528.332 46.2818 528.332 45.6682C528.332 38.2281 527.565 20.3564 527.105 8.3142C527.105 8.23749 527.105 8.16079 527.105 8.08409C527.105 5.24611 529.329 3.86547 531.553 3.86547C533.855 3.86547 536.156 5.32281 536.156 8.3142C536.156 17.3651 534.928 38.4582 534.928 45.8983C534.928 47.7391 534.928 50.9606 531.553 50.9606C529.943 50.9606 528.332 49.7334 528.332 47.3556ZM536.923 61.6989C536.923 65.3806 533.701 66.7613 531.63 66.7613C528.715 66.7613 526.338 64.3068 526.338 61.6989C526.338 58.324 529.559 56.4065 531.63 56.4065C534.622 56.4065 536.923 58.2473 536.923 61.6989Z" fill="#06C755"/>
</svg>
