<svg width="93" height="99" viewBox="0 0 93 99" fill="none" xmlns="http://www.w3.org/2000/svg">
<circle cx="46.5" cy="46.5" r="44.367" fill="#FFF100" stroke="#06C755" stroke-width="4.26606"/>
<path d="M36.9671 13.0009H46.2004V15.0889H36.9671V13.0009ZM35.8178 16.7172H47.0433V18.8435H35.8178V16.7172ZM36.2392 20.5676H46.8517V22.6939H36.2392V20.5676ZM40.3769 11.2768H42.6565V17.8857H40.3769V11.2768ZM42.6565 18.6137H44.9361V26.7167C44.9361 27.8852 44.7062 28.5174 43.94 28.8622C43.1737 29.207 42.0818 29.2645 40.6259 29.2645C40.5493 28.594 40.2428 27.617 39.9363 26.9849C40.875 27.0232 41.9286 27.0232 42.2542 27.004C42.5607 27.004 42.6565 26.9466 42.6565 26.6784V18.6137ZM36.9097 23.7283L38.6145 22.6748C39.4574 23.5176 40.4727 24.7245 40.9324 25.5673L39.1126 26.755C38.7103 25.9121 37.7334 24.6478 36.9097 23.7283ZM28.9982 21.5062C30.8755 21.0848 33.6723 20.2994 36.3158 19.5523L36.6223 21.5637C34.2086 22.3299 31.5842 23.1153 29.5537 23.7092L28.9982 21.5062ZM32.4463 11.296H34.5534V29.2836H32.4463V11.296ZM29.9177 12.2921L31.8333 12.6178C31.5842 15.1464 31.1245 17.8091 30.4349 19.5331C30.0901 19.2458 29.2664 18.7286 28.8066 18.4987C29.4196 16.9471 29.7453 14.5525 29.9177 12.2921ZM30.4349 14.9165H36.1434V17.1003H30.0134L30.4349 14.9165ZM58.5178 26.1229L60.1652 24.6287C62.1766 25.5673 64.5137 26.8125 65.8163 27.6745L63.7091 29.207C62.5214 28.345 60.4334 27.0615 58.5178 26.1229ZM48.2501 22.6939H66.1994V24.8586H48.2501V22.6939ZM51.2768 18.0198H63.0578V20.1461H51.2768V18.0198ZM54.131 11.2385H56.2765V23.6517H54.131V11.2385ZM58.1155 11.2194H60.2993V23.6517H58.1155V11.2194ZM50.1465 13.499H64.4562V23.4793H62.1383V15.6253H52.3687V23.4793H50.1465V13.499ZM53.9012 24.6478L56.0083 26.0462C54.495 27.2339 52.043 28.5365 50.0699 29.2645C49.6293 28.7856 48.8248 28.0385 48.2692 27.5979C50.2998 26.9466 52.7135 25.6631 53.9012 24.6478Z" fill="#06C755"/>
<path d="M33.1049 77.0918V71.0025H44.3113V46.9523H35.4587V42.2957C40.1664 41.4258 43.4925 41.0165 46.3069 39.072H51.8333V71.0025H62.1187V77.0918H33.1049Z" fill="#06C755"/>
</svg>
