<svg width="105" height="118" viewBox="0 0 105 118" fill="none" xmlns="http://www.w3.org/2000/svg">
<g clip-path="url(#clip0_3_67)">
<path d="M85.234 20.8139L98.8234 24.6525C100.896 25.2381 102.158 27.3738 101.564 29.4762L78.1313 112.434C77.5535 114.48 75.4022 115.713 73.2716 115.111L5.15215 95.8691C3.0792 95.2836 1.81719 93.1478 2.41104 91.0454L25.8442 8.08747C26.422 6.04193 28.5733 4.809 30.7039 5.41082L44.5235 9.31446" fill="white"/>
<path d="M85.234 20.8139L98.8234 24.6525C100.896 25.2381 102.158 27.3738 101.564 29.4762L78.1313 112.434C77.5535 114.48 75.4022 115.713 73.2716 115.111L5.15215 95.8691C3.0792 95.2836 1.81719 93.1478 2.41104 91.0454L25.8442 8.08747C26.422 6.04193 28.5733 4.809 30.7039 5.41082L44.5235 9.31446" stroke="#5F5F5F" stroke-width="4.23333" stroke-linecap="round" stroke-linejoin="round"/>
<path d="M83.1431 27.3406L89.9954 29.2762C92.0683 29.8617 93.3303 31.9975 92.7365 34.0998L73.4282 102.455C72.8504 104.5 70.699 105.733 68.5685 105.132L14.3839 89.8261C12.3109 89.2405 11.0489 87.1048 11.6428 85.0024L30.9671 16.5905C31.5449 14.5449 33.6962 13.312 35.8268 13.9138L42.679 15.8494" stroke="#5F5F5F" stroke-width="4.23333" stroke-linecap="round" stroke-linejoin="round"/>
<path d="M83.3278 16.778L73.3661 13.9641C73.4463 13.68 73.5842 13.4122 73.6805 13.0712C74.8842 8.80969 72.3923 4.42455 68.0737 3.20466C63.755 1.98478 59.3371 4.4181 58.1333 8.67964C58.0531 8.96374 57.9568 9.30466 57.9341 9.60503L47.9724 6.79116C46.5329 6.38453 45.0602 7.19564 44.659 8.61615L42.2836 17.0256C41.8823 18.4461 42.713 19.9078 44.1525 20.3144L79.5078 30.3013C80.9474 30.7079 82.42 29.8968 82.8213 28.4763L85.1967 20.0668C85.5979 18.6463 84.7673 17.1846 83.3278 16.778Z" fill="white" stroke="#5F5F5F" stroke-width="4.23333" stroke-linecap="round" stroke-linejoin="round"/>
<path d="M57.0236 81.501L39.8066 76.6377C38.8843 76.3772 37.9319 76.891 37.6793 77.7854C37.4267 78.6798 37.9695 79.616 38.8917 79.8765L56.1088 84.7398C57.031 85.0003 57.9834 84.4864 58.2361 83.5921C58.4887 82.6977 57.9459 81.7615 57.0236 81.501Z" fill="#45CDD6"/>
<path d="M47.1855 89.7046L51.9845 72.7153C52.2416 71.8052 51.7152 70.8599 50.8089 70.6039C49.9025 70.3479 48.9594 70.8781 48.7024 71.7881L43.9034 88.7775C43.6463 89.6875 44.1727 90.6328 45.079 90.8888C45.9854 91.1448 46.9285 90.6146 47.1855 89.7046Z" fill="#45CDD6"/>
<path d="M48.3672 37.0894L78.6553 45.6448" stroke="#5F5F5F" stroke-width="4.23333" stroke-linecap="round" stroke-linejoin="round"/>
<path d="M45.0293 48.9082L75.3174 57.4637" stroke="#5F5F5F" stroke-width="4.23333" stroke-linecap="round" stroke-linejoin="round"/>
<path d="M41.707 60.6699L71.9952 69.2254" stroke="#5F5F5F" stroke-width="4.23333" stroke-linecap="round" stroke-linejoin="round"/>
<path d="M39.825 36.5168C40.7791 36.7863 41.768 36.2416 42.034 35.3002C42.2999 34.3587 41.7421 33.3771 40.788 33.1076C39.834 32.8381 38.845 33.3828 38.579 34.3242C38.3131 35.2657 38.871 36.2473 39.825 36.5168Z" fill="#5F5F5F"/>
<path d="M36.486 48.3358C37.4401 48.6053 38.4291 48.0605 38.695 47.1191C38.9609 46.1777 38.4031 45.196 37.449 44.9265C36.495 44.6571 35.506 45.2018 35.2401 46.1432C34.9742 47.0846 35.532 48.0663 36.486 48.3358Z" fill="#5F5F5F"/>
<path d="M33.2119 59.927C34.1659 60.1965 35.1549 59.6517 35.4208 58.7103C35.6868 57.7689 35.1289 56.7872 34.1749 56.5177C33.2208 56.2482 32.2319 56.793 31.9659 57.7344C31.7 58.6758 32.2578 59.6575 33.2119 59.927Z" fill="#5F5F5F"/>
</g>
<defs>
<clipPath id="clip0_3_67">
<rect width="127" height="127" fill="white" transform="translate(9.52246 -23) rotate(15.7734)"/>
</clipPath>
</defs>
</svg>
