<svg width="108" height="97" viewBox="0 0 108 97" fill="none" xmlns="http://www.w3.org/2000/svg">
<path d="M68.553 88.542L91.337 83.6408C100.431 81.6844 106.237 72.8461 104.31 63.8902C102.384 54.9344 93.4574 49.2651 84.363 51.2215L61.5791 56.1227" fill="white"/>
<path d="M38.6451 61.1565C29.8071 63.0577 24.1903 71.7638 26.0936 80.6115C27.9969 89.4592 36.6968 95.0855 45.5348 93.1843L68.4896 88.2463L61.5999 56.2186L38.6451 61.1565Z" fill="#45CDD6" stroke="#5F5F5F" stroke-width="4" stroke-linecap="round" stroke-linejoin="round"/>
<path d="M74.8479 86.8784L91.4841 83.2997C100.322 81.3985 105.939 72.6924 104.036 63.8447C102.132 54.9971 93.4324 49.3707 84.5944 51.2719L67.9582 54.8506" stroke="#5F5F5F" stroke-width="4" stroke-linecap="round" stroke-linejoin="round"/>
<path d="M29.959 27.4471L12.8233 43.2427C5.98351 49.5476 5.47244 60.1099 11.6813 66.8455C17.8902 73.5811 28.459 73.93 35.2988 67.6251L52.4345 51.8295" fill="white"/>
<path d="M69.6323 35.8437C76.2793 29.7165 76.6949 19.3641 70.5611 12.7098C64.4272 6.05556 54.0753 5.62862 47.4283 11.7558L30.1641 27.6698L52.3682 51.7576L69.6323 35.8437Z" fill="#45CDD6" stroke="#5F5F5F" stroke-width="4" stroke-linecap="round" stroke-linejoin="round"/>
<path d="M25.3819 32.078L12.8699 43.6115C6.22289 49.7386 5.80728 60.091 11.9411 66.7453C18.075 73.3996 28.4269 73.8265 35.0739 67.6994L47.5859 56.1659" stroke="#5F5F5F" stroke-width="4" stroke-linecap="round" stroke-linejoin="round"/>
</svg>
